<?xml version="1.0" encoding="UTF-8" standalone="no"?>
<!DOCTYPE svg PUBLIC "-//W3C//DTD SVG 1.1//EN"
 "http://www.w3.org/Graphics/SVG/1.1/DTD/svg11.dtd">
<!-- Generated by graphviz version 2.40.1 (20161225.0304)
 -->
<!-- Title: MultiProgressBar::Update Pages: 1 -->
<svg width="478pt" height="156pt"
 viewBox="0.00 0.00 477.92 156.00" xmlns="http://www.w3.org/2000/svg" xmlns:xlink="http://www.w3.org/1999/xlink">
<g id="graph0" class="graph" transform="scale(1 1) rotate(0) translate(4 152)">
<title>MultiProgressBar::Update</title>
<polygon fill="#ffffff" stroke="transparent" points="-4,4 -4,-152 473.915,-152 473.915,4 -4,4"/>
<!-- Node1 -->
<g id="node1" class="node">
<title>Node1</title>
<polygon fill="#bfbfbf" stroke="#000000" points="0,-73.5 0,-91.5 130.4922,-91.5 130.4922,-73.5 0,-73.5"/>
<text text-anchor="middle" x="65.2461" y="-79.5" font-family="Helvetica,sans-Serif" font-size="10.00" fill="#000000">MultiProgressBar::Update</text>
</g>
<!-- Node2 -->
<g id="node2" class="node">
<title>Node2</title>
<g id="a_node2"><a xlink:href="Conti2D_8h_a8affb7fb2246ce1c959f681fc7baaa05.html#a8affb7fb2246ce1c959f681fc7baaa05" target="_top" xlink:title="Calculate downward continuation from plane to plane using Landweber iteration method. ">
<polygon fill="#ffffff" stroke="#000000" points="166.4922,-129.5 166.4922,-147.5 298.1123,-147.5 298.1123,-129.5 166.4922,-129.5"/>
<text text-anchor="middle" x="232.3022" y="-135.5" font-family="Helvetica,sans-Serif" font-size="10.00" fill="#000000">DWC_p2p_LandweberIter</text>
</a>
</g>
</g>
<!-- Node1&#45;&gt;Node2 -->
<g id="edge1" class="edge">
<title>Node1&#45;&gt;Node2</title>
<path fill="none" stroke="#191970" d="M97.0174,-95.2838C116.8347,-103.0426 142.9598,-112.8835 166.4922,-120.5 176.2966,-123.6733 187.0377,-126.7686 196.9466,-129.4725"/>
<polygon fill="#191970" stroke="#191970" points="98.1428,-91.9653 87.5561,-91.5503 95.5734,-98.4767 98.1428,-91.9653"/>
</g>
<!-- Node3 -->
<g id="node3" class="node">
<title>Node3</title>
<g id="a_node3"><a xlink:href="Conti2D_8h_a30671331e25e6cfa739e77aec57b7f18.html#a30671331e25e6cfa739e77aec57b7f18" target="_top" xlink:title="Calculate downward continuation of potential field from surface to a plane. ">
<polygon fill="#ffffff" stroke="#000000" points="166.7729,-55.5 166.7729,-73.5 297.8315,-73.5 297.8315,-55.5 166.7729,-55.5"/>
<text text-anchor="middle" x="232.3022" y="-61.5" font-family="Helvetica,sans-Serif" font-size="10.00" fill="#000000">DWC_s2p_LandweberIter</text>
</a>
</g>
</g>
<!-- Node1&#45;&gt;Node3 -->
<g id="edge2" class="edge">
<title>Node1&#45;&gt;Node3</title>
<path fill="none" stroke="#191970" d="M140.8378,-74.3551C149.4592,-73.4262 158.1944,-72.485 166.6715,-71.5716"/>
<polygon fill="#191970" stroke="#191970" points="140.3591,-70.8864 130.7916,-75.4376 141.1091,-77.8461 140.3591,-70.8864"/>
</g>
<!-- Node7 -->
<g id="node7" class="node">
<title>Node7</title>
<g id="a_node7"><a xlink:href="Conti2D_8h_a6f44a06f2b4926f66481fccf277bea50.html#a6f44a06f2b4926f66481fccf277bea50" target="_top" xlink:title="Ger complete kernel matrix for upward continuation from plane to plane. ">
<polygon fill="#ffffff" stroke="#000000" points="179.5488,-92.5 179.5488,-110.5 285.0557,-110.5 285.0557,-92.5 179.5488,-92.5"/>
<text text-anchor="middle" x="232.3022" y="-98.5" font-family="Helvetica,sans-Serif" font-size="10.00" fill="#000000">Getkernel_p2p_new</text>
</a>
</g>
</g>
<!-- Node1&#45;&gt;Node7 -->
<g id="edge7" class="edge">
<title>Node1&#45;&gt;Node7</title>
<path fill="none" stroke="#191970" d="M141.0732,-91.1241C153.9895,-92.5932 167.1534,-94.0904 179.3156,-95.4736"/>
<polygon fill="#191970" stroke="#191970" points="141.1231,-87.6073 130.7916,-89.9548 140.332,-94.5625 141.1231,-87.6073"/>
</g>
<!-- Node9 -->
<g id="node9" class="node">
<title>Node9</title>
<g id="a_node9"><a xlink:href="Conti2D_8h_a78d8a6b80166f8976a0f18caddbe1dcb.html#a78d8a6b80166f8976a0f18caddbe1dcb" target="_top" xlink:title="Get complete kernel matrix for upward continuation from plane to surface. ">
<polygon fill="#ffffff" stroke="#000000" points="179.8296,-18.5 179.8296,-36.5 284.7749,-36.5 284.7749,-18.5 179.8296,-18.5"/>
<text text-anchor="middle" x="232.3022" y="-24.5" font-family="Helvetica,sans-Serif" font-size="10.00" fill="#000000">Getkernel_p2s_new</text>
</a>
</g>
</g>
<!-- Node1&#45;&gt;Node9 -->
<g id="edge11" class="edge">
<title>Node1&#45;&gt;Node9</title>
<path fill="none" stroke="#191970" d="M99.0674,-69.8963C118.6612,-62.7399 143.8562,-53.7846 166.4922,-46.5 177.1332,-43.0756 188.8327,-39.6042 199.3786,-36.5822"/>
<polygon fill="#191970" stroke="#191970" points="97.8357,-66.62 89.6552,-73.3528 100.2488,-73.1909 97.8357,-66.62"/>
</g>
<!-- Node4 -->
<g id="node4" class="node">
<title>Node4</title>
<g id="a_node4"><a xlink:href="Conti2D_8h_ac80c719a8192b6133df6ae172662e51a.html#ac80c719a8192b6133df6ae172662e51a" target="_top" xlink:title="Downward continuation: plane to plane(space domain) ">
<polygon fill="#ffffff" stroke="#000000" points="334.1123,-74.5 334.1123,-92.5 396.2402,-92.5 396.2402,-74.5 334.1123,-74.5"/>
<text text-anchor="middle" x="365.1763" y="-80.5" font-family="Helvetica,sans-Serif" font-size="10.00" fill="#000000">DWC_p2p</text>
</a>
</g>
</g>
<!-- Node3&#45;&gt;Node4 -->
<g id="edge3" class="edge">
<title>Node3&#45;&gt;Node4</title>
<path fill="none" stroke="#191970" d="M305.65,-74.9882C315.6377,-76.4164 325.4148,-77.8144 334.0652,-79.0513"/>
<polygon fill="#191970" stroke="#191970" points="306.0208,-71.5057 295.626,-73.5548 305.0299,-78.4352 306.0208,-71.5057"/>
</g>
<!-- Node6 -->
<g id="node6" class="node">
<title>Node6</title>
<g id="a_node6"><a xlink:href="Conti2D_8h_a07c876abe68bb0cbc0d3b412166f5e6a.html#a07c876abe68bb0cbc0d3b412166f5e6a" target="_top" xlink:title="Downward continuation: uneven surface to plane(space domain) ">
<polygon fill="#ffffff" stroke="#000000" points="334.3931,-37.5 334.3931,-55.5 395.9595,-55.5 395.9595,-37.5 334.3931,-37.5"/>
<text text-anchor="middle" x="365.1763" y="-43.5" font-family="Helvetica,sans-Serif" font-size="10.00" fill="#000000">DWC_s2p</text>
</a>
</g>
</g>
<!-- Node3&#45;&gt;Node6 -->
<g id="edge5" class="edge">
<title>Node3&#45;&gt;Node6</title>
<path fill="none" stroke="#191970" d="M308.0418,-54.2398C317.2757,-52.9889 326.2651,-51.7712 334.2773,-50.6858"/>
<polygon fill="#191970" stroke="#191970" points="307.4003,-50.7947 297.9607,-55.6055 308.3401,-57.7313 307.4003,-50.7947"/>
</g>
<!-- Node5 -->
<g id="node5" class="node">
<title>Node5</title>
<g id="a_node5"><a xlink:href="main_8cpp_a0ddf1224851353fc92bfbff6f499fa97.html#a0ddf1224851353fc92bfbff6f499fa97" target="_top" xlink:title="main">
<polygon fill="#ffffff" stroke="#000000" points="432.2402,-55.5 432.2402,-73.5 469.915,-73.5 469.915,-55.5 432.2402,-55.5"/>
<text text-anchor="middle" x="451.0776" y="-61.5" font-family="Helvetica,sans-Serif" font-size="10.00" fill="#000000">main</text>
</a>
</g>
</g>
<!-- Node4&#45;&gt;Node5 -->
<g id="edge4" class="edge">
<title>Node4&#45;&gt;Node5</title>
<path fill="none" stroke="#191970" d="M406.6169,-74.334C415.5279,-72.363 424.5256,-70.3729 432.0733,-68.7035"/>
<polygon fill="#191970" stroke="#191970" points="405.6831,-70.9559 396.675,-76.533 407.1949,-77.7907 405.6831,-70.9559"/>
</g>
<!-- Node6&#45;&gt;Node5 -->
<g id="edge6" class="edge">
<title>Node6&#45;&gt;Node5</title>
<path fill="none" stroke="#191970" d="M406.2622,-55.1093C415.3019,-57.0035 424.4519,-58.9208 432.1066,-60.5248"/>
<polygon fill="#191970" stroke="#191970" points="406.6939,-51.6238 396.1886,-52.9984 405.2582,-58.475 406.6939,-51.6238"/>
</g>
<!-- Node7&#45;&gt;Node4 -->
<g id="edge8" class="edge">
<title>Node7&#45;&gt;Node4</title>
<path fill="none" stroke="#191970" d="M295.3624,-92.9574C308.7465,-91.1443 322.3138,-89.3064 333.8841,-87.739"/>
<polygon fill="#191970" stroke="#191970" points="294.639,-89.5234 285.1994,-94.3342 295.5787,-96.46 294.639,-89.5234"/>
</g>
<!-- Node8 -->
<g id="node8" class="node">
<title>Node8</title>
<g id="a_node8"><a xlink:href="Conti2D_8h_a05f1b014599cdda496e9bf781d4737d4.html#a05f1b014599cdda496e9bf781d4737d4" target="_top" xlink:title="Upward continuation: plane to plane(space domain) ">
<polygon fill="#ffffff" stroke="#000000" points="334.1123,-111.5 334.1123,-129.5 396.2402,-129.5 396.2402,-111.5 334.1123,-111.5"/>
<text text-anchor="middle" x="365.1763" y="-117.5" font-family="Helvetica,sans-Serif" font-size="10.00" fill="#000000">UWC_p2p</text>
</a>
</g>
</g>
<!-- Node7&#45;&gt;Node8 -->
<g id="edge9" class="edge">
<title>Node7&#45;&gt;Node8</title>
<path fill="none" stroke="#191970" d="M295.3624,-110.5171C308.7465,-112.431 322.3138,-114.371 333.8841,-116.0255"/>
<polygon fill="#191970" stroke="#191970" points="295.5941,-107.0147 285.1994,-109.0639 294.6032,-113.9443 295.5941,-107.0147"/>
</g>
<!-- Node8&#45;&gt;Node5 -->
<g id="edge10" class="edge">
<title>Node8&#45;&gt;Node5</title>
<path fill="none" stroke="#191970" d="M390.2791,-106.1887C392.308,-104.9609 394.3162,-103.7213 396.2402,-102.5 411.1045,-93.065 427.6498,-81.4375 438.6396,-73.5474"/>
<polygon fill="#191970" stroke="#191970" points="388.2797,-103.3046 381.4474,-111.4021 391.8382,-109.3327 388.2797,-103.3046"/>
</g>
<!-- Node9&#45;&gt;Node6 -->
<g id="edge12" class="edge">
<title>Node9&#45;&gt;Node6</title>
<path fill="none" stroke="#191970" d="M295.0989,-36.4795C308.6443,-38.4163 322.392,-40.3822 334.0809,-42.0536"/>
<polygon fill="#191970" stroke="#191970" points="295.2124,-32.9602 284.8176,-35.0093 294.2214,-39.8897 295.2124,-32.9602"/>
</g>
<!-- Node10 -->
<g id="node10" class="node">
<title>Node10</title>
<g id="a_node10"><a xlink:href="Conti2D_8h_a9fcb7711c4e230ba259de4ed9be39ccd.html#a9fcb7711c4e230ba259de4ed9be39ccd" target="_top" xlink:title="Upward continuation: plane to surface(space domain) ">
<polygon fill="#ffffff" stroke="#000000" points="334.3931,-.5 334.3931,-18.5 395.9595,-18.5 395.9595,-.5 334.3931,-.5"/>
<text text-anchor="middle" x="365.1763" y="-6.5" font-family="Helvetica,sans-Serif" font-size="10.00" fill="#000000">UWC_p2s</text>
</a>
</g>
</g>
<!-- Node9&#45;&gt;Node10 -->
<g id="edge13" class="edge">
<title>Node9&#45;&gt;Node10</title>
<path fill="none" stroke="#191970" d="M295.0989,-18.9931C308.6443,-17.1582 322.392,-15.2958 334.0809,-13.7124"/>
<polygon fill="#191970" stroke="#191970" points="294.2572,-15.5751 284.8176,-20.3859 295.1969,-22.5118 294.2572,-15.5751"/>
</g>
<!-- Node10&#45;&gt;Node5 -->
<g id="edge14" class="edge">
<title>Node10&#45;&gt;Node5</title>
<path fill="none" stroke="#191970" d="M389.053,-23.9974C391.4872,-25.5073 393.9175,-27.0278 396.2402,-28.5 410.2841,-37.4015 426.1454,-47.859 437.1833,-55.2024"/>
<polygon fill="#191970" stroke="#191970" points="390.7564,-20.9361 380.4043,-18.6808 387.0905,-26.8995 390.7564,-20.9361"/>
</g>
</g>
</svg>
