<?xml version="1.0" encoding="UTF-8" standalone="no"?>
<!DOCTYPE svg PUBLIC "-//W3C//DTD SVG 1.1//EN"
 "http://www.w3.org/Graphics/SVG/1.1/DTD/svg11.dtd">
<!-- Generated by graphviz version 2.40.1 (20161225.0304)
 -->
<!-- Title: UWC_p2p_f Pages: 1 -->
<svg width="259pt" height="56pt"
 viewBox="0.00 0.00 258.61 56.26" xmlns="http://www.w3.org/2000/svg" xmlns:xlink="http://www.w3.org/1999/xlink">
<g id="graph0" class="graph" transform="scale(1 1) rotate(0) translate(4 52.264)">
<title>UWC_p2p_f</title>
<polygon fill="#ffffff" stroke="transparent" points="-4,4 -4,-52.264 254.6104,-52.264 254.6104,4 -4,4"/>
<!-- Node8 -->
<g id="node1" class="node">
<title>Node8</title>
<polygon fill="#bfbfbf" stroke="#000000" points="0,-28.5 0,-46.5 70.4678,-46.5 70.4678,-28.5 0,-28.5"/>
<text text-anchor="middle" x="35.2339" y="-34.5" font-family="Helvetica,sans-Serif" font-size="10.00" fill="#000000">UWC_p2p_f</text>
</g>
<!-- Node9 -->
<g id="node2" class="node">
<title>Node9</title>
<g id="a_node2"><a xlink:href="main_8cpp_a0ddf1224851353fc92bfbff6f499fa97.html#a0ddf1224851353fc92bfbff6f499fa97" target="_top" xlink:title="main">
<polygon fill="#ffffff" stroke="#000000" points="212.9355,-28.5 212.9355,-46.5 250.6104,-46.5 250.6104,-28.5 212.9355,-28.5"/>
<text text-anchor="middle" x="231.7729" y="-34.5" font-family="Helvetica,sans-Serif" font-size="10.00" fill="#000000">main</text>
</a>
</g>
</g>
<!-- Node8&#45;&gt;Node9 -->
<g id="edge1" class="edge">
<title>Node8&#45;&gt;Node9</title>
<path fill="none" stroke="#191970" d="M80.8199,-44.1233C89.3263,-45.1136 98.1539,-45.9769 106.4678,-46.5 137.725,-48.4668 145.7201,-49.0445 176.9355,-46.5 188.9554,-45.5202 202.3113,-43.3515 212.8329,-41.3885"/>
<polygon fill="#191970" stroke="#191970" points="81.0132,-40.6206 70.6592,-42.8668 80.1541,-47.5677 81.0132,-40.6206"/>
</g>
<!-- Node10 -->
<g id="node3" class="node">
<title>Node10</title>
<g id="a_node3"><a xlink:href="Conti2D_8h_af82757cb7e0f4f398e774b4e89b9ea72.html#af82757cb7e0f4f398e774b4e89b9ea72" target="_top" xlink:title="Upward continuation: plane to plane(frequency domain) ">
<polygon fill="#ffffff" stroke="#000000" points="106.4678,-.5 106.4678,-18.5 176.9355,-18.5 176.9355,-.5 106.4678,-.5"/>
<text text-anchor="middle" x="141.7017" y="-6.5" font-family="Helvetica,sans-Serif" font-size="10.00" fill="#000000">UWC_p2p_f</text>
</a>
</g>
</g>
<!-- Node8&#45;&gt;Node10 -->
<g id="edge2" class="edge">
<title>Node8&#45;&gt;Node10</title>
<path fill="none" stroke="#191970" d="M79.3579,-25.8958C88.6245,-23.4588 98.2706,-20.9219 107.1277,-18.5926"/>
<polygon fill="#191970" stroke="#191970" points="78.2879,-22.5581 69.507,-28.4865 80.0684,-29.3279 78.2879,-22.5581"/>
</g>
<!-- Node10&#45;&gt;Node9 -->
<g id="edge4" class="edge">
<title>Node10&#45;&gt;Node9</title>
<path fill="none" stroke="#191970" d="M180.3474,-21.5136C191.5696,-25.0022 203.332,-28.6587 212.7709,-31.5929"/>
<polygon fill="#191970" stroke="#191970" points="181.2848,-18.1399 170.6966,-18.5135 179.2068,-24.8243 181.2848,-18.1399"/>
</g>
<!-- Node10&#45;&gt;Node10 -->
<g id="edge3" class="edge">
<title>Node10&#45;&gt;Node10</title>
<path fill="none" stroke="#191970" d="M124.9689,-28.2336C125.9068,-33.2195 131.4844,-37 141.7017,-37 158.0493,-37 162.5194,-27.322 155.1118,-18.5134"/>
<polygon fill="#191970" stroke="#191970" points="128.3688,-29.108 128.2915,-18.5134 121.745,-26.8438 128.3688,-29.108"/>
</g>
</g>
</svg>
