<?xml version="1.0" encoding="UTF-8" standalone="no"?>
<!DOCTYPE svg PUBLIC "-//W3C//DTD SVG 1.1//EN"
 "http://www.w3.org/Graphics/SVG/1.1/DTD/svg11.dtd">
<!-- Generated by graphviz version 2.40.1 (20161225.0304)
 -->
<!-- Title: SaveGrd2netCDF Pages: 1 -->
<svg width="390pt" height="187pt"
 viewBox="0.00 0.00 390.09 187.00" xmlns="http://www.w3.org/2000/svg" xmlns:xlink="http://www.w3.org/1999/xlink">
<g id="graph0" class="graph" transform="scale(1 1) rotate(0) translate(4 183)">
<title>SaveGrd2netCDF</title>
<polygon fill="#ffffff" stroke="transparent" points="-4,4 -4,-183 386.0879,-183 386.0879,4 -4,4"/>
<!-- Node1 -->
<g id="node1" class="node">
<title>Node1</title>
<polygon fill="#bfbfbf" stroke="#000000" points="0,-76.5 0,-94.5 95.4775,-94.5 95.4775,-76.5 0,-76.5"/>
<text text-anchor="middle" x="47.7388" y="-82.5" font-family="Helvetica,sans-Serif" font-size="10.00" fill="#000000">SaveGrd2netCDF</text>
</g>
<!-- Node2 -->
<g id="node2" class="node">
<title>Node2</title>
<g id="a_node2"><a xlink:href="Conti2D_8h_afb187c363388d28caa8a055176269f12.html#afb187c363388d28caa8a055176269f12" target="_top" xlink:title="DWC_p2p_f">
<polygon fill="#ffffff" stroke="#000000" points="237.9453,-114.5 237.9453,-132.5 308.4131,-132.5 308.4131,-114.5 237.9453,-114.5"/>
<text text-anchor="middle" x="273.1792" y="-120.5" font-family="Helvetica,sans-Serif" font-size="10.00" fill="#000000">DWC_p2p_f</text>
</a>
</g>
</g>
<!-- Node1&#45;&gt;Node2 -->
<g id="edge1" class="edge">
<title>Node1&#45;&gt;Node2</title>
<path fill="none" stroke="#191970" d="M71.9649,-99.3848C88.221,-107.8887 110.4336,-117.9804 131.4775,-122.5 167.0761,-130.1455 208.8746,-129.2851 237.8063,-127.1984"/>
<polygon fill="#191970" stroke="#191970" points="73.5976,-96.2887 63.1358,-94.6154 70.2707,-102.4476 73.5976,-96.2887"/>
</g>
<!-- Node4 -->
<g id="node4" class="node">
<title>Node4</title>
<g id="a_node4"><a xlink:href="Conti2D_8h_ac96429563a5015babafa3274c3f3ec73.html#ac96429563a5015babafa3274c3f3ec73" target="_top" xlink:title="downward continuation from surface to plane ">
<polygon fill="#ffffff" stroke="#000000" points="242.396,-160.5 242.396,-178.5 303.9624,-178.5 303.9624,-160.5 242.396,-160.5"/>
<text text-anchor="middle" x="273.1792" y="-166.5" font-family="Helvetica,sans-Serif" font-size="10.00" fill="#000000">DWC_s2p</text>
</a>
</g>
</g>
<!-- Node1&#45;&gt;Node4 -->
<g id="edge3" class="edge">
<title>Node1&#45;&gt;Node4</title>
<path fill="none" stroke="#191970" d="M67.0704,-100.8939C83.3516,-113.1134 107.7248,-129.7171 131.4775,-139.5 167.9822,-154.535 213.0076,-162.4121 242.3726,-166.256"/>
<polygon fill="#191970" stroke="#191970" points="68.9755,-97.9439 58.9131,-94.6276 64.7112,-103.4951 68.9755,-97.9439"/>
</g>
<!-- Node5 -->
<g id="node5" class="node">
<title>Node5</title>
<g id="a_node5"><a xlink:href="Conti2D_8h_a7b6bfe9f5b32bc1a62005196d84edfde.html#a7b6bfe9f5b32bc1a62005196d84edfde" target="_top" xlink:title="UWC_p2p">
<polygon fill="#ffffff" stroke="#000000" points="242.1152,-38.5 242.1152,-56.5 304.2432,-56.5 304.2432,-38.5 242.1152,-38.5"/>
<text text-anchor="middle" x="273.1792" y="-44.5" font-family="Helvetica,sans-Serif" font-size="10.00" fill="#000000">UWC_p2p</text>
</a>
</g>
</g>
<!-- Node1&#45;&gt;Node5 -->
<g id="edge5" class="edge">
<title>Node1&#45;&gt;Node5</title>
<path fill="none" stroke="#191970" d="M94.1769,-74.183C106.2759,-71.4491 119.3278,-68.6884 131.4775,-66.5 169.341,-59.6802 213.301,-54.1535 242.0944,-50.8541"/>
<polygon fill="#191970" stroke="#191970" points="93.2394,-70.8071 84.2785,-76.4599 94.8087,-77.629 93.2394,-70.8071"/>
</g>
<!-- Node6 -->
<g id="node6" class="node">
<title>Node6</title>
<g id="a_node6"><a xlink:href="Conti2D_8h_af82757cb7e0f4f398e774b4e89b9ea72.html#af82757cb7e0f4f398e774b4e89b9ea72" target="_top" xlink:title="UWC_p2p_f">
<polygon fill="#ffffff" stroke="#000000" points="131.4775,-76.5 131.4775,-94.5 201.9453,-94.5 201.9453,-76.5 131.4775,-76.5"/>
<text text-anchor="middle" x="166.7114" y="-82.5" font-family="Helvetica,sans-Serif" font-size="10.00" fill="#000000">UWC_p2p_f</text>
</a>
</g>
</g>
<!-- Node1&#45;&gt;Node6 -->
<g id="edge7" class="edge">
<title>Node1&#45;&gt;Node6</title>
<path fill="none" stroke="#191970" d="M105.9043,-85.5C114.5755,-85.5 123.284,-85.5 131.2926,-85.5"/>
<polygon fill="#191970" stroke="#191970" points="105.7866,-82.0001 95.7866,-85.5 105.7865,-89.0001 105.7866,-82.0001"/>
</g>
<!-- Node7 -->
<g id="node7" class="node">
<title>Node7</title>
<g id="a_node7"><a xlink:href="Conti2D_8h_af8adb87017663774bfd342b39facc828.html#af8adb87017663774bfd342b39facc828" target="_top" xlink:title="Upward continuation from plane to surface. ">
<polygon fill="#ffffff" stroke="#000000" points="135.9282,-.5 135.9282,-18.5 197.4946,-18.5 197.4946,-.5 135.9282,-.5"/>
<text text-anchor="middle" x="166.7114" y="-6.5" font-family="Helvetica,sans-Serif" font-size="10.00" fill="#000000">UWC_p2s</text>
</a>
</g>
</g>
<!-- Node1&#45;&gt;Node7 -->
<g id="edge11" class="edge">
<title>Node1&#45;&gt;Node7</title>
<path fill="none" stroke="#191970" d="M70.4211,-71.0105C94.6579,-55.5279 132.3218,-31.4681 152.6149,-18.5049"/>
<polygon fill="#191970" stroke="#191970" points="68.3968,-68.1504 61.8537,-76.4834 72.1652,-74.0495 68.3968,-68.1504"/>
</g>
<!-- Node3 -->
<g id="node3" class="node">
<title>Node3</title>
<g id="a_node3"><a xlink:href="main_8cpp_a0ddf1224851353fc92bfbff6f499fa97.html#a0ddf1224851353fc92bfbff6f499fa97" target="_top" xlink:title="main">
<polygon fill="#ffffff" stroke="#000000" points="344.4131,-76.5 344.4131,-94.5 382.0879,-94.5 382.0879,-76.5 344.4131,-76.5"/>
<text text-anchor="middle" x="363.2505" y="-82.5" font-family="Helvetica,sans-Serif" font-size="10.00" fill="#000000">main</text>
</a>
</g>
</g>
<!-- Node2&#45;&gt;Node3 -->
<g id="edge2" class="edge">
<title>Node2&#45;&gt;Node3</title>
<path fill="none" stroke="#191970" d="M303.854,-110.5587C317.2314,-104.9149 332.4969,-98.4746 344.202,-93.5363"/>
<polygon fill="#191970" stroke="#191970" points="302.3779,-107.3826 294.5248,-114.4945 305.099,-113.8321 302.3779,-107.3826"/>
</g>
<!-- Node4&#45;&gt;Node3 -->
<g id="edge4" class="edge">
<title>Node4&#45;&gt;Node3</title>
<path fill="none" stroke="#191970" d="M294.1854,-154.2299C298.9736,-150.5244 303.9597,-146.4798 308.4131,-142.5 326.0244,-126.7617 344.725,-106.441 355.1011,-94.8001"/>
<polygon fill="#191970" stroke="#191970" points="291.8172,-151.632 285.9384,-160.4463 296.0307,-157.2219 291.8172,-151.632"/>
</g>
<!-- Node5&#45;&gt;Node3 -->
<g id="edge6" class="edge">
<title>Node5&#45;&gt;Node3</title>
<path fill="none" stroke="#191970" d="M303.854,-60.4413C317.2314,-66.0851 332.4969,-72.5254 344.202,-77.4637"/>
<polygon fill="#191970" stroke="#191970" points="305.099,-57.1679 294.5248,-56.5055 302.3779,-63.6174 305.099,-57.1679"/>
</g>
<!-- Node6&#45;&gt;Node2 -->
<g id="edge8" class="edge">
<title>Node6&#45;&gt;Node2</title>
<path fill="none" stroke="#191970" d="M201.4717,-97.9065C216.5592,-103.2915 233.9069,-109.4831 247.76,-114.4275"/>
<polygon fill="#191970" stroke="#191970" points="202.5374,-94.5707 191.9428,-94.5055 200.1844,-101.1633 202.5374,-94.5707"/>
</g>
<!-- Node6&#45;&gt;Node3 -->
<g id="edge9" class="edge">
<title>Node6&#45;&gt;Node3</title>
<path fill="none" stroke="#191970" d="M212.5218,-85.5C254.3489,-85.5 314.114,-85.5 344.2807,-85.5"/>
<polygon fill="#191970" stroke="#191970" points="212.3032,-82.0001 202.3032,-85.5 212.3031,-89.0001 212.3032,-82.0001"/>
</g>
<!-- Node6&#45;&gt;Node6 -->
<g id="edge10" class="edge">
<title>Node6&#45;&gt;Node6</title>
<path fill="none" stroke="#191970" d="M146.9313,-103.8575C147.7835,-109.0281 154.3769,-113 166.7114,-113 185.9653,-113 191.2301,-103.322 182.5056,-94.5134"/>
<polygon fill="#191970" stroke="#191970" points="150.2128,-105.0848 150.9172,-94.5134 143.7742,-102.3382 150.2128,-105.0848"/>
</g>
<!-- Node7&#45;&gt;Node3 -->
<g id="edge12" class="edge">
<title>Node7&#45;&gt;Node3</title>
<path fill="none" stroke="#191970" d="M208.0827,-7.9842C237.5373,-8.5403 277.2568,-12.7124 308.4131,-28.5 330.4614,-39.6724 348.6151,-63.3135 357.4506,-76.3658"/>
<polygon fill="#191970" stroke="#191970" points="207.7491,-4.4824 197.7303,-7.9281 207.7111,-11.4823 207.7491,-4.4824"/>
</g>
</g>
</svg>
