<?xml version="1.0" encoding="UTF-8" standalone="no"?>
<!DOCTYPE svg PUBLIC "-//W3C//DTD SVG 1.1//EN"
 "http://www.w3.org/Graphics/SVG/1.1/DTD/svg11.dtd">
<!-- Generated by graphviz version 2.40.1 (20161225.0304)
 -->
<!-- Title: Getkernel_p2s_new Pages: 1 -->
<svg width="279pt" height="64pt"
 viewBox="0.00 0.00 279.44 64.00" xmlns="http://www.w3.org/2000/svg" xmlns:xlink="http://www.w3.org/1999/xlink">
<g id="graph0" class="graph" transform="scale(1 1) rotate(0) translate(4 60)">
<title>Getkernel_p2s_new</title>
<polygon fill="#ffffff" stroke="transparent" points="-4,4 -4,-60 275.4375,-60 275.4375,4 -4,4"/>
<!-- Node0 -->
<g id="node1" class="node">
<title>Node0</title>
<polygon fill="#bfbfbf" stroke="#000000" points="0,-18.5 0,-36.5 104.9453,-36.5 104.9453,-18.5 0,-18.5"/>
<text text-anchor="middle" x="52.4727" y="-24.5" font-family="Helvetica,sans-Serif" font-size="10.00" fill="#000000">Getkernel_p2s_new</text>
</g>
<!-- Node1 -->
<g id="node2" class="node">
<title>Node1</title>
<g id="a_node2"><a xlink:href="Conti2D_8cpp_a4bb34ae88cf16e429505f9eb746384cd.html#a4bb34ae88cf16e429505f9eb746384cd" target="_top" xlink:title="Get the kernel vector for a calculation point . ">
<polygon fill="#ffffff" stroke="#000000" points="177.6299,-37.5 177.6299,-55.5 234.7529,-55.5 234.7529,-37.5 177.6299,-37.5"/>
<text text-anchor="middle" x="206.1914" y="-43.5" font-family="Helvetica,sans-Serif" font-size="10.00" fill="#000000">GetPmnij</text>
</a>
</g>
</g>
<!-- Node0&#45;&gt;Node1 -->
<g id="edge1" class="edge">
<title>Node0&#45;&gt;Node1</title>
<path fill="none" stroke="#191970" d="M105.3739,-34.0387C125.7448,-36.5566 148.6106,-39.3829 167.4097,-41.7065"/>
<polygon fill="#191970" stroke="#191970" points="167.0398,-45.1873 177.3937,-42.9405 167.8985,-38.2402 167.0398,-45.1873"/>
</g>
<!-- Node2 -->
<g id="node3" class="node">
<title>Node2</title>
<g id="a_node3"><a xlink:href="classMultiProgressBar_a58eef55ad6d5c7d769b3a402a2ef7b85.html#a58eef55ad6d5c7d769b3a402a2ef7b85" target="_top" xlink:title="MultiProgressBar::Update">
<polygon fill="#ffffff" stroke="#000000" points="140.9453,-.5 140.9453,-18.5 271.4375,-18.5 271.4375,-.5 140.9453,-.5"/>
<text text-anchor="middle" x="206.1914" y="-6.5" font-family="Helvetica,sans-Serif" font-size="10.00" fill="#000000">MultiProgressBar::Update</text>
</a>
</g>
</g>
<!-- Node0&#45;&gt;Node2 -->
<g id="edge2" class="edge">
<title>Node0&#45;&gt;Node2</title>
<path fill="none" stroke="#191970" d="M105.3739,-21.3054C113.5511,-20.3479 122.1302,-19.3433 130.6869,-18.3413"/>
<polygon fill="#191970" stroke="#191970" points="131.171,-21.8087 140.6961,-17.1693 130.3568,-14.8562 131.171,-21.8087"/>
</g>
</g>
</svg>
