<?xml version="1.0" encoding="UTF-8" standalone="no"?>
<!DOCTYPE svg PUBLIC "-//W3C//DTD SVG 1.1//EN"
 "http://www.w3.org/Graphics/SVG/1.1/DTD/svg11.dtd">
<!-- Generated by graphviz version 2.40.1 (20161225.0304)
 -->
<!-- Title: DWC_s2p_LandweberIter Pages: 1 -->
<svg width="306pt" height="212pt"
 viewBox="0.00 0.00 305.55 212.00" xmlns="http://www.w3.org/2000/svg" xmlns:xlink="http://www.w3.org/1999/xlink">
<g id="graph0" class="graph" transform="scale(1 1) rotate(0) translate(4 208)">
<title>DWC_s2p_LandweberIter</title>
<polygon fill="#ffffff" stroke="transparent" points="-4,4 -4,-208 301.5508,-208 301.5508,4 -4,4"/>
<!-- Node0 -->
<g id="node1" class="node">
<title>Node0</title>
<polygon fill="#bfbfbf" stroke="#000000" points="0,-92.5 0,-110.5 131.0586,-110.5 131.0586,-92.5 0,-92.5"/>
<text text-anchor="middle" x="65.5293" y="-98.5" font-family="Helvetica,sans-Serif" font-size="10.00" fill="#000000">DWC_s2p_LandweberIter</text>
</g>
<!-- Node1 -->
<g id="node2" class="node">
<title>Node1</title>
<g id="a_node2"><a xlink:href="stdfunc_8cpp_a98827c14ed7072c96834f20205c7a916.html#a98827c14ed7072c96834f20205c7a916" target="_top" xlink:title="Norm2">
<polygon fill="#ffffff" stroke="#000000" points="209.3022,-185.5 209.3022,-203.5 255.3071,-203.5 255.3071,-185.5 209.3022,-185.5"/>
<text text-anchor="middle" x="232.3047" y="-191.5" font-family="Helvetica,sans-Serif" font-size="10.00" fill="#000000">Norm2</text>
</a>
</g>
</g>
<!-- Node0&#45;&gt;Node1 -->
<g id="edge1" class="edge">
<title>Node0&#45;&gt;Node1</title>
<path fill="none" stroke="#191970" d="M75.3722,-110.7496C92.621,-126.4786 130.0097,-158.4795 167.0586,-176.5 177.1484,-181.4076 188.7884,-185.1585 199.4185,-187.9327"/>
<polygon fill="#191970" stroke="#191970" points="198.6751,-191.3537 209.2173,-190.2991 200.3184,-184.5493 198.6751,-191.3537"/>
</g>
<!-- Node2 -->
<g id="node3" class="node">
<title>Node2</title>
<g id="a_node3"><a xlink:href="stdfunc_8cpp_a43fc3af75243a047d61aadea31c0fa9c.html#a43fc3af75243a047d61aadea31c0fa9c" target="_top" xlink:title="Get 2nd norm of the gradient of a grid data. ">
<polygon fill="#ffffff" stroke="#000000" points="187.3442,-148.5 187.3442,-166.5 277.2651,-166.5 277.2651,-148.5 187.3442,-148.5"/>
<text text-anchor="middle" x="232.3047" y="-154.5" font-family="Helvetica,sans-Serif" font-size="10.00" fill="#000000">Norm2_Gradient</text>
</a>
</g>
</g>
<!-- Node0&#45;&gt;Node2 -->
<g id="edge2" class="edge">
<title>Node0&#45;&gt;Node2</title>
<path fill="none" stroke="#191970" d="M87.909,-110.5315C108.3477,-118.6224 139.4887,-130.5572 167.0586,-139.5 173.5921,-141.6192 180.5436,-143.7092 187.3816,-145.6726"/>
<polygon fill="#191970" stroke="#191970" points="186.683,-149.1118 197.257,-148.4476 188.5767,-142.3728 186.683,-149.1118"/>
</g>
<!-- Node3 -->
<g id="node4" class="node">
<title>Node3</title>
<g id="a_node4"><a xlink:href="stdfunc_8cpp_a88f10a86b8808047787d2df5e8cbcb72.html#a88f10a86b8808047787d2df5e8cbcb72" target="_top" xlink:title="Get file name from a full path. ">
<polygon fill="#ffffff" stroke="#000000" points="181.7852,-111.5 181.7852,-129.5 282.8242,-129.5 282.8242,-111.5 181.7852,-111.5"/>
<text text-anchor="middle" x="232.3047" y="-117.5" font-family="Helvetica,sans-Serif" font-size="10.00" fill="#000000">Path_GetFileName</text>
</a>
</g>
</g>
<!-- Node0&#45;&gt;Node3 -->
<g id="edge3" class="edge">
<title>Node0&#45;&gt;Node3</title>
<path fill="none" stroke="#191970" d="M131.4433,-109.0093C144.5905,-110.5071 158.3445,-112.074 171.3172,-113.552"/>
<polygon fill="#191970" stroke="#191970" points="171.1951,-117.0606 181.527,-114.7151 171.9875,-110.1056 171.1951,-117.0606"/>
</g>
<!-- Node4 -->
<g id="node5" class="node">
<title>Node4</title>
<g id="a_node5"><a xlink:href="stdfunc_8cpp_a6334abab105b1fe7efa9a3e2a4b07c47.html#a6334abab105b1fe7efa9a3e2a4b07c47" target="_top" xlink:title="Save results of at each iteration step as vtk file. ">
<polygon fill="#ffffff" stroke="#000000" points="192.0684,-74.5 192.0684,-92.5 272.541,-92.5 272.541,-74.5 192.0684,-74.5"/>
<text text-anchor="middle" x="232.3047" y="-80.5" font-family="Helvetica,sans-Serif" font-size="10.00" fill="#000000">SaveGrd2VTK</text>
</a>
</g>
</g>
<!-- Node0&#45;&gt;Node4 -->
<g id="edge4" class="edge">
<title>Node0&#45;&gt;Node4</title>
<path fill="none" stroke="#191970" d="M131.4433,-94.3859C148.1734,-92.5803 165.886,-90.6685 181.721,-88.9595"/>
<polygon fill="#191970" stroke="#191970" points="182.2599,-92.4217 191.8266,-87.8688 181.5087,-85.4621 182.2599,-92.4217"/>
</g>
<!-- Node5 -->
<g id="node6" class="node">
<title>Node5</title>
<g id="a_node6"><a xlink:href="classMultiProgressBar_a58eef55ad6d5c7d769b3a402a2ef7b85.html#a58eef55ad6d5c7d769b3a402a2ef7b85" target="_top" xlink:title="MultiProgressBar::Update">
<polygon fill="#ffffff" stroke="#000000" points="167.0586,-37.5 167.0586,-55.5 297.5508,-55.5 297.5508,-37.5 167.0586,-37.5"/>
<text text-anchor="middle" x="232.3047" y="-43.5" font-family="Helvetica,sans-Serif" font-size="10.00" fill="#000000">MultiProgressBar::Update</text>
</a>
</g>
</g>
<!-- Node0&#45;&gt;Node5 -->
<g id="edge5" class="edge">
<title>Node0&#45;&gt;Node5</title>
<path fill="none" stroke="#191970" d="M90.0142,-92.3737C110.4954,-84.8471 140.5386,-74.0553 167.0586,-65.5 174.5587,-63.0805 182.5869,-60.6301 190.3571,-58.3295"/>
<polygon fill="#191970" stroke="#191970" points="191.3862,-61.6752 200.0021,-55.5094 189.4217,-54.9566 191.3862,-61.6752"/>
</g>
<!-- Node6 -->
<g id="node7" class="node">
<title>Node6</title>
<g id="a_node7"><a xlink:href="Conti2D_8cpp_a632c1e4efbb7e9b1aaf04db729e69394.html#a632c1e4efbb7e9b1aaf04db729e69394" target="_top" xlink:title="Calculate upward continuation as , see equation (5). ">
<polygon fill="#ffffff" stroke="#000000" points="203.4722,-.5 203.4722,-18.5 261.1372,-18.5 261.1372,-.5 203.4722,-.5"/>
<text text-anchor="middle" x="232.3047" y="-6.5" font-family="Helvetica,sans-Serif" font-size="10.00" fill="#000000">UWC_Gij</text>
</a>
</g>
</g>
<!-- Node0&#45;&gt;Node6 -->
<g id="edge6" class="edge">
<title>Node0&#45;&gt;Node6</title>
<path fill="none" stroke="#191970" d="M75.7267,-92.3244C93.2104,-77.037 130.5624,-46.2815 167.0586,-28.5 175.304,-24.4827 184.5586,-21.1531 193.449,-18.4641"/>
<polygon fill="#191970" stroke="#191970" points="194.584,-21.7806 203.2586,-15.6977 192.684,-15.0434 194.584,-21.7806"/>
</g>
</g>
</svg>
