<?xml version="1.0" encoding="UTF-8" standalone="no"?>
<!DOCTYPE svg PUBLIC "-//W3C//DTD SVG 1.1//EN"
 "http://www.w3.org/Graphics/SVG/1.1/DTD/svg11.dtd">
<!-- Generated by graphviz version 2.40.1 (20161225.0304)
 -->
<!-- Title: Getkernel_p2s_new Pages: 1 -->
<svg width="284pt" height="64pt"
 viewBox="0.00 0.00 284.19 64.00" xmlns="http://www.w3.org/2000/svg" xmlns:xlink="http://www.w3.org/1999/xlink">
<g id="graph0" class="graph" transform="scale(1 1) rotate(0) translate(4 60)">
<title>Getkernel_p2s_new</title>
<polygon fill="#ffffff" stroke="transparent" points="-4,4 -4,-60 280.1865,-60 280.1865,4 -4,4"/>
<!-- Node3 -->
<g id="node1" class="node">
<title>Node3</title>
<polygon fill="#bfbfbf" stroke="#000000" points="0,-18.5 0,-36.5 104.9453,-36.5 104.9453,-18.5 0,-18.5"/>
<text text-anchor="middle" x="52.4727" y="-24.5" font-family="Helvetica,sans-Serif" font-size="10.00" fill="#000000">Getkernel_p2s_new</text>
</g>
<!-- Node4 -->
<g id="node2" class="node">
<title>Node4</title>
<g id="a_node2"><a xlink:href="Conti2D_8h_a07c876abe68bb0cbc0d3b412166f5e6a.html#a07c876abe68bb0cbc0d3b412166f5e6a" target="_top" xlink:title="Downward continuation: uneven surface to plane(space domain) ">
<polygon fill="#ffffff" stroke="#000000" points="140.9453,-37.5 140.9453,-55.5 202.5117,-55.5 202.5117,-37.5 140.9453,-37.5"/>
<text text-anchor="middle" x="171.7285" y="-43.5" font-family="Helvetica,sans-Serif" font-size="10.00" fill="#000000">DWC_s2p</text>
</a>
</g>
</g>
<!-- Node3&#45;&gt;Node4 -->
<g id="edge1" class="edge">
<title>Node3&#45;&gt;Node4</title>
<path fill="none" stroke="#191970" d="M115.2055,-37.4947C124.1349,-38.9173 132.9712,-40.3251 140.9106,-41.59"/>
<polygon fill="#191970" stroke="#191970" points="115.5533,-34.006 105.1272,-35.889 114.4519,-40.9188 115.5533,-34.006"/>
</g>
<!-- Node6 -->
<g id="node4" class="node">
<title>Node6</title>
<g id="a_node4"><a xlink:href="Conti2D_8h_a9fcb7711c4e230ba259de4ed9be39ccd.html#a9fcb7711c4e230ba259de4ed9be39ccd" target="_top" xlink:title="Upward continuation: plane to surface(space domain) ">
<polygon fill="#ffffff" stroke="#000000" points="140.9453,-.5 140.9453,-18.5 202.5117,-18.5 202.5117,-.5 140.9453,-.5"/>
<text text-anchor="middle" x="171.7285" y="-6.5" font-family="Helvetica,sans-Serif" font-size="10.00" fill="#000000">UWC_p2s</text>
</a>
</g>
</g>
<!-- Node3&#45;&gt;Node6 -->
<g id="edge3" class="edge">
<title>Node3&#45;&gt;Node6</title>
<path fill="none" stroke="#191970" d="M115.2055,-18.0314C124.1349,-16.6836 132.9712,-15.3499 140.9106,-14.1515"/>
<polygon fill="#191970" stroke="#191970" points="114.4928,-14.5992 105.1272,-19.5525 115.5375,-21.5208 114.4928,-14.5992"/>
</g>
<!-- Node5 -->
<g id="node3" class="node">
<title>Node5</title>
<g id="a_node3"><a xlink:href="main_8cpp_a0ddf1224851353fc92bfbff6f499fa97.html#a0ddf1224851353fc92bfbff6f499fa97" target="_top" xlink:title="main">
<polygon fill="#ffffff" stroke="#000000" points="238.5117,-18.5 238.5117,-36.5 276.1865,-36.5 276.1865,-18.5 238.5117,-18.5"/>
<text text-anchor="middle" x="257.3491" y="-24.5" font-family="Helvetica,sans-Serif" font-size="10.00" fill="#000000">main</text>
</a>
</g>
</g>
<!-- Node4&#45;&gt;Node5 -->
<g id="edge2" class="edge">
<title>Node4&#45;&gt;Node5</title>
<path fill="none" stroke="#191970" d="M212.6802,-37.4124C221.6903,-35.413 230.8104,-33.3892 238.4401,-31.6961"/>
<polygon fill="#191970" stroke="#191970" points="211.6438,-34.0572 202.6395,-39.6406 213.1603,-40.891 211.6438,-34.0572"/>
</g>
<!-- Node6&#45;&gt;Node5 -->
<g id="edge4" class="edge">
<title>Node6&#45;&gt;Node5</title>
<path fill="none" stroke="#191970" d="M212.6802,-18.1093C221.6903,-20.0035 230.8104,-21.9208 238.4401,-23.5248"/>
<polygon fill="#191970" stroke="#191970" points="213.1457,-14.6307 202.6395,-15.9984 211.7055,-21.4809 213.1457,-14.6307"/>
</g>
</g>
</svg>
