<?xml version="1.0" encoding="UTF-8" standalone="no"?>
<!DOCTYPE svg PUBLIC "-//W3C//DTD SVG 1.1//EN"
 "http://www.w3.org/Graphics/SVG/1.1/DTD/svg11.dtd">
<!-- Generated by graphviz version 2.40.1 (20161225.0304)
 -->
<!-- Title: UWC_p2s Pages: 1 -->
<svg width="377pt" height="304pt"
 viewBox="0.00 0.00 377.00 304.00" xmlns="http://www.w3.org/2000/svg" xmlns:xlink="http://www.w3.org/1999/xlink">
<g id="graph0" class="graph" transform="scale(1 1) rotate(0) translate(4 300)">
<title>UWC_p2s</title>
<polygon fill="#ffffff" stroke="transparent" points="-4,4 -4,-300 373.0039,-300 373.0039,4 -4,4"/>
<!-- Node0 -->
<g id="node1" class="node">
<title>Node0</title>
<polygon fill="#bfbfbf" stroke="#000000" points="0,-129.5 0,-147.5 61.5664,-147.5 61.5664,-129.5 0,-129.5"/>
<text text-anchor="middle" x="30.7832" y="-135.5" font-family="Helvetica,sans-Serif" font-size="10.00" fill="#000000">UWC_p2s</text>
</g>
<!-- Node1 -->
<g id="node2" class="node">
<title>Node1</title>
<g id="a_node2"><a xlink:href="Conti2D_8cpp_a78d8a6b80166f8976a0f18caddbe1dcb.html#a78d8a6b80166f8976a0f18caddbe1dcb" target="_top" xlink:title="Getkernel_p2s_new">
<polygon fill="#ffffff" stroke="#000000" points="97.5664,-259.5 97.5664,-277.5 202.5117,-277.5 202.5117,-259.5 97.5664,-259.5"/>
<text text-anchor="middle" x="150.0391" y="-265.5" font-family="Helvetica,sans-Serif" font-size="10.00" fill="#000000">Getkernel_p2s_new</text>
</a>
</g>
</g>
<!-- Node0&#45;&gt;Node1 -->
<g id="edge1" class="edge">
<title>Node0&#45;&gt;Node1</title>
<path fill="none" stroke="#191970" d="M33.7044,-147.501C41.0063,-168.6088 62.0592,-221.6816 97.5664,-250.5 99.3891,-251.9794 101.3405,-253.3402 103.3794,-254.5917"/>
<polygon fill="#191970" stroke="#191970" points="102.2583,-257.9505 112.7526,-259.4066 105.4569,-251.724 102.2583,-257.9505"/>
</g>
<!-- Node4 -->
<g id="node5" class="node">
<title>Node4</title>
<g id="a_node5"><a xlink:href="Conti2D_8cpp_aaea96ecea3031c19d3ef88f6f1590d4a.html#aaea96ecea3031c19d3ef88f6f1590d4a" target="_top" xlink:title="Get file extension name from a full file path. ">
<polygon fill="#ffffff" stroke="#000000" points="100.3521,-222.5 100.3521,-240.5 199.7261,-240.5 199.7261,-222.5 100.3521,-222.5"/>
<text text-anchor="middle" x="150.0391" y="-228.5" font-family="Helvetica,sans-Serif" font-size="10.00" fill="#000000">Path_GetExtName</text>
</a>
</g>
</g>
<!-- Node0&#45;&gt;Node4 -->
<g id="edge4" class="edge">
<title>Node0&#45;&gt;Node4</title>
<path fill="none" stroke="#191970" d="M36.6389,-147.722C47.0504,-163.4094 70.2735,-195.3493 97.5664,-213.5 100.169,-215.2308 102.9549,-216.812 105.836,-218.2538"/>
<polygon fill="#191970" stroke="#191970" points="104.6907,-221.5736 115.2535,-222.3964 107.5092,-215.1661 104.6907,-221.5736"/>
</g>
<!-- Node5 -->
<g id="node6" class="node">
<title>Node5</title>
<g id="a_node6"><a xlink:href="Conti2D_8cpp_a2c90cdea3ca11177ba34c14a3b0a00cb.html#a2c90cdea3ca11177ba34c14a3b0a00cb" target="_top" xlink:title="Read a Surfer Grid data from file. ">
<polygon fill="#ffffff" stroke="#000000" points="121.751,-185.5 121.751,-203.5 178.3271,-203.5 178.3271,-185.5 121.751,-185.5"/>
<text text-anchor="middle" x="150.0391" y="-191.5" font-family="Helvetica,sans-Serif" font-size="10.00" fill="#000000">ReadGrd</text>
</a>
</g>
</g>
<!-- Node0&#45;&gt;Node5 -->
<g id="edge5" class="edge">
<title>Node0&#45;&gt;Node5</title>
<path fill="none" stroke="#191970" d="M44.9654,-147.6061C58.2129,-155.8589 78.7196,-167.9955 97.5664,-176.5 102.2204,-178.6001 107.1972,-180.6023 112.1635,-182.4572"/>
<polygon fill="#191970" stroke="#191970" points="111.0187,-185.7648 121.6133,-185.8294 113.3714,-179.172 111.0187,-185.7648"/>
</g>
<!-- Node6 -->
<g id="node7" class="node">
<title>Node6</title>
<g id="a_node7"><a xlink:href="Conti2D_8cpp_ab76adf263893ac28772283c5a00b964c.html#ab76adf263893ac28772283c5a00b964c" target="_top" xlink:title="Save a Surfer Grid data to file. ">
<polygon fill="#ffffff" stroke="#000000" points="122.3076,-148.5 122.3076,-166.5 177.7705,-166.5 177.7705,-148.5 122.3076,-148.5"/>
<text text-anchor="middle" x="150.0391" y="-154.5" font-family="Helvetica,sans-Serif" font-size="10.00" fill="#000000">SaveGrd</text>
</a>
</g>
</g>
<!-- Node0&#45;&gt;Node6 -->
<g id="edge6" class="edge">
<title>Node0&#45;&gt;Node6</title>
<path fill="none" stroke="#191970" d="M61.805,-143.4424C77.0904,-145.8777 95.6626,-148.8367 111.8176,-151.4105"/>
<polygon fill="#191970" stroke="#191970" points="111.5997,-154.9199 122.0259,-153.0369 112.7011,-148.007 111.5997,-154.9199"/>
</g>
<!-- Node7 -->
<g id="node8" class="node">
<title>Node7</title>
<g id="a_node8"><a xlink:href="Conti2D_8cpp_a95502a9bee4005071ea4fd3cb5e1c228.html#a95502a9bee4005071ea4fd3cb5e1c228" target="_top" xlink:title="SaveGrd2netCDF">
<polygon fill="#ffffff" stroke="#000000" points="102.3003,-111.5 102.3003,-129.5 197.7778,-129.5 197.7778,-111.5 102.3003,-111.5"/>
<text text-anchor="middle" x="150.0391" y="-117.5" font-family="Helvetica,sans-Serif" font-size="10.00" fill="#000000">SaveGrd2netCDF</text>
</a>
</g>
</g>
<!-- Node0&#45;&gt;Node7 -->
<g id="edge7" class="edge">
<title>Node0&#45;&gt;Node7</title>
<path fill="none" stroke="#191970" d="M61.805,-133.8177C71.1142,-132.4126 81.6427,-130.8235 92.1017,-129.2448"/>
<polygon fill="#191970" stroke="#191970" points="92.7005,-132.6942 102.0661,-127.7409 91.6557,-125.7726 92.7005,-132.6942"/>
</g>
<!-- Node8 -->
<g id="node9" class="node">
<title>Node8</title>
<g id="a_node9"><a xlink:href="Conti2D_8cpp_a6334abab105b1fe7efa9a3e2a4b07c47.html#a6334abab105b1fe7efa9a3e2a4b07c47" target="_top" xlink:title="Save results of at each iteration step as vtk file. ">
<polygon fill="#ffffff" stroke="#000000" points="109.8027,-74.5 109.8027,-92.5 190.2754,-92.5 190.2754,-74.5 109.8027,-74.5"/>
<text text-anchor="middle" x="150.0391" y="-80.5" font-family="Helvetica,sans-Serif" font-size="10.00" fill="#000000">SaveGrd2VTK</text>
</a>
</g>
</g>
<!-- Node0&#45;&gt;Node8 -->
<g id="edge8" class="edge">
<title>Node0&#45;&gt;Node8</title>
<path fill="none" stroke="#191970" d="M46.11,-129.4006C59.4402,-121.6912 79.4133,-110.6264 97.5664,-102.5 102.5959,-100.2485 107.9805,-98.0596 113.3143,-96.0167"/>
<polygon fill="#191970" stroke="#191970" points="114.6099,-99.2693 122.7725,-92.5149 112.1794,-92.7047 114.6099,-99.2693"/>
</g>
<!-- Node9 -->
<g id="node10" class="node">
<title>Node9</title>
<g id="a_node10"><a xlink:href="Conti2D_8cpp_a0858a57d19c1ac2f09fe65f7f416e2a1.html#a0858a57d19c1ac2f09fe65f7f416e2a1" target="_top" xlink:title="SaveGrd2xyz">
<polygon fill="#ffffff" stroke="#000000" points="112.0269,-37.5 112.0269,-55.5 188.0513,-55.5 188.0513,-37.5 112.0269,-37.5"/>
<text text-anchor="middle" x="150.0391" y="-43.5" font-family="Helvetica,sans-Serif" font-size="10.00" fill="#000000">SaveGrd2xyz</text>
</a>
</g>
</g>
<!-- Node0&#45;&gt;Node9 -->
<g id="edge9" class="edge">
<title>Node0&#45;&gt;Node9</title>
<path fill="none" stroke="#191970" d="M37.072,-129.0896C47.7803,-113.7371 70.9941,-83.2388 97.5664,-65.5 100.8715,-63.2936 104.4645,-61.3066 108.1682,-59.5251"/>
<polygon fill="#191970" stroke="#191970" points="109.6973,-62.6775 117.5022,-55.5127 106.9328,-56.2465 109.6973,-62.6775"/>
</g>
<!-- Node10 -->
<g id="node11" class="node">
<title>Node10</title>
<g id="a_node11"><a xlink:href="Conti2D_8cpp_a632c1e4efbb7e9b1aaf04db729e69394.html#a632c1e4efbb7e9b1aaf04db729e69394" target="_top" xlink:title="UWC_Gij">
<polygon fill="#ffffff" stroke="#000000" points="121.2065,-.5 121.2065,-18.5 178.8716,-18.5 178.8716,-.5 121.2065,-.5"/>
<text text-anchor="middle" x="150.0391" y="-6.5" font-family="Helvetica,sans-Serif" font-size="10.00" fill="#000000">UWC_Gij</text>
</a>
</g>
</g>
<!-- Node0&#45;&gt;Node10 -->
<g id="edge10" class="edge">
<title>Node0&#45;&gt;Node10</title>
<path fill="none" stroke="#191970" d="M33.8959,-129.3899C41.4694,-108.5386 62.8269,-56.9554 97.5664,-28.5 101.6771,-25.1329 106.4347,-22.3365 111.3735,-20.0208"/>
<polygon fill="#191970" stroke="#191970" points="113.0151,-23.1323 120.9717,-16.1363 110.389,-16.6435 113.0151,-23.1323"/>
</g>
<!-- Node2 -->
<g id="node3" class="node">
<title>Node2</title>
<g id="a_node3"><a xlink:href="Conti2D_8cpp_a4bb34ae88cf16e429505f9eb746384cd.html#a4bb34ae88cf16e429505f9eb746384cd" target="_top" xlink:title="GetPmnij">
<polygon fill="#ffffff" stroke="#000000" points="275.1963,-277.5 275.1963,-295.5 332.3193,-295.5 332.3193,-277.5 275.1963,-277.5"/>
<text text-anchor="middle" x="303.7578" y="-283.5" font-family="Helvetica,sans-Serif" font-size="10.00" fill="#000000">GetPmnij</text>
</a>
</g>
</g>
<!-- Node1&#45;&gt;Node2 -->
<g id="edge2" class="edge">
<title>Node1&#45;&gt;Node2</title>
<path fill="none" stroke="#191970" d="M202.9403,-274.6946C223.3112,-277.08 246.177,-279.7575 264.9761,-281.9588"/>
<polygon fill="#191970" stroke="#191970" points="264.6208,-285.441 274.9601,-283.1279 265.435,-278.4885 264.6208,-285.441"/>
</g>
<!-- Node3 -->
<g id="node4" class="node">
<title>Node3</title>
<g id="a_node4"><a xlink:href="classMultiProgressBar_a58eef55ad6d5c7d769b3a402a2ef7b85.html#a58eef55ad6d5c7d769b3a402a2ef7b85" target="_top" xlink:title="MultiProgressBar::Update">
<polygon fill="#ffffff" stroke="#000000" points="238.5117,-240.5 238.5117,-258.5 369.0039,-258.5 369.0039,-240.5 238.5117,-240.5"/>
<text text-anchor="middle" x="303.7578" y="-246.5" font-family="Helvetica,sans-Serif" font-size="10.00" fill="#000000">MultiProgressBar::Update</text>
</a>
</g>
</g>
<!-- Node1&#45;&gt;Node3 -->
<g id="edge3" class="edge">
<title>Node1&#45;&gt;Node3</title>
<path fill="none" stroke="#191970" d="M202.9403,-261.9613C211.1175,-260.9506 219.6966,-259.8902 228.2533,-258.8325"/>
<polygon fill="#191970" stroke="#191970" points="228.7674,-262.2957 238.2625,-257.5954 227.9086,-255.3486 228.7674,-262.2957"/>
</g>
</g>
</svg>
