<?xml version="1.0" encoding="UTF-8" standalone="no"?>
<!DOCTYPE svg PUBLIC "-//W3C//DTD SVG 1.1//EN"
 "http://www.w3.org/Graphics/SVG/1.1/DTD/svg11.dtd">
<!-- Generated by graphviz version 2.40.1 (20161225.0304)
 -->
<!-- Title: Getkernel_p2p_new Pages: 1 -->
<svg width="280pt" height="64pt"
 viewBox="0.00 0.00 280.00 64.00" xmlns="http://www.w3.org/2000/svg" xmlns:xlink="http://www.w3.org/1999/xlink">
<g id="graph0" class="graph" transform="scale(1 1) rotate(0) translate(4 60)">
<title>Getkernel_p2p_new</title>
<polygon fill="#ffffff" stroke="transparent" points="-4,4 -4,-60 275.999,-60 275.999,4 -4,4"/>
<!-- Node0 -->
<g id="node1" class="node">
<title>Node0</title>
<polygon fill="#bfbfbf" stroke="#000000" points="0,-18.5 0,-36.5 105.5068,-36.5 105.5068,-18.5 0,-18.5"/>
<text text-anchor="middle" x="52.7534" y="-24.5" font-family="Helvetica,sans-Serif" font-size="10.00" fill="#000000">Getkernel_p2p_new</text>
</g>
<!-- Node1 -->
<g id="node2" class="node">
<title>Node1</title>
<g id="a_node2"><a xlink:href="Conti2D_8cpp_a4bb34ae88cf16e429505f9eb746384cd.html#a4bb34ae88cf16e429505f9eb746384cd" target="_top" xlink:title="Get the kernel vector for a calculation point . ">
<polygon fill="#ffffff" stroke="#000000" points="178.1914,-37.5 178.1914,-55.5 235.3145,-55.5 235.3145,-37.5 178.1914,-37.5"/>
<text text-anchor="middle" x="206.7529" y="-43.5" font-family="Helvetica,sans-Serif" font-size="10.00" fill="#000000">GetPmnij</text>
</a>
</g>
</g>
<!-- Node0&#45;&gt;Node1 -->
<g id="edge1" class="edge">
<title>Node0&#45;&gt;Node1</title>
<path fill="none" stroke="#191970" d="M105.7513,-34.0387C126.1594,-36.5566 149.0669,-39.3829 167.9004,-41.7065"/>
<polygon fill="#191970" stroke="#191970" points="167.5492,-45.1896 177.9026,-42.9405 168.4064,-38.2423 167.5492,-45.1896"/>
</g>
<!-- Node2 -->
<g id="node3" class="node">
<title>Node2</title>
<g id="a_node3"><a xlink:href="classMultiProgressBar_a58eef55ad6d5c7d769b3a402a2ef7b85.html#a58eef55ad6d5c7d769b3a402a2ef7b85" target="_top" xlink:title="MultiProgressBar::Update">
<polygon fill="#ffffff" stroke="#000000" points="141.5068,-.5 141.5068,-18.5 271.999,-18.5 271.999,-.5 141.5068,-.5"/>
<text text-anchor="middle" x="206.7529" y="-6.5" font-family="Helvetica,sans-Serif" font-size="10.00" fill="#000000">MultiProgressBar::Update</text>
</a>
</g>
</g>
<!-- Node0&#45;&gt;Node2 -->
<g id="edge2" class="edge">
<title>Node0&#45;&gt;Node2</title>
<path fill="none" stroke="#191970" d="M105.7513,-21.3054C114.0059,-20.3406 122.6694,-19.328 131.3068,-18.3184"/>
<polygon fill="#191970" stroke="#191970" points="131.8824,-21.7751 141.4084,-17.1377 131.0696,-14.8224 131.8824,-21.7751"/>
</g>
</g>
</svg>
