<?xml version="1.0" encoding="UTF-8" standalone="no"?>
<!DOCTYPE svg PUBLIC "-//W3C//DTD SVG 1.1//EN"
 "http://www.w3.org/Graphics/SVG/1.1/DTD/svg11.dtd">
<!-- Generated by graphviz version 2.40.1 (20161225.0304)
 -->
<!-- Title: GetKernalMatrix_new Pages: 1 -->
<svg width="300pt" height="27pt"
 viewBox="0.00 0.00 300.29 27.00" xmlns="http://www.w3.org/2000/svg" xmlns:xlink="http://www.w3.org/1999/xlink">
<g id="graph0" class="graph" transform="scale(1 1) rotate(0) translate(4 23)">
<title>GetKernalMatrix_new</title>
<polygon fill="#ffffff" stroke="transparent" points="-4,4 -4,-23 296.2949,-23 296.2949,4 -4,4"/>
<!-- Node1 -->
<g id="node1" class="node">
<title>Node1</title>
<polygon fill="#bfbfbf" stroke="#000000" points="0,-.5 0,-18.5 112.1523,-18.5 112.1523,-.5 0,-.5"/>
<text text-anchor="middle" x="56.0762" y="-6.5" font-family="Helvetica,sans-Serif" font-size="10.00" fill="#000000">GetKernalMatrix_new</text>
</g>
<!-- Node2 -->
<g id="node2" class="node">
<title>Node2</title>
<g id="a_node2"><a xlink:href="Conti2D_8h_afb187c363388d28caa8a055176269f12.html#afb187c363388d28caa8a055176269f12" target="_top" xlink:title="DWC_p2p_f">
<polygon fill="#ffffff" stroke="#000000" points="148.1523,-.5 148.1523,-18.5 218.6201,-18.5 218.6201,-.5 148.1523,-.5"/>
<text text-anchor="middle" x="183.3862" y="-6.5" font-family="Helvetica,sans-Serif" font-size="10.00" fill="#000000">DWC_p2p_f</text>
</a>
</g>
</g>
<!-- Node1&#45;&gt;Node2 -->
<g id="edge1" class="edge">
<title>Node1&#45;&gt;Node2</title>
<path fill="none" stroke="#191970" d="M122.5625,-9.5C131.3218,-9.5 140.0094,-9.5 147.9603,-9.5"/>
<polygon fill="#191970" stroke="#191970" points="122.2868,-6.0001 112.2868,-9.5 122.2868,-13.0001 122.2868,-6.0001"/>
</g>
<!-- Node3 -->
<g id="node3" class="node">
<title>Node3</title>
<g id="a_node3"><a xlink:href="main_8cpp_a0ddf1224851353fc92bfbff6f499fa97.html#a0ddf1224851353fc92bfbff6f499fa97" target="_top" xlink:title="main">
<polygon fill="#ffffff" stroke="#000000" points="254.6201,-.5 254.6201,-18.5 292.2949,-18.5 292.2949,-.5 254.6201,-.5"/>
<text text-anchor="middle" x="273.4575" y="-6.5" font-family="Helvetica,sans-Serif" font-size="10.00" fill="#000000">main</text>
</a>
</g>
</g>
<!-- Node2&#45;&gt;Node3 -->
<g id="edge2" class="edge">
<title>Node2&#45;&gt;Node3</title>
<path fill="none" stroke="#191970" d="M228.8986,-9.5C237.9682,-9.5 247.012,-9.5 254.5585,-9.5"/>
<polygon fill="#191970" stroke="#191970" points="228.7263,-6.0001 218.7263,-9.5 228.7262,-13.0001 228.7263,-6.0001"/>
</g>
</g>
</svg>
