<?xml version="1.0" encoding="UTF-8" standalone="no"?>
<!DOCTYPE svg PUBLIC "-//W3C//DTD SVG 1.1//EN"
 "http://www.w3.org/Graphics/SVG/1.1/DTD/svg11.dtd">
<!-- Generated by graphviz version 2.40.1 (20161225.0304)
 -->
<!-- Title: UWC_p2p_f Pages: 1 -->
<svg width="163pt" height="64pt"
 viewBox="0.00 0.00 162.69 64.00" xmlns="http://www.w3.org/2000/svg" xmlns:xlink="http://www.w3.org/1999/xlink">
<g id="graph0" class="graph" transform="scale(1 1) rotate(0) translate(4 60)">
<title>UWC_p2p_f</title>
<polygon fill="#ffffff" stroke="transparent" points="-4,4 -4,-60 158.6943,-60 158.6943,4 -4,4"/>
<!-- Node0 -->
<g id="node1" class="node">
<title>Node0</title>
<polygon fill="#bfbfbf" stroke="#000000" points="0,-18.5 0,-36.5 70.4678,-36.5 70.4678,-18.5 0,-18.5"/>
<text text-anchor="middle" x="35.2339" y="-24.5" font-family="Helvetica,sans-Serif" font-size="10.00" fill="#000000">UWC_p2p_f</text>
</g>
<!-- Node1 -->
<g id="node2" class="node">
<title>Node1</title>
<g id="a_node2"><a xlink:href="FFTN_8cpp_a9c926bdffb37048d2b93b1cadfbf11e7.html#a9c926bdffb37048d2b93b1cadfbf11e7" target="_top" xlink:title="FFT2d">
<polygon fill="#ffffff" stroke="#000000" points="107.8569,-37.5 107.8569,-55.5 153.3052,-55.5 153.3052,-37.5 107.8569,-37.5"/>
<text text-anchor="middle" x="130.5811" y="-43.5" font-family="Helvetica,sans-Serif" font-size="10.00" fill="#000000">FFT2d</text>
</a>
</g>
</g>
<!-- Node0&#45;&gt;Node1 -->
<g id="edge1" class="edge">
<title>Node0&#45;&gt;Node1</title>
<path fill="none" stroke="#191970" d="M70.7377,-34.5749C79.6426,-36.3494 89.1546,-38.2449 97.914,-39.9904"/>
<polygon fill="#191970" stroke="#191970" points="97.2783,-43.4324 107.7695,-41.9543 98.6464,-36.5674 97.2783,-43.4324"/>
</g>
<!-- Node2 -->
<g id="node3" class="node">
<title>Node2</title>
<g id="a_node3"><a xlink:href="FFTN_8cpp_a4465313cbf2ef9d0c966c066c7e995be.html#a4465313cbf2ef9d0c966c066c7e995be" target="_top" xlink:title="IFFT2d">
<polygon fill="#ffffff" stroke="#000000" points="106.4678,-.5 106.4678,-18.5 154.6943,-18.5 154.6943,-.5 106.4678,-.5"/>
<text text-anchor="middle" x="130.5811" y="-6.5" font-family="Helvetica,sans-Serif" font-size="10.00" fill="#000000">IFFT2d</text>
</a>
</g>
</g>
<!-- Node0&#45;&gt;Node2 -->
<g id="edge2" class="edge">
<title>Node0&#45;&gt;Node2</title>
<path fill="none" stroke="#191970" d="M70.7377,-20.7975C79.0767,-19.2232 87.9482,-17.5484 96.2354,-15.9839"/>
<polygon fill="#191970" stroke="#191970" points="97.1589,-19.3715 106.336,-14.0771 95.8602,-12.493 97.1589,-19.3715"/>
</g>
</g>
</svg>
