<?xml version="1.0" encoding="UTF-8" standalone="no"?>
<!DOCTYPE svg PUBLIC "-//W3C//DTD SVG 1.1//EN"
 "http://www.w3.org/Graphics/SVG/1.1/DTD/svg11.dtd">
<!-- Generated by graphviz version 2.40.1 (20161225.0304)
 -->
<!-- Title: DWC_s2p_LandweberIter Pages: 1 -->
<svg width="311pt" height="64pt"
 viewBox="0.00 0.00 310.86 64.00" xmlns="http://www.w3.org/2000/svg" xmlns:xlink="http://www.w3.org/1999/xlink">
<g id="graph0" class="graph" transform="scale(1 1) rotate(0) translate(4 60)">
<title>DWC_s2p_LandweberIter</title>
<polygon fill="#ffffff" stroke="transparent" points="-4,4 -4,-60 306.8613,-60 306.8613,4 -4,4"/>
<!-- Node7 -->
<g id="node1" class="node">
<title>Node7</title>
<polygon fill="#bfbfbf" stroke="#000000" points="0,-18.5 0,-36.5 131.0586,-36.5 131.0586,-18.5 0,-18.5"/>
<text text-anchor="middle" x="65.5293" y="-24.5" font-family="Helvetica,sans-Serif" font-size="10.00" fill="#000000">DWC_s2p_LandweberIter</text>
</g>
<!-- Node8 -->
<g id="node2" class="node">
<title>Node8</title>
<g id="a_node2"><a xlink:href="Conti2D_8h_ac80c719a8192b6133df6ae172662e51a.html#ac80c719a8192b6133df6ae172662e51a" target="_top" xlink:title="Downward continuation: plane to plane(space domain) ">
<polygon fill="#ffffff" stroke="#000000" points="167.0586,-37.5 167.0586,-55.5 229.1865,-55.5 229.1865,-37.5 167.0586,-37.5"/>
<text text-anchor="middle" x="198.1226" y="-43.5" font-family="Helvetica,sans-Serif" font-size="10.00" fill="#000000">DWC_p2p</text>
</a>
</g>
</g>
<!-- Node7&#45;&gt;Node8 -->
<g id="edge1" class="edge">
<title>Node7&#45;&gt;Node8</title>
<path fill="none" stroke="#191970" d="M138.6224,-37.9739C148.4907,-39.388 158.156,-40.773 166.7313,-42.0018"/>
<polygon fill="#191970" stroke="#191970" points="139.1147,-34.5088 128.7193,-36.5548 138.1217,-41.438 139.1147,-34.5088"/>
</g>
<!-- Node10 -->
<g id="node4" class="node">
<title>Node10</title>
<g id="a_node4"><a xlink:href="Conti2D_8h_a07c876abe68bb0cbc0d3b412166f5e6a.html#a07c876abe68bb0cbc0d3b412166f5e6a" target="_top" xlink:title="Downward continuation: uneven surface to plane(space domain) ">
<polygon fill="#ffffff" stroke="#000000" points="167.3394,-.5 167.3394,-18.5 228.9058,-18.5 228.9058,-.5 167.3394,-.5"/>
<text text-anchor="middle" x="198.1226" y="-6.5" font-family="Helvetica,sans-Serif" font-size="10.00" fill="#000000">DWC_s2p</text>
</a>
</g>
</g>
<!-- Node7&#45;&gt;Node10 -->
<g id="edge3" class="edge">
<title>Node7&#45;&gt;Node10</title>
<path fill="none" stroke="#191970" d="M141.3524,-17.2067C150.4322,-15.9741 159.2685,-14.7746 167.1609,-13.7032"/>
<polygon fill="#191970" stroke="#191970" points="140.8757,-13.7393 131.4375,-18.5527 141.8174,-20.6756 140.8757,-13.7393"/>
</g>
<!-- Node9 -->
<g id="node3" class="node">
<title>Node9</title>
<g id="a_node3"><a xlink:href="main_8cpp_a0ddf1224851353fc92bfbff6f499fa97.html#a0ddf1224851353fc92bfbff6f499fa97" target="_top" xlink:title="main">
<polygon fill="#ffffff" stroke="#000000" points="265.1865,-18.5 265.1865,-36.5 302.8613,-36.5 302.8613,-18.5 265.1865,-18.5"/>
<text text-anchor="middle" x="284.0239" y="-24.5" font-family="Helvetica,sans-Serif" font-size="10.00" fill="#000000">main</text>
</a>
</g>
</g>
<!-- Node8&#45;&gt;Node9 -->
<g id="edge2" class="edge">
<title>Node8&#45;&gt;Node9</title>
<path fill="none" stroke="#191970" d="M239.5632,-37.334C248.4742,-35.363 257.4719,-33.3729 265.0196,-31.7035"/>
<polygon fill="#191970" stroke="#191970" points="238.6294,-33.9559 229.6213,-39.533 240.1412,-40.7907 238.6294,-33.9559"/>
</g>
<!-- Node10&#45;&gt;Node9 -->
<g id="edge4" class="edge">
<title>Node10&#45;&gt;Node9</title>
<path fill="none" stroke="#191970" d="M239.2085,-18.1093C248.2482,-20.0035 257.3982,-21.9208 265.0529,-23.5248"/>
<polygon fill="#191970" stroke="#191970" points="239.6402,-14.6238 229.1349,-15.9984 238.2045,-21.475 239.6402,-14.6238"/>
</g>
</g>
</svg>
