<?xml version="1.0" encoding="UTF-8" standalone="no"?>
<!DOCTYPE svg PUBLIC "-//W3C//DTD SVG 1.1//EN"
 "http://www.w3.org/Graphics/SVG/1.1/DTD/svg11.dtd">
<!-- Generated by graphviz version 2.40.1 (20161225.0304)
 -->
<!-- Title: SaveGrd2xyz Pages: 1 -->
<svg width="371pt" height="187pt"
 viewBox="0.00 0.00 370.63 187.00" xmlns="http://www.w3.org/2000/svg" xmlns:xlink="http://www.w3.org/1999/xlink">
<g id="graph0" class="graph" transform="scale(1 1) rotate(0) translate(4 183)">
<title>SaveGrd2xyz</title>
<polygon fill="#ffffff" stroke="transparent" points="-4,4 -4,-183 366.6348,-183 366.6348,4 -4,4"/>
<!-- Node1 -->
<g id="node1" class="node">
<title>Node1</title>
<polygon fill="#bfbfbf" stroke="#000000" points="0,-76.5 0,-94.5 76.0244,-94.5 76.0244,-76.5 0,-76.5"/>
<text text-anchor="middle" x="38.0122" y="-82.5" font-family="Helvetica,sans-Serif" font-size="10.00" fill="#000000">SaveGrd2xyz</text>
</g>
<!-- Node2 -->
<g id="node2" class="node">
<title>Node2</title>
<g id="a_node2"><a xlink:href="Conti2D_8h_afb187c363388d28caa8a055176269f12.html#afb187c363388d28caa8a055176269f12" target="_top" xlink:title="DWC_p2p_f">
<polygon fill="#ffffff" stroke="#000000" points="218.4922,-114.5 218.4922,-132.5 288.96,-132.5 288.96,-114.5 218.4922,-114.5"/>
<text text-anchor="middle" x="253.7261" y="-120.5" font-family="Helvetica,sans-Serif" font-size="10.00" fill="#000000">DWC_p2p_f</text>
</a>
</g>
</g>
<!-- Node1&#45;&gt;Node2 -->
<g id="edge1" class="edge">
<title>Node1&#45;&gt;Node2</title>
<path fill="none" stroke="#191970" d="M60.0189,-99.8522C74.2254,-108.2487 93.4601,-118.049 112.0244,-122.5 147.4313,-130.9892 189.2597,-129.997 218.2508,-127.6489"/>
<polygon fill="#191970" stroke="#191970" points="61.8212,-96.8518 51.4668,-94.6076 58.1617,-102.8191 61.8212,-96.8518"/>
</g>
<!-- Node4 -->
<g id="node4" class="node">
<title>Node4</title>
<g id="a_node4"><a xlink:href="Conti2D_8h_ac96429563a5015babafa3274c3f3ec73.html#ac96429563a5015babafa3274c3f3ec73" target="_top" xlink:title="downward continuation from surface to plane ">
<polygon fill="#ffffff" stroke="#000000" points="222.9429,-160.5 222.9429,-178.5 284.5093,-178.5 284.5093,-160.5 222.9429,-160.5"/>
<text text-anchor="middle" x="253.7261" y="-166.5" font-family="Helvetica,sans-Serif" font-size="10.00" fill="#000000">DWC_s2p</text>
</a>
</g>
</g>
<!-- Node1&#45;&gt;Node4 -->
<g id="edge3" class="edge">
<title>Node1&#45;&gt;Node4</title>
<path fill="none" stroke="#191970" d="M55.1889,-101.322C69.3998,-113.5575 90.6518,-129.969 112.0244,-139.5 148.0813,-155.5794 193.2081,-163.2198 222.7185,-166.7245"/>
<polygon fill="#191970" stroke="#191970" points="57.4961,-98.69 47.6877,-94.6841 52.8571,-103.9322 57.4961,-98.69"/>
</g>
<!-- Node5 -->
<g id="node5" class="node">
<title>Node5</title>
<g id="a_node5"><a xlink:href="Conti2D_8h_a7b6bfe9f5b32bc1a62005196d84edfde.html#a7b6bfe9f5b32bc1a62005196d84edfde" target="_top" xlink:title="UWC_p2p">
<polygon fill="#ffffff" stroke="#000000" points="222.6621,-38.5 222.6621,-56.5 284.79,-56.5 284.79,-38.5 222.6621,-38.5"/>
<text text-anchor="middle" x="253.7261" y="-44.5" font-family="Helvetica,sans-Serif" font-size="10.00" fill="#000000">UWC_p2p</text>
</a>
</g>
</g>
<!-- Node1&#45;&gt;Node5 -->
<g id="edge5" class="edge">
<title>Node1&#45;&gt;Node5</title>
<path fill="none" stroke="#191970" d="M79.6647,-73.8901C90.1706,-71.2153 101.4658,-68.5557 112.0244,-66.5 149.7881,-59.1476 193.7691,-53.7333 222.5947,-50.6054"/>
<polygon fill="#191970" stroke="#191970" points="78.6774,-70.5304 69.8837,-76.4399 80.4433,-77.304 78.6774,-70.5304"/>
</g>
<!-- Node6 -->
<g id="node6" class="node">
<title>Node6</title>
<g id="a_node6"><a xlink:href="Conti2D_8h_af82757cb7e0f4f398e774b4e89b9ea72.html#af82757cb7e0f4f398e774b4e89b9ea72" target="_top" xlink:title="UWC_p2p_f">
<polygon fill="#ffffff" stroke="#000000" points="112.0244,-76.5 112.0244,-94.5 182.4922,-94.5 182.4922,-76.5 112.0244,-76.5"/>
<text text-anchor="middle" x="147.2583" y="-82.5" font-family="Helvetica,sans-Serif" font-size="10.00" fill="#000000">UWC_p2p_f</text>
</a>
</g>
</g>
<!-- Node1&#45;&gt;Node6 -->
<g id="edge7" class="edge">
<title>Node1&#45;&gt;Node6</title>
<path fill="none" stroke="#191970" d="M86.467,-85.5C94.996,-85.5 103.7283,-85.5 111.8175,-85.5"/>
<polygon fill="#191970" stroke="#191970" points="86.2212,-82.0001 76.2212,-85.5 86.2212,-89.0001 86.2212,-82.0001"/>
</g>
<!-- Node7 -->
<g id="node7" class="node">
<title>Node7</title>
<g id="a_node7"><a xlink:href="Conti2D_8h_af8adb87017663774bfd342b39facc828.html#af8adb87017663774bfd342b39facc828" target="_top" xlink:title="Upward continuation from plane to surface. ">
<polygon fill="#ffffff" stroke="#000000" points="116.4751,-.5 116.4751,-18.5 178.0415,-18.5 178.0415,-.5 116.4751,-.5"/>
<text text-anchor="middle" x="147.2583" y="-6.5" font-family="Helvetica,sans-Serif" font-size="10.00" fill="#000000">UWC_p2s</text>
</a>
</g>
</g>
<!-- Node1&#45;&gt;Node7 -->
<g id="edge11" class="edge">
<title>Node1&#45;&gt;Node7</title>
<path fill="none" stroke="#191970" d="M59.2358,-70.4666C74.0012,-60.0378 94.1642,-45.8561 112.0244,-33.5 119.2067,-28.5312 127.2537,-23.0439 133.8423,-18.5717"/>
<polygon fill="#191970" stroke="#191970" points="56.9531,-67.7941 50.8086,-76.4252 60.9944,-73.5097 56.9531,-67.7941"/>
</g>
<!-- Node3 -->
<g id="node3" class="node">
<title>Node3</title>
<g id="a_node3"><a xlink:href="main_8cpp_a0ddf1224851353fc92bfbff6f499fa97.html#a0ddf1224851353fc92bfbff6f499fa97" target="_top" xlink:title="main">
<polygon fill="#ffffff" stroke="#000000" points="324.96,-76.5 324.96,-94.5 362.6348,-94.5 362.6348,-76.5 324.96,-76.5"/>
<text text-anchor="middle" x="343.7974" y="-82.5" font-family="Helvetica,sans-Serif" font-size="10.00" fill="#000000">main</text>
</a>
</g>
</g>
<!-- Node2&#45;&gt;Node3 -->
<g id="edge2" class="edge">
<title>Node2&#45;&gt;Node3</title>
<path fill="none" stroke="#191970" d="M284.4009,-110.5587C297.7783,-104.9149 313.0438,-98.4746 324.7489,-93.5363"/>
<polygon fill="#191970" stroke="#191970" points="282.9248,-107.3826 275.0717,-114.4945 285.6458,-113.8321 282.9248,-107.3826"/>
</g>
<!-- Node4&#45;&gt;Node3 -->
<g id="edge4" class="edge">
<title>Node4&#45;&gt;Node3</title>
<path fill="none" stroke="#191970" d="M274.7323,-154.2299C279.5204,-150.5244 284.5066,-146.4798 288.96,-142.5 306.5712,-126.7617 325.2718,-106.441 335.648,-94.8001"/>
<polygon fill="#191970" stroke="#191970" points="272.3641,-151.632 266.4852,-160.4463 276.5775,-157.2219 272.3641,-151.632"/>
</g>
<!-- Node5&#45;&gt;Node3 -->
<g id="edge6" class="edge">
<title>Node5&#45;&gt;Node3</title>
<path fill="none" stroke="#191970" d="M284.4009,-60.4413C297.7783,-66.0851 313.0438,-72.5254 324.7489,-77.4637"/>
<polygon fill="#191970" stroke="#191970" points="285.6458,-57.1679 275.0717,-56.5055 282.9248,-63.6174 285.6458,-57.1679"/>
</g>
<!-- Node6&#45;&gt;Node2 -->
<g id="edge9" class="edge">
<title>Node6&#45;&gt;Node2</title>
<path fill="none" stroke="#191970" d="M182.0186,-97.9065C197.1061,-103.2915 214.4538,-109.4831 228.3068,-114.4275"/>
<polygon fill="#191970" stroke="#191970" points="183.0843,-94.5707 172.4897,-94.5055 180.7312,-101.1633 183.0843,-94.5707"/>
</g>
<!-- Node6&#45;&gt;Node3 -->
<g id="edge10" class="edge">
<title>Node6&#45;&gt;Node3</title>
<path fill="none" stroke="#191970" d="M193.0687,-85.5C234.8958,-85.5 294.6609,-85.5 324.8276,-85.5"/>
<polygon fill="#191970" stroke="#191970" points="192.8501,-82.0001 182.85,-85.5 192.85,-89.0001 192.8501,-82.0001"/>
</g>
<!-- Node6&#45;&gt;Node6 -->
<g id="edge8" class="edge">
<title>Node6&#45;&gt;Node6</title>
<path fill="none" stroke="#191970" d="M127.4782,-103.8575C128.3304,-109.0281 134.9238,-113 147.2583,-113 166.5122,-113 171.7769,-103.322 163.0525,-94.5134"/>
<polygon fill="#191970" stroke="#191970" points="130.7597,-105.0848 131.4641,-94.5134 124.321,-102.3382 130.7597,-105.0848"/>
</g>
<!-- Node7&#45;&gt;Node3 -->
<g id="edge12" class="edge">
<title>Node7&#45;&gt;Node3</title>
<path fill="none" stroke="#191970" d="M188.6295,-7.9842C218.0842,-8.5403 257.8036,-12.7124 288.96,-28.5 311.0083,-39.6724 329.1619,-63.3135 337.9974,-76.3658"/>
<polygon fill="#191970" stroke="#191970" points="188.296,-4.4824 178.2771,-7.9281 188.258,-11.4823 188.296,-4.4824"/>
</g>
</g>
</svg>
