<?xml version="1.0" encoding="UTF-8" standalone="no"?>
<!DOCTYPE svg PUBLIC "-//W3C//DTD SVG 1.1//EN"
 "http://www.w3.org/Graphics/SVG/1.1/DTD/svg11.dtd">
<!-- Generated by graphviz version 2.40.1 (20161225.0304)
 -->
<!-- Title: Text_Axis Pages: 1 -->
<svg width="235pt" height="27pt"
 viewBox="0.00 0.00 235.26 27.00" xmlns="http://www.w3.org/2000/svg" xmlns:xlink="http://www.w3.org/1999/xlink">
<g id="graph0" class="graph" transform="scale(1 1) rotate(0) translate(4 23)">
<title>Text_Axis</title>
<polygon fill="#ffffff" stroke="transparent" points="-4,4 -4,-23 231.2607,-23 231.2607,4 -4,4"/>
<!-- Node1 -->
<g id="node1" class="node">
<title>Node1</title>
<polygon fill="#bfbfbf" stroke="#000000" points="0,-.5 0,-18.5 58.793,-18.5 58.793,-.5 0,-.5"/>
<text text-anchor="middle" x="29.3965" y="-6.5" font-family="Helvetica,sans-Serif" font-size="10.00" fill="#000000">Text_Axis</text>
</g>
<!-- Node2 -->
<g id="node2" class="node">
<title>Node2</title>
<g id="a_node2"><a xlink:href="Conti2D_8h_ae9ea2d2408945cb9ad31ee7f03ca183a.html#ae9ea2d2408945cb9ad31ee7f03ca183a" target="_top" xlink:title="helpINFO">
<polygon fill="#ffffff" stroke="#000000" points="94.793,-.5 94.793,-18.5 153.5859,-18.5 153.5859,-.5 94.793,-.5"/>
<text text-anchor="middle" x="124.1895" y="-6.5" font-family="Helvetica,sans-Serif" font-size="10.00" fill="#000000">helpINFO</text>
</a>
</g>
</g>
<!-- Node1&#45;&gt;Node2 -->
<g id="edge1" class="edge">
<title>Node1&#45;&gt;Node2</title>
<path fill="none" stroke="#191970" d="M69.0964,-9.5C77.6856,-9.5 86.6213,-9.5 94.7342,-9.5"/>
<polygon fill="#191970" stroke="#191970" points="68.87,-6.0001 58.87,-9.5 68.8699,-13.0001 68.87,-6.0001"/>
</g>
<!-- Node3 -->
<g id="node3" class="node">
<title>Node3</title>
<g id="a_node3"><a xlink:href="main_8cpp_a0ddf1224851353fc92bfbff6f499fa97.html#a0ddf1224851353fc92bfbff6f499fa97" target="_top" xlink:title="main">
<polygon fill="#ffffff" stroke="#000000" points="189.5859,-.5 189.5859,-18.5 227.2607,-18.5 227.2607,-.5 189.5859,-.5"/>
<text text-anchor="middle" x="208.4233" y="-6.5" font-family="Helvetica,sans-Serif" font-size="10.00" fill="#000000">main</text>
</a>
</g>
</g>
<!-- Node2&#45;&gt;Node3 -->
<g id="edge2" class="edge">
<title>Node2&#45;&gt;Node3</title>
<path fill="none" stroke="#191970" d="M163.9131,-9.5C172.7921,-9.5 181.8133,-9.5 189.3916,-9.5"/>
<polygon fill="#191970" stroke="#191970" points="163.6504,-6.0001 153.6504,-9.5 163.6503,-13.0001 163.6504,-6.0001"/>
</g>
</g>
</svg>
