<?xml version="1.0" encoding="UTF-8" standalone="no"?>
<!DOCTYPE svg PUBLIC "-//W3C//DTD SVG 1.1//EN"
 "http://www.w3.org/Graphics/SVG/1.1/DTD/svg11.dtd">
<!-- Generated by graphviz version 2.40.1 (20161225.0304)
 -->
<!-- Title: DWC_s2p_CGLS Pages: 1 -->
<svg width="269pt" height="175pt"
 viewBox="0.00 0.00 268.85 175.00" xmlns="http://www.w3.org/2000/svg" xmlns:xlink="http://www.w3.org/1999/xlink">
<g id="graph0" class="graph" transform="scale(1 1) rotate(0) translate(4 171)">
<title>DWC_s2p_CGLS</title>
<polygon fill="#ffffff" stroke="transparent" points="-4,4 -4,-171 264.8516,-171 264.8516,4 -4,4"/>
<!-- Node0 -->
<g id="node1" class="node">
<title>Node0</title>
<polygon fill="#bfbfbf" stroke="#000000" points="0,-74.5 0,-92.5 94.3594,-92.5 94.3594,-74.5 0,-74.5"/>
<text text-anchor="middle" x="47.1797" y="-80.5" font-family="Helvetica,sans-Serif" font-size="10.00" fill="#000000">DWC_s2p_CGLS</text>
</g>
<!-- Node1 -->
<g id="node2" class="node">
<title>Node1</title>
<g id="a_node2"><a xlink:href="Conti2D_8cpp_a98827c14ed7072c96834f20205c7a916.html#a98827c14ed7072c96834f20205c7a916" target="_top" xlink:title="Norm2">
<polygon fill="#ffffff" stroke="#000000" points="172.603,-148.5 172.603,-166.5 218.6079,-166.5 218.6079,-148.5 172.603,-148.5"/>
<text text-anchor="middle" x="195.6055" y="-154.5" font-family="Helvetica,sans-Serif" font-size="10.00" fill="#000000">Norm2</text>
</a>
</g>
</g>
<!-- Node0&#45;&gt;Node1 -->
<g id="edge1" class="edge">
<title>Node0&#45;&gt;Node1</title>
<path fill="none" stroke="#191970" d="M58.0559,-92.5306C73.3164,-104.7868 102.3622,-126.6307 130.3594,-139.5 140.473,-144.1489 152.0355,-147.8219 162.5898,-150.6047"/>
<polygon fill="#191970" stroke="#191970" points="161.7728,-154.008 172.3198,-153.0028 163.4479,-147.2114 161.7728,-154.008"/>
</g>
<!-- Node2 -->
<g id="node3" class="node">
<title>Node2</title>
<g id="a_node3"><a xlink:href="Conti2D_8cpp_a6334abab105b1fe7efa9a3e2a4b07c47.html#a6334abab105b1fe7efa9a3e2a4b07c47" target="_top" xlink:title="Save results of at each iteration step as vtk file. ">
<polygon fill="#ffffff" stroke="#000000" points="155.3691,-111.5 155.3691,-129.5 235.8418,-129.5 235.8418,-111.5 155.3691,-111.5"/>
<text text-anchor="middle" x="195.6055" y="-117.5" font-family="Helvetica,sans-Serif" font-size="10.00" fill="#000000">SaveGrd2VTK</text>
</a>
</g>
</g>
<!-- Node0&#45;&gt;Node2 -->
<g id="edge2" class="edge">
<title>Node0&#45;&gt;Node2</title>
<path fill="none" stroke="#191970" d="M83.4887,-92.5512C103.4187,-97.5194 128.3341,-103.7304 149.6126,-109.0348"/>
<polygon fill="#191970" stroke="#191970" points="148.8647,-112.4554 159.4144,-111.4782 150.5579,-105.6632 148.8647,-112.4554"/>
</g>
<!-- Node3 -->
<g id="node4" class="node">
<title>Node3</title>
<g id="a_node4"><a xlink:href="classMultiProgressBar_a58eef55ad6d5c7d769b3a402a2ef7b85.html#a58eef55ad6d5c7d769b3a402a2ef7b85" target="_top" xlink:title="MultiProgressBar::Update">
<polygon fill="#ffffff" stroke="#000000" points="130.3594,-74.5 130.3594,-92.5 260.8516,-92.5 260.8516,-74.5 130.3594,-74.5"/>
<text text-anchor="middle" x="195.6055" y="-80.5" font-family="Helvetica,sans-Serif" font-size="10.00" fill="#000000">MultiProgressBar::Update</text>
</a>
</g>
</g>
<!-- Node0&#45;&gt;Node3 -->
<g id="edge3" class="edge">
<title>Node0&#45;&gt;Node3</title>
<path fill="none" stroke="#191970" d="M94.5506,-83.5C102.7217,-83.5 111.3946,-83.5 120.0912,-83.5"/>
<polygon fill="#191970" stroke="#191970" points="120.2827,-87.0001 130.2827,-83.5 120.2827,-80.0001 120.2827,-87.0001"/>
</g>
<!-- Node4 -->
<g id="node5" class="node">
<title>Node4</title>
<g id="a_node5"><a xlink:href="Conti2D_8cpp_a632c1e4efbb7e9b1aaf04db729e69394.html#a632c1e4efbb7e9b1aaf04db729e69394" target="_top" xlink:title="UWC_Gij">
<polygon fill="#ffffff" stroke="#000000" points="166.7729,-37.5 166.7729,-55.5 224.438,-55.5 224.438,-37.5 166.7729,-37.5"/>
<text text-anchor="middle" x="195.6055" y="-43.5" font-family="Helvetica,sans-Serif" font-size="10.00" fill="#000000">UWC_Gij</text>
</a>
</g>
</g>
<!-- Node0&#45;&gt;Node4 -->
<g id="edge4" class="edge">
<title>Node0&#45;&gt;Node4</title>
<path fill="none" stroke="#191970" d="M83.4887,-74.4488C105.6672,-68.9201 134.0194,-61.8523 156.6632,-56.2076"/>
<polygon fill="#191970" stroke="#191970" points="157.7663,-59.5399 166.6227,-53.7249 156.073,-52.7477 157.7663,-59.5399"/>
</g>
<!-- Node5 -->
<g id="node6" class="node">
<title>Node5</title>
<g id="a_node6"><a xlink:href="Conti2D_8cpp_a9d30373a0ff29e4f743eaf5e4cbc3cbf.html#a9d30373a0ff29e4f743eaf5e4cbc3cbf" target="_top" xlink:title="UWC_Gji">
<polygon fill="#ffffff" stroke="#000000" points="166.7729,-.5 166.7729,-18.5 224.438,-18.5 224.438,-.5 166.7729,-.5"/>
<text text-anchor="middle" x="195.6055" y="-6.5" font-family="Helvetica,sans-Serif" font-size="10.00" fill="#000000">UWC_Gji</text>
</a>
</g>
</g>
<!-- Node0&#45;&gt;Node5 -->
<g id="edge5" class="edge">
<title>Node0&#45;&gt;Node5</title>
<path fill="none" stroke="#191970" d="M58.372,-74.4957C73.7643,-62.5004 102.7119,-41.3069 130.3594,-28.5 138.6818,-24.6449 147.9667,-21.379 156.8619,-18.6999"/>
<polygon fill="#191970" stroke="#191970" points="157.9985,-22.0158 166.6672,-15.9245 156.0919,-15.2804 157.9985,-22.0158"/>
</g>
</g>
</svg>
