<?xml version="1.0" encoding="UTF-8" standalone="no"?>
<!DOCTYPE svg PUBLIC "-//W3C//DTD SVG 1.1//EN"
 "http://www.w3.org/Graphics/SVG/1.1/DTD/svg11.dtd">
<!-- Generated by graphviz version 2.40.1 (20161225.0304)
 -->
<!-- Title: DWC_s2p_ItegrationIter Pages: 1 -->
<svg width="303pt" height="64pt"
 viewBox="0.00 0.00 303.07 64.00" xmlns="http://www.w3.org/2000/svg" xmlns:xlink="http://www.w3.org/1999/xlink">
<g id="graph0" class="graph" transform="scale(1 1) rotate(0) translate(4 60)">
<title>DWC_s2p_ItegrationIter</title>
<polygon fill="#ffffff" stroke="transparent" points="-4,4 -4,-60 299.0732,-60 299.0732,4 -4,4"/>
<!-- Node7 -->
<g id="node1" class="node">
<title>Node7</title>
<polygon fill="#bfbfbf" stroke="#000000" points="0,-18.5 0,-36.5 123.2705,-36.5 123.2705,-18.5 0,-18.5"/>
<text text-anchor="middle" x="61.6353" y="-24.5" font-family="Helvetica,sans-Serif" font-size="10.00" fill="#000000">DWC_s2p_ItegrationIter</text>
</g>
<!-- Node8 -->
<g id="node2" class="node">
<title>Node8</title>
<g id="a_node2"><a xlink:href="Conti2D_8h_ab87ce573de93575b7ece2e4f772e03fd.html#ab87ce573de93575b7ece2e4f772e03fd" target="_top" xlink:title="DWC_p2p">
<polygon fill="#ffffff" stroke="#000000" points="159.2705,-37.5 159.2705,-55.5 221.3984,-55.5 221.3984,-37.5 159.2705,-37.5"/>
<text text-anchor="middle" x="190.3345" y="-43.5" font-family="Helvetica,sans-Serif" font-size="10.00" fill="#000000">DWC_p2p</text>
</a>
</g>
</g>
<!-- Node7&#45;&gt;Node8 -->
<g id="edge1" class="edge">
<title>Node7&#45;&gt;Node8</title>
<path fill="none" stroke="#191970" d="M132.9747,-38.0319C142.1588,-39.3878 151.1507,-40.7153 159.1902,-41.9021"/>
<polygon fill="#191970" stroke="#191970" points="133.3734,-34.5529 122.9695,-36.5548 132.351,-41.4779 133.3734,-34.5529"/>
</g>
<!-- Node10 -->
<g id="node4" class="node">
<title>Node10</title>
<g id="a_node4"><a xlink:href="Conti2D_8h_ac96429563a5015babafa3274c3f3ec73.html#ac96429563a5015babafa3274c3f3ec73" target="_top" xlink:title="downward continuation from surface to plane ">
<polygon fill="#ffffff" stroke="#000000" points="159.5513,-.5 159.5513,-18.5 221.1177,-18.5 221.1177,-.5 159.5513,-.5"/>
<text text-anchor="middle" x="190.3345" y="-6.5" font-family="Helvetica,sans-Serif" font-size="10.00" fill="#000000">DWC_s2p</text>
</a>
</g>
</g>
<!-- Node7&#45;&gt;Node10 -->
<g id="edge3" class="edge">
<title>Node7&#45;&gt;Node10</title>
<path fill="none" stroke="#191970" d="M133.3119,-17.4752C142.4564,-16.1963 151.401,-14.9453 159.394,-13.8274"/>
<polygon fill="#191970" stroke="#191970" points="132.765,-14.0176 123.3462,-18.869 133.7346,-20.9501 132.765,-14.0176"/>
</g>
<!-- Node9 -->
<g id="node3" class="node">
<title>Node9</title>
<g id="a_node3"><a xlink:href="main_8cpp_a0ddf1224851353fc92bfbff6f499fa97.html#a0ddf1224851353fc92bfbff6f499fa97" target="_top" xlink:title="main">
<polygon fill="#ffffff" stroke="#000000" points="257.3984,-18.5 257.3984,-36.5 295.0732,-36.5 295.0732,-18.5 257.3984,-18.5"/>
<text text-anchor="middle" x="276.2358" y="-24.5" font-family="Helvetica,sans-Serif" font-size="10.00" fill="#000000">main</text>
</a>
</g>
</g>
<!-- Node8&#45;&gt;Node9 -->
<g id="edge2" class="edge">
<title>Node8&#45;&gt;Node9</title>
<path fill="none" stroke="#191970" d="M231.7751,-37.334C240.6861,-35.363 249.6838,-33.3729 257.2315,-31.7035"/>
<polygon fill="#191970" stroke="#191970" points="230.8413,-33.9559 221.8332,-39.533 232.3531,-40.7907 230.8413,-33.9559"/>
</g>
<!-- Node10&#45;&gt;Node9 -->
<g id="edge4" class="edge">
<title>Node10&#45;&gt;Node9</title>
<path fill="none" stroke="#191970" d="M231.4204,-18.1093C240.4601,-20.0035 249.6101,-21.9208 257.2648,-23.5248"/>
<polygon fill="#191970" stroke="#191970" points="231.8521,-14.6238 221.3468,-15.9984 230.4164,-21.475 231.8521,-14.6238"/>
</g>
</g>
</svg>
