<?xml version="1.0" encoding="UTF-8" standalone="no"?>
<!DOCTYPE svg PUBLIC "-//W3C//DTD SVG 1.1//EN"
 "http://www.w3.org/Graphics/SVG/1.1/DTD/svg11.dtd">
<!-- Generated by graphviz version 2.40.1 (20161225.0304)
 -->
<!-- Title: ReadGrd Pages: 1 -->
<svg width="351pt" height="228pt"
 viewBox="0.00 0.00 351.19 228.00" xmlns="http://www.w3.org/2000/svg" xmlns:xlink="http://www.w3.org/1999/xlink">
<g id="graph0" class="graph" transform="scale(1 1) rotate(0) translate(4 224)">
<title>ReadGrd</title>
<polygon fill="#ffffff" stroke="transparent" points="-4,4 -4,-224 347.1865,-224 347.1865,4 -4,4"/>
<!-- Node1 -->
<g id="node1" class="node">
<title>Node1</title>
<polygon fill="#bfbfbf" stroke="#000000" points="0,-102.5 0,-120.5 56.5762,-120.5 56.5762,-102.5 0,-102.5"/>
<text text-anchor="middle" x="28.2881" y="-108.5" font-family="Helvetica,sans-Serif" font-size="10.00" fill="#000000">ReadGrd</text>
</g>
<!-- Node2 -->
<g id="node2" class="node">
<title>Node2</title>
<g id="a_node2"><a xlink:href="Conti2D_8h_ab87ce573de93575b7ece2e4f772e03fd.html#ab87ce573de93575b7ece2e4f772e03fd" target="_top" xlink:title="DWC_p2p">
<polygon fill="#ffffff" stroke="#000000" points="203.2139,-201.5 203.2139,-219.5 265.3418,-219.5 265.3418,-201.5 203.2139,-201.5"/>
<text text-anchor="middle" x="234.2778" y="-207.5" font-family="Helvetica,sans-Serif" font-size="10.00" fill="#000000">DWC_p2p</text>
</a>
</g>
</g>
<!-- Node1&#45;&gt;Node2 -->
<g id="edge1" class="edge">
<title>Node1&#45;&gt;Node2</title>
<path fill="none" stroke="#191970" d="M46.8037,-127.198C59.1742,-137.126 76.136,-149.6994 92.5762,-158.5 128.7326,-177.855 173.6392,-192.9791 203.085,-201.8117"/>
<polygon fill="#191970" stroke="#191970" points="48.9874,-124.4624 39.036,-120.8264 44.5479,-129.8745 48.9874,-124.4624"/>
</g>
<!-- Node4 -->
<g id="node4" class="node">
<title>Node4</title>
<g id="a_node4"><a xlink:href="Conti2D_8h_afb187c363388d28caa8a055176269f12.html#afb187c363388d28caa8a055176269f12" target="_top" xlink:title="DWC_p2p_f">
<polygon fill="#ffffff" stroke="#000000" points="199.0439,-114.5 199.0439,-132.5 269.5117,-132.5 269.5117,-114.5 199.0439,-114.5"/>
<text text-anchor="middle" x="234.2778" y="-120.5" font-family="Helvetica,sans-Serif" font-size="10.00" fill="#000000">DWC_p2p_f</text>
</a>
</g>
</g>
<!-- Node1&#45;&gt;Node4 -->
<g id="edge3" class="edge">
<title>Node1&#45;&gt;Node4</title>
<path fill="none" stroke="#191970" d="M66.7402,-117.6367C75.2287,-118.7807 84.1903,-119.8266 92.5762,-120.5 128.7543,-123.4052 170.2841,-123.9585 198.9883,-123.9057"/>
<polygon fill="#191970" stroke="#191970" points="67.0837,-114.1505 56.6912,-116.2112 66.1005,-121.0811 67.0837,-114.1505"/>
</g>
<!-- Node5 -->
<g id="node5" class="node">
<title>Node5</title>
<g id="a_node5"><a xlink:href="Conti2D_8h_ac96429563a5015babafa3274c3f3ec73.html#ac96429563a5015babafa3274c3f3ec73" target="_top" xlink:title="downward continuation from surface to plane ">
<polygon fill="#ffffff" stroke="#000000" points="203.4946,-159.5 203.4946,-177.5 265.061,-177.5 265.061,-159.5 203.4946,-159.5"/>
<text text-anchor="middle" x="234.2778" y="-165.5" font-family="Helvetica,sans-Serif" font-size="10.00" fill="#000000">DWC_s2p</text>
</a>
</g>
</g>
<!-- Node1&#45;&gt;Node5 -->
<g id="edge5" class="edge">
<title>Node1&#45;&gt;Node5</title>
<path fill="none" stroke="#191970" d="M59.8201,-124.1923C70.1613,-128.1065 81.772,-132.24 92.5762,-135.5 130.1798,-146.8465 174.3833,-156.5845 203.2946,-162.4816"/>
<polygon fill="#191970" stroke="#191970" points="60.9517,-120.8775 50.3621,-120.5424 58.4314,-127.408 60.9517,-120.8775"/>
</g>
<!-- Node6 -->
<g id="node6" class="node">
<title>Node6</title>
<g id="a_node6"><a xlink:href="Conti2D_8h_a7b6bfe9f5b32bc1a62005196d84edfde.html#a7b6bfe9f5b32bc1a62005196d84edfde" target="_top" xlink:title="UWC_p2p">
<polygon fill="#ffffff" stroke="#000000" points="96.7461,-37.5 96.7461,-55.5 158.874,-55.5 158.874,-37.5 96.7461,-37.5"/>
<text text-anchor="middle" x="127.8101" y="-43.5" font-family="Helvetica,sans-Serif" font-size="10.00" fill="#000000">UWC_p2p</text>
</a>
</g>
</g>
<!-- Node1&#45;&gt;Node6 -->
<g id="edge7" class="edge">
<title>Node1&#45;&gt;Node6</title>
<path fill="none" stroke="#191970" d="M48.5753,-95.979C61.0074,-86.7233 77.3976,-74.97 92.5762,-65.5 98.1186,-62.042 104.3413,-58.5618 109.9974,-55.5419"/>
<polygon fill="#191970" stroke="#191970" points="46.1824,-93.3993 40.2964,-102.2087 50.3913,-98.9927 46.1824,-93.3993"/>
</g>
<!-- Node7 -->
<g id="node7" class="node">
<title>Node7</title>
<g id="a_node7"><a xlink:href="Conti2D_8h_af82757cb7e0f4f398e774b4e89b9ea72.html#af82757cb7e0f4f398e774b4e89b9ea72" target="_top" xlink:title="UWC_p2p_f">
<polygon fill="#ffffff" stroke="#000000" points="92.5762,-74.5 92.5762,-92.5 163.0439,-92.5 163.0439,-74.5 92.5762,-74.5"/>
<text text-anchor="middle" x="127.8101" y="-80.5" font-family="Helvetica,sans-Serif" font-size="10.00" fill="#000000">UWC_p2p_f</text>
</a>
</g>
</g>
<!-- Node1&#45;&gt;Node7 -->
<g id="edge9" class="edge">
<title>Node1&#45;&gt;Node7</title>
<path fill="none" stroke="#191970" d="M66.5764,-100.7278C76.2252,-98.0131 86.4826,-95.1273 95.7879,-92.5093"/>
<polygon fill="#191970" stroke="#191970" points="65.4854,-97.3988 56.8071,-103.4763 67.3813,-104.1371 65.4854,-97.3988"/>
</g>
<!-- Node8 -->
<g id="node8" class="node">
<title>Node8</title>
<g id="a_node8"><a xlink:href="Conti2D_8h_af8adb87017663774bfd342b39facc828.html#af8adb87017663774bfd342b39facc828" target="_top" xlink:title="Upward continuation from plane to surface. ">
<polygon fill="#ffffff" stroke="#000000" points="97.0269,-.5 97.0269,-18.5 158.5933,-18.5 158.5933,-.5 97.0269,-.5"/>
<text text-anchor="middle" x="127.8101" y="-6.5" font-family="Helvetica,sans-Serif" font-size="10.00" fill="#000000">UWC_p2s</text>
</a>
</g>
</g>
<!-- Node1&#45;&gt;Node8 -->
<g id="edge13" class="edge">
<title>Node1&#45;&gt;Node8</title>
<path fill="none" stroke="#191970" d="M38.5471,-93.7668C49.8933,-75.3566 69.6338,-46.6261 92.5762,-27.5 96.6915,-24.0692 101.57,-21.058 106.3645,-18.5293"/>
<polygon fill="#191970" stroke="#191970" points="35.5431,-91.9707 33.4064,-102.3478 41.548,-95.5681 35.5431,-91.9707"/>
</g>
<!-- Node3 -->
<g id="node3" class="node">
<title>Node3</title>
<g id="a_node3"><a xlink:href="main_8cpp_a0ddf1224851353fc92bfbff6f499fa97.html#a0ddf1224851353fc92bfbff6f499fa97" target="_top" xlink:title="main">
<polygon fill="#ffffff" stroke="#000000" points="305.5117,-95.5 305.5117,-113.5 343.1865,-113.5 343.1865,-95.5 305.5117,-95.5"/>
<text text-anchor="middle" x="324.3491" y="-101.5" font-family="Helvetica,sans-Serif" font-size="10.00" fill="#000000">main</text>
</a>
</g>
</g>
<!-- Node2&#45;&gt;Node3 -->
<g id="edge2" class="edge">
<title>Node2&#45;&gt;Node3</title>
<path fill="none" stroke="#191970" d="M259.7201,-195.7189C263.1898,-193.1928 266.5658,-190.4297 269.5117,-187.5 292.779,-164.3609 311.7157,-129.849 319.9334,-113.5918"/>
<polygon fill="#191970" stroke="#191970" points="257.4734,-193.0101 251.0943,-201.4693 261.3563,-198.8346 257.4734,-193.0101"/>
</g>
<!-- Node4&#45;&gt;Node3 -->
<g id="edge4" class="edge">
<title>Node4&#45;&gt;Node3</title>
<path fill="none" stroke="#191970" d="M279.4977,-113.9611C288.6652,-112.0273 297.8225,-110.0956 305.4501,-108.4866"/>
<polygon fill="#191970" stroke="#191970" points="278.6801,-110.5565 269.6179,-116.0452 280.125,-117.4058 278.6801,-110.5565"/>
</g>
<!-- Node5&#45;&gt;Node3 -->
<g id="edge6" class="edge">
<title>Node5&#45;&gt;Node3</title>
<path fill="none" stroke="#191970" d="M255.5778,-153.3654C272.942,-141.0273 296.8974,-124.0058 311.468,-113.6526"/>
<polygon fill="#191970" stroke="#191970" points="253.3073,-150.685 247.1829,-159.3304 257.3619,-156.3912 253.3073,-150.685"/>
</g>
<!-- Node6&#45;&gt;Node3 -->
<g id="edge8" class="edge">
<title>Node6&#45;&gt;Node3</title>
<path fill="none" stroke="#191970" d="M169.0419,-58.2068C197.3475,-66.2982 235.7548,-77.3849 269.5117,-87.5 281.4466,-91.0762 294.8006,-95.2132 305.3424,-98.5106"/>
<polygon fill="#191970" stroke="#191970" points="169.6745,-54.7477 159.0979,-55.3687 167.7533,-61.4789 169.6745,-54.7477"/>
</g>
<!-- Node7&#45;&gt;Node3 -->
<g id="edge11" class="edge">
<title>Node7&#45;&gt;Node3</title>
<path fill="none" stroke="#191970" d="M173.3548,-88.3664C215.1942,-92.8369 275.1488,-99.243 305.3793,-102.4731"/>
<polygon fill="#191970" stroke="#191970" points="173.7171,-84.8853 163.4018,-87.3029 172.9733,-91.8457 173.7171,-84.8853"/>
</g>
<!-- Node7&#45;&gt;Node4 -->
<g id="edge10" class="edge">
<title>Node7&#45;&gt;Node4</title>
<path fill="none" stroke="#191970" d="M161.4238,-96.1287C177.2658,-102.0806 195.8031,-109.045 210.2143,-114.4593"/>
<polygon fill="#191970" stroke="#191970" points="162.5614,-92.8173 151.9692,-92.5766 160.0994,-99.3701 162.5614,-92.8173"/>
</g>
<!-- Node7&#45;&gt;Node7 -->
<g id="edge12" class="edge">
<title>Node7&#45;&gt;Node7</title>
<path fill="none" stroke="#191970" d="M109.5228,-101.8575C110.3107,-107.0281 116.4064,-111 127.8101,-111 145.6108,-111 150.4782,-101.322 142.4123,-92.5134"/>
<polygon fill="#191970" stroke="#191970" points="112.795,-103.1002 113.2079,-92.5134 106.2831,-100.532 112.795,-103.1002"/>
</g>
<!-- Node8&#45;&gt;Node3 -->
<g id="edge14" class="edge">
<title>Node8&#45;&gt;Node3</title>
<path fill="none" stroke="#191970" d="M168.6376,-21.2242C197.7321,-30.4151 237.2422,-44.6291 269.5117,-62.5 286.5065,-71.9118 303.952,-86.2307 314.4722,-95.4773"/>
<polygon fill="#191970" stroke="#191970" points="169.3975,-17.7958 158.8098,-18.185 167.3293,-24.4833 169.3975,-17.7958"/>
</g>
</g>
</svg>
