<?xml version="1.0" encoding="UTF-8" standalone="no"?>
<!DOCTYPE svg PUBLIC "-//W3C//DTD SVG 1.1//EN"
 "http://www.w3.org/Graphics/SVG/1.1/DTD/svg11.dtd">
<!-- Generated by graphviz version 2.40.1 (20161225.0304)
 -->
<!-- Title: Getkernel_p2p_new Pages: 1 -->
<svg width="285pt" height="64pt"
 viewBox="0.00 0.00 285.31 64.00" xmlns="http://www.w3.org/2000/svg" xmlns:xlink="http://www.w3.org/1999/xlink">
<g id="graph0" class="graph" transform="scale(1 1) rotate(0) translate(4 60)">
<title>Getkernel_p2p_new</title>
<polygon fill="#ffffff" stroke="transparent" points="-4,4 -4,-60 281.3096,-60 281.3096,4 -4,4"/>
<!-- Node3 -->
<g id="node1" class="node">
<title>Node3</title>
<polygon fill="#bfbfbf" stroke="#000000" points="0,-18.5 0,-36.5 105.5068,-36.5 105.5068,-18.5 0,-18.5"/>
<text text-anchor="middle" x="52.7534" y="-24.5" font-family="Helvetica,sans-Serif" font-size="10.00" fill="#000000">Getkernel_p2p_new</text>
</g>
<!-- Node4 -->
<g id="node2" class="node">
<title>Node4</title>
<g id="a_node2"><a xlink:href="Conti2D_8h_ac80c719a8192b6133df6ae172662e51a.html#ac80c719a8192b6133df6ae172662e51a" target="_top" xlink:title="Downward continuation: plane to plane(space domain) ">
<polygon fill="#ffffff" stroke="#000000" points="141.5068,-37.5 141.5068,-55.5 203.6348,-55.5 203.6348,-37.5 141.5068,-37.5"/>
<text text-anchor="middle" x="172.5708" y="-43.5" font-family="Helvetica,sans-Serif" font-size="10.00" fill="#000000">DWC_p2p</text>
</a>
</g>
</g>
<!-- Node3&#45;&gt;Node4 -->
<g id="edge1" class="edge">
<title>Node3&#45;&gt;Node4</title>
<path fill="none" stroke="#191970" d="M115.6783,-37.4783C124.5589,-38.8865 133.3509,-40.2807 141.2711,-41.5367"/>
<polygon fill="#191970" stroke="#191970" points="116.0806,-33.9984 105.6558,-35.889 114.9842,-40.9121 116.0806,-33.9984"/>
</g>
<!-- Node6 -->
<g id="node4" class="node">
<title>Node6</title>
<g id="a_node4"><a xlink:href="Conti2D_8h_a05f1b014599cdda496e9bf781d4737d4.html#a05f1b014599cdda496e9bf781d4737d4" target="_top" xlink:title="Upward continuation: plane to plane(space domain) ">
<polygon fill="#ffffff" stroke="#000000" points="141.5068,-.5 141.5068,-18.5 203.6348,-18.5 203.6348,-.5 141.5068,-.5"/>
<text text-anchor="middle" x="172.5708" y="-6.5" font-family="Helvetica,sans-Serif" font-size="10.00" fill="#000000">UWC_p2p</text>
</a>
</g>
</g>
<!-- Node3&#45;&gt;Node6 -->
<g id="edge3" class="edge">
<title>Node3&#45;&gt;Node6</title>
<path fill="none" stroke="#191970" d="M115.6783,-18.0469C124.5589,-16.7128 133.3509,-15.3919 141.2711,-14.2021"/>
<polygon fill="#191970" stroke="#191970" points="115.0249,-14.6057 105.6558,-19.5525 116.0649,-21.528 115.0249,-14.6057"/>
</g>
<!-- Node5 -->
<g id="node3" class="node">
<title>Node5</title>
<g id="a_node3"><a xlink:href="main_8cpp_a0ddf1224851353fc92bfbff6f499fa97.html#a0ddf1224851353fc92bfbff6f499fa97" target="_top" xlink:title="main">
<polygon fill="#ffffff" stroke="#000000" points="239.6348,-18.5 239.6348,-36.5 277.3096,-36.5 277.3096,-18.5 239.6348,-18.5"/>
<text text-anchor="middle" x="258.4722" y="-24.5" font-family="Helvetica,sans-Serif" font-size="10.00" fill="#000000">main</text>
</a>
</g>
</g>
<!-- Node4&#45;&gt;Node5 -->
<g id="edge2" class="edge">
<title>Node4&#45;&gt;Node5</title>
<path fill="none" stroke="#191970" d="M214.0115,-37.334C222.9224,-35.363 231.9201,-33.3729 239.4678,-31.7035"/>
<polygon fill="#191970" stroke="#191970" points="213.0776,-33.9559 204.0695,-39.533 214.5894,-40.7907 213.0776,-33.9559"/>
</g>
<!-- Node6&#45;&gt;Node5 -->
<g id="edge4" class="edge">
<title>Node6&#45;&gt;Node5</title>
<path fill="none" stroke="#191970" d="M214.0115,-18.1836C222.9224,-20.0508 231.9201,-21.9362 239.4678,-23.5178"/>
<polygon fill="#191970" stroke="#191970" points="214.5748,-14.7257 204.0695,-16.1003 213.1391,-21.5769 214.5748,-14.7257"/>
</g>
</g>
</svg>
