<?xml version="1.0" encoding="UTF-8" standalone="no"?>
<!DOCTYPE svg PUBLIC "-//W3C//DTD SVG 1.1//EN"
 "http://www.w3.org/Graphics/SVG/1.1/DTD/svg11.dtd">
<!-- Generated by graphviz version 2.40.1 (20161225.0304)
 -->
<!-- Title: Conti2D.cpp Pages: 1 -->
<svg width="777pt" height="247pt"
 viewBox="0.00 0.00 776.81 247.00" xmlns="http://www.w3.org/2000/svg" xmlns:xlink="http://www.w3.org/1999/xlink">
<g id="graph0" class="graph" transform="scale(1 1) rotate(0) translate(4 243)">
<title>Conti2D.cpp</title>
<polygon fill="#ffffff" stroke="transparent" points="-4,4 -4,-243 772.8135,-243 772.8135,4 -4,4"/>
<!-- Node0 -->
<g id="node1" class="node">
<title>Node0</title>
<polygon fill="#bfbfbf" stroke="#000000" points="329.1265,-220.5 329.1265,-238.5 400.1558,-238.5 400.1558,-220.5 329.1265,-220.5"/>
<text text-anchor="middle" x="364.6411" y="-226.5" font-family="Helvetica,sans-Serif" font-size="10.00" fill="#000000">Conti2D.cpp</text>
</g>
<!-- Node1 -->
<g id="node2" class="node">
<title>Node1</title>
<g id="a_node2"><a xlink:href="Conti2D_8h.html" target="_top" xlink:title="Definition of sub&#45;functions of continuation of potential field data. ">
<polygon fill="#ffffff" stroke="#000000" points="334.4072,-165.5 334.4072,-183.5 394.875,-183.5 394.875,-165.5 334.4072,-165.5"/>
<text text-anchor="middle" x="364.6411" y="-171.5" font-family="Helvetica,sans-Serif" font-size="10.00" fill="#000000">Conti2D.h</text>
</a>
</g>
</g>
<!-- Node0&#45;&gt;Node1 -->
<g id="edge1" class="edge">
<title>Node0&#45;&gt;Node1</title>
<path fill="none" stroke="#191970" d="M364.6411,-220.4179C364.6411,-213.2164 364.6411,-202.8962 364.6411,-193.8632"/>
<polygon fill="#191970" stroke="#191970" points="368.1412,-193.7794 364.6411,-183.7795 361.1412,-193.7795 368.1412,-193.7794"/>
</g>
<!-- Node2 -->
<g id="node3" class="node">
<title>Node2</title>
<g id="a_node3"><a xlink:href="stdfunc_8h.html" target="_top" xlink:title="Definition of some basic functions. ">
<polygon fill="#ffffff" stroke="#000000" points="336.3506,-110.5 336.3506,-128.5 392.9316,-128.5 392.9316,-110.5 336.3506,-110.5"/>
<text text-anchor="middle" x="364.6411" y="-116.5" font-family="Helvetica,sans-Serif" font-size="10.00" fill="#000000">stdfunc.h</text>
</a>
</g>
</g>
<!-- Node1&#45;&gt;Node2 -->
<g id="edge2" class="edge">
<title>Node1&#45;&gt;Node2</title>
<path fill="none" stroke="#191970" d="M364.6411,-165.4179C364.6411,-158.2164 364.6411,-147.8962 364.6411,-138.8632"/>
<polygon fill="#191970" stroke="#191970" points="368.1412,-138.7794 364.6411,-128.7795 361.1412,-138.7795 368.1412,-138.7794"/>
</g>
<!-- Node15 -->
<g id="node16" class="node">
<title>Node15</title>
<polygon fill="#ffffff" stroke="#bfbfbf" points="410.7446,-110.5 410.7446,-128.5 454.5376,-128.5 454.5376,-110.5 410.7446,-110.5"/>
<text text-anchor="middle" x="432.6411" y="-116.5" font-family="Helvetica,sans-Serif" font-size="10.00" fill="#000000">omp.h</text>
</g>
<!-- Node1&#45;&gt;Node15 -->
<g id="edge17" class="edge">
<title>Node1&#45;&gt;Node15</title>
<path fill="none" stroke="#191970" d="M375.8699,-165.4179C386.0456,-157.1876 401.2574,-144.8839 413.3742,-135.0836"/>
<polygon fill="#191970" stroke="#191970" points="415.5943,-137.7895 421.1683,-128.7795 411.1921,-132.3469 415.5943,-137.7895"/>
</g>
<!-- Node16 -->
<g id="node17" class="node">
<title>Node16</title>
<g id="a_node17"><a xlink:href="FFTN_8h.html" target="_top" xlink:title="Definition of 2D and 1D Fast Fourier Fransformation (FFT) based on FFTW (see http://www.fftw.org) ">
<polygon fill="#ffffff" stroke="#000000" points="74.6978,-110.5 74.6978,-128.5 124.5845,-128.5 124.5845,-110.5 74.6978,-110.5"/>
<text text-anchor="middle" x="99.6411" y="-116.5" font-family="Helvetica,sans-Serif" font-size="10.00" fill="#000000">FFTN.h</text>
</a>
</g>
</g>
<!-- Node1&#45;&gt;Node16 -->
<g id="edge18" class="edge">
<title>Node1&#45;&gt;Node16</title>
<path fill="none" stroke="#191970" d="M334.2422,-168.1908C284.6626,-157.9007 186.6889,-137.5665 134.4153,-126.7173"/>
<polygon fill="#191970" stroke="#191970" points="135.1004,-123.285 124.5978,-124.6797 133.6778,-130.1389 135.1004,-123.285"/>
</g>
<!-- Node3 -->
<g id="node4" class="node">
<title>Node3</title>
<polygon fill="#ffffff" stroke="#bfbfbf" points="544.8604,-55.5 544.8604,-73.5 596.4219,-73.5 596.4219,-55.5 544.8604,-55.5"/>
<text text-anchor="middle" x="570.6411" y="-61.5" font-family="Helvetica,sans-Serif" font-size="10.00" fill="#000000">sstream</text>
</g>
<!-- Node2&#45;&gt;Node3 -->
<g id="edge3" class="edge">
<title>Node2&#45;&gt;Node3</title>
<path fill="none" stroke="#191970" d="M392.9786,-112.1322C425.1648,-103.7358 479.5142,-89.4734 534.7151,-74.5019"/>
<polygon fill="#191970" stroke="#191970" points="535.9305,-77.7986 544.6627,-71.7986 534.0948,-71.0435 535.9305,-77.7986"/>
</g>
<!-- Node4 -->
<g id="node5" class="node">
<title>Node4</title>
<polygon fill="#ffffff" stroke="#bfbfbf" points="714.4688,-.5 714.4688,-18.5 768.8135,-18.5 768.8135,-.5 714.4688,-.5"/>
<text text-anchor="middle" x="741.6411" y="-6.5" font-family="Helvetica,sans-Serif" font-size="10.00" fill="#000000">iostream</text>
</g>
<!-- Node2&#45;&gt;Node4 -->
<g id="edge4" class="edge">
<title>Node2&#45;&gt;Node4</title>
<path fill="none" stroke="#191970" d="M393.2366,-111.7363C396.0647,-111.0955 398.9014,-110.5023 401.6411,-110 472.462,-97.0152 668.8038,-120.659 723.6411,-74 736.6238,-62.9535 740.6396,-43.4018 741.7012,-28.7115"/>
<polygon fill="#191970" stroke="#191970" points="745.2015,-28.7578 742.0367,-18.6467 738.2054,-28.5245 745.2015,-28.7578"/>
</g>
<!-- Node5 -->
<g id="node6" class="node">
<title>Node5</title>
<polygon fill="#ffffff" stroke="#bfbfbf" points="203.9712,-55.5 203.9712,-73.5 253.311,-73.5 253.311,-55.5 203.9712,-55.5"/>
<text text-anchor="middle" x="228.6411" y="-61.5" font-family="Helvetica,sans-Serif" font-size="10.00" fill="#000000">fstream</text>
</g>
<!-- Node2&#45;&gt;Node5 -->
<g id="edge5" class="edge">
<title>Node2&#45;&gt;Node5</title>
<path fill="none" stroke="#191970" d="M342.1835,-110.4179C319.9378,-101.4215 285.6574,-87.5581 260.5817,-77.4172"/>
<polygon fill="#191970" stroke="#191970" points="261.7149,-74.1001 251.1321,-73.5956 259.0905,-80.5895 261.7149,-74.1001"/>
</g>
<!-- Node6 -->
<g id="node7" class="node">
<title>Node6</title>
<polygon fill="#ffffff" stroke="#bfbfbf" points="271.1313,-55.5 271.1313,-73.5 322.1509,-73.5 322.1509,-55.5 271.1313,-55.5"/>
<text text-anchor="middle" x="296.6411" y="-61.5" font-family="Helvetica,sans-Serif" font-size="10.00" fill="#000000">iomanip</text>
</g>
<!-- Node2&#45;&gt;Node6 -->
<g id="edge6" class="edge">
<title>Node2&#45;&gt;Node6</title>
<path fill="none" stroke="#191970" d="M353.4123,-110.4179C343.2367,-102.1876 328.0248,-89.8839 315.908,-80.0836"/>
<polygon fill="#191970" stroke="#191970" points="318.0901,-77.3469 308.1139,-73.7795 313.688,-82.7895 318.0901,-77.3469"/>
</g>
<!-- Node7 -->
<g id="node8" class="node">
<title>Node7</title>
<polygon fill="#ffffff" stroke="#bfbfbf" points="154.0254,-.5 154.0254,-18.5 197.2568,-18.5 197.2568,-.5 154.0254,-.5"/>
<text text-anchor="middle" x="175.6411" y="-6.5" font-family="Helvetica,sans-Serif" font-size="10.00" fill="#000000">vector</text>
</g>
<!-- Node2&#45;&gt;Node7 -->
<g id="edge7" class="edge">
<title>Node2&#45;&gt;Node7</title>
<path fill="none" stroke="#191970" d="M336.2883,-115.3286C293.3531,-108.464 214.7086,-93.5729 194.6411,-74 182.6399,-62.2946 178.1243,-43.4244 176.4725,-29.1115"/>
<polygon fill="#191970" stroke="#191970" points="179.9381,-28.5325 175.6735,-18.8339 172.9592,-29.0752 179.9381,-28.5325"/>
</g>
<!-- Node8 -->
<g id="node9" class="node">
<title>Node8</title>
<polygon fill="#ffffff" stroke="#bfbfbf" points="340.2446,-55.5 340.2446,-73.5 389.0376,-73.5 389.0376,-55.5 340.2446,-55.5"/>
<text text-anchor="middle" x="364.6411" y="-61.5" font-family="Helvetica,sans-Serif" font-size="10.00" fill="#000000">string.h</text>
</g>
<!-- Node2&#45;&gt;Node8 -->
<g id="edge8" class="edge">
<title>Node2&#45;&gt;Node8</title>
<path fill="none" stroke="#191970" d="M364.6411,-110.4179C364.6411,-103.2164 364.6411,-92.8962 364.6411,-83.8632"/>
<polygon fill="#191970" stroke="#191970" points="368.1412,-83.7794 364.6411,-73.7795 361.1412,-83.7795 368.1412,-83.7794"/>
</g>
<!-- Node9 -->
<g id="node10" class="node">
<title>Node9</title>
<polygon fill="#ffffff" stroke="#bfbfbf" points="101.3555,-55.5 101.3555,-73.5 147.9268,-73.5 147.9268,-55.5 101.3555,-55.5"/>
<text text-anchor="middle" x="124.6411" y="-61.5" font-family="Helvetica,sans-Serif" font-size="10.00" fill="#000000">math.h</text>
</g>
<!-- Node2&#45;&gt;Node9 -->
<g id="edge9" class="edge">
<title>Node2&#45;&gt;Node9</title>
<path fill="none" stroke="#191970" d="M336.335,-113.4441C297.0464,-104.9728 223.7984,-88.9418 161.6411,-74 160.4079,-73.7035 159.1524,-73.3984 157.8849,-73.0874"/>
<polygon fill="#191970" stroke="#191970" points="158.6524,-69.6716 148.1019,-70.6399 156.9534,-76.4623 158.6524,-69.6716"/>
</g>
<!-- Node10 -->
<g id="node11" class="node">
<title>Node10</title>
<g id="a_node11"><a xlink:href="MultiProgressBar_8h.html" target="_top" xlink:title="Definition of progress bar. ">
<polygon fill="#ffffff" stroke="#000000" points="614.3999,-55.5 614.3999,-73.5 714.8823,-73.5 714.8823,-55.5 614.3999,-55.5"/>
<text text-anchor="middle" x="664.6411" y="-61.5" font-family="Helvetica,sans-Serif" font-size="10.00" fill="#000000">MultiProgressBar.h</text>
</a>
</g>
</g>
<!-- Node2&#45;&gt;Node10 -->
<g id="edge10" class="edge">
<title>Node2&#45;&gt;Node10</title>
<path fill="none" stroke="#191970" d="M393.2708,-111.908C396.0919,-111.2325 398.9176,-110.5842 401.6411,-110 439.2718,-101.9274 538.8018,-85.1736 604.0564,-74.4036"/>
<polygon fill="#191970" stroke="#191970" points="604.9225,-77.8081 614.2204,-72.7287 603.7843,-70.9013 604.9225,-77.8081"/>
</g>
<!-- Node13 -->
<g id="node14" class="node">
<title>Node13</title>
<polygon fill="#ffffff" stroke="#bfbfbf" points="406.8506,-55.5 406.8506,-73.5 458.4316,-73.5 458.4316,-55.5 406.8506,-55.5"/>
<text text-anchor="middle" x="432.6411" y="-61.5" font-family="Helvetica,sans-Serif" font-size="10.00" fill="#000000">netcdf.h</text>
</g>
<!-- Node2&#45;&gt;Node13 -->
<g id="edge15" class="edge">
<title>Node2&#45;&gt;Node13</title>
<path fill="none" stroke="#191970" d="M375.8699,-110.4179C386.0456,-102.1876 401.2574,-89.8839 413.3742,-80.0836"/>
<polygon fill="#191970" stroke="#191970" points="415.5943,-82.7895 421.1683,-73.7795 411.1921,-77.3469 415.5943,-82.7895"/>
</g>
<!-- Node14 -->
<g id="node15" class="node">
<title>Node14</title>
<polygon fill="#ffffff" stroke="#bfbfbf" points="476.1289,-55.5 476.1289,-73.5 527.1533,-73.5 527.1533,-55.5 476.1289,-55.5"/>
<text text-anchor="middle" x="501.6411" y="-61.5" font-family="Helvetica,sans-Serif" font-size="10.00" fill="#000000">unistd.h</text>
</g>
<!-- Node2&#45;&gt;Node14 -->
<g id="edge16" class="edge">
<title>Node2&#45;&gt;Node14</title>
<path fill="none" stroke="#191970" d="M387.2639,-110.4179C409.6731,-101.4215 444.2056,-87.5581 469.4656,-77.4172"/>
<polygon fill="#191970" stroke="#191970" points="471.0086,-80.5693 478.9847,-73.5956 468.4007,-74.0732 471.0086,-80.5693"/>
</g>
<!-- Node10&#45;&gt;Node4 -->
<g id="edge12" class="edge">
<title>Node10&#45;&gt;Node4</title>
<path fill="none" stroke="#191970" d="M677.3561,-55.4179C689.0594,-47.0584 706.6458,-34.4966 720.4676,-24.6239"/>
<polygon fill="#191970" stroke="#191970" points="722.8042,-27.2561 728.9072,-18.5956 718.7355,-21.56 722.8042,-27.2561"/>
</g>
<!-- Node10&#45;&gt;Node7 -->
<g id="edge13" class="edge">
<title>Node10&#45;&gt;Node7</title>
<path fill="none" stroke="#191970" d="M614.1371,-56.1834C611.2651,-55.7679 608.4178,-55.3702 605.6411,-55 457.3615,-35.232 279.3836,-18.6701 207.7854,-12.3006"/>
<polygon fill="#191970" stroke="#191970" points="207.888,-8.796 197.6184,-11.4012 207.2711,-15.7688 207.888,-8.796"/>
</g>
<!-- Node11 -->
<g id="node12" class="node">
<title>Node11</title>
<polygon fill="#ffffff" stroke="#bfbfbf" points="571.9097,-.5 571.9097,-18.5 617.3726,-18.5 617.3726,-.5 571.9097,-.5"/>
<text text-anchor="middle" x="594.6411" y="-6.5" font-family="Helvetica,sans-Serif" font-size="10.00" fill="#000000">stdio.h</text>
</g>
<!-- Node10&#45;&gt;Node11 -->
<g id="edge11" class="edge">
<title>Node10&#45;&gt;Node11</title>
<path fill="none" stroke="#191970" d="M653.082,-55.4179C642.6071,-47.1876 626.9479,-34.8839 614.4747,-25.0836"/>
<polygon fill="#191970" stroke="#191970" points="616.4769,-22.2056 606.4513,-18.7795 612.1521,-27.7098 616.4769,-22.2056"/>
</g>
<!-- Node12 -->
<g id="node13" class="node">
<title>Node12</title>
<polygon fill="#ffffff" stroke="#bfbfbf" points="635.6904,-.5 635.6904,-18.5 695.5918,-18.5 695.5918,-.5 635.6904,-.5"/>
<text text-anchor="middle" x="665.6411" y="-6.5" font-family="Helvetica,sans-Serif" font-size="10.00" fill="#000000">sys/ioctl.h</text>
</g>
<!-- Node10&#45;&gt;Node12 -->
<g id="edge14" class="edge">
<title>Node10&#45;&gt;Node12</title>
<path fill="none" stroke="#191970" d="M664.8062,-55.4179C664.9372,-48.2164 665.1248,-37.8962 665.2891,-28.8632"/>
<polygon fill="#191970" stroke="#191970" points="668.7899,-28.8415 665.4724,-18.7795 661.7911,-28.7141 668.7899,-28.8415"/>
</g>
<!-- Node16&#45;&gt;Node7 -->
<g id="edge20" class="edge">
<title>Node16&#45;&gt;Node7</title>
<path fill="none" stroke="#191970" d="M95.425,-110.4337C89.9677,-97.2458 82.31,-72.445 92.6411,-55 103.7847,-36.1829 125.7727,-24.6339 144.3186,-17.8815"/>
<polygon fill="#191970" stroke="#191970" points="145.519,-21.1707 153.9015,-14.6912 143.3079,-14.5291 145.519,-21.1707"/>
</g>
<!-- Node16&#45;&gt;Node9 -->
<g id="edge21" class="edge">
<title>Node16&#45;&gt;Node9</title>
<path fill="none" stroke="#191970" d="M103.7694,-110.4179C107.1507,-102.9789 112.0446,-92.2123 116.2438,-82.9742"/>
<polygon fill="#191970" stroke="#191970" points="119.4714,-84.3315 120.4232,-73.7795 113.0988,-81.4348 119.4714,-84.3315"/>
</g>
<!-- Node17 -->
<g id="node18" class="node">
<title>Node17</title>
<polygon fill="#ffffff" stroke="#bfbfbf" points="0,-55.5 0,-73.5 45.2822,-73.5 45.2822,-55.5 0,-55.5"/>
<text text-anchor="middle" x="22.6411" y="-61.5" font-family="Helvetica,sans-Serif" font-size="10.00" fill="#000000">fftw3.h</text>
</g>
<!-- Node16&#45;&gt;Node17 -->
<g id="edge19" class="edge">
<title>Node16&#45;&gt;Node17</title>
<path fill="none" stroke="#191970" d="M86.9261,-110.4179C75.2228,-102.0584 57.6364,-89.4966 43.8146,-79.6239"/>
<polygon fill="#191970" stroke="#191970" points="45.5467,-76.56 35.375,-73.5956 41.478,-82.2561 45.5467,-76.56"/>
</g>
</g>
</svg>
