<?xml version="1.0" encoding="UTF-8" standalone="no"?>
<!DOCTYPE svg PUBLIC "-//W3C//DTD SVG 1.1//EN"
 "http://www.w3.org/Graphics/SVG/1.1/DTD/svg11.dtd">
<!-- Generated by graphviz version 2.40.1 (20161225.0304)
 -->
<!-- Title: DWC_s2p Pages: 1 -->
<svg width="403pt" height="473pt"
 viewBox="0.00 0.00 403.12 473.00" xmlns="http://www.w3.org/2000/svg" xmlns:xlink="http://www.w3.org/1999/xlink">
<g id="graph0" class="graph" transform="scale(1 1) rotate(0) translate(4 469)">
<title>DWC_s2p</title>
<polygon fill="#ffffff" stroke="transparent" points="-4,4 -4,-469 399.1172,-469 399.1172,4 -4,4"/>
<!-- Node0 -->
<g id="node1" class="node">
<title>Node0</title>
<polygon fill="#bfbfbf" stroke="#000000" points="0,-204.5 0,-222.5 61.5664,-222.5 61.5664,-204.5 0,-204.5"/>
<text text-anchor="middle" x="30.7832" y="-210.5" font-family="Helvetica,sans-Serif" font-size="10.00" fill="#000000">DWC_s2p</text>
</g>
<!-- Node1 -->
<g id="node2" class="node">
<title>Node1</title>
<g id="a_node2"><a xlink:href="Conti2D_8cpp_a6516cfeb71abcf844b32f101e5f77a71.html#a6516cfeb71abcf844b32f101e5f77a71" target="_top" xlink:title="DWC_s2p_CGLS">
<polygon fill="#ffffff" stroke="#000000" points="115.916,-335.5 115.916,-353.5 210.2754,-353.5 210.2754,-335.5 115.916,-335.5"/>
<text text-anchor="middle" x="163.0957" y="-341.5" font-family="Helvetica,sans-Serif" font-size="10.00" fill="#000000">DWC_s2p_CGLS</text>
</a>
</g>
</g>
<!-- Node0&#45;&gt;Node1 -->
<g id="edge1" class="edge">
<title>Node0&#45;&gt;Node1</title>
<path fill="none" stroke="#191970" d="M33.613,-222.6165C40.7174,-243.9737 61.3744,-297.5465 97.5664,-325.5 100.37,-327.6654 103.4128,-329.5841 106.6007,-331.2843"/>
<polygon fill="#191970" stroke="#191970" points="105.3401,-334.5562 115.891,-335.5205 108.2443,-328.187 105.3401,-334.5562"/>
</g>
<!-- Node3 -->
<g id="node4" class="node">
<title>Node3</title>
<g id="a_node4"><a xlink:href="Conti2D_8cpp_a6334abab105b1fe7efa9a3e2a4b07c47.html#a6334abab105b1fe7efa9a3e2a4b07c47" target="_top" xlink:title="Save results of at each iteration step as vtk file. ">
<polygon fill="#ffffff" stroke="#000000" points="289.6348,-335.5 289.6348,-353.5 370.1074,-353.5 370.1074,-335.5 289.6348,-335.5"/>
<text text-anchor="middle" x="329.8711" y="-341.5" font-family="Helvetica,sans-Serif" font-size="10.00" fill="#000000">SaveGrd2VTK</text>
</a>
</g>
</g>
<!-- Node0&#45;&gt;Node3 -->
<g id="edge29" class="edge">
<title>Node0&#45;&gt;Node3</title>
<path fill="none" stroke="#191970" d="M31.5946,-222.6793C34.5482,-249.848 47.3623,-329.9857 97.5664,-362.5 126.5331,-381.2601 220.0869,-367.0158 279.2624,-355.4291"/>
<polygon fill="#191970" stroke="#191970" points="280.0468,-358.8417 289.1682,-353.4518 278.6765,-351.9771 280.0468,-358.8417"/>
</g>
<!-- Node7 -->
<g id="node8" class="node">
<title>Node7</title>
<g id="a_node8"><a xlink:href="Conti2D_8cpp_a0a60bfe4f254fa10e96fabb22a125343.html#a0a60bfe4f254fa10e96fabb22a125343" target="_top" xlink:title="DWC_s2p_ItegrationIter">
<polygon fill="#ffffff" stroke="#000000" points="101.4604,-298.5 101.4604,-316.5 224.731,-316.5 224.731,-298.5 101.4604,-298.5"/>
<text text-anchor="middle" x="163.0957" y="-304.5" font-family="Helvetica,sans-Serif" font-size="10.00" fill="#000000">DWC_s2p_ItegrationIter</text>
</a>
</g>
</g>
<!-- Node0&#45;&gt;Node7 -->
<g id="edge7" class="edge">
<title>Node0&#45;&gt;Node7</title>
<path fill="none" stroke="#191970" d="M36.385,-222.6102C46.5773,-238.4185 69.6961,-270.9199 97.5664,-288.5 101.3312,-290.8748 105.4027,-292.9617 109.6097,-294.7943"/>
<polygon fill="#191970" stroke="#191970" points="108.3804,-298.0714 118.9698,-298.4124 110.9043,-291.5422 108.3804,-298.0714"/>
</g>
<!-- Node9 -->
<g id="node10" class="node">
<title>Node9</title>
<g id="a_node10"><a xlink:href="Conti2D_8cpp_a88f10a86b8808047787d2df5e8cbcb72.html#a88f10a86b8808047787d2df5e8cbcb72" target="_top" xlink:title="从一个文件全路径中获取文件名称 ">
<polygon fill="#ffffff" stroke="#000000" points="279.3516,-187.5 279.3516,-205.5 380.3906,-205.5 380.3906,-187.5 279.3516,-187.5"/>
<text text-anchor="middle" x="329.8711" y="-193.5" font-family="Helvetica,sans-Serif" font-size="10.00" fill="#000000">Path_GetFileName</text>
</a>
</g>
</g>
<!-- Node0&#45;&gt;Node9 -->
<g id="edge25" class="edge">
<title>Node0&#45;&gt;Node9</title>
<path fill="none" stroke="#191970" d="M61.6872,-214.7896C100.6726,-216.0843 169.7397,-217.2739 228.625,-212.5 242.8267,-211.3486 258.0487,-209.3524 272.2636,-207.1524"/>
<polygon fill="#191970" stroke="#191970" points="273.0887,-210.5648 282.4073,-205.5236 271.9788,-203.6533 273.0887,-210.5648"/>
</g>
<!-- Node10 -->
<g id="node11" class="node">
<title>Node10</title>
<g id="a_node11"><a xlink:href="Conti2D_8cpp_a7730328c8e132ff0a35142a6d31bac18.html#a7730328c8e132ff0a35142a6d31bac18" target="_top" xlink:title="DWC_s2p_LandweberIter">
<polygon fill="#ffffff" stroke="#000000" points="97.5664,-261.5 97.5664,-279.5 228.625,-279.5 228.625,-261.5 97.5664,-261.5"/>
<text text-anchor="middle" x="163.0957" y="-267.5" font-family="Helvetica,sans-Serif" font-size="10.00" fill="#000000">DWC_s2p_LandweberIter</text>
</a>
</g>
</g>
<!-- Node0&#45;&gt;Node10 -->
<g id="edge14" class="edge">
<title>Node0&#45;&gt;Node10</title>
<path fill="none" stroke="#191970" d="M47.8409,-222.5648C61.1952,-229.5055 80.3313,-239.1111 97.5664,-246.5 106.9054,-250.5037 117.1584,-254.46 126.7241,-257.9702"/>
<polygon fill="#191970" stroke="#191970" points="125.7824,-261.3511 136.3768,-261.45 128.1564,-254.766 125.7824,-261.3511"/>
</g>
<!-- Node11 -->
<g id="node12" class="node">
<title>Node11</title>
<g id="a_node12"><a xlink:href="Conti2D_8cpp_a78d8a6b80166f8976a0f18caddbe1dcb.html#a78d8a6b80166f8976a0f18caddbe1dcb" target="_top" xlink:title="Getkernel_p2s_new">
<polygon fill="#ffffff" stroke="#000000" points="110.623,-411.5 110.623,-429.5 215.5684,-429.5 215.5684,-411.5 110.623,-411.5"/>
<text text-anchor="middle" x="163.0957" y="-417.5" font-family="Helvetica,sans-Serif" font-size="10.00" fill="#000000">Getkernel_p2s_new</text>
</a>
</g>
</g>
<!-- Node0&#45;&gt;Node11 -->
<g id="edge21" class="edge">
<title>Node0&#45;&gt;Node11</title>
<path fill="none" stroke="#191970" d="M31.4559,-222.526C34.1161,-251.8189 46.4189,-345.2932 97.5664,-396.5 101.7899,-400.7284 106.8188,-404.2184 112.1859,-407.0975"/>
<polygon fill="#191970" stroke="#191970" points="110.9099,-410.3636 121.4551,-411.3886 113.8508,-404.0113 110.9099,-410.3636"/>
</g>
<!-- Node13 -->
<g id="node14" class="node">
<title>Node13</title>
<g id="a_node14"><a xlink:href="Conti2D_8cpp_aaea96ecea3031c19d3ef88f6f1590d4a.html#aaea96ecea3031c19d3ef88f6f1590d4a" target="_top" xlink:title="Get file extension name from a full file path. ">
<polygon fill="#ffffff" stroke="#000000" points="113.4087,-185.5 113.4087,-203.5 212.7827,-203.5 212.7827,-185.5 113.4087,-185.5"/>
<text text-anchor="middle" x="163.0957" y="-191.5" font-family="Helvetica,sans-Serif" font-size="10.00" fill="#000000">Path_GetExtName</text>
</a>
</g>
</g>
<!-- Node0&#45;&gt;Node13 -->
<g id="edge24" class="edge">
<title>Node0&#45;&gt;Node13</title>
<path fill="none" stroke="#191970" d="M61.8046,-209.0453C74.1588,-207.2713 88.8158,-205.1665 103.0879,-203.1171"/>
<polygon fill="#191970" stroke="#191970" points="103.9728,-206.526 113.3737,-201.6401 102.9777,-199.5971 103.9728,-206.526"/>
</g>
<!-- Node14 -->
<g id="node15" class="node">
<title>Node14</title>
<g id="a_node15"><a xlink:href="Conti2D_8cpp_a2c90cdea3ca11177ba34c14a3b0a00cb.html#a2c90cdea3ca11177ba34c14a3b0a00cb" target="_top" xlink:title="Read a Surfer Grid data from file. ">
<polygon fill="#ffffff" stroke="#000000" points="134.8076,-148.5 134.8076,-166.5 191.3838,-166.5 191.3838,-148.5 134.8076,-148.5"/>
<text text-anchor="middle" x="163.0957" y="-154.5" font-family="Helvetica,sans-Serif" font-size="10.00" fill="#000000">ReadGrd</text>
</a>
</g>
</g>
<!-- Node0&#45;&gt;Node14 -->
<g id="edge26" class="edge">
<title>Node0&#45;&gt;Node14</title>
<path fill="none" stroke="#191970" d="M44.3399,-204.4424C57.4828,-195.9912 78.2171,-183.5147 97.5664,-175.5 106.1195,-171.9572 115.5859,-168.8952 124.6022,-166.3519"/>
<polygon fill="#191970" stroke="#191970" points="125.76,-169.6654 134.5179,-163.7031 123.9533,-162.9026 125.76,-169.6654"/>
</g>
<!-- Node15 -->
<g id="node16" class="node">
<title>Node15</title>
<g id="a_node16"><a xlink:href="Conti2D_8cpp_ab76adf263893ac28772283c5a00b964c.html#ab76adf263893ac28772283c5a00b964c" target="_top" xlink:title="Save a Surfer Grid data to file. ">
<polygon fill="#ffffff" stroke="#000000" points="135.3643,-111.5 135.3643,-129.5 190.8271,-129.5 190.8271,-111.5 135.3643,-111.5"/>
<text text-anchor="middle" x="163.0957" y="-117.5" font-family="Helvetica,sans-Serif" font-size="10.00" fill="#000000">SaveGrd</text>
</a>
</g>
</g>
<!-- Node0&#45;&gt;Node15 -->
<g id="edge27" class="edge">
<title>Node0&#45;&gt;Node15</title>
<path fill="none" stroke="#191970" d="M36.3596,-204.3492C46.5126,-188.4782 69.5726,-155.8827 97.5664,-138.5 105.9723,-133.2804 115.9036,-129.5488 125.4586,-126.8906"/>
<polygon fill="#191970" stroke="#191970" points="126.327,-130.2813 135.1999,-124.4915 124.6531,-123.4844 126.327,-130.2813"/>
</g>
<!-- Node16 -->
<g id="node17" class="node">
<title>Node16</title>
<g id="a_node17"><a xlink:href="Conti2D_8cpp_a95502a9bee4005071ea4fd3cb5e1c228.html#a95502a9bee4005071ea4fd3cb5e1c228" target="_top" xlink:title="SaveGrd2netCDF">
<polygon fill="#ffffff" stroke="#000000" points="115.3569,-74.5 115.3569,-92.5 210.8345,-92.5 210.8345,-74.5 115.3569,-74.5"/>
<text text-anchor="middle" x="163.0957" y="-80.5" font-family="Helvetica,sans-Serif" font-size="10.00" fill="#000000">SaveGrd2netCDF</text>
</a>
</g>
</g>
<!-- Node0&#45;&gt;Node16 -->
<g id="edge28" class="edge">
<title>Node0&#45;&gt;Node16</title>
<path fill="none" stroke="#191970" d="M33.5868,-204.3493C40.6344,-182.9181 61.1777,-129.1971 97.5664,-101.5 100.195,-99.4992 103.0326,-97.7208 106.0019,-96.14"/>
<polygon fill="#191970" stroke="#191970" points="107.5597,-99.2768 115.2279,-91.9658 104.6742,-92.8992 107.5597,-99.2768"/>
</g>
<!-- Node17 -->
<g id="node18" class="node">
<title>Node17</title>
<g id="a_node18"><a xlink:href="Conti2D_8cpp_aad82d3e86d7bd949a1311c660977b9c1.html#aad82d3e86d7bd949a1311c660977b9c1" target="_top" xlink:title="Save a grid field data on a topography as vtk format (3d) ">
<polygon fill="#ffffff" stroke="#000000" points="110.3472,-37.5 110.3472,-55.5 215.8442,-55.5 215.8442,-37.5 110.3472,-37.5"/>
<text text-anchor="middle" x="163.0957" y="-43.5" font-family="Helvetica,sans-Serif" font-size="10.00" fill="#000000">SaveGrd2VTK_topo</text>
</a>
</g>
</g>
<!-- Node0&#45;&gt;Node17 -->
<g id="edge30" class="edge">
<title>Node0&#45;&gt;Node17</title>
<path fill="none" stroke="#191970" d="M32.1616,-204.1767C36.5386,-177.9711 52.5881,-103.0628 97.5664,-64.5 99.313,-63.0026 101.1737,-61.6288 103.121,-60.3686"/>
<polygon fill="#191970" stroke="#191970" points="104.9692,-63.349 112.1283,-55.5388 101.6613,-57.1799 104.9692,-63.349"/>
</g>
<!-- Node18 -->
<g id="node19" class="node">
<title>Node18</title>
<g id="a_node19"><a xlink:href="Conti2D_8cpp_a0858a57d19c1ac2f09fe65f7f416e2a1.html#a0858a57d19c1ac2f09fe65f7f416e2a1" target="_top" xlink:title="SaveGrd2xyz">
<polygon fill="#ffffff" stroke="#000000" points="125.0835,-.5 125.0835,-18.5 201.1079,-18.5 201.1079,-.5 125.0835,-.5"/>
<text text-anchor="middle" x="163.0957" y="-6.5" font-family="Helvetica,sans-Serif" font-size="10.00" fill="#000000">SaveGrd2xyz</text>
</a>
</g>
</g>
<!-- Node0&#45;&gt;Node18 -->
<g id="edge31" class="edge">
<title>Node0&#45;&gt;Node18</title>
<path fill="none" stroke="#191970" d="M31.2362,-204.152C33.2231,-173.8458 43.6973,-77.3911 97.5664,-27.5 102.6261,-22.814 108.7916,-19.3294 115.2941,-16.7421"/>
<polygon fill="#191970" stroke="#191970" points="116.5676,-20.0077 124.9728,-13.5577 114.3798,-13.3584 116.5676,-20.0077"/>
</g>
<!-- Node2 -->
<g id="node3" class="node">
<title>Node2</title>
<g id="a_node3"><a xlink:href="Conti2D_8cpp_a98827c14ed7072c96834f20205c7a916.html#a98827c14ed7072c96834f20205c7a916" target="_top" xlink:title="Norm2">
<polygon fill="#ffffff" stroke="#000000" points="306.8687,-298.5 306.8687,-316.5 352.8735,-316.5 352.8735,-298.5 306.8687,-298.5"/>
<text text-anchor="middle" x="329.8711" y="-304.5" font-family="Helvetica,sans-Serif" font-size="10.00" fill="#000000">Norm2</text>
</a>
</g>
</g>
<!-- Node1&#45;&gt;Node2 -->
<g id="edge2" class="edge">
<title>Node1&#45;&gt;Node2</title>
<path fill="none" stroke="#191970" d="M203.8936,-335.4488C232.3277,-329.1405 269.793,-320.8287 296.4569,-314.9131"/>
<polygon fill="#191970" stroke="#191970" points="297.4534,-318.2772 306.458,-312.6943 295.9373,-311.4434 297.4534,-318.2772"/>
</g>
<!-- Node1&#45;&gt;Node3 -->
<g id="edge3" class="edge">
<title>Node1&#45;&gt;Node3</title>
<path fill="none" stroke="#191970" d="M210.4407,-344.5C231.9727,-344.5 257.4747,-344.5 279.3732,-344.5"/>
<polygon fill="#191970" stroke="#191970" points="279.4762,-348.0001 289.4762,-344.5 279.4761,-341.0001 279.4762,-348.0001"/>
</g>
<!-- Node4 -->
<g id="node5" class="node">
<title>Node4</title>
<g id="a_node5"><a xlink:href="classMultiProgressBar_a58eef55ad6d5c7d769b3a402a2ef7b85.html#a58eef55ad6d5c7d769b3a402a2ef7b85" target="_top" xlink:title="MultiProgressBar::Update">
<polygon fill="#ffffff" stroke="#000000" points="264.625,-372.5 264.625,-390.5 395.1172,-390.5 395.1172,-372.5 264.625,-372.5"/>
<text text-anchor="middle" x="329.8711" y="-378.5" font-family="Helvetica,sans-Serif" font-size="10.00" fill="#000000">MultiProgressBar::Update</text>
</a>
</g>
</g>
<!-- Node1&#45;&gt;Node4 -->
<g id="edge4" class="edge">
<title>Node1&#45;&gt;Node4</title>
<path fill="none" stroke="#191970" d="M203.8936,-353.5512C226.5914,-358.5869 255.0442,-364.8992 279.1636,-370.2503"/>
<polygon fill="#191970" stroke="#191970" points="278.685,-373.7291 289.2057,-372.4782 280.2012,-366.8953 278.685,-373.7291"/>
</g>
<!-- Node5 -->
<g id="node6" class="node">
<title>Node5</title>
<g id="a_node6"><a xlink:href="Conti2D_8cpp_a632c1e4efbb7e9b1aaf04db729e69394.html#a632c1e4efbb7e9b1aaf04db729e69394" target="_top" xlink:title="UWC_Gij">
<polygon fill="#ffffff" stroke="#000000" points="301.0386,-261.5 301.0386,-279.5 358.7036,-279.5 358.7036,-261.5 301.0386,-261.5"/>
<text text-anchor="middle" x="329.8711" y="-267.5" font-family="Helvetica,sans-Serif" font-size="10.00" fill="#000000">UWC_Gij</text>
</a>
</g>
</g>
<!-- Node1&#45;&gt;Node5 -->
<g id="edge5" class="edge">
<title>Node1&#45;&gt;Node5</title>
<path fill="none" stroke="#191970" d="M206.3825,-335.4024C214.0894,-332.8328 221.8207,-329.5848 228.625,-325.5 248.2964,-313.6909 244.8771,-300.1807 264.625,-288.5 272.7208,-283.7114 282.1329,-280.1576 291.2466,-277.5345"/>
<polygon fill="#191970" stroke="#191970" points="292.1305,-280.9212 300.9425,-275.0391 290.3857,-274.1421 292.1305,-280.9212"/>
</g>
<!-- Node6 -->
<g id="node7" class="node">
<title>Node6</title>
<g id="a_node7"><a xlink:href="Conti2D_8cpp_a9d30373a0ff29e4f743eaf5e4cbc3cbf.html#a9d30373a0ff29e4f743eaf5e4cbc3cbf" target="_top" xlink:title="UWC_Gji">
<polygon fill="#ffffff" stroke="#000000" points="301.0386,-409.5 301.0386,-427.5 358.7036,-427.5 358.7036,-409.5 301.0386,-409.5"/>
<text text-anchor="middle" x="329.8711" y="-415.5" font-family="Helvetica,sans-Serif" font-size="10.00" fill="#000000">UWC_Gji</text>
</a>
</g>
</g>
<!-- Node1&#45;&gt;Node6 -->
<g id="edge6" class="edge">
<title>Node1&#45;&gt;Node6</title>
<path fill="none" stroke="#191970" d="M177.0303,-353.5746C196.1278,-365.6821 231.8111,-387.1414 264.625,-400.5 273.0068,-403.9123 282.2506,-406.9005 291.0791,-409.4111"/>
<polygon fill="#191970" stroke="#191970" points="290.2354,-412.8086 300.8023,-412.0397 292.0623,-406.0511 290.2354,-412.8086"/>
</g>
<!-- Node7&#45;&gt;Node2 -->
<g id="edge8" class="edge">
<title>Node7&#45;&gt;Node2</title>
<path fill="none" stroke="#191970" d="M225.1967,-307.5C249.4867,-307.5 276.3592,-307.5 296.7942,-307.5"/>
<polygon fill="#191970" stroke="#191970" points="296.8459,-311.0001 306.8459,-307.5 296.8458,-304.0001 296.8459,-311.0001"/>
</g>
<!-- Node7&#45;&gt;Node3 -->
<g id="edge11" class="edge">
<title>Node7&#45;&gt;Node3</title>
<path fill="none" stroke="#191970" d="M203.8936,-316.5512C226.6758,-321.6056 255.2558,-327.9462 279.4324,-333.3099"/>
<polygon fill="#191970" stroke="#191970" points="278.9737,-336.7932 289.4944,-335.5422 280.4899,-329.9593 278.9737,-336.7932"/>
</g>
<!-- Node7&#45;&gt;Node4 -->
<g id="edge12" class="edge">
<title>Node7&#45;&gt;Node4</title>
<path fill="none" stroke="#191970" d="M208.4506,-316.5495C215.4646,-318.9015 222.4286,-321.8395 228.625,-325.5 248.3794,-337.1698 244.9604,-350.6795 264.625,-362.5 268.7076,-364.9541 273.1254,-367.1067 277.671,-368.9918"/>
<polygon fill="#191970" stroke="#191970" points="276.5218,-372.2985 287.1148,-372.4967 278.9574,-365.7359 276.5218,-372.2985"/>
</g>
<!-- Node7&#45;&gt;Node5 -->
<g id="edge13" class="edge">
<title>Node7&#45;&gt;Node5</title>
<path fill="none" stroke="#191970" d="M203.8936,-298.4488C230.4548,-292.556 264.8966,-284.9149 291.0531,-279.112"/>
<polygon fill="#191970" stroke="#191970" points="291.9891,-282.4895 300.9936,-276.9066 290.4729,-275.6557 291.9891,-282.4895"/>
</g>
<!-- Node8 -->
<g id="node9" class="node">
<title>Node8</title>
<g id="a_node9"><a xlink:href="Conti2D_8cpp_a43fc3af75243a047d61aadea31c0fa9c.html#a43fc3af75243a047d61aadea31c0fa9c" target="_top" xlink:title="Get 2nd norm of the gradient of a grid data. ">
<polygon fill="#ffffff" stroke="#000000" points="284.9106,-224.5 284.9106,-242.5 374.8315,-242.5 374.8315,-224.5 284.9106,-224.5"/>
<text text-anchor="middle" x="329.8711" y="-230.5" font-family="Helvetica,sans-Serif" font-size="10.00" fill="#000000">Norm2_Gradient</text>
</a>
</g>
</g>
<!-- Node7&#45;&gt;Node8 -->
<g id="edge9" class="edge">
<title>Node7&#45;&gt;Node8</title>
<path fill="none" stroke="#191970" d="M206.3825,-298.4024C214.0894,-295.8328 221.8207,-292.5848 228.625,-288.5 248.2964,-276.6909 244.8771,-263.1807 264.625,-251.5 267.9989,-249.5044 271.6014,-247.7232 275.3157,-246.1344"/>
<polygon fill="#191970" stroke="#191970" points="276.6041,-249.3891 284.712,-242.5691 274.1207,-242.8444 276.6041,-249.3891"/>
</g>
<!-- Node7&#45;&gt;Node9 -->
<g id="edge10" class="edge">
<title>Node7&#45;&gt;Node9</title>
<path fill="none" stroke="#191970" d="M211.9708,-298.3774C217.9895,-295.8492 223.7332,-292.6212 228.625,-288.5 256.5959,-264.935 236.5012,-237.8823 264.625,-214.5 266.4237,-213.0046 268.3371,-211.6329 270.3366,-210.3747"/>
<polygon fill="#191970" stroke="#191970" points="272.3224,-213.2862 279.5654,-205.5539 269.0813,-207.0817 272.3224,-213.2862"/>
</g>
<!-- Node10&#45;&gt;Node2 -->
<g id="edge15" class="edge">
<title>Node10&#45;&gt;Node2</title>
<path fill="none" stroke="#191970" d="M203.8936,-279.5512C232.3277,-285.8595 269.793,-294.1713 296.4569,-300.0869"/>
<polygon fill="#191970" stroke="#191970" points="295.9373,-303.5566 306.458,-302.3057 297.4534,-296.7228 295.9373,-303.5566"/>
</g>
<!-- Node10&#45;&gt;Node3 -->
<g id="edge18" class="edge">
<title>Node10&#45;&gt;Node3</title>
<path fill="none" stroke="#191970" d="M208.4506,-279.5495C215.4646,-281.9015 222.4286,-284.8395 228.625,-288.5 248.3794,-300.1698 244.9604,-313.6795 264.625,-325.5 269.3649,-328.3492 274.5565,-330.792 279.8755,-332.8817"/>
<polygon fill="#191970" stroke="#191970" points="278.9225,-336.2566 289.5173,-336.2734 281.2454,-329.6532 278.9225,-336.2566"/>
</g>
<!-- Node10&#45;&gt;Node4 -->
<g id="edge19" class="edge">
<title>Node10&#45;&gt;Node4</title>
<path fill="none" stroke="#191970" d="M213.6184,-279.5296C219.032,-281.8676 224.1776,-284.8066 228.625,-288.5 256.7617,-311.8667 236.6678,-338.9188 264.625,-362.5 267.0275,-364.5265 269.6366,-366.3369 272.3832,-367.9544"/>
<polygon fill="#191970" stroke="#191970" points="271.0247,-371.1874 281.539,-372.4915 274.1329,-364.9152 271.0247,-371.1874"/>
</g>
<!-- Node10&#45;&gt;Node5 -->
<g id="edge20" class="edge">
<title>Node10&#45;&gt;Node5</title>
<path fill="none" stroke="#191970" d="M229.0098,-270.5C249.9615,-270.5 272.4541,-270.5 290.8702,-270.5"/>
<polygon fill="#191970" stroke="#191970" points="290.9223,-274.0001 300.9222,-270.5 290.9222,-267.0001 290.9223,-274.0001"/>
</g>
<!-- Node10&#45;&gt;Node8 -->
<g id="edge16" class="edge">
<title>Node10&#45;&gt;Node8</title>
<path fill="none" stroke="#191970" d="M203.8936,-261.4488C226.5914,-256.4131 255.0442,-250.1008 279.1636,-244.7497"/>
<polygon fill="#191970" stroke="#191970" points="280.2012,-248.1047 289.2057,-242.5218 278.685,-241.2709 280.2012,-248.1047"/>
</g>
<!-- Node10&#45;&gt;Node9 -->
<g id="edge17" class="edge">
<title>Node10&#45;&gt;Node9</title>
<path fill="none" stroke="#191970" d="M195.1887,-261.4367C206.1978,-257.6388 218.3302,-252.655 228.625,-246.5 246.9988,-235.5147 245.817,-224.724 264.625,-214.5 268.3997,-212.4481 272.427,-210.6152 276.5579,-208.9805"/>
<polygon fill="#191970" stroke="#191970" points="278.0618,-212.1606 286.3142,-205.5163 275.7195,-205.5641 278.0618,-212.1606"/>
</g>
<!-- Node11&#45;&gt;Node4 -->
<g id="edge23" class="edge">
<title>Node11&#45;&gt;Node4</title>
<path fill="none" stroke="#191970" d="M201.7765,-411.4546C225.4772,-405.9123 256.0187,-398.7702 281.3345,-392.8502"/>
<polygon fill="#191970" stroke="#191970" points="282.1712,-396.249 291.1115,-390.5638 280.5772,-389.4329 282.1712,-396.249"/>
</g>
<!-- Node12 -->
<g id="node13" class="node">
<title>Node12</title>
<g id="a_node13"><a xlink:href="Conti2D_8cpp_a4bb34ae88cf16e429505f9eb746384cd.html#a4bb34ae88cf16e429505f9eb746384cd" target="_top" xlink:title="GetPmnij">
<polygon fill="#ffffff" stroke="#000000" points="301.3096,-446.5 301.3096,-464.5 358.4326,-464.5 358.4326,-446.5 301.3096,-446.5"/>
<text text-anchor="middle" x="329.8711" y="-452.5" font-family="Helvetica,sans-Serif" font-size="10.00" fill="#000000">GetPmnij</text>
</a>
</g>
</g>
<!-- Node11&#45;&gt;Node12 -->
<g id="edge22" class="edge">
<title>Node11&#45;&gt;Node12</title>
<path fill="none" stroke="#191970" d="M206.0445,-429.5134C232.3404,-435.0319 265.7152,-442.0361 291.1883,-447.3819"/>
<polygon fill="#191970" stroke="#191970" points="290.7224,-450.8603 301.2281,-449.4889 292.1601,-444.0095 290.7224,-450.8603"/>
</g>
</g>
</svg>
