<?xml version="1.0" encoding="UTF-8" standalone="no"?>
<!DOCTYPE svg PUBLIC "-//W3C//DTD SVG 1.1//EN"
 "http://www.w3.org/Graphics/SVG/1.1/DTD/svg11.dtd">
<!-- Generated by graphviz version 2.40.1 (20161225.0304)
 -->
<!-- Title: Norm2 Pages: 1 -->
<svg width="393pt" height="249pt"
 viewBox="0.00 0.00 393.43 249.00" xmlns="http://www.w3.org/2000/svg" xmlns:xlink="http://www.w3.org/1999/xlink">
<g id="graph0" class="graph" transform="scale(1 1) rotate(0) translate(4 245)">
<title>Norm2</title>
<polygon fill="#ffffff" stroke="transparent" points="-4,4 -4,-245 389.4277,-245 389.4277,4 -4,4"/>
<!-- Node1 -->
<g id="node1" class="node">
<title>Node1</title>
<polygon fill="#bfbfbf" stroke="#000000" points="0,-111.5 0,-129.5 46.0049,-129.5 46.0049,-111.5 0,-111.5"/>
<text text-anchor="middle" x="23.0024" y="-117.5" font-family="Helvetica,sans-Serif" font-size="10.00" fill="#000000">Norm2</text>
</g>
<!-- Node2 -->
<g id="node2" class="node">
<title>Node2</title>
<g id="a_node2"><a xlink:href="Conti2D_8h_a68e9e4a8817a29dce16c782fa8213faa.html#a68e9e4a8817a29dce16c782fa8213faa" target="_top" xlink:title="DWC_p2p_CGLS">
<polygon fill="#ffffff" stroke="#000000" points="100.3545,-222.5 100.3545,-240.5 195.2754,-240.5 195.2754,-222.5 100.3545,-222.5"/>
<text text-anchor="middle" x="147.8149" y="-228.5" font-family="Helvetica,sans-Serif" font-size="10.00" fill="#000000">DWC_p2p_CGLS</text>
</a>
</g>
</g>
<!-- Node1&#45;&gt;Node2 -->
<g id="edge1" class="edge">
<title>Node1&#45;&gt;Node2</title>
<path fill="none" stroke="#191970" d="M32.3848,-138.5109C45.2583,-162.589 68.352,-203.415 82.0049,-213.5 87.4356,-217.5115 93.7105,-220.629 100.1845,-223.0518"/>
<polygon fill="#191970" stroke="#191970" points="35.4627,-136.8441 27.6972,-129.6366 29.2732,-140.1136 35.4627,-136.8441"/>
</g>
<!-- Node3 -->
<g id="node3" class="node">
<title>Node3</title>
<g id="a_node3"><a xlink:href="Conti2D_8h_a1bb3d1115c283e9063a98ee17fa9d31f.html#a1bb3d1115c283e9063a98ee17fa9d31f" target="_top" xlink:title="DWC_p2p_ItegrationIter">
<polygon fill="#ffffff" stroke="#000000" points="85.8989,-185.5 85.8989,-203.5 209.731,-203.5 209.731,-185.5 85.8989,-185.5"/>
<text text-anchor="middle" x="147.8149" y="-191.5" font-family="Helvetica,sans-Serif" font-size="10.00" fill="#000000">DWC_p2p_ItegrationIter</text>
</a>
</g>
</g>
<!-- Node1&#45;&gt;Node3 -->
<g id="edge2" class="edge">
<title>Node1&#45;&gt;Node3</title>
<path fill="none" stroke="#191970" d="M37.0574,-137.8056C48.062,-150.2741 64.4105,-166.5857 82.0049,-176.5 88.5061,-180.1634 95.7932,-183.1138 103.0855,-185.4803"/>
<polygon fill="#191970" stroke="#191970" points="39.4887,-135.262 30.3429,-129.9134 34.1571,-139.7979 39.4887,-135.262"/>
</g>
<!-- Node4 -->
<g id="node4" class="node">
<title>Node4</title>
<g id="a_node4"><a xlink:href="Conti2D_8h_a8affb7fb2246ce1c959f681fc7baaa05.html#a8affb7fb2246ce1c959f681fc7baaa05" target="_top" xlink:title="DWC_p2p_LandweberIter">
<polygon fill="#ffffff" stroke="#000000" points="82.0049,-148.5 82.0049,-166.5 213.625,-166.5 213.625,-148.5 82.0049,-148.5"/>
<text text-anchor="middle" x="147.8149" y="-154.5" font-family="Helvetica,sans-Serif" font-size="10.00" fill="#000000">DWC_p2p_LandweberIter</text>
</a>
</g>
</g>
<!-- Node1&#45;&gt;Node4 -->
<g id="edge3" class="edge">
<title>Node1&#45;&gt;Node4</title>
<path fill="none" stroke="#191970" d="M55.7973,-131.3469C64.3083,-134.0832 73.4794,-136.9628 82.0049,-139.5 92.2225,-142.5408 103.3897,-145.6683 113.576,-148.4457"/>
<polygon fill="#191970" stroke="#191970" points="56.7796,-127.9861 46.1876,-128.2296 54.6196,-134.6445 56.7796,-127.9861"/>
</g>
<!-- Node5 -->
<g id="node5" class="node">
<title>Node5</title>
<g id="a_node5"><a xlink:href="Conti2D_8h_a6516cfeb71abcf844b32f101e5f77a71.html#a6516cfeb71abcf844b32f101e5f77a71" target="_top" xlink:title="DWC_s2p_CGLS">
<polygon fill="#ffffff" stroke="#000000" points="100.6353,-111.5 100.6353,-129.5 194.9946,-129.5 194.9946,-111.5 100.6353,-111.5"/>
<text text-anchor="middle" x="147.8149" y="-117.5" font-family="Helvetica,sans-Serif" font-size="10.00" fill="#000000">DWC_s2p_CGLS</text>
</a>
</g>
</g>
<!-- Node1&#45;&gt;Node5 -->
<g id="edge4" class="edge">
<title>Node1&#45;&gt;Node5</title>
<path fill="none" stroke="#191970" d="M56.4548,-120.5C69.9641,-120.5 85.799,-120.5 100.4563,-120.5"/>
<polygon fill="#191970" stroke="#191970" points="56.1862,-117.0001 46.1862,-120.5 56.1862,-124.0001 56.1862,-117.0001"/>
</g>
<!-- Node9 -->
<g id="node9" class="node">
<title>Node9</title>
<g id="a_node9"><a xlink:href="Conti2D_8h_a39a6a4cc378c878de458d5ae56eb1630.html#a39a6a4cc378c878de458d5ae56eb1630" target="_top" xlink:title="DWC_s2p_ItegrationIter">
<polygon fill="#ffffff" stroke="#000000" points="86.1797,-74.5 86.1797,-92.5 209.4502,-92.5 209.4502,-74.5 86.1797,-74.5"/>
<text text-anchor="middle" x="147.8149" y="-80.5" font-family="Helvetica,sans-Serif" font-size="10.00" fill="#000000">DWC_s2p_ItegrationIter</text>
</a>
</g>
</g>
<!-- Node1&#45;&gt;Node9 -->
<g id="edge9" class="edge">
<title>Node1&#45;&gt;Node9</title>
<path fill="none" stroke="#191970" d="M55.8516,-110.3829C64.3617,-107.7882 73.5188,-105.0193 82.0049,-102.5 93.0631,-99.2171 105.1896,-95.6942 115.9872,-92.5845"/>
<polygon fill="#191970" stroke="#191970" points="54.7765,-107.0516 46.2375,-113.3235 56.8239,-113.7455 54.7765,-107.0516"/>
</g>
<!-- Node10 -->
<g id="node10" class="node">
<title>Node10</title>
<g id="a_node10"><a xlink:href="Conti2D_8h_a30671331e25e6cfa739e77aec57b7f18.html#a30671331e25e6cfa739e77aec57b7f18" target="_top" xlink:title="DWC_s2p_LandweberIter">
<polygon fill="#ffffff" stroke="#000000" points="82.2856,-37.5 82.2856,-55.5 213.3442,-55.5 213.3442,-37.5 82.2856,-37.5"/>
<text text-anchor="middle" x="147.8149" y="-43.5" font-family="Helvetica,sans-Serif" font-size="10.00" fill="#000000">DWC_s2p_LandweberIter</text>
</a>
</g>
</g>
<!-- Node1&#45;&gt;Node10 -->
<g id="edge12" class="edge">
<title>Node1&#45;&gt;Node10</title>
<path fill="none" stroke="#191970" d="M37.1587,-103.5841C48.2149,-91.3794 64.5837,-75.3751 82.0049,-65.5 89.2467,-61.395 97.4487,-58.1143 105.5442,-55.5141"/>
<polygon fill="#191970" stroke="#191970" points="34.355,-101.4732 30.4054,-111.3044 39.6237,-106.082 34.355,-101.4732"/>
</g>
<!-- Node11 -->
<g id="node11" class="node">
<title>Node11</title>
<g id="a_node11"><a xlink:href="Conti2D_8h_a08f63b90a388692c22c4799d19a80207.html#a08f63b90a388692c22c4799d19a80207" target="_top" xlink:title="DWC_s2p_Tikhonov">
<polygon fill="#ffffff" stroke="#000000" points="94.146,-.5 94.146,-18.5 201.4839,-18.5 201.4839,-.5 94.146,-.5"/>
<text text-anchor="middle" x="147.8149" y="-6.5" font-family="Helvetica,sans-Serif" font-size="10.00" fill="#000000">DWC_s2p_Tikhonov</text>
</a>
</g>
</g>
<!-- Node1&#45;&gt;Node11 -->
<g id="edge15" class="edge">
<title>Node1&#45;&gt;Node11</title>
<path fill="none" stroke="#191970" d="M32.3848,-102.4891C45.2583,-78.411 68.352,-37.585 82.0049,-27.5 86.9592,-23.8404 92.6162,-20.9248 98.4859,-18.602"/>
<polygon fill="#191970" stroke="#191970" points="29.2732,-100.8864 27.6972,-111.3634 35.4627,-104.1559 29.2732,-100.8864"/>
</g>
<!-- Node6 -->
<g id="node6" class="node">
<title>Node6</title>
<g id="a_node6"><a xlink:href="Conti2D_8h_ac96429563a5015babafa3274c3f3ec73.html#ac96429563a5015babafa3274c3f3ec73" target="_top" xlink:title="downward continuation from surface to plane ">
<polygon fill="#ffffff" stroke="#000000" points="249.9058,-92.5 249.9058,-110.5 311.4722,-110.5 311.4722,-92.5 249.9058,-92.5"/>
<text text-anchor="middle" x="280.689" y="-98.5" font-family="Helvetica,sans-Serif" font-size="10.00" fill="#000000">DWC_s2p</text>
</a>
</g>
</g>
<!-- Node5&#45;&gt;Node6 -->
<g id="edge5" class="edge">
<title>Node5&#45;&gt;Node6</title>
<path fill="none" stroke="#191970" d="M205.0151,-112.3208C220.4035,-110.1204 236.4661,-107.8235 249.8135,-105.915"/>
<polygon fill="#191970" stroke="#191970" points="204.4393,-108.8674 195.0355,-113.7478 205.4303,-115.797 204.4393,-108.8674"/>
</g>
<!-- Node8 -->
<g id="node8" class="node">
<title>Node8</title>
<g id="a_node8"><a xlink:href="Conti2D_8h_ab87ce573de93575b7ece2e4f772e03fd.html#ab87ce573de93575b7ece2e4f772e03fd" target="_top" xlink:title="DWC_p2p">
<polygon fill="#ffffff" stroke="#000000" points="249.625,-55.5 249.625,-73.5 311.7529,-73.5 311.7529,-55.5 249.625,-55.5"/>
<text text-anchor="middle" x="280.689" y="-61.5" font-family="Helvetica,sans-Serif" font-size="10.00" fill="#000000">DWC_p2p</text>
</a>
</g>
</g>
<!-- Node5&#45;&gt;Node8 -->
<g id="edge7" class="edge">
<title>Node5&#45;&gt;Node8</title>
<path fill="none" stroke="#191970" d="M197.3183,-108.3989C202.887,-106.6147 208.4238,-104.6456 213.625,-102.5 223.9548,-98.2388 249.3466,-83.3661 265.7534,-73.54"/>
<polygon fill="#191970" stroke="#191970" points="195.8912,-105.1733 187.3257,-111.4089 197.9102,-111.8758 195.8912,-105.1733"/>
</g>
<!-- Node7 -->
<g id="node7" class="node">
<title>Node7</title>
<g id="a_node7"><a xlink:href="main_8cpp_a0ddf1224851353fc92bfbff6f499fa97.html#a0ddf1224851353fc92bfbff6f499fa97" target="_top" xlink:title="main">
<polygon fill="#ffffff" stroke="#000000" points="347.7529,-73.5 347.7529,-91.5 385.4277,-91.5 385.4277,-73.5 347.7529,-73.5"/>
<text text-anchor="middle" x="366.5903" y="-79.5" font-family="Helvetica,sans-Serif" font-size="10.00" fill="#000000">main</text>
</a>
</g>
</g>
<!-- Node6&#45;&gt;Node7 -->
<g id="edge6" class="edge">
<title>Node6&#45;&gt;Node7</title>
<path fill="none" stroke="#191970" d="M321.4834,-92.4769C330.6177,-90.4566 339.8823,-88.4074 347.6193,-86.6961"/>
<polygon fill="#191970" stroke="#191970" points="320.7094,-89.0634 311.7013,-94.6406 322.2212,-95.8982 320.7094,-89.0634"/>
</g>
<!-- Node8&#45;&gt;Node7 -->
<g id="edge8" class="edge">
<title>Node8&#45;&gt;Node7</title>
<path fill="none" stroke="#191970" d="M322.1296,-73.1836C331.0406,-75.0508 340.0383,-76.9362 347.586,-78.5178"/>
<polygon fill="#191970" stroke="#191970" points="322.693,-69.7257 312.1877,-71.1003 321.2573,-76.5769 322.693,-69.7257"/>
</g>
<!-- Node9&#45;&gt;Node6 -->
<g id="edge10" class="edge">
<title>Node9&#45;&gt;Node6</title>
<path fill="none" stroke="#191970" d="M219.7409,-93.2436C230.3118,-94.6756 240.6961,-96.0823 249.8135,-97.3174"/>
<polygon fill="#191970" stroke="#191970" points="219.9634,-89.7418 209.584,-91.8677 219.0236,-96.6785 219.9634,-89.7418"/>
</g>
<!-- Node9&#45;&gt;Node8 -->
<g id="edge11" class="edge">
<title>Node9&#45;&gt;Node8</title>
<path fill="none" stroke="#191970" d="M219.6425,-73.2292C230.1119,-71.7321 240.4016,-70.2608 249.4625,-68.9652"/>
<polygon fill="#191970" stroke="#191970" points="218.9879,-69.7871 209.584,-74.6675 219.9788,-76.7166 218.9879,-69.7871"/>
</g>
<!-- Node10&#45;&gt;Node6 -->
<g id="edge13" class="edge">
<title>Node10&#45;&gt;Node6</title>
<path fill="none" stroke="#191970" d="M193.8718,-58.4454C200.577,-60.5731 207.3355,-62.9377 213.625,-65.5 223.6601,-69.5882 248.3608,-83.2128 264.8184,-92.4775"/>
<polygon fill="#191970" stroke="#191970" points="194.732,-55.049 184.1469,-55.5023 192.7043,-61.7489 194.732,-55.049"/>
</g>
<!-- Node10&#45;&gt;Node8 -->
<g id="edge14" class="edge">
<title>Node10&#45;&gt;Node8</title>
<path fill="none" stroke="#191970" d="M223.4512,-56.7462C232.5917,-57.9844 241.4954,-59.1906 249.452,-60.2684"/>
<polygon fill="#191970" stroke="#191970" points="223.8528,-53.2687 213.4734,-55.3945 222.913,-60.2053 223.8528,-53.2687"/>
</g>
</g>
</svg>
