<?xml version="1.0" encoding="UTF-8" standalone="no"?>
<!DOCTYPE svg PUBLIC "-//W3C//DTD SVG 1.1//EN"
 "http://www.w3.org/Graphics/SVG/1.1/DTD/svg11.dtd">
<!-- Generated by graphviz version 2.40.1 (20161225.0304)
 -->
<!-- Title: SaveGrd2VTK Pages: 1 -->
<svg width="436pt" height="459pt"
 viewBox="0.00 0.00 436.24 459.00" xmlns="http://www.w3.org/2000/svg" xmlns:xlink="http://www.w3.org/1999/xlink">
<g id="graph0" class="graph" transform="scale(1 1) rotate(0) translate(4 455)">
<title>SaveGrd2VTK</title>
<polygon fill="#ffffff" stroke="transparent" points="-4,4 -4,-455 432.2354,-455 432.2354,4 -4,4"/>
<!-- Node1 -->
<g id="node1" class="node">
<title>Node1</title>
<polygon fill="#bfbfbf" stroke="#000000" points="0,-206.5 0,-224.5 80.4727,-224.5 80.4727,-206.5 0,-206.5"/>
<text text-anchor="middle" x="40.2363" y="-212.5" font-family="Helvetica,sans-Serif" font-size="10.00" fill="#000000">SaveGrd2VTK</text>
</g>
<!-- Node2 -->
<g id="node2" class="node">
<title>Node2</title>
<g id="a_node2"><a xlink:href="Conti2D_8h_a68e9e4a8817a29dce16c782fa8213faa.html#a68e9e4a8817a29dce16c782fa8213faa" target="_top" xlink:title="DWC_p2p_CGLS">
<polygon fill="#ffffff" stroke="#000000" points="134.8223,-432.5 134.8223,-450.5 229.7432,-450.5 229.7432,-432.5 134.8223,-432.5"/>
<text text-anchor="middle" x="182.2827" y="-438.5" font-family="Helvetica,sans-Serif" font-size="10.00" fill="#000000">DWC_p2p_CGLS</text>
</a>
</g>
</g>
<!-- Node1&#45;&gt;Node2 -->
<g id="edge1" class="edge">
<title>Node1&#45;&gt;Node2</title>
<path fill="none" stroke="#191970" d="M42.1821,-234.7138C47.1947,-274.3248 64.0747,-365.6847 116.4727,-417.5 123.1311,-424.0844 131.7379,-428.8792 140.5186,-432.3652"/>
<polygon fill="#191970" stroke="#191970" points="45.6371,-234.1208 41.0218,-224.5841 38.6826,-234.9175 45.6371,-234.1208"/>
</g>
<!-- Node3 -->
<g id="node3" class="node">
<title>Node3</title>
<g id="a_node3"><a xlink:href="Conti2D_8h_afb187c363388d28caa8a055176269f12.html#afb187c363388d28caa8a055176269f12" target="_top" xlink:title="DWC_p2p_f">
<polygon fill="#ffffff" stroke="#000000" points="284.0928,-338.5 284.0928,-356.5 354.5605,-356.5 354.5605,-338.5 284.0928,-338.5"/>
<text text-anchor="middle" x="319.3267" y="-344.5" font-family="Helvetica,sans-Serif" font-size="10.00" fill="#000000">DWC_p2p_f</text>
</a>
</g>
</g>
<!-- Node1&#45;&gt;Node3 -->
<g id="edge2" class="edge">
<title>Node1&#45;&gt;Node3</title>
<path fill="none" stroke="#191970" d="M42.3261,-234.9854C47.4407,-271.7717 64.263,-350.7759 116.4727,-384.5 165.6108,-416.2401 191.2651,-398.3784 248.0928,-384.5 270.0241,-379.144 292.7244,-365.7499 306.4379,-356.6359"/>
<polygon fill="#191970" stroke="#191970" points="45.7472,-234.1312 41.0469,-224.6361 38.8001,-234.99 45.7472,-234.1312"/>
</g>
<!-- Node5 -->
<g id="node5" class="node">
<title>Node5</title>
<g id="a_node5"><a xlink:href="Conti2D_8h_a1bb3d1115c283e9063a98ee17fa9d31f.html#a1bb3d1115c283e9063a98ee17fa9d31f" target="_top" xlink:title="DWC_p2p_ItegrationIter">
<polygon fill="#ffffff" stroke="#000000" points="120.3667,-74.5 120.3667,-92.5 244.1987,-92.5 244.1987,-74.5 120.3667,-74.5"/>
<text text-anchor="middle" x="182.2827" y="-80.5" font-family="Helvetica,sans-Serif" font-size="10.00" fill="#000000">DWC_p2p_ItegrationIter</text>
</a>
</g>
</g>
<!-- Node1&#45;&gt;Node5 -->
<g id="edge4" class="edge">
<title>Node1&#45;&gt;Node5</title>
<path fill="none" stroke="#191970" d="M48.7216,-197.2337C60.6588,-173.4089 84.5697,-131.8997 116.4727,-107.5 124.9735,-100.9985 135.4064,-96.1308 145.4385,-92.542"/>
<polygon fill="#191970" stroke="#191970" points="45.5588,-195.7345 44.3503,-206.2602 51.859,-198.7855 45.5588,-195.7345"/>
</g>
<!-- Node6 -->
<g id="node6" class="node">
<title>Node6</title>
<g id="a_node6"><a xlink:href="Conti2D_8h_a8affb7fb2246ce1c959f681fc7baaa05.html#a8affb7fb2246ce1c959f681fc7baaa05" target="_top" xlink:title="DWC_p2p_LandweberIter">
<polygon fill="#ffffff" stroke="#000000" points="116.4727,-37.5 116.4727,-55.5 248.0928,-55.5 248.0928,-37.5 116.4727,-37.5"/>
<text text-anchor="middle" x="182.2827" y="-43.5" font-family="Helvetica,sans-Serif" font-size="10.00" fill="#000000">DWC_p2p_LandweberIter</text>
</a>
</g>
</g>
<!-- Node1&#45;&gt;Node6 -->
<g id="edge5" class="edge">
<title>Node1&#45;&gt;Node6</title>
<path fill="none" stroke="#191970" d="M44.4859,-196.5164C52.6795,-164.3918 73.755,-99.4074 116.4727,-64.5 120.967,-60.8274 126.1519,-57.9012 131.5983,-55.5704"/>
<polygon fill="#191970" stroke="#191970" points="41.0429,-195.8648 42.1106,-206.4057 47.8493,-197.4997 41.0429,-195.8648"/>
</g>
<!-- Node7 -->
<g id="node7" class="node">
<title>Node7</title>
<g id="a_node7"><a xlink:href="Conti2D_8h_ac96429563a5015babafa3274c3f3ec73.html#ac96429563a5015babafa3274c3f3ec73" target="_top" xlink:title="downward continuation from surface to plane ">
<polygon fill="#ffffff" stroke="#000000" points="288.5435,-262.5 288.5435,-280.5 350.1099,-280.5 350.1099,-262.5 288.5435,-262.5"/>
<text text-anchor="middle" x="319.3267" y="-268.5" font-family="Helvetica,sans-Serif" font-size="10.00" fill="#000000">DWC_s2p</text>
</a>
</g>
</g>
<!-- Node1&#45;&gt;Node7 -->
<g id="edge6" class="edge">
<title>Node1&#45;&gt;Node7</title>
<path fill="none" stroke="#191970" d="M51.7194,-233.043C64.8605,-251.3435 88.2508,-278.9451 116.4727,-290.5 177.3586,-315.4287 256.8549,-294.1029 295.7771,-280.5765"/>
<polygon fill="#191970" stroke="#191970" points="54.5179,-230.9358 45.9627,-224.6862 48.7533,-234.9069 54.5179,-230.9358"/>
</g>
<!-- Node8 -->
<g id="node8" class="node">
<title>Node8</title>
<g id="a_node8"><a xlink:href="Conti2D_8h_a6516cfeb71abcf844b32f101e5f77a71.html#a6516cfeb71abcf844b32f101e5f77a71" target="_top" xlink:title="DWC_s2p_CGLS">
<polygon fill="#ffffff" stroke="#000000" points="135.103,-262.5 135.103,-280.5 229.4624,-280.5 229.4624,-262.5 135.103,-262.5"/>
<text text-anchor="middle" x="182.2827" y="-268.5" font-family="Helvetica,sans-Serif" font-size="10.00" fill="#000000">DWC_s2p_CGLS</text>
</a>
</g>
</g>
<!-- Node1&#45;&gt;Node8 -->
<g id="edge8" class="edge">
<title>Node1&#45;&gt;Node8</title>
<path fill="none" stroke="#191970" d="M65.7456,-229.2367C80.3303,-236.7438 99.1214,-245.8407 116.4727,-252.5 126.1317,-256.2071 136.8263,-259.5889 146.737,-262.4384"/>
<polygon fill="#191970" stroke="#191970" points="67.31,-226.1051 56.8263,-224.5746 64.0673,-232.3088 67.31,-226.1051"/>
</g>
<!-- Node10 -->
<g id="node10" class="node">
<title>Node10</title>
<g id="a_node10"><a xlink:href="Conti2D_8h_a39a6a4cc378c878de458d5ae56eb1630.html#a39a6a4cc378c878de458d5ae56eb1630" target="_top" xlink:title="DWC_s2p_ItegrationIter">
<polygon fill="#ffffff" stroke="#000000" points="120.6475,-225.5 120.6475,-243.5 243.918,-243.5 243.918,-225.5 120.6475,-225.5"/>
<text text-anchor="middle" x="182.2827" y="-231.5" font-family="Helvetica,sans-Serif" font-size="10.00" fill="#000000">DWC_s2p_ItegrationIter</text>
</a>
</g>
</g>
<!-- Node1&#45;&gt;Node10 -->
<g id="edge12" class="edge">
<title>Node1&#45;&gt;Node10</title>
<path fill="none" stroke="#191970" d="M90.4807,-222.2206C100.2319,-223.525 110.556,-224.9059 120.6246,-226.2527"/>
<polygon fill="#191970" stroke="#191970" points="90.9369,-218.7506 80.5612,-220.8938 90.0088,-225.6888 90.9369,-218.7506"/>
</g>
<!-- Node11 -->
<g id="node11" class="node">
<title>Node11</title>
<g id="a_node11"><a xlink:href="Conti2D_8h_a30671331e25e6cfa739e77aec57b7f18.html#a30671331e25e6cfa739e77aec57b7f18" target="_top" xlink:title="DWC_s2p_LandweberIter">
<polygon fill="#ffffff" stroke="#000000" points="116.7534,-188.5 116.7534,-206.5 247.812,-206.5 247.812,-188.5 116.7534,-188.5"/>
<text text-anchor="middle" x="182.2827" y="-194.5" font-family="Helvetica,sans-Serif" font-size="10.00" fill="#000000">DWC_s2p_LandweberIter</text>
</a>
</g>
</g>
<!-- Node1&#45;&gt;Node11 -->
<g id="edge15" class="edge">
<title>Node1&#45;&gt;Node11</title>
<path fill="none" stroke="#191970" d="M90.5881,-209.1195C99.0106,-208.0522 107.8578,-206.9311 116.5967,-205.8237"/>
<polygon fill="#191970" stroke="#191970" points="90.0418,-205.6606 80.5612,-210.3901 90.9219,-212.6051 90.0418,-205.6606"/>
</g>
<!-- Node12 -->
<g id="node12" class="node">
<title>Node12</title>
<g id="a_node12"><a xlink:href="Conti2D_8h_a08f63b90a388692c22c4799d19a80207.html#a08f63b90a388692c22c4799d19a80207" target="_top" xlink:title="DWC_s2p_Tikhonov">
<polygon fill="#ffffff" stroke="#000000" points="128.6138,-.5 128.6138,-18.5 235.9517,-18.5 235.9517,-.5 128.6138,-.5"/>
<text text-anchor="middle" x="182.2827" y="-6.5" font-family="Helvetica,sans-Serif" font-size="10.00" fill="#000000">DWC_s2p_Tikhonov</text>
</a>
</g>
</g>
<!-- Node1&#45;&gt;Node12 -->
<g id="edge18" class="edge">
<title>Node1&#45;&gt;Node12</title>
<path fill="none" stroke="#191970" d="M42.4255,-196.2415C47.796,-158.1795 65.1648,-73.0725 116.4727,-27.5 120.635,-23.8029 125.4872,-20.8567 130.6357,-18.5102"/>
<polygon fill="#191970" stroke="#191970" points="38.9172,-196.0842 41.1198,-206.4476 45.8606,-196.9726 38.9172,-196.0842"/>
</g>
<!-- Node13 -->
<g id="node13" class="node">
<title>Node13</title>
<g id="a_node13"><a xlink:href="Conti2D_8h_a7b6bfe9f5b32bc1a62005196d84edfde.html#a7b6bfe9f5b32bc1a62005196d84edfde" target="_top" xlink:title="UWC_p2p">
<polygon fill="#ffffff" stroke="#000000" points="288.2627,-178.5 288.2627,-196.5 350.3906,-196.5 350.3906,-178.5 288.2627,-178.5"/>
<text text-anchor="middle" x="319.3267" y="-184.5" font-family="Helvetica,sans-Serif" font-size="10.00" fill="#000000">UWC_p2p</text>
</a>
</g>
</g>
<!-- Node1&#45;&gt;Node13 -->
<g id="edge19" class="edge">
<title>Node1&#45;&gt;Node13</title>
<path fill="none" stroke="#191970" d="M62.9516,-201.0982C77.6034,-192.6825 97.4187,-182.8795 116.4727,-178.5 175.9094,-164.8387 247.6531,-173.7516 287.9265,-180.9671"/>
<polygon fill="#191970" stroke="#191970" points="60.9266,-198.2306 54.1289,-206.3572 64.5107,-204.2434 60.9266,-198.2306"/>
</g>
<!-- Node14 -->
<g id="node14" class="node">
<title>Node14</title>
<g id="a_node14"><a xlink:href="Conti2D_8h_af82757cb7e0f4f398e774b4e89b9ea72.html#af82757cb7e0f4f398e774b4e89b9ea72" target="_top" xlink:title="UWC_p2p_f">
<polygon fill="#ffffff" stroke="#000000" points="147.0488,-338.5 147.0488,-356.5 217.5166,-356.5 217.5166,-338.5 147.0488,-338.5"/>
<text text-anchor="middle" x="182.2827" y="-344.5" font-family="Helvetica,sans-Serif" font-size="10.00" fill="#000000">UWC_p2p_f</text>
</a>
</g>
</g>
<!-- Node1&#45;&gt;Node14 -->
<g id="edge21" class="edge">
<title>Node1&#45;&gt;Node14</title>
<path fill="none" stroke="#191970" d="M48.7216,-233.7663C60.6588,-257.5911 84.5697,-299.1003 116.4727,-323.5 125.3599,-330.297 136.3588,-335.3083 146.8039,-338.9395"/>
<polygon fill="#191970" stroke="#191970" points="51.859,-232.2145 44.3503,-224.7398 45.5588,-235.2655 51.859,-232.2145"/>
</g>
<!-- Node15 -->
<g id="node15" class="node">
<title>Node15</title>
<g id="a_node15"><a xlink:href="Conti2D_8h_af8adb87017663774bfd342b39facc828.html#af8adb87017663774bfd342b39facc828" target="_top" xlink:title="Upward continuation from plane to surface. ">
<polygon fill="#ffffff" stroke="#000000" points="288.5435,-122.5 288.5435,-140.5 350.1099,-140.5 350.1099,-122.5 288.5435,-122.5"/>
<text text-anchor="middle" x="319.3267" y="-128.5" font-family="Helvetica,sans-Serif" font-size="10.00" fill="#000000">UWC_p2s</text>
</a>
</g>
</g>
<!-- Node1&#45;&gt;Node15 -->
<g id="edge25" class="edge">
<title>Node1&#45;&gt;Node15</title>
<path fill="none" stroke="#191970" d="M59.9234,-200.0955C74.6826,-189.3224 95.8134,-175.4839 116.4727,-167.5 174.6916,-145.0009 247.7946,-136.4476 288.44,-133.2819"/>
<polygon fill="#191970" stroke="#191970" points="57.5162,-197.526 51.6183,-206.3274 61.7175,-203.125 57.5162,-197.526"/>
</g>
<!-- Node4 -->
<g id="node4" class="node">
<title>Node4</title>
<g id="a_node4"><a xlink:href="main_8cpp_a0ddf1224851353fc92bfbff6f499fa97.html#a0ddf1224851353fc92bfbff6f499fa97" target="_top" xlink:title="main">
<polygon fill="#ffffff" stroke="#000000" points="390.5605,-243.5 390.5605,-261.5 428.2354,-261.5 428.2354,-243.5 390.5605,-243.5"/>
<text text-anchor="middle" x="409.3979" y="-249.5" font-family="Helvetica,sans-Serif" font-size="10.00" fill="#000000">main</text>
</a>
</g>
</g>
<!-- Node3&#45;&gt;Node4 -->
<g id="edge3" class="edge">
<title>Node3&#45;&gt;Node4</title>
<path fill="none" stroke="#191970" d="M343.3122,-332.6765C347.2364,-329.8323 351.1346,-326.7274 354.5605,-323.5 375.4203,-303.8495 394.6233,-275.7679 403.7749,-261.5264"/>
<polygon fill="#191970" stroke="#191970" points="341.1513,-329.9134 334.8527,-338.4327 345.0893,-335.7007 341.1513,-329.9134"/>
</g>
<!-- Node7&#45;&gt;Node4 -->
<g id="edge7" class="edge">
<title>Node7&#45;&gt;Node4</title>
<path fill="none" stroke="#191970" d="M360.2558,-262.8662C370.7907,-260.644 381.6278,-258.3579 390.4354,-256.5"/>
<polygon fill="#191970" stroke="#191970" points="359.3863,-259.4725 350.3241,-264.9613 360.8312,-266.3218 359.3863,-259.4725"/>
</g>
<!-- Node8&#45;&gt;Node7 -->
<g id="edge9" class="edge">
<title>Node8&#45;&gt;Node7</title>
<path fill="none" stroke="#191970" d="M239.9776,-271.5C256.5125,-271.5 273.9104,-271.5 288.1878,-271.5"/>
<polygon fill="#191970" stroke="#191970" points="239.8295,-268.0001 229.8294,-271.5 239.8294,-275.0001 239.8295,-268.0001"/>
</g>
<!-- Node9 -->
<g id="node9" class="node">
<title>Node9</title>
<g id="a_node9"><a xlink:href="Conti2D_8h_ab87ce573de93575b7ece2e4f772e03fd.html#ab87ce573de93575b7ece2e4f772e03fd" target="_top" xlink:title="DWC_p2p">
<polygon fill="#ffffff" stroke="#000000" points="288.2627,-225.5 288.2627,-243.5 350.3906,-243.5 350.3906,-225.5 288.2627,-225.5"/>
<text text-anchor="middle" x="319.3267" y="-231.5" font-family="Helvetica,sans-Serif" font-size="10.00" fill="#000000">DWC_p2p</text>
</a>
</g>
</g>
<!-- Node8&#45;&gt;Node9 -->
<g id="edge10" class="edge">
<title>Node8&#45;&gt;Node9</title>
<path fill="none" stroke="#191970" d="M225.7313,-259.7695C245.9637,-254.307 269.5792,-247.9311 288.0269,-242.9505"/>
<polygon fill="#191970" stroke="#191970" points="224.5494,-256.4632 215.8074,-262.4488 226.3741,-263.2212 224.5494,-256.4632"/>
</g>
<!-- Node9&#45;&gt;Node4 -->
<g id="edge11" class="edge">
<title>Node9&#45;&gt;Node4</title>
<path fill="none" stroke="#191970" d="M360.4862,-242.7254C370.9914,-244.8248 381.7799,-246.9808 390.5426,-248.7319"/>
<polygon fill="#191970" stroke="#191970" points="361.0685,-239.2726 350.5764,-240.745 359.6966,-246.1369 361.0685,-239.2726"/>
</g>
<!-- Node10&#45;&gt;Node7 -->
<g id="edge13" class="edge">
<title>Node10&#45;&gt;Node7</title>
<path fill="none" stroke="#191970" d="M225.526,-246.1751C245.9738,-251.6957 269.9145,-258.1594 288.4913,-263.1749"/>
<polygon fill="#191970" stroke="#191970" points="226.3741,-242.7788 215.8074,-243.5512 224.5494,-249.5368 226.3741,-242.7788"/>
</g>
<!-- Node10&#45;&gt;Node9 -->
<g id="edge14" class="edge">
<title>Node10&#45;&gt;Node9</title>
<path fill="none" stroke="#191970" d="M253.9998,-234.5C265.9187,-234.5 277.7084,-234.5 287.9223,-234.5"/>
<polygon fill="#191970" stroke="#191970" points="253.9893,-231.0001 243.9893,-234.5 253.9893,-238.0001 253.9893,-231.0001"/>
</g>
<!-- Node11&#45;&gt;Node7 -->
<g id="edge16" class="edge">
<title>Node11&#45;&gt;Node7</title>
<path fill="none" stroke="#191970" d="M237.3093,-210.1065C241.0558,-211.7018 244.6895,-213.4921 248.0928,-215.5 267.8535,-227.159 265.7836,-238.6728 284.0928,-252.5 288.9731,-256.1857 294.6616,-259.5826 300.026,-262.4537"/>
<polygon fill="#191970" stroke="#191970" points="238.4234,-206.7861 227.8317,-206.53 235.9519,-213.3353 238.4234,-206.7861"/>
</g>
<!-- Node11&#45;&gt;Node9 -->
<g id="edge17" class="edge">
<title>Node11&#45;&gt;Node9</title>
<path fill="none" stroke="#191970" d="M225.7313,-209.2305C245.9637,-214.693 269.5792,-221.0689 288.0269,-226.0495"/>
<polygon fill="#191970" stroke="#191970" points="226.3741,-205.7788 215.8074,-206.5512 224.5494,-212.5368 226.3741,-205.7788"/>
</g>
<!-- Node13&#45;&gt;Node4 -->
<g id="edge20" class="edge">
<title>Node13&#45;&gt;Node4</title>
<path fill="none" stroke="#191970" d="M340.2697,-202.6135C357.7298,-215.2136 382.0369,-232.7549 396.6899,-243.3292"/>
<polygon fill="#191970" stroke="#191970" points="342.0079,-199.5517 331.8507,-196.538 337.9115,-205.228 342.0079,-199.5517"/>
</g>
<!-- Node14&#45;&gt;Node3 -->
<g id="edge23" class="edge">
<title>Node14&#45;&gt;Node3</title>
<path fill="none" stroke="#191970" d="M227.6829,-347.5C245.8954,-347.5 266.5766,-347.5 283.6777,-347.5"/>
<polygon fill="#191970" stroke="#191970" points="227.575,-344.0001 217.5749,-347.5 227.5749,-351.0001 227.575,-344.0001"/>
</g>
<!-- Node14&#45;&gt;Node4 -->
<g id="edge24" class="edge">
<title>Node14&#45;&gt;Node4</title>
<path fill="none" stroke="#191970" d="M227.8487,-336.2707C263.4138,-326.6048 313.5081,-310.9804 354.5605,-290.5 370.7293,-282.4337 387.5556,-270.0873 398.234,-261.6726"/>
<polygon fill="#191970" stroke="#191970" points="226.5255,-333.0011 217.7639,-338.9579 228.3279,-339.7651 226.5255,-333.0011"/>
</g>
<!-- Node14&#45;&gt;Node14 -->
<g id="edge22" class="edge">
<title>Node14&#45;&gt;Node14</title>
<path fill="none" stroke="#191970" d="M156.797,-365.0926C157.1901,-370.6312 165.6853,-375 182.2827,-375 206.9858,-375 213.7406,-365.322 202.547,-356.5134"/>
<polygon fill="#191970" stroke="#191970" points="159.8092,-366.8754 162.0184,-356.5134 153.8296,-363.2361 159.8092,-366.8754"/>
</g>
<!-- Node15&#45;&gt;Node4 -->
<g id="edge26" class="edge">
<title>Node15&#45;&gt;Node4</title>
<path fill="none" stroke="#191970" d="M336.2745,-147.9958C342.3093,-154.1992 348.9858,-161.4585 354.5605,-168.5 374.8839,-194.1707 394.9315,-227.4393 404.1478,-243.302"/>
<polygon fill="#191970" stroke="#191970" points="338.6421,-145.4132 329.105,-140.7988 333.6829,-150.3535 338.6421,-145.4132"/>
</g>
</g>
</svg>
