<?xml version="1.0" encoding="UTF-8" standalone="no"?>
<!DOCTYPE svg PUBLIC "-//W3C//DTD SVG 1.1//EN"
 "http://www.w3.org/Graphics/SVG/1.1/DTD/svg11.dtd">
<!-- Generated by graphviz version 2.40.1 (20161225.0304)
 -->
<!-- Title: DWC_s2p Pages: 1 -->
<svg width="403pt" height="434pt"
 viewBox="0.00 0.00 403.12 434.00" xmlns="http://www.w3.org/2000/svg" xmlns:xlink="http://www.w3.org/1999/xlink">
<g id="graph0" class="graph" transform="scale(1 1) rotate(0) translate(4 430)">
<title>DWC_s2p</title>
<polygon fill="#ffffff" stroke="transparent" points="-4,4 -4,-430 399.1172,-430 399.1172,4 -4,4"/>
<!-- Node0 -->
<g id="node1" class="node">
<title>Node0</title>
<polygon fill="#bfbfbf" stroke="#000000" points="0,-166.5 0,-184.5 61.5664,-184.5 61.5664,-166.5 0,-166.5"/>
<text text-anchor="middle" x="30.7832" y="-172.5" font-family="Helvetica,sans-Serif" font-size="10.00" fill="#000000">DWC_s2p</text>
</g>
<!-- Node1 -->
<g id="node2" class="node">
<title>Node1</title>
<g id="a_node2"><a xlink:href="Conti2D_8cpp_a7730328c8e132ff0a35142a6d31bac18.html#a7730328c8e132ff0a35142a6d31bac18" target="_top" xlink:title="Calculate downward continuation of potential field from surface to a plane. ">
<polygon fill="#ffffff" stroke="#000000" points="97.5664,-298.5 97.5664,-316.5 228.625,-316.5 228.625,-298.5 97.5664,-298.5"/>
<text text-anchor="middle" x="163.0957" y="-304.5" font-family="Helvetica,sans-Serif" font-size="10.00" fill="#000000">DWC_s2p_LandweberIter</text>
</a>
</g>
</g>
<!-- Node0&#45;&gt;Node1 -->
<g id="edge1" class="edge">
<title>Node0&#45;&gt;Node1</title>
<path fill="none" stroke="#191970" d="M34.0667,-184.7432C41.8552,-205.3926 63.3949,-255.6383 97.5664,-283.5 102.929,-287.8724 109.1601,-291.4883 115.6054,-294.4677"/>
<polygon fill="#191970" stroke="#191970" points="114.5462,-297.8168 125.1254,-298.3915 117.2136,-291.3449 114.5462,-297.8168"/>
</g>
<!-- Node4 -->
<g id="node5" class="node">
<title>Node4</title>
<g id="a_node5"><a xlink:href="stdfunc_8cpp_a88f10a86b8808047787d2df5e8cbcb72.html#a88f10a86b8808047787d2df5e8cbcb72" target="_top" xlink:title="Get file name from a full path. ">
<polygon fill="#ffffff" stroke="#000000" points="279.3516,-407.5 279.3516,-425.5 380.3906,-425.5 380.3906,-407.5 279.3516,-407.5"/>
<text text-anchor="middle" x="329.8711" y="-413.5" font-family="Helvetica,sans-Serif" font-size="10.00" fill="#000000">Path_GetFileName</text>
</a>
</g>
</g>
<!-- Node0&#45;&gt;Node4 -->
<g id="edge12" class="edge">
<title>Node0&#45;&gt;Node4</title>
<path fill="none" stroke="#191970" d="M32.4058,-184.6369C37.4257,-210.3746 55.0038,-284.3389 97.5664,-326.5 144.2348,-372.7281 217.2919,-395.7818 269.0015,-406.8877"/>
<polygon fill="#191970" stroke="#191970" points="268.5446,-410.3669 279.0446,-408.9529 269.9545,-403.5104 268.5446,-410.3669"/>
</g>
<!-- Node5 -->
<g id="node6" class="node">
<title>Node5</title>
<g id="a_node6"><a xlink:href="stdfunc_8cpp_a6334abab105b1fe7efa9a3e2a4b07c47.html#a6334abab105b1fe7efa9a3e2a4b07c47" target="_top" xlink:title="Save results of at each iteration step as vtk file. ">
<polygon fill="#ffffff" stroke="#000000" points="289.6348,-259.5 289.6348,-277.5 370.1074,-277.5 370.1074,-259.5 289.6348,-259.5"/>
<text text-anchor="middle" x="329.8711" y="-265.5" font-family="Helvetica,sans-Serif" font-size="10.00" fill="#000000">SaveGrd2VTK</text>
</a>
</g>
</g>
<!-- Node0&#45;&gt;Node5 -->
<g id="edge16" class="edge">
<title>Node0&#45;&gt;Node5</title>
<path fill="none" stroke="#191970" d="M35.743,-184.689C45.2409,-201.2388 67.7321,-235.7072 97.5664,-250.5 154.916,-278.9358 230.1285,-279.0947 279.2072,-275.0696"/>
<polygon fill="#191970" stroke="#191970" points="279.6252,-278.5462 289.2676,-274.1559 278.992,-271.5749 279.6252,-278.5462"/>
</g>
<!-- Node8 -->
<g id="node9" class="node">
<title>Node8</title>
<g id="a_node9"><a xlink:href="Conti2D_8cpp_a78d8a6b80166f8976a0f18caddbe1dcb.html#a78d8a6b80166f8976a0f18caddbe1dcb" target="_top" xlink:title="Get complete kernel matrix for upward continuation from plane to surface. ">
<polygon fill="#ffffff" stroke="#000000" points="110.623,-222.5 110.623,-240.5 215.5684,-240.5 215.5684,-222.5 110.623,-222.5"/>
<text text-anchor="middle" x="163.0957" y="-228.5" font-family="Helvetica,sans-Serif" font-size="10.00" fill="#000000">Getkernel_p2s_new</text>
</a>
</g>
</g>
<!-- Node0&#45;&gt;Node8 -->
<g id="edge8" class="edge">
<title>Node0&#45;&gt;Node8</title>
<path fill="none" stroke="#191970" d="M44.9077,-184.5498C58.1154,-192.7118 78.5961,-204.6117 97.5664,-212.5 103.7391,-215.0668 110.3751,-217.4252 116.97,-219.5425"/>
<polygon fill="#191970" stroke="#191970" points="115.9578,-222.8929 126.5441,-222.4681 118.0035,-216.1985 115.9578,-222.8929"/>
</g>
<!-- Node10 -->
<g id="node11" class="node">
<title>Node10</title>
<g id="a_node11"><a xlink:href="stdfunc_8cpp_aaea96ecea3031c19d3ef88f6f1590d4a.html#aaea96ecea3031c19d3ef88f6f1590d4a" target="_top" xlink:title="Get file extension name from a full file path. ">
<polygon fill="#ffffff" stroke="#000000" points="113.4087,-185.5 113.4087,-203.5 212.7827,-203.5 212.7827,-185.5 113.4087,-185.5"/>
<text text-anchor="middle" x="163.0957" y="-191.5" font-family="Helvetica,sans-Serif" font-size="10.00" fill="#000000">Path_GetExtName</text>
</a>
</g>
</g>
<!-- Node0&#45;&gt;Node10 -->
<g id="edge11" class="edge">
<title>Node0&#45;&gt;Node10</title>
<path fill="none" stroke="#191970" d="M61.8046,-179.9547C74.1588,-181.7287 88.8158,-183.8335 103.0879,-185.8829"/>
<polygon fill="#191970" stroke="#191970" points="102.9777,-189.4029 113.3737,-187.3599 103.9728,-182.474 102.9777,-189.4029"/>
</g>
<!-- Node11 -->
<g id="node12" class="node">
<title>Node11</title>
<g id="a_node12"><a xlink:href="stdfunc_8cpp_a2c90cdea3ca11177ba34c14a3b0a00cb.html#a2c90cdea3ca11177ba34c14a3b0a00cb" target="_top" xlink:title="Read a ASCII Surfer format grid (6) ">
<polygon fill="#ffffff" stroke="#000000" points="134.8076,-148.5 134.8076,-166.5 191.3838,-166.5 191.3838,-148.5 134.8076,-148.5"/>
<text text-anchor="middle" x="163.0957" y="-154.5" font-family="Helvetica,sans-Serif" font-size="10.00" fill="#000000">ReadGrd</text>
</a>
</g>
</g>
<!-- Node0&#45;&gt;Node11 -->
<g id="edge13" class="edge">
<title>Node0&#45;&gt;Node11</title>
<path fill="none" stroke="#191970" d="M61.8046,-171.2798C80.5373,-168.7314 104.5646,-165.4627 124.5162,-162.7484"/>
<polygon fill="#191970" stroke="#191970" points="125.0915,-166.2025 134.5284,-161.3863 124.1479,-159.2664 125.0915,-166.2025"/>
</g>
<!-- Node12 -->
<g id="node13" class="node">
<title>Node12</title>
<g id="a_node13"><a xlink:href="stdfunc_8cpp_ab76adf263893ac28772283c5a00b964c.html#ab76adf263893ac28772283c5a00b964c" target="_top" xlink:title="Save a grid data as ASCII surfer grid file. ">
<polygon fill="#ffffff" stroke="#000000" points="135.3643,-111.5 135.3643,-129.5 190.8271,-129.5 190.8271,-111.5 135.3643,-111.5"/>
<text text-anchor="middle" x="163.0957" y="-117.5" font-family="Helvetica,sans-Serif" font-size="10.00" fill="#000000">SaveGrd</text>
</a>
</g>
</g>
<!-- Node0&#45;&gt;Node12 -->
<g id="edge14" class="edge">
<title>Node0&#45;&gt;Node12</title>
<path fill="none" stroke="#191970" d="M44.8819,-166.3875C58.0718,-158.1823 78.5408,-146.254 97.5664,-138.5 106.3921,-134.903 116.1729,-131.7838 125.4271,-129.199"/>
<polygon fill="#191970" stroke="#191970" points="126.425,-132.5554 135.1921,-126.6066 124.6288,-125.7897 126.425,-132.5554"/>
</g>
<!-- Node13 -->
<g id="node14" class="node">
<title>Node13</title>
<g id="a_node14"><a xlink:href="stdfunc_8cpp_a95502a9bee4005071ea4fd3cb5e1c228.html#a95502a9bee4005071ea4fd3cb5e1c228" target="_top" xlink:title="Save Grd data as netCDF format. ">
<polygon fill="#ffffff" stroke="#000000" points="115.3569,-74.5 115.3569,-92.5 210.8345,-92.5 210.8345,-74.5 115.3569,-74.5"/>
<text text-anchor="middle" x="163.0957" y="-80.5" font-family="Helvetica,sans-Serif" font-size="10.00" fill="#000000">SaveGrd2netCDF</text>
</a>
</g>
</g>
<!-- Node0&#45;&gt;Node13 -->
<g id="edge15" class="edge">
<title>Node0&#45;&gt;Node13</title>
<path fill="none" stroke="#191970" d="M36.5535,-166.2234C46.8361,-150.4773 69.8701,-118.5702 97.5664,-101.5 100.7144,-99.5597 104.0739,-97.8248 107.5459,-96.2739"/>
<polygon fill="#191970" stroke="#191970" points="108.9053,-99.5003 116.9312,-92.5841 106.344,-92.9857 108.9053,-99.5003"/>
</g>
<!-- Node14 -->
<g id="node15" class="node">
<title>Node14</title>
<g id="a_node15"><a xlink:href="stdfunc_8cpp_aad82d3e86d7bd949a1311c660977b9c1.html#aad82d3e86d7bd949a1311c660977b9c1" target="_top" xlink:title="Save a grid field data on a topography as vtk format (3d) ">
<polygon fill="#ffffff" stroke="#000000" points="110.3472,-37.5 110.3472,-55.5 215.8442,-55.5 215.8442,-37.5 110.3472,-37.5"/>
<text text-anchor="middle" x="163.0957" y="-43.5" font-family="Helvetica,sans-Serif" font-size="10.00" fill="#000000">SaveGrd2VTK_topo</text>
</a>
</g>
</g>
<!-- Node0&#45;&gt;Node14 -->
<g id="edge17" class="edge">
<title>Node0&#45;&gt;Node14</title>
<path fill="none" stroke="#191970" d="M33.6115,-166.4301C40.7125,-145.1884 61.3628,-91.9433 97.5664,-64.5 99.7818,-62.8207 102.1444,-61.298 104.6086,-59.9174"/>
<polygon fill="#191970" stroke="#191970" points="106.3578,-62.9615 113.893,-55.5136 103.3579,-56.6369 106.3578,-62.9615"/>
</g>
<!-- Node15 -->
<g id="node16" class="node">
<title>Node15</title>
<g id="a_node16"><a xlink:href="stdfunc_8cpp_a0858a57d19c1ac2f09fe65f7f416e2a1.html#a0858a57d19c1ac2f09fe65f7f416e2a1" target="_top" xlink:title="SaveGrd2xyz">
<polygon fill="#ffffff" stroke="#000000" points="125.0835,-.5 125.0835,-18.5 201.1079,-18.5 201.1079,-.5 125.0835,-.5"/>
<text text-anchor="middle" x="163.0957" y="-6.5" font-family="Helvetica,sans-Serif" font-size="10.00" fill="#000000">SaveGrd2xyz</text>
</a>
</g>
</g>
<!-- Node0&#45;&gt;Node15 -->
<g id="edge18" class="edge">
<title>Node0&#45;&gt;Node15</title>
<path fill="none" stroke="#191970" d="M32.1821,-166.238C36.6132,-140.2048 52.7911,-65.791 97.5664,-27.5 102.7473,-23.0694 108.9278,-19.7218 115.3927,-17.1941"/>
<polygon fill="#191970" stroke="#191970" points="116.5744,-20.4901 124.9848,-14.0468 114.392,-13.839 116.5744,-20.4901"/>
</g>
<!-- Node2 -->
<g id="node3" class="node">
<title>Node2</title>
<g id="a_node3"><a xlink:href="stdfunc_8cpp_a98827c14ed7072c96834f20205c7a916.html#a98827c14ed7072c96834f20205c7a916" target="_top" xlink:title="Norm2">
<polygon fill="#ffffff" stroke="#000000" points="306.8687,-370.5 306.8687,-388.5 352.8735,-388.5 352.8735,-370.5 306.8687,-370.5"/>
<text text-anchor="middle" x="329.8711" y="-376.5" font-family="Helvetica,sans-Serif" font-size="10.00" fill="#000000">Norm2</text>
</a>
</g>
</g>
<!-- Node1&#45;&gt;Node2 -->
<g id="edge2" class="edge">
<title>Node1&#45;&gt;Node2</title>
<path fill="none" stroke="#191970" d="M177.7394,-316.6158C197.0459,-328.3194 232.3517,-348.6471 264.625,-361.5 274.966,-365.6183 286.5876,-369.1534 297.1262,-371.973"/>
<polygon fill="#191970" stroke="#191970" points="296.2657,-375.3656 306.8211,-374.4528 298.0004,-368.5839 296.2657,-375.3656"/>
</g>
<!-- Node3 -->
<g id="node4" class="node">
<title>Node3</title>
<g id="a_node4"><a xlink:href="stdfunc_8cpp_a43fc3af75243a047d61aadea31c0fa9c.html#a43fc3af75243a047d61aadea31c0fa9c" target="_top" xlink:title="Get 2nd norm of the gradient of a grid data. ">
<polygon fill="#ffffff" stroke="#000000" points="284.9106,-333.5 284.9106,-351.5 374.8315,-351.5 374.8315,-333.5 284.9106,-333.5"/>
<text text-anchor="middle" x="329.8711" y="-339.5" font-family="Helvetica,sans-Serif" font-size="10.00" fill="#000000">Norm2_Gradient</text>
</a>
</g>
</g>
<!-- Node1&#45;&gt;Node3 -->
<g id="edge3" class="edge">
<title>Node1&#45;&gt;Node3</title>
<path fill="none" stroke="#191970" d="M206.0445,-316.5134C227.6509,-321.0477 254.0364,-326.5851 276.891,-331.3814"/>
<polygon fill="#191970" stroke="#191970" points="276.2726,-334.8278 286.7783,-333.4564 277.7104,-327.9771 276.2726,-334.8278"/>
</g>
<!-- Node1&#45;&gt;Node4 -->
<g id="edge4" class="edge">
<title>Node1&#45;&gt;Node4</title>
<path fill="none" stroke="#191970" d="M173.4203,-316.8093C198.989,-339.8565 263.2942,-397.773 264.625,-398.5 268.3374,-400.528 272.296,-402.3415 276.3581,-403.9609"/>
<polygon fill="#191970" stroke="#191970" points="275.3624,-407.3219 285.957,-407.3964 277.7213,-400.7313 275.3624,-407.3219"/>
</g>
<!-- Node1&#45;&gt;Node5 -->
<g id="edge5" class="edge">
<title>Node1&#45;&gt;Node5</title>
<path fill="none" stroke="#191970" d="M201.7765,-298.4546C225.4772,-292.9123 256.0187,-285.7702 281.3345,-279.8502"/>
<polygon fill="#191970" stroke="#191970" points="282.1712,-283.249 291.1115,-277.5638 280.5772,-276.4329 282.1712,-283.249"/>
</g>
<!-- Node6 -->
<g id="node7" class="node">
<title>Node6</title>
<g id="a_node7"><a xlink:href="classMultiProgressBar_a58eef55ad6d5c7d769b3a402a2ef7b85.html#a58eef55ad6d5c7d769b3a402a2ef7b85" target="_top" xlink:title="MultiProgressBar::Update">
<polygon fill="#ffffff" stroke="#000000" points="264.625,-222.5 264.625,-240.5 395.1172,-240.5 395.1172,-222.5 264.625,-222.5"/>
<text text-anchor="middle" x="329.8711" y="-228.5" font-family="Helvetica,sans-Serif" font-size="10.00" fill="#000000">MultiProgressBar::Update</text>
</a>
</g>
</g>
<!-- Node1&#45;&gt;Node6 -->
<g id="edge6" class="edge">
<title>Node1&#45;&gt;Node6</title>
<path fill="none" stroke="#191970" d="M177.0332,-298.3144C196.134,-286.0486 231.821,-264.2715 264.625,-250.5 270.6216,-247.9826 277.0611,-245.6683 283.4745,-243.5864"/>
<polygon fill="#191970" stroke="#191970" points="284.9369,-246.7984 293.4641,-240.5105 282.8769,-240.1083 284.9369,-246.7984"/>
</g>
<!-- Node7 -->
<g id="node8" class="node">
<title>Node7</title>
<g id="a_node8"><a xlink:href="Conti2D_8cpp_a632c1e4efbb7e9b1aaf04db729e69394.html#a632c1e4efbb7e9b1aaf04db729e69394" target="_top" xlink:title="Calculate upward continuation as , see equation (5). ">
<polygon fill="#ffffff" stroke="#000000" points="301.0386,-296.5 301.0386,-314.5 358.7036,-314.5 358.7036,-296.5 301.0386,-296.5"/>
<text text-anchor="middle" x="329.8711" y="-302.5" font-family="Helvetica,sans-Serif" font-size="10.00" fill="#000000">UWC_Gij</text>
</a>
</g>
</g>
<!-- Node1&#45;&gt;Node7 -->
<g id="edge7" class="edge">
<title>Node1&#45;&gt;Node7</title>
<path fill="none" stroke="#191970" d="M229.0098,-306.7095C249.9615,-306.4583 272.4541,-306.1886 290.8702,-305.9677"/>
<polygon fill="#191970" stroke="#191970" points="290.965,-309.4669 300.9222,-305.8472 290.881,-302.4674 290.965,-309.4669"/>
</g>
<!-- Node8&#45;&gt;Node6 -->
<g id="edge10" class="edge">
<title>Node8&#45;&gt;Node6</title>
<path fill="none" stroke="#191970" d="M215.8645,-231.5C228.0631,-231.5 241.2768,-231.5 254.2385,-231.5"/>
<polygon fill="#191970" stroke="#191970" points="254.5553,-235.0001 264.5553,-231.5 254.5553,-228.0001 254.5553,-235.0001"/>
</g>
<!-- Node9 -->
<g id="node10" class="node">
<title>Node9</title>
<g id="a_node10"><a xlink:href="Conti2D_8cpp_a4bb34ae88cf16e429505f9eb746384cd.html#a4bb34ae88cf16e429505f9eb746384cd" target="_top" xlink:title="Get the kernel vector for a calculation point . ">
<polygon fill="#ffffff" stroke="#000000" points="301.3096,-185.5 301.3096,-203.5 358.4326,-203.5 358.4326,-185.5 301.3096,-185.5"/>
<text text-anchor="middle" x="329.8711" y="-191.5" font-family="Helvetica,sans-Serif" font-size="10.00" fill="#000000">GetPmnij</text>
</a>
</g>
</g>
<!-- Node8&#45;&gt;Node9 -->
<g id="edge9" class="edge">
<title>Node8&#45;&gt;Node9</title>
<path fill="none" stroke="#191970" d="M203.8936,-222.4488C230.5399,-216.5371 265.1175,-208.8659 291.3043,-203.0562"/>
<polygon fill="#191970" stroke="#191970" points="292.2465,-206.4324 301.251,-200.8495 290.7303,-199.5986 292.2465,-206.4324"/>
</g>
</g>
</svg>
