<?xml version="1.0" encoding="UTF-8" standalone="no"?>
<!DOCTYPE svg PUBLIC "-//W3C//DTD SVG 1.1//EN"
 "http://www.w3.org/Graphics/SVG/1.1/DTD/svg11.dtd">
<!-- Generated by graphviz version 2.40.1 (20161225.0304)
 -->
<!-- Title: DWC_p2p_LandweberIter Pages: 1 -->
<svg width="306pt" height="212pt"
 viewBox="0.00 0.00 306.11 212.00" xmlns="http://www.w3.org/2000/svg" xmlns:xlink="http://www.w3.org/1999/xlink">
<g id="graph0" class="graph" transform="scale(1 1) rotate(0) translate(4 208)">
<title>DWC_p2p_LandweberIter</title>
<polygon fill="#ffffff" stroke="transparent" points="-4,4 -4,-208 302.1123,-208 302.1123,4 -4,4"/>
<!-- Node0 -->
<g id="node1" class="node">
<title>Node0</title>
<polygon fill="#bfbfbf" stroke="#000000" points="0,-92.5 0,-110.5 131.6201,-110.5 131.6201,-92.5 0,-92.5"/>
<text text-anchor="middle" x="65.8101" y="-98.5" font-family="Helvetica,sans-Serif" font-size="10.00" fill="#000000">DWC_p2p_LandweberIter</text>
</g>
<!-- Node1 -->
<g id="node2" class="node">
<title>Node1</title>
<g id="a_node2"><a xlink:href="stdfunc_8cpp_a98827c14ed7072c96834f20205c7a916.html#a98827c14ed7072c96834f20205c7a916" target="_top" xlink:title="Norm2">
<polygon fill="#ffffff" stroke="#000000" points="209.8638,-185.5 209.8638,-203.5 255.8687,-203.5 255.8687,-185.5 209.8638,-185.5"/>
<text text-anchor="middle" x="232.8662" y="-191.5" font-family="Helvetica,sans-Serif" font-size="10.00" fill="#000000">Norm2</text>
</a>
</g>
</g>
<!-- Node0&#45;&gt;Node1 -->
<g id="edge1" class="edge">
<title>Node0&#45;&gt;Node1</title>
<path fill="none" stroke="#191970" d="M75.6853,-110.748C92.9895,-126.4745 130.493,-158.4717 167.6201,-176.5 177.7131,-181.401 189.354,-185.1501 199.9839,-187.9248"/>
<polygon fill="#191970" stroke="#191970" points="199.2398,-191.3457 209.7822,-190.2923 200.8839,-184.5415 199.2398,-191.3457"/>
</g>
<!-- Node2 -->
<g id="node3" class="node">
<title>Node2</title>
<g id="a_node3"><a xlink:href="stdfunc_8cpp_a43fc3af75243a047d61aadea31c0fa9c.html#a43fc3af75243a047d61aadea31c0fa9c" target="_top" xlink:title="Get 2nd norm of the gradient of a grid data. ">
<polygon fill="#ffffff" stroke="#000000" points="187.9058,-148.5 187.9058,-166.5 277.8267,-166.5 277.8267,-148.5 187.9058,-148.5"/>
<text text-anchor="middle" x="232.8662" y="-154.5" font-family="Helvetica,sans-Serif" font-size="10.00" fill="#000000">Norm2_Gradient</text>
</a>
</g>
</g>
<!-- Node0&#45;&gt;Node2 -->
<g id="edge2" class="edge">
<title>Node0&#45;&gt;Node2</title>
<path fill="none" stroke="#191970" d="M88.2541,-110.5271C108.7511,-118.6151 139.9793,-130.5481 167.6201,-139.5 174.1546,-141.6163 181.1066,-143.7046 187.9449,-145.6673"/>
<polygon fill="#191970" stroke="#191970" points="187.2465,-149.1066 197.8204,-148.4418 189.1398,-142.3675 187.2465,-149.1066"/>
</g>
<!-- Node3 -->
<g id="node4" class="node">
<title>Node3</title>
<g id="a_node4"><a xlink:href="stdfunc_8cpp_a88f10a86b8808047787d2df5e8cbcb72.html#a88f10a86b8808047787d2df5e8cbcb72" target="_top" xlink:title="Get file name from a full path. ">
<polygon fill="#ffffff" stroke="#000000" points="182.3467,-111.5 182.3467,-129.5 283.3857,-129.5 283.3857,-111.5 182.3467,-111.5"/>
<text text-anchor="middle" x="232.8662" y="-117.5" font-family="Helvetica,sans-Serif" font-size="10.00" fill="#000000">Path_GetFileName</text>
</a>
</g>
</g>
<!-- Node0&#45;&gt;Node3 -->
<g id="edge3" class="edge">
<title>Node0&#45;&gt;Node3</title>
<path fill="none" stroke="#191970" d="M131.8351,-109.0093C145.0764,-110.5153 158.9321,-112.0912 171.989,-113.5762"/>
<polygon fill="#191970" stroke="#191970" points="171.9306,-117.092 182.2621,-114.7446 172.7217,-110.1369 171.9306,-117.092"/>
</g>
<!-- Node4 -->
<g id="node5" class="node">
<title>Node4</title>
<g id="a_node5"><a xlink:href="stdfunc_8cpp_a6334abab105b1fe7efa9a3e2a4b07c47.html#a6334abab105b1fe7efa9a3e2a4b07c47" target="_top" xlink:title="Save results of at each iteration step as vtk file. ">
<polygon fill="#ffffff" stroke="#000000" points="192.6299,-74.5 192.6299,-92.5 273.1025,-92.5 273.1025,-74.5 192.6299,-74.5"/>
<text text-anchor="middle" x="232.8662" y="-80.5" font-family="Helvetica,sans-Serif" font-size="10.00" fill="#000000">SaveGrd2VTK</text>
</a>
</g>
</g>
<!-- Node0&#45;&gt;Node4 -->
<g id="edge4" class="edge">
<title>Node0&#45;&gt;Node4</title>
<path fill="none" stroke="#191970" d="M131.8351,-94.3859C148.5933,-92.5803 166.3357,-90.6685 182.1974,-88.9595"/>
<polygon fill="#191970" stroke="#191970" points="182.7525,-92.42 192.32,-87.8688 182.0025,-85.4603 182.7525,-92.42"/>
</g>
<!-- Node5 -->
<g id="node6" class="node">
<title>Node5</title>
<g id="a_node6"><a xlink:href="classMultiProgressBar_a58eef55ad6d5c7d769b3a402a2ef7b85.html#a58eef55ad6d5c7d769b3a402a2ef7b85" target="_top" xlink:title="MultiProgressBar::Update">
<polygon fill="#ffffff" stroke="#000000" points="167.6201,-37.5 167.6201,-55.5 298.1123,-55.5 298.1123,-37.5 167.6201,-37.5"/>
<text text-anchor="middle" x="232.8662" y="-43.5" font-family="Helvetica,sans-Serif" font-size="10.00" fill="#000000">MultiProgressBar::Update</text>
</a>
</g>
</g>
<!-- Node0&#45;&gt;Node5 -->
<g id="edge5" class="edge">
<title>Node0&#45;&gt;Node5</title>
<path fill="none" stroke="#191970" d="M90.365,-92.3787C110.9043,-84.855 141.0313,-74.0648 167.6201,-65.5 175.1212,-63.0838 183.15,-60.6349 190.9203,-58.3349"/>
<polygon fill="#191970" stroke="#191970" points="191.9494,-61.6806 200.5654,-55.5149 189.985,-54.9619 191.9494,-61.6806"/>
</g>
<!-- Node6 -->
<g id="node7" class="node">
<title>Node6</title>
<g id="a_node7"><a xlink:href="Conti2D_8cpp_a632c1e4efbb7e9b1aaf04db729e69394.html#a632c1e4efbb7e9b1aaf04db729e69394" target="_top" xlink:title="Calculate upward continuation as , see equation (5). ">
<polygon fill="#ffffff" stroke="#000000" points="204.0337,-.5 204.0337,-18.5 261.6987,-18.5 261.6987,-.5 204.0337,-.5"/>
<text text-anchor="middle" x="232.8662" y="-6.5" font-family="Helvetica,sans-Serif" font-size="10.00" fill="#000000">UWC_Gij</text>
</a>
</g>
</g>
<!-- Node0&#45;&gt;Node6 -->
<g id="edge6" class="edge">
<title>Node0&#45;&gt;Node6</title>
<path fill="none" stroke="#191970" d="M76.0406,-92.3262C93.58,-77.0416 131.0457,-46.29 167.6201,-28.5 175.8682,-24.4881 185.1238,-21.1607 194.0143,-18.4719"/>
<polygon fill="#191970" stroke="#191970" points="195.1494,-21.7884 203.8238,-15.7053 193.2492,-15.0513 195.1494,-21.7884"/>
</g>
</g>
</svg>
