<?xml version="1.0" encoding="UTF-8" standalone="no"?>
<!DOCTYPE svg PUBLIC "-//W3C//DTD SVG 1.1//EN"
 "http://www.w3.org/Graphics/SVG/1.1/DTD/svg11.dtd">
<!-- Generated by graphviz version 2.40.1 (20161225.0304)
 -->
<!-- Title: UWC_p2p_f Pages: 1 -->
<svg width="216pt" height="249pt"
 viewBox="0.00 0.00 215.51 249.00" xmlns="http://www.w3.org/2000/svg" xmlns:xlink="http://www.w3.org/1999/xlink">
<g id="graph0" class="graph" transform="scale(1 1) rotate(0) translate(4 245)">
<title>UWC_p2p_f</title>
<polygon fill="#ffffff" stroke="transparent" points="-4,4 -4,-245 211.5068,-245 211.5068,4 -4,4"/>
<!-- Node0 -->
<g id="node1" class="node">
<title>Node0</title>
<polygon fill="#bfbfbf" stroke="#000000" points="0,-111.5 0,-129.5 70.4678,-129.5 70.4678,-111.5 0,-111.5"/>
<text text-anchor="middle" x="35.2339" y="-117.5" font-family="Helvetica,sans-Serif" font-size="10.00" fill="#000000">UWC_p2p_f</text>
</g>
<!-- Node0&#45;&gt;Node0 -->
<g id="edge8" class="edge">
<title>Node0&#45;&gt;Node0</title>
<path fill="none" stroke="#191970" d="M17.3536,-129.5134C7.4769,-138.322 13.437,-148 35.2339,-148 49.5381,-148 57.0219,-143.832 57.6855,-138.477"/>
<polygon fill="#191970" stroke="#191970" points="60.7753,-136.8317 53.1141,-129.5134 54.5394,-140.012 60.7753,-136.8317"/>
</g>
<!-- Node1 -->
<g id="node2" class="node">
<title>Node1</title>
<g id="a_node2"><a xlink:href="stdfunc_8cpp_aaea96ecea3031c19d3ef88f6f1590d4a.html#aaea96ecea3031c19d3ef88f6f1590d4a" target="_top" xlink:title="Get file extension name from a full file path. ">
<polygon fill="#ffffff" stroke="#000000" points="107.3003,-222.5 107.3003,-240.5 206.6743,-240.5 206.6743,-222.5 107.3003,-222.5"/>
<text text-anchor="middle" x="156.9873" y="-228.5" font-family="Helvetica,sans-Serif" font-size="10.00" fill="#000000">Path_GetExtName</text>
</a>
</g>
</g>
<!-- Node0&#45;&gt;Node1 -->
<g id="edge1" class="edge">
<title>Node0&#45;&gt;Node1</title>
<path fill="none" stroke="#191970" d="M39.8295,-129.5626C49.6103,-147.9809 74.2513,-190.0244 106.4678,-213.5 108.7958,-215.1964 111.299,-216.7457 113.901,-218.1586"/>
<polygon fill="#191970" stroke="#191970" points="112.4792,-221.3577 123.0173,-222.4528 115.4622,-215.0251 112.4792,-221.3577"/>
</g>
<!-- Node2 -->
<g id="node3" class="node">
<title>Node2</title>
<g id="a_node3"><a xlink:href="stdfunc_8cpp_a88f10a86b8808047787d2df5e8cbcb72.html#a88f10a86b8808047787d2df5e8cbcb72" target="_top" xlink:title="Get file name from a full path. ">
<polygon fill="#ffffff" stroke="#000000" points="106.4678,-185.5 106.4678,-203.5 207.5068,-203.5 207.5068,-185.5 106.4678,-185.5"/>
<text text-anchor="middle" x="156.9873" y="-191.5" font-family="Helvetica,sans-Serif" font-size="10.00" fill="#000000">Path_GetFileName</text>
</a>
</g>
</g>
<!-- Node0&#45;&gt;Node2 -->
<g id="edge2" class="edge">
<title>Node0&#45;&gt;Node2</title>
<path fill="none" stroke="#191970" d="M44.6537,-129.5693C57.6483,-141.6707 82.2272,-163.1231 106.4678,-176.5 109.9005,-178.3943 113.5709,-180.1525 117.3078,-181.768"/>
<polygon fill="#191970" stroke="#191970" points="116.0512,-185.0349 126.6364,-185.4863 118.643,-178.5324 116.0512,-185.0349"/>
</g>
<!-- Node3 -->
<g id="node4" class="node">
<title>Node3</title>
<g id="a_node4"><a xlink:href="stdfunc_8cpp_a2c90cdea3ca11177ba34c14a3b0a00cb.html#a2c90cdea3ca11177ba34c14a3b0a00cb" target="_top" xlink:title="Read a ASCII Surfer format grid (6) ">
<polygon fill="#ffffff" stroke="#000000" points="128.6992,-148.5 128.6992,-166.5 185.2754,-166.5 185.2754,-148.5 128.6992,-148.5"/>
<text text-anchor="middle" x="156.9873" y="-154.5" font-family="Helvetica,sans-Serif" font-size="10.00" fill="#000000">ReadGrd</text>
</a>
</g>
</g>
<!-- Node0&#45;&gt;Node3 -->
<g id="edge3" class="edge">
<title>Node0&#45;&gt;Node3</title>
<path fill="none" stroke="#191970" d="M65.0181,-129.5512C81.1431,-134.4515 101.2465,-140.5608 118.5416,-145.8166"/>
<polygon fill="#191970" stroke="#191970" points="117.7633,-149.2381 128.349,-148.797 119.7987,-142.5405 117.7633,-149.2381"/>
</g>
<!-- Node4 -->
<g id="node5" class="node">
<title>Node4</title>
<g id="a_node5"><a xlink:href="stdfunc_8cpp_ab76adf263893ac28772283c5a00b964c.html#ab76adf263893ac28772283c5a00b964c" target="_top" xlink:title="Save a grid data as ASCII surfer grid file. ">
<polygon fill="#ffffff" stroke="#000000" points="129.2559,-111.5 129.2559,-129.5 184.7188,-129.5 184.7188,-111.5 129.2559,-111.5"/>
<text text-anchor="middle" x="156.9873" y="-117.5" font-family="Helvetica,sans-Serif" font-size="10.00" fill="#000000">SaveGrd</text>
</a>
</g>
</g>
<!-- Node0&#45;&gt;Node4 -->
<g id="edge4" class="edge">
<title>Node0&#45;&gt;Node4</title>
<path fill="none" stroke="#191970" d="M70.7773,-120.5C85.833,-120.5 103.4049,-120.5 118.7421,-120.5"/>
<polygon fill="#191970" stroke="#191970" points="118.9448,-124.0001 128.9448,-120.5 118.9447,-117.0001 118.9448,-124.0001"/>
</g>
<!-- Node5 -->
<g id="node6" class="node">
<title>Node5</title>
<g id="a_node6"><a xlink:href="stdfunc_8cpp_a95502a9bee4005071ea4fd3cb5e1c228.html#a95502a9bee4005071ea4fd3cb5e1c228" target="_top" xlink:title="Save Grd data as netCDF format. ">
<polygon fill="#ffffff" stroke="#000000" points="109.2485,-74.5 109.2485,-92.5 204.7261,-92.5 204.7261,-74.5 109.2485,-74.5"/>
<text text-anchor="middle" x="156.9873" y="-80.5" font-family="Helvetica,sans-Serif" font-size="10.00" fill="#000000">SaveGrd2netCDF</text>
</a>
</g>
</g>
<!-- Node0&#45;&gt;Node5 -->
<g id="edge5" class="edge">
<title>Node0&#45;&gt;Node5</title>
<path fill="none" stroke="#191970" d="M65.0181,-111.4488C80.79,-106.6558 100.3679,-100.7062 117.4015,-95.5298"/>
<polygon fill="#191970" stroke="#191970" points="118.5383,-98.8425 127.0886,-92.586 116.5029,-92.1449 118.5383,-98.8425"/>
</g>
<!-- Node6 -->
<g id="node7" class="node">
<title>Node6</title>
<g id="a_node7"><a xlink:href="stdfunc_8cpp_a6334abab105b1fe7efa9a3e2a4b07c47.html#a6334abab105b1fe7efa9a3e2a4b07c47" target="_top" xlink:title="Save results of at each iteration step as vtk file. ">
<polygon fill="#ffffff" stroke="#000000" points="116.751,-37.5 116.751,-55.5 197.2236,-55.5 197.2236,-37.5 116.751,-37.5"/>
<text text-anchor="middle" x="156.9873" y="-43.5" font-family="Helvetica,sans-Serif" font-size="10.00" fill="#000000">SaveGrd2VTK</text>
</a>
</g>
</g>
<!-- Node0&#45;&gt;Node6 -->
<g id="edge6" class="edge">
<title>Node0&#45;&gt;Node6</title>
<path fill="none" stroke="#191970" d="M45.1689,-111.2609C58.3478,-99.3897 82.7227,-78.7388 106.4678,-65.5 110.4423,-63.284 114.7269,-61.2251 119.0609,-59.3433"/>
<polygon fill="#191970" stroke="#191970" points="120.5684,-62.5091 128.5263,-55.5146 117.9435,-56.0198 120.5684,-62.5091"/>
</g>
<!-- Node7 -->
<g id="node8" class="node">
<title>Node7</title>
<g id="a_node8"><a xlink:href="stdfunc_8cpp_a0858a57d19c1ac2f09fe65f7f416e2a1.html#a0858a57d19c1ac2f09fe65f7f416e2a1" target="_top" xlink:title="SaveGrd2xyz">
<polygon fill="#ffffff" stroke="#000000" points="118.9751,-.5 118.9751,-18.5 194.9995,-18.5 194.9995,-.5 118.9751,-.5"/>
<text text-anchor="middle" x="156.9873" y="-6.5" font-family="Helvetica,sans-Serif" font-size="10.00" fill="#000000">SaveGrd2xyz</text>
</a>
</g>
</g>
<!-- Node0&#45;&gt;Node7 -->
<g id="edge7" class="edge">
<title>Node0&#45;&gt;Node7</title>
<path fill="none" stroke="#191970" d="M40.0416,-111.3031C50.0331,-93.0276 74.7749,-51.892 106.4678,-28.5 109.3056,-26.4054 112.4011,-24.516 115.6172,-22.8168"/>
<polygon fill="#191970" stroke="#191970" points="117.2863,-25.9009 124.886,-18.5188 114.3415,-19.5504 117.2863,-25.9009"/>
</g>
</g>
</svg>
