<?xml version="1.0" encoding="UTF-8" standalone="no"?>
<!DOCTYPE svg PUBLIC "-//W3C//DTD SVG 1.1//EN"
 "http://www.w3.org/Graphics/SVG/1.1/DTD/svg11.dtd">
<!-- Generated by graphviz version 2.40.1 (20161225.0304)
 -->
<!-- Title: UWC_p2p Pages: 1 -->
<svg width="378pt" height="341pt"
 viewBox="0.00 0.00 378.13 341.00" xmlns="http://www.w3.org/2000/svg" xmlns:xlink="http://www.w3.org/1999/xlink">
<g id="graph0" class="graph" transform="scale(1 1) rotate(0) translate(4 337)">
<title>UWC_p2p</title>
<polygon fill="#ffffff" stroke="transparent" points="-4,4 -4,-337 374.127,-337 374.127,4 -4,4"/>
<!-- Node0 -->
<g id="node1" class="node">
<title>Node0</title>
<polygon fill="#bfbfbf" stroke="#000000" points="0,-148.5 0,-166.5 62.1279,-166.5 62.1279,-148.5 0,-148.5"/>
<text text-anchor="middle" x="31.064" y="-154.5" font-family="Helvetica,sans-Serif" font-size="10.00" fill="#000000">UWC_p2p</text>
</g>
<!-- Node1 -->
<g id="node2" class="node">
<title>Node1</title>
<g id="a_node2"><a xlink:href="Conti2D_8cpp_a6f44a06f2b4926f66481fccf277bea50.html#a6f44a06f2b4926f66481fccf277bea50" target="_top" xlink:title="Getkernel_p2p_new">
<polygon fill="#ffffff" stroke="#000000" points="98.1279,-296.5 98.1279,-314.5 203.6348,-314.5 203.6348,-296.5 98.1279,-296.5"/>
<text text-anchor="middle" x="150.8813" y="-302.5" font-family="Helvetica,sans-Serif" font-size="10.00" fill="#000000">Getkernel_p2p_new</text>
</a>
</g>
</g>
<!-- Node0&#45;&gt;Node1 -->
<g id="edge1" class="edge">
<title>Node0&#45;&gt;Node1</title>
<path fill="none" stroke="#191970" d="M33.2057,-166.53C39.2273,-189.9756 58.5113,-253.3328 98.1279,-287.5 99.8546,-288.9892 101.7104,-290.3567 103.6568,-291.6124"/>
<polygon fill="#191970" stroke="#191970" points="102.1846,-294.7943 112.6522,-296.4316 105.4904,-288.624 102.1846,-294.7943"/>
</g>
<!-- Node4 -->
<g id="node5" class="node">
<title>Node4</title>
<g id="a_node5"><a xlink:href="Conti2D_8cpp_aaea96ecea3031c19d3ef88f6f1590d4a.html#aaea96ecea3031c19d3ef88f6f1590d4a" target="_top" xlink:title="Get file extension name from a full file path. ">
<polygon fill="#ffffff" stroke="#000000" points="101.1943,-259.5 101.1943,-277.5 200.5684,-277.5 200.5684,-259.5 101.1943,-259.5"/>
<text text-anchor="middle" x="150.8813" y="-265.5" font-family="Helvetica,sans-Serif" font-size="10.00" fill="#000000">Path_GetExtName</text>
</a>
</g>
</g>
<!-- Node0&#45;&gt;Node4 -->
<g id="edge4" class="edge">
<title>Node0&#45;&gt;Node4</title>
<path fill="none" stroke="#191970" d="M35.2219,-166.6048C44.119,-185.101 66.7738,-227.2805 98.1279,-250.5 100.3479,-252.144 102.7288,-253.6453 105.2071,-255.0151"/>
<polygon fill="#191970" stroke="#191970" points="103.9589,-258.2968 114.494,-259.4204 106.9591,-251.9723 103.9589,-258.2968"/>
</g>
<!-- Node5 -->
<g id="node6" class="node">
<title>Node5</title>
<g id="a_node6"><a xlink:href="Conti2D_8cpp_a88f10a86b8808047787d2df5e8cbcb72.html#a88f10a86b8808047787d2df5e8cbcb72" target="_top" xlink:title="从一个文件全路径中获取文件名称 ">
<polygon fill="#ffffff" stroke="#000000" points="100.3618,-222.5 100.3618,-240.5 201.4009,-240.5 201.4009,-222.5 100.3618,-222.5"/>
<text text-anchor="middle" x="150.8813" y="-228.5" font-family="Helvetica,sans-Serif" font-size="10.00" fill="#000000">Path_GetFileName</text>
</a>
</g>
</g>
<!-- Node0&#45;&gt;Node5 -->
<g id="edge5" class="edge">
<title>Node0&#45;&gt;Node5</title>
<path fill="none" stroke="#191970" d="M39.8011,-166.6546C51.8863,-178.8527 74.8585,-200.4143 98.1279,-213.5 101.5414,-215.4196 105.1939,-217.1821 108.9247,-218.7892"/>
<polygon fill="#191970" stroke="#191970" points="107.6806,-222.0608 118.2677,-222.4649 110.2434,-215.5468 107.6806,-222.0608"/>
</g>
<!-- Node6 -->
<g id="node7" class="node">
<title>Node6</title>
<g id="a_node7"><a xlink:href="Conti2D_8cpp_a2c90cdea3ca11177ba34c14a3b0a00cb.html#a2c90cdea3ca11177ba34c14a3b0a00cb" target="_top" xlink:title="Read a Surfer Grid data from file. ">
<polygon fill="#ffffff" stroke="#000000" points="122.5933,-185.5 122.5933,-203.5 179.1694,-203.5 179.1694,-185.5 122.5933,-185.5"/>
<text text-anchor="middle" x="150.8813" y="-191.5" font-family="Helvetica,sans-Serif" font-size="10.00" fill="#000000">ReadGrd</text>
</a>
</g>
</g>
<!-- Node0&#45;&gt;Node6 -->
<g id="edge6" class="edge">
<title>Node0&#45;&gt;Node6</title>
<path fill="none" stroke="#191970" d="M60.3746,-166.5512C76.1273,-171.4157 95.7382,-177.4716 112.6739,-182.7014"/>
<polygon fill="#191970" stroke="#191970" points="111.6993,-186.0635 122.2868,-185.6699 113.7647,-179.3751 111.6993,-186.0635"/>
</g>
<!-- Node7 -->
<g id="node8" class="node">
<title>Node7</title>
<g id="a_node8"><a xlink:href="Conti2D_8cpp_ab76adf263893ac28772283c5a00b964c.html#ab76adf263893ac28772283c5a00b964c" target="_top" xlink:title="Save a Surfer Grid data to file. ">
<polygon fill="#ffffff" stroke="#000000" points="123.1499,-148.5 123.1499,-166.5 178.6128,-166.5 178.6128,-148.5 123.1499,-148.5"/>
<text text-anchor="middle" x="150.8813" y="-154.5" font-family="Helvetica,sans-Serif" font-size="10.00" fill="#000000">SaveGrd</text>
</a>
</g>
</g>
<!-- Node0&#45;&gt;Node7 -->
<g id="edge7" class="edge">
<title>Node0&#45;&gt;Node7</title>
<path fill="none" stroke="#191970" d="M62.2318,-157.5C77.703,-157.5 96.5255,-157.5 112.8402,-157.5"/>
<polygon fill="#191970" stroke="#191970" points="113.1388,-161.0001 123.1388,-157.5 113.1388,-154.0001 113.1388,-161.0001"/>
</g>
<!-- Node8 -->
<g id="node9" class="node">
<title>Node8</title>
<g id="a_node9"><a xlink:href="Conti2D_8cpp_a95502a9bee4005071ea4fd3cb5e1c228.html#a95502a9bee4005071ea4fd3cb5e1c228" target="_top" xlink:title="SaveGrd2netCDF">
<polygon fill="#ffffff" stroke="#000000" points="103.1426,-111.5 103.1426,-129.5 198.6201,-129.5 198.6201,-111.5 103.1426,-111.5"/>
<text text-anchor="middle" x="150.8813" y="-117.5" font-family="Helvetica,sans-Serif" font-size="10.00" fill="#000000">SaveGrd2netCDF</text>
</a>
</g>
</g>
<!-- Node0&#45;&gt;Node8 -->
<g id="edge8" class="edge">
<title>Node0&#45;&gt;Node8</title>
<path fill="none" stroke="#191970" d="M60.3746,-148.4488C75.7506,-143.7006 94.8025,-137.8173 111.4544,-132.6752"/>
<polygon fill="#191970" stroke="#191970" points="112.936,-135.8808 121.458,-129.586 110.8705,-129.1925 112.936,-135.8808"/>
</g>
<!-- Node9 -->
<g id="node10" class="node">
<title>Node9</title>
<g id="a_node10"><a xlink:href="Conti2D_8cpp_a6334abab105b1fe7efa9a3e2a4b07c47.html#a6334abab105b1fe7efa9a3e2a4b07c47" target="_top" xlink:title="Save results of at each iteration step as vtk file. ">
<polygon fill="#ffffff" stroke="#000000" points="110.645,-74.5 110.645,-92.5 191.1177,-92.5 191.1177,-74.5 110.645,-74.5"/>
<text text-anchor="middle" x="150.8813" y="-80.5" font-family="Helvetica,sans-Serif" font-size="10.00" fill="#000000">SaveGrd2VTK</text>
</a>
</g>
</g>
<!-- Node0&#45;&gt;Node9 -->
<g id="edge9" class="edge">
<title>Node0&#45;&gt;Node9</title>
<path fill="none" stroke="#191970" d="M40.2849,-148.1672C52.5491,-136.1946 75.3425,-115.4342 98.1279,-102.5 102.0922,-100.2497 106.3714,-98.1868 110.7175,-96.3182"/>
<polygon fill="#191970" stroke="#191970" points="112.2376,-99.4807 120.2428,-92.5404 109.6569,-92.9737 112.2376,-99.4807"/>
</g>
<!-- Node10 -->
<g id="node11" class="node">
<title>Node10</title>
<g id="a_node11"><a xlink:href="Conti2D_8cpp_a0858a57d19c1ac2f09fe65f7f416e2a1.html#a0858a57d19c1ac2f09fe65f7f416e2a1" target="_top" xlink:title="SaveGrd2xyz">
<polygon fill="#ffffff" stroke="#000000" points="112.8691,-37.5 112.8691,-55.5 188.8936,-55.5 188.8936,-37.5 112.8691,-37.5"/>
<text text-anchor="middle" x="150.8813" y="-43.5" font-family="Helvetica,sans-Serif" font-size="10.00" fill="#000000">SaveGrd2xyz</text>
</a>
</g>
</g>
<!-- Node0&#45;&gt;Node10 -->
<g id="edge10" class="edge">
<title>Node0&#45;&gt;Node10</title>
<path fill="none" stroke="#191970" d="M35.4197,-148.2567C44.5198,-129.8977 67.2892,-88.6194 98.1279,-65.5 100.9392,-63.3924 104.0064,-61.5015 107.2015,-59.8079"/>
<polygon fill="#191970" stroke="#191970" points="108.8272,-62.9124 116.4382,-55.542 105.8921,-56.5575 108.8272,-62.9124"/>
</g>
<!-- Node11 -->
<g id="node12" class="node">
<title>Node11</title>
<g id="a_node12"><a xlink:href="Conti2D_8cpp_a632c1e4efbb7e9b1aaf04db729e69394.html#a632c1e4efbb7e9b1aaf04db729e69394" target="_top" xlink:title="UWC_Gij">
<polygon fill="#ffffff" stroke="#000000" points="122.0488,-.5 122.0488,-18.5 179.7139,-18.5 179.7139,-.5 122.0488,-.5"/>
<text text-anchor="middle" x="150.8813" y="-6.5" font-family="Helvetica,sans-Serif" font-size="10.00" fill="#000000">UWC_Gij</text>
</a>
</g>
</g>
<!-- Node0&#45;&gt;Node11 -->
<g id="edge11" class="edge">
<title>Node0&#45;&gt;Node11</title>
<path fill="none" stroke="#191970" d="M33.3506,-148.2363C39.6032,-124.7933 59.1759,-62.563 98.1279,-28.5 102.3414,-24.8154 107.3235,-21.8274 112.5164,-19.409"/>
<polygon fill="#191970" stroke="#191970" points="113.9754,-22.5954 121.9706,-15.6437 111.3853,-16.0922 113.9754,-22.5954"/>
</g>
<!-- Node2 -->
<g id="node3" class="node">
<title>Node2</title>
<g id="a_node3"><a xlink:href="Conti2D_8cpp_a4bb34ae88cf16e429505f9eb746384cd.html#a4bb34ae88cf16e429505f9eb746384cd" target="_top" xlink:title="GetPmnij">
<polygon fill="#ffffff" stroke="#000000" points="276.3193,-314.5 276.3193,-332.5 333.4424,-332.5 333.4424,-314.5 276.3193,-314.5"/>
<text text-anchor="middle" x="304.8809" y="-320.5" font-family="Helvetica,sans-Serif" font-size="10.00" fill="#000000">GetPmnij</text>
</a>
</g>
</g>
<!-- Node1&#45;&gt;Node2 -->
<g id="edge2" class="edge">
<title>Node1&#45;&gt;Node2</title>
<path fill="none" stroke="#191970" d="M203.8792,-311.6946C224.2874,-314.08 247.1949,-316.7575 266.0283,-318.9588"/>
<polygon fill="#191970" stroke="#191970" points="265.6918,-322.4432 276.0305,-320.1279 266.5045,-315.4905 265.6918,-322.4432"/>
</g>
<!-- Node3 -->
<g id="node4" class="node">
<title>Node3</title>
<g id="a_node4"><a xlink:href="classMultiProgressBar_a58eef55ad6d5c7d769b3a402a2ef7b85.html#a58eef55ad6d5c7d769b3a402a2ef7b85" target="_top" xlink:title="MultiProgressBar::Update">
<polygon fill="#ffffff" stroke="#000000" points="239.6348,-277.5 239.6348,-295.5 370.127,-295.5 370.127,-277.5 239.6348,-277.5"/>
<text text-anchor="middle" x="304.8809" y="-283.5" font-family="Helvetica,sans-Serif" font-size="10.00" fill="#000000">MultiProgressBar::Update</text>
</a>
</g>
</g>
<!-- Node1&#45;&gt;Node3 -->
<g id="edge3" class="edge">
<title>Node1&#45;&gt;Node3</title>
<path fill="none" stroke="#191970" d="M203.8792,-298.9613C212.1338,-297.9428 220.7973,-296.874 229.4348,-295.8083"/>
<polygon fill="#191970" stroke="#191970" points="230.0402,-299.2602 239.5363,-294.562 229.183,-292.3129 230.0402,-299.2602"/>
</g>
</g>
</svg>
