<?xml version="1.0" encoding="UTF-8" standalone="no"?>
<!DOCTYPE svg PUBLIC "-//W3C//DTD SVG 1.1//EN"
 "http://www.w3.org/Graphics/SVG/1.1/DTD/svg11.dtd">
<!-- Generated by graphviz version 2.40.1 (20161225.0304)
 -->
<!-- Title: UWC_p2p_f Pages: 1 -->
<svg width="322pt" height="302pt"
 viewBox="0.00 0.00 321.97 302.00" xmlns="http://www.w3.org/2000/svg" xmlns:xlink="http://www.w3.org/1999/xlink">
<g id="graph0" class="graph" transform="scale(1 1) rotate(0) translate(4 298)">
<title>UWC_p2p_f</title>
<polygon fill="#ffffff" stroke="transparent" points="-4,4 -4,-298 317.9746,-298 317.9746,4 -4,4"/>
<!-- Node0 -->
<g id="node1" class="node">
<title>Node0</title>
<polygon fill="#bfbfbf" stroke="#000000" points="0,-132.5 0,-150.5 70.4678,-150.5 70.4678,-132.5 0,-132.5"/>
<text text-anchor="middle" x="35.2339" y="-138.5" font-family="Helvetica,sans-Serif" font-size="10.00" fill="#000000">UWC_p2p_f</text>
</g>
<!-- Node1 -->
<g id="node2" class="node">
<title>Node1</title>
<g id="a_node2"><a xlink:href="stdfunc_8cpp_aaea96ecea3031c19d3ef88f6f1590d4a.html#aaea96ecea3031c19d3ef88f6f1590d4a" target="_top" xlink:title="Get file extension name from a full file path. ">
<polygon fill="#ffffff" stroke="#000000" points="213.7681,-275.5 213.7681,-293.5 313.1421,-293.5 313.1421,-275.5 213.7681,-275.5"/>
<text text-anchor="middle" x="263.4551" y="-281.5" font-family="Helvetica,sans-Serif" font-size="10.00" fill="#000000">Path_GetExtName</text>
</a>
</g>
</g>
<!-- Node0&#45;&gt;Node1 -->
<g id="edge1" class="edge">
<title>Node0&#45;&gt;Node1</title>
<path fill="none" stroke="#191970" d="M39.5443,-150.594C48.9638,-169.4878 73.2293,-213.1666 106.4678,-236.5 135.1989,-256.6692 172.6238,-268.5418 203.7259,-275.4323"/>
<polygon fill="#191970" stroke="#191970" points="203.0773,-278.8723 213.5827,-277.4986 204.5136,-272.0212 203.0773,-278.8723"/>
</g>
<!-- Node2 -->
<g id="node3" class="node">
<title>Node2</title>
<g id="a_node3"><a xlink:href="stdfunc_8cpp_a88f10a86b8808047787d2df5e8cbcb72.html#a88f10a86b8808047787d2df5e8cbcb72" target="_top" xlink:title="Get file name from a full path. ">
<polygon fill="#ffffff" stroke="#000000" points="212.9355,-223.5 212.9355,-241.5 313.9746,-241.5 313.9746,-223.5 212.9355,-223.5"/>
<text text-anchor="middle" x="263.4551" y="-229.5" font-family="Helvetica,sans-Serif" font-size="10.00" fill="#000000">Path_GetFileName</text>
</a>
</g>
</g>
<!-- Node0&#45;&gt;Node2 -->
<g id="edge2" class="edge">
<title>Node0&#45;&gt;Node2</title>
<path fill="none" stroke="#191970" d="M41.1852,-150.709C52.0198,-166.6017 76.6241,-198.8774 106.4678,-213.5 136.0373,-227.9883 172.3596,-233.0712 202.6161,-234.3816"/>
<polygon fill="#191970" stroke="#191970" points="202.523,-237.8803 212.6259,-234.6895 202.7383,-230.8836 202.523,-237.8803"/>
</g>
<!-- Node3 -->
<g id="node4" class="node">
<title>Node3</title>
<g id="a_node4"><a xlink:href="stdfunc_8cpp_a2c90cdea3ca11177ba34c14a3b0a00cb.html#a2c90cdea3ca11177ba34c14a3b0a00cb" target="_top" xlink:title="Read a ASCII Surfer format grid (6) ">
<polygon fill="#ffffff" stroke="#000000" points="235.167,-158.5 235.167,-176.5 291.7432,-176.5 291.7432,-158.5 235.167,-158.5"/>
<text text-anchor="middle" x="263.4551" y="-164.5" font-family="Helvetica,sans-Serif" font-size="10.00" fill="#000000">ReadGrd</text>
</a>
</g>
</g>
<!-- Node0&#45;&gt;Node3 -->
<g id="edge3" class="edge">
<title>Node0&#45;&gt;Node3</title>
<path fill="none" stroke="#191970" d="M43.2655,-150.928C55.3625,-164.3169 79.7086,-188.241 106.4678,-197.5 150.7153,-212.8101 204.837,-194.9037 236.5925,-180.9174"/>
<polygon fill="#191970" stroke="#191970" points="238.4497,-183.9159 246.0759,-176.5612 235.5278,-177.5549 238.4497,-183.9159"/>
</g>
<!-- Node4 -->
<g id="node5" class="node">
<title>Node4</title>
<g id="a_node5"><a xlink:href="stdfunc_8cpp_ab76adf263893ac28772283c5a00b964c.html#ab76adf263893ac28772283c5a00b964c" target="_top" xlink:title="Save a grid data as ASCII surfer grid file. ">
<polygon fill="#ffffff" stroke="#000000" points="235.7236,-117.5 235.7236,-135.5 291.1865,-135.5 291.1865,-117.5 235.7236,-117.5"/>
<text text-anchor="middle" x="263.4551" y="-123.5" font-family="Helvetica,sans-Serif" font-size="10.00" fill="#000000">SaveGrd</text>
</a>
</g>
</g>
<!-- Node0&#45;&gt;Node4 -->
<g id="edge4" class="edge">
<title>Node0&#45;&gt;Node4</title>
<path fill="none" stroke="#191970" d="M70.8934,-139.1563C112.9348,-136.3931 182.5123,-131.82 225.5191,-128.9934"/>
<polygon fill="#191970" stroke="#191970" points="225.836,-132.4802 235.5849,-128.3318 225.3768,-125.4953 225.836,-132.4802"/>
</g>
<!-- Node5 -->
<g id="node6" class="node">
<title>Node5</title>
<g id="a_node6"><a xlink:href="stdfunc_8cpp_a95502a9bee4005071ea4fd3cb5e1c228.html#a95502a9bee4005071ea4fd3cb5e1c228" target="_top" xlink:title="Save Grd data as netCDF format. ">
<polygon fill="#ffffff" stroke="#000000" points="215.7163,-77.5 215.7163,-95.5 311.1938,-95.5 311.1938,-77.5 215.7163,-77.5"/>
<text text-anchor="middle" x="263.4551" y="-83.5" font-family="Helvetica,sans-Serif" font-size="10.00" fill="#000000">SaveGrd2netCDF</text>
</a>
</g>
</g>
<!-- Node0&#45;&gt;Node5 -->
<g id="edge5" class="edge">
<title>Node0&#45;&gt;Node5</title>
<path fill="none" stroke="#191970" d="M70.8934,-132.9063C109.89,-123.5083 172.5787,-108.4007 215.7774,-97.99"/>
<polygon fill="#191970" stroke="#191970" points="216.8673,-101.3277 225.769,-95.5821 215.2273,-94.5225 216.8673,-101.3277"/>
</g>
<!-- Node6 -->
<g id="node7" class="node">
<title>Node6</title>
<g id="a_node7"><a xlink:href="stdfunc_8cpp_a6334abab105b1fe7efa9a3e2a4b07c47.html#a6334abab105b1fe7efa9a3e2a4b07c47" target="_top" xlink:title="Save results of at each iteration step as vtk file. ">
<polygon fill="#ffffff" stroke="#000000" points="223.2188,-37.5 223.2188,-55.5 303.6914,-55.5 303.6914,-37.5 223.2188,-37.5"/>
<text text-anchor="middle" x="263.4551" y="-43.5" font-family="Helvetica,sans-Serif" font-size="10.00" fill="#000000">SaveGrd2VTK</text>
</a>
</g>
</g>
<!-- Node0&#45;&gt;Node6 -->
<g id="edge6" class="edge">
<title>Node0&#45;&gt;Node6</title>
<path fill="none" stroke="#191970" d="M50.1644,-132.4182C64.3385,-124.0168 86.4006,-111.5043 106.4678,-102.5 145.4178,-85.0227 191.6131,-69.0909 223.7665,-58.7278"/>
<polygon fill="#191970" stroke="#191970" points="225.2221,-61.9374 233.6855,-55.564 223.0948,-55.2684 225.2221,-61.9374"/>
</g>
<!-- Node7 -->
<g id="node8" class="node">
<title>Node7</title>
<g id="a_node8"><a xlink:href="stdfunc_8cpp_a0858a57d19c1ac2f09fe65f7f416e2a1.html#a0858a57d19c1ac2f09fe65f7f416e2a1" target="_top" xlink:title="SaveGrd2xyz">
<polygon fill="#ffffff" stroke="#000000" points="225.4429,-.5 225.4429,-18.5 301.4673,-18.5 301.4673,-.5 225.4429,-.5"/>
<text text-anchor="middle" x="263.4551" y="-6.5" font-family="Helvetica,sans-Serif" font-size="10.00" fill="#000000">SaveGrd2xyz</text>
</a>
</g>
</g>
<!-- Node0&#45;&gt;Node7 -->
<g id="edge7" class="edge">
<title>Node0&#45;&gt;Node7</title>
<path fill="none" stroke="#191970" d="M42.6536,-132.1793C54.6996,-117.5609 79.8569,-89.0978 106.4678,-71.5 141.4659,-48.3557 186.4261,-31.7054 219.2553,-21.5252"/>
<polygon fill="#191970" stroke="#191970" points="220.4685,-24.815 229.0297,-18.5735 218.4449,-18.1139 220.4685,-24.815"/>
</g>
<!-- Node8 -->
<g id="node9" class="node">
<title>Node8</title>
<g id="a_node9"><a xlink:href="Conti2D_8cpp_af82757cb7e0f4f398e774b4e89b9ea72.html#af82757cb7e0f4f398e774b4e89b9ea72" target="_top" xlink:title="Upward continuation: plane to plane(frequency domain) ">
<polygon fill="#ffffff" stroke="#000000" points="106.4678,-151.5 106.4678,-169.5 176.9355,-169.5 176.9355,-151.5 106.4678,-151.5"/>
<text text-anchor="middle" x="141.7017" y="-157.5" font-family="Helvetica,sans-Serif" font-size="10.00" fill="#000000">UWC_p2p_f</text>
</a>
</g>
</g>
<!-- Node0&#45;&gt;Node8 -->
<g id="edge8" class="edge">
<title>Node0&#45;&gt;Node8</title>
<path fill="none" stroke="#191970" d="M70.6861,-147.8267C78.947,-149.3009 87.8532,-150.8903 96.4729,-152.4286"/>
<polygon fill="#191970" stroke="#191970" points="95.9449,-155.8896 106.4042,-154.2009 97.1747,-148.9984 95.9449,-155.8896"/>
</g>
<!-- Node8&#45;&gt;Node1 -->
<g id="edge9" class="edge">
<title>Node8&#45;&gt;Node1</title>
<path fill="none" stroke="#191970" d="M147.3377,-169.5634C158.4077,-186.8899 184.4092,-225.3148 212.9355,-251.5 220.4169,-258.3673 229.4761,-264.7656 237.8456,-270.0653"/>
<polygon fill="#191970" stroke="#191970" points="236.1861,-273.1524 246.5494,-275.3551 239.8217,-267.1705 236.1861,-273.1524"/>
</g>
<!-- Node8&#45;&gt;Node2 -->
<g id="edge10" class="edge">
<title>Node8&#45;&gt;Node2</title>
<path fill="none" stroke="#191970" d="M157.1218,-169.6188C177.8886,-181.8995 215.0518,-203.8763 239.4814,-218.323"/>
<polygon fill="#191970" stroke="#191970" points="237.771,-221.3776 248.1601,-223.4552 241.3341,-215.3523 237.771,-221.3776"/>
</g>
<!-- Node8&#45;&gt;Node3 -->
<g id="edge11" class="edge">
<title>Node8&#45;&gt;Node3</title>
<path fill="none" stroke="#191970" d="M177.2451,-162.5435C192.1867,-163.4026 209.6065,-164.4041 224.8609,-165.2811"/>
<polygon fill="#191970" stroke="#191970" points="224.8341,-168.7852 235.0186,-165.8651 225.236,-161.7968 224.8341,-168.7852"/>
</g>
<!-- Node8&#45;&gt;Node4 -->
<g id="edge12" class="edge">
<title>Node8&#45;&gt;Node4</title>
<path fill="none" stroke="#191970" d="M174.0097,-151.4779C189.8784,-147.0465 209.0965,-141.6798 225.6456,-137.0584"/>
<polygon fill="#191970" stroke="#191970" points="226.8609,-140.353 235.551,-134.2923 224.9781,-133.611 226.8609,-140.353"/>
</g>
<!-- Node8&#45;&gt;Node5 -->
<g id="edge13" class="edge">
<title>Node8&#45;&gt;Node5</title>
<path fill="none" stroke="#191970" d="M152.7726,-151.2213C166.3515,-140.1304 190.3548,-121.4481 212.9355,-108.5 218.4905,-105.3147 224.5945,-102.291 230.5806,-99.5622"/>
<polygon fill="#191970" stroke="#191970" points="232.0326,-102.7474 239.7944,-95.536 229.2296,-96.3331 232.0326,-102.7474"/>
</g>
<!-- Node8&#45;&gt;Node6 -->
<g id="edge14" class="edge">
<title>Node8&#45;&gt;Node6</title>
<path fill="none" stroke="#191970" d="M146.6127,-151.4394C156.7899,-133.4089 181.8492,-92.6922 212.9355,-68.5 217.076,-65.2778 221.761,-62.4265 226.5673,-59.935"/>
<polygon fill="#191970" stroke="#191970" points="228.2791,-62.9981 235.8481,-55.5845 225.308,-56.66 228.2791,-62.9981"/>
</g>
<!-- Node8&#45;&gt;Node7 -->
<g id="edge15" class="edge">
<title>Node8&#45;&gt;Node7</title>
<path fill="none" stroke="#191970" d="M144.112,-151.2895C150.8349,-127.3704 172.0391,-62.6999 212.9355,-27.5 214.6557,-26.0195 216.5062,-24.6577 218.4468,-23.4055"/>
<polygon fill="#191970" stroke="#191970" points="220.2558,-26.4067 227.406,-18.5884 216.9409,-20.2414 220.2558,-26.4067"/>
</g>
<!-- Node8&#45;&gt;Node8 -->
<g id="edge16" class="edge">
<title>Node8&#45;&gt;Node8</title>
<path fill="none" stroke="#191970" d="M125.9074,-169.5134C117.183,-178.322 122.4478,-188 141.7017,-188 154.0362,-188 160.6296,-184.0281 161.4818,-178.8575"/>
<polygon fill="#191970" stroke="#191970" points="164.6389,-177.3382 157.4959,-169.5134 158.2003,-180.0848 164.6389,-177.3382"/>
</g>
</g>
</svg>
