<?xml version="1.0" encoding="UTF-8" standalone="no"?>
<!DOCTYPE svg PUBLIC "-//W3C//DTD SVG 1.1//EN"
 "http://www.w3.org/Graphics/SVG/1.1/DTD/svg11.dtd">
<!-- Generated by graphviz version 2.40.1 (20161225.0304)
 -->
<!-- Title: DWC_s2p_Tikhonov Pages: 1 -->
<svg width="375pt" height="175pt"
 viewBox="0.00 0.00 375.50 175.00" xmlns="http://www.w3.org/2000/svg" xmlns:xlink="http://www.w3.org/1999/xlink">
<g id="graph0" class="graph" transform="scale(1 1) rotate(0) translate(4 171)">
<title>DWC_s2p_Tikhonov</title>
<polygon fill="#ffffff" stroke="transparent" points="-4,4 -4,-171 371.4951,-171 371.4951,4 -4,4"/>
<!-- Node0 -->
<g id="node1" class="node">
<title>Node0</title>
<polygon fill="#bfbfbf" stroke="#000000" points="0,-74.5 0,-92.5 107.3379,-92.5 107.3379,-74.5 0,-74.5"/>
<text text-anchor="middle" x="53.6689" y="-80.5" font-family="Helvetica,sans-Serif" font-size="10.00" fill="#000000">DWC_s2p_Tikhonov</text>
</g>
<!-- Node1 -->
<g id="node2" class="node">
<title>Node1</title>
<g id="a_node2"><a xlink:href="Conti2D_8cpp_a98827c14ed7072c96834f20205c7a916.html#a98827c14ed7072c96834f20205c7a916" target="_top" xlink:title="Norm2">
<polygon fill="#ffffff" stroke="#000000" points="185.5815,-148.5 185.5815,-166.5 231.5864,-166.5 231.5864,-148.5 185.5815,-148.5"/>
<text text-anchor="middle" x="208.584" y="-154.5" font-family="Helvetica,sans-Serif" font-size="10.00" fill="#000000">Norm2</text>
</a>
</g>
</g>
<!-- Node0&#45;&gt;Node1 -->
<g id="edge1" class="edge">
<title>Node0&#45;&gt;Node1</title>
<path fill="none" stroke="#191970" d="M65.8008,-92.6837C82.4692,-104.9148 113.7602,-126.5136 143.3379,-139.5 153.5297,-143.9748 165.1125,-147.6026 175.6614,-150.3975"/>
<polygon fill="#191970" stroke="#191970" points="174.8295,-153.7971 185.3794,-152.8224 176.5243,-147.0054 174.8295,-153.7971"/>
</g>
<!-- Node2 -->
<g id="node3" class="node">
<title>Node2</title>
<g id="a_node3"><a xlink:href="Conti2D_8cpp_a6334abab105b1fe7efa9a3e2a4b07c47.html#a6334abab105b1fe7efa9a3e2a4b07c47" target="_top" xlink:title="Save results of at each iteration step as vtk file. ">
<polygon fill="#ffffff" stroke="#000000" points="168.3477,-111.5 168.3477,-129.5 248.8203,-129.5 248.8203,-111.5 168.3477,-111.5"/>
<text text-anchor="middle" x="208.584" y="-117.5" font-family="Helvetica,sans-Serif" font-size="10.00" fill="#000000">SaveGrd2VTK</text>
</a>
</g>
</g>
<!-- Node0&#45;&gt;Node2 -->
<g id="edge2" class="edge">
<title>Node0&#45;&gt;Node2</title>
<path fill="none" stroke="#191970" d="M91.5654,-92.5512C112.4609,-97.5419 138.6069,-103.7866 160.8815,-109.1067"/>
<polygon fill="#191970" stroke="#191970" points="160.271,-112.5593 170.8106,-111.4782 161.8972,-105.7508 160.271,-112.5593"/>
</g>
<!-- Node3 -->
<g id="node4" class="node">
<title>Node3</title>
<g id="a_node4"><a xlink:href="classMultiProgressBar_a58eef55ad6d5c7d769b3a402a2ef7b85.html#a58eef55ad6d5c7d769b3a402a2ef7b85" target="_top" xlink:title="MultiProgressBar::Update">
<polygon fill="#ffffff" stroke="#000000" points="143.3379,-74.5 143.3379,-92.5 273.8301,-92.5 273.8301,-74.5 143.3379,-74.5"/>
<text text-anchor="middle" x="208.584" y="-80.5" font-family="Helvetica,sans-Serif" font-size="10.00" fill="#000000">MultiProgressBar::Update</text>
</a>
</g>
</g>
<!-- Node0&#45;&gt;Node3 -->
<g id="edge3" class="edge">
<title>Node0&#45;&gt;Node3</title>
<path fill="none" stroke="#191970" d="M107.4159,-83.5C115.707,-83.5 124.3991,-83.5 133.059,-83.5"/>
<polygon fill="#191970" stroke="#191970" points="133.1843,-87.0001 143.1843,-83.5 133.1842,-80.0001 133.1843,-87.0001"/>
</g>
<!-- Node4 -->
<g id="node5" class="node">
<title>Node4</title>
<g id="a_node5"><a xlink:href="Conti2D_8cpp_a6e44071dbbec5b92ddf8673dea8c41de.html#a6e44071dbbec5b92ddf8673dea8c41de" target="_top" xlink:title="UWC_G_CGLS_Tik">
<polygon fill="#ffffff" stroke="#000000" points="156.314,-37.5 156.314,-55.5 260.854,-55.5 260.854,-37.5 156.314,-37.5"/>
<text text-anchor="middle" x="208.584" y="-43.5" font-family="Helvetica,sans-Serif" font-size="10.00" fill="#000000">UWC_G_CGLS_Tik</text>
</a>
</g>
</g>
<!-- Node0&#45;&gt;Node4 -->
<g id="edge4" class="edge">
<title>Node0&#45;&gt;Node4</title>
<path fill="none" stroke="#191970" d="M91.5654,-74.4488C112.4609,-69.4581 138.6069,-63.2134 160.8815,-57.8933"/>
<polygon fill="#191970" stroke="#191970" points="161.8972,-61.2492 170.8106,-55.5218 160.271,-54.4407 161.8972,-61.2492"/>
</g>
<!-- Node6 -->
<g id="node7" class="node">
<title>Node6</title>
<g id="a_node7"><a xlink:href="Conti2D_8cpp_a9d30373a0ff29e4f743eaf5e4cbc3cbf.html#a9d30373a0ff29e4f743eaf5e4cbc3cbf" target="_top" xlink:title="UWC_Gji">
<polygon fill="#ffffff" stroke="#000000" points="309.8301,-.5 309.8301,-18.5 367.4951,-18.5 367.4951,-.5 309.8301,-.5"/>
<text text-anchor="middle" x="338.6626" y="-6.5" font-family="Helvetica,sans-Serif" font-size="10.00" fill="#000000">UWC_Gji</text>
</a>
</g>
</g>
<!-- Node0&#45;&gt;Node6 -->
<g id="edge7" class="edge">
<title>Node0&#45;&gt;Node6</title>
<path fill="none" stroke="#191970" d="M64.4077,-74.4137C80.4184,-61.4504 112.0309,-38.0514 143.3379,-27.5 195.3271,-9.978 259.2364,-7.381 299.4735,-7.8633"/>
<polygon fill="#191970" stroke="#191970" points="299.603,-11.3664 309.668,-8.058 299.7367,-4.3676 299.603,-11.3664"/>
</g>
<!-- Node5 -->
<g id="node6" class="node">
<title>Node5</title>
<g id="a_node6"><a xlink:href="Conti2D_8cpp_a632c1e4efbb7e9b1aaf04db729e69394.html#a632c1e4efbb7e9b1aaf04db729e69394" target="_top" xlink:title="UWC_Gij">
<polygon fill="#ffffff" stroke="#000000" points="309.8301,-37.5 309.8301,-55.5 367.4951,-55.5 367.4951,-37.5 309.8301,-37.5"/>
<text text-anchor="middle" x="338.6626" y="-43.5" font-family="Helvetica,sans-Serif" font-size="10.00" fill="#000000">UWC_Gij</text>
</a>
</g>
</g>
<!-- Node4&#45;&gt;Node5 -->
<g id="edge5" class="edge">
<title>Node4&#45;&gt;Node5</title>
<path fill="none" stroke="#191970" d="M261.117,-46.5C273.8784,-46.5 287.3073,-46.5 299.3373,-46.5"/>
<polygon fill="#191970" stroke="#191970" points="299.497,-50.0001 309.497,-46.5 299.497,-43.0001 299.497,-50.0001"/>
</g>
<!-- Node4&#45;&gt;Node6 -->
<g id="edge6" class="edge">
<title>Node4&#45;&gt;Node6</title>
<path fill="none" stroke="#191970" d="M240.4048,-37.4488C258.2564,-32.371 280.6719,-25.9951 299.5839,-20.6157"/>
<polygon fill="#191970" stroke="#191970" points="300.7336,-23.9276 309.3944,-17.8251 298.8184,-17.1947 300.7336,-23.9276"/>
</g>
</g>
</svg>
