<?xml version="1.0" encoding="UTF-8" standalone="no"?>
<!DOCTYPE svg PUBLIC "-//W3C//DTD SVG 1.1//EN"
 "http://www.w3.org/Graphics/SVG/1.1/DTD/svg11.dtd">
<!-- Generated by graphviz version 2.40.1 (20161225.0304)
 -->
<!-- Title: DWC_s2p_CGLS Pages: 1 -->
<svg width="274pt" height="64pt"
 viewBox="0.00 0.00 274.16 64.00" xmlns="http://www.w3.org/2000/svg" xmlns:xlink="http://www.w3.org/1999/xlink">
<g id="graph0" class="graph" transform="scale(1 1) rotate(0) translate(4 60)">
<title>DWC_s2p_CGLS</title>
<polygon fill="#ffffff" stroke="transparent" points="-4,4 -4,-60 270.1621,-60 270.1621,4 -4,4"/>
<!-- Node6 -->
<g id="node1" class="node">
<title>Node6</title>
<polygon fill="#bfbfbf" stroke="#000000" points="0,-18.5 0,-36.5 94.3594,-36.5 94.3594,-18.5 0,-18.5"/>
<text text-anchor="middle" x="47.1797" y="-24.5" font-family="Helvetica,sans-Serif" font-size="10.00" fill="#000000">DWC_s2p_CGLS</text>
</g>
<!-- Node7 -->
<g id="node2" class="node">
<title>Node7</title>
<g id="a_node2"><a xlink:href="Conti2D_8h_ab87ce573de93575b7ece2e4f772e03fd.html#ab87ce573de93575b7ece2e4f772e03fd" target="_top" xlink:title="DWC_p2p">
<polygon fill="#ffffff" stroke="#000000" points="130.3594,-37.5 130.3594,-55.5 192.4873,-55.5 192.4873,-37.5 130.3594,-37.5"/>
<text text-anchor="middle" x="161.4233" y="-43.5" font-family="Helvetica,sans-Serif" font-size="10.00" fill="#000000">DWC_p2p</text>
</a>
</g>
</g>
<!-- Node6&#45;&gt;Node7 -->
<g id="edge1" class="edge">
<title>Node6&#45;&gt;Node7</title>
<path fill="none" stroke="#191970" d="M104.5801,-37.0463C113.4238,-38.5171 122.2585,-39.9865 130.2364,-41.3133"/>
<polygon fill="#191970" stroke="#191970" points="105.0755,-33.5807 94.6368,-35.3926 103.9271,-40.4859 105.0755,-33.5807"/>
</g>
<!-- Node9 -->
<g id="node4" class="node">
<title>Node9</title>
<g id="a_node4"><a xlink:href="Conti2D_8h_ac96429563a5015babafa3274c3f3ec73.html#ac96429563a5015babafa3274c3f3ec73" target="_top" xlink:title="downward continuation from surface to plane ">
<polygon fill="#ffffff" stroke="#000000" points="130.6401,-.5 130.6401,-18.5 192.2065,-18.5 192.2065,-.5 130.6401,-.5"/>
<text text-anchor="middle" x="161.4233" y="-6.5" font-family="Helvetica,sans-Serif" font-size="10.00" fill="#000000">DWC_s2p</text>
</a>
</g>
</g>
<!-- Node6&#45;&gt;Node9 -->
<g id="edge3" class="edge">
<title>Node6&#45;&gt;Node9</title>
<path fill="none" stroke="#191970" d="M104.682,-18.44C113.6158,-17.0325 122.5372,-15.6268 130.5721,-14.3609"/>
<polygon fill="#191970" stroke="#191970" points="103.9702,-15.0089 94.6368,-20.0228 105.0597,-21.9236 103.9702,-15.0089"/>
</g>
<!-- Node8 -->
<g id="node3" class="node">
<title>Node8</title>
<g id="a_node3"><a xlink:href="main_8cpp_a0ddf1224851353fc92bfbff6f499fa97.html#a0ddf1224851353fc92bfbff6f499fa97" target="_top" xlink:title="main">
<polygon fill="#ffffff" stroke="#000000" points="228.4873,-18.5 228.4873,-36.5 266.1621,-36.5 266.1621,-18.5 228.4873,-18.5"/>
<text text-anchor="middle" x="247.3247" y="-24.5" font-family="Helvetica,sans-Serif" font-size="10.00" fill="#000000">main</text>
</a>
</g>
</g>
<!-- Node7&#45;&gt;Node8 -->
<g id="edge2" class="edge">
<title>Node7&#45;&gt;Node8</title>
<path fill="none" stroke="#191970" d="M202.864,-37.334C211.7749,-35.363 220.7726,-33.3729 228.3204,-31.7035"/>
<polygon fill="#191970" stroke="#191970" points="201.9302,-33.9559 192.9221,-39.533 203.442,-40.7907 201.9302,-33.9559"/>
</g>
<!-- Node9&#45;&gt;Node8 -->
<g id="edge4" class="edge">
<title>Node9&#45;&gt;Node8</title>
<path fill="none" stroke="#191970" d="M202.5093,-18.1093C211.549,-20.0035 220.699,-21.9208 228.3536,-23.5248"/>
<polygon fill="#191970" stroke="#191970" points="202.941,-14.6238 192.4357,-15.9984 201.5053,-21.475 202.941,-14.6238"/>
</g>
</g>
</svg>
