<?xml version="1.0" encoding="UTF-8" standalone="no"?>
<!DOCTYPE svg PUBLIC "-//W3C//DTD SVG 1.1//EN"
 "http://www.w3.org/Graphics/SVG/1.1/DTD/svg11.dtd">
<!-- Generated by graphviz version 2.40.1 (20161225.0304)
 -->
<!-- Title: DWC_p2p_CGLS Pages: 1 -->
<svg width="269pt" height="175pt"
 viewBox="0.00 0.00 269.41 175.00" xmlns="http://www.w3.org/2000/svg" xmlns:xlink="http://www.w3.org/1999/xlink">
<g id="graph0" class="graph" transform="scale(1 1) rotate(0) translate(4 171)">
<title>DWC_p2p_CGLS</title>
<polygon fill="#ffffff" stroke="transparent" points="-4,4 -4,-171 265.4131,-171 265.4131,4 -4,4"/>
<!-- Node0 -->
<g id="node1" class="node">
<title>Node0</title>
<polygon fill="#bfbfbf" stroke="#000000" points="0,-74.5 0,-92.5 94.9209,-92.5 94.9209,-74.5 0,-74.5"/>
<text text-anchor="middle" x="47.4604" y="-80.5" font-family="Helvetica,sans-Serif" font-size="10.00" fill="#000000">DWC_p2p_CGLS</text>
</g>
<!-- Node1 -->
<g id="node2" class="node">
<title>Node1</title>
<g id="a_node2"><a xlink:href="Conti2D_8cpp_a98827c14ed7072c96834f20205c7a916.html#a98827c14ed7072c96834f20205c7a916" target="_top" xlink:title="Norm2">
<polygon fill="#ffffff" stroke="#000000" points="173.1646,-148.5 173.1646,-166.5 219.1694,-166.5 219.1694,-148.5 173.1646,-148.5"/>
<text text-anchor="middle" x="196.167" y="-154.5" font-family="Helvetica,sans-Serif" font-size="10.00" fill="#000000">Norm2</text>
</a>
</g>
</g>
<!-- Node0&#45;&gt;Node1 -->
<g id="edge1" class="edge">
<title>Node0&#45;&gt;Node1</title>
<path fill="none" stroke="#191970" d="M58.3789,-92.5283C73.6974,-104.7819 102.8486,-126.6227 130.9209,-139.5 141.0382,-144.141 152.6016,-147.812 163.1556,-150.5953"/>
<polygon fill="#191970" stroke="#191970" points="162.3379,-153.9984 172.8851,-152.9946 164.014,-147.202 162.3379,-153.9984"/>
</g>
<!-- Node2 -->
<g id="node3" class="node">
<title>Node2</title>
<g id="a_node3"><a xlink:href="Conti2D_8cpp_a6334abab105b1fe7efa9a3e2a4b07c47.html#a6334abab105b1fe7efa9a3e2a4b07c47" target="_top" xlink:title="Save results of at each iteration step as vtk file. ">
<polygon fill="#ffffff" stroke="#000000" points="155.9307,-111.5 155.9307,-129.5 236.4033,-129.5 236.4033,-111.5 155.9307,-111.5"/>
<text text-anchor="middle" x="196.167" y="-117.5" font-family="Helvetica,sans-Serif" font-size="10.00" fill="#000000">SaveGrd2VTK</text>
</a>
</g>
</g>
<!-- Node0&#45;&gt;Node2 -->
<g id="edge2" class="edge">
<title>Node0&#45;&gt;Node2</title>
<path fill="none" stroke="#191970" d="M83.8382,-92.5512C103.8058,-97.5194 128.7684,-103.7304 150.0871,-109.0348"/>
<polygon fill="#191970" stroke="#191970" points="149.3582,-112.46 159.9074,-111.4782 151.0484,-105.6671 149.3582,-112.46"/>
</g>
<!-- Node3 -->
<g id="node4" class="node">
<title>Node3</title>
<g id="a_node4"><a xlink:href="classMultiProgressBar_a58eef55ad6d5c7d769b3a402a2ef7b85.html#a58eef55ad6d5c7d769b3a402a2ef7b85" target="_top" xlink:title="MultiProgressBar::Update">
<polygon fill="#ffffff" stroke="#000000" points="130.9209,-74.5 130.9209,-92.5 261.4131,-92.5 261.4131,-74.5 130.9209,-74.5"/>
<text text-anchor="middle" x="196.167" y="-80.5" font-family="Helvetica,sans-Serif" font-size="10.00" fill="#000000">MultiProgressBar::Update</text>
</a>
</g>
</g>
<!-- Node0&#45;&gt;Node3 -->
<g id="edge3" class="edge">
<title>Node0&#45;&gt;Node3</title>
<path fill="none" stroke="#191970" d="M94.921,-83.5C103.1075,-83.5 111.7968,-83.5 120.5099,-83.5"/>
<polygon fill="#191970" stroke="#191970" points="120.7207,-87.0001 130.7207,-83.5 120.7206,-80.0001 120.7207,-87.0001"/>
</g>
<!-- Node4 -->
<g id="node5" class="node">
<title>Node4</title>
<g id="a_node5"><a xlink:href="Conti2D_8cpp_a632c1e4efbb7e9b1aaf04db729e69394.html#a632c1e4efbb7e9b1aaf04db729e69394" target="_top" xlink:title="UWC_Gij">
<polygon fill="#ffffff" stroke="#000000" points="167.3345,-37.5 167.3345,-55.5 224.9995,-55.5 224.9995,-37.5 167.3345,-37.5"/>
<text text-anchor="middle" x="196.167" y="-43.5" font-family="Helvetica,sans-Serif" font-size="10.00" fill="#000000">UWC_Gij</text>
</a>
</g>
</g>
<!-- Node0&#45;&gt;Node4 -->
<g id="edge4" class="edge">
<title>Node0&#45;&gt;Node4</title>
<path fill="none" stroke="#191970" d="M83.8382,-74.4488C106.0586,-68.9201 134.4644,-61.8523 157.1511,-56.2076"/>
<polygon fill="#191970" stroke="#191970" points="158.2704,-59.5359 167.1294,-53.7249 156.5802,-52.743 158.2704,-59.5359"/>
</g>
<!-- Node5 -->
<g id="node6" class="node">
<title>Node5</title>
<g id="a_node6"><a xlink:href="Conti2D_8cpp_a9d30373a0ff29e4f743eaf5e4cbc3cbf.html#a9d30373a0ff29e4f743eaf5e4cbc3cbf" target="_top" xlink:title="UWC_Gji">
<polygon fill="#ffffff" stroke="#000000" points="167.3345,-.5 167.3345,-18.5 224.9995,-18.5 224.9995,-.5 167.3345,-.5"/>
<text text-anchor="middle" x="196.167" y="-6.5" font-family="Helvetica,sans-Serif" font-size="10.00" fill="#000000">UWC_Gji</text>
</a>
</g>
</g>
<!-- Node0&#45;&gt;Node5 -->
<g id="edge5" class="edge">
<title>Node0&#45;&gt;Node5</title>
<path fill="none" stroke="#191970" d="M58.6959,-74.4982C74.1463,-62.5058 103.1985,-41.3156 130.9209,-28.5 139.2463,-24.6513 148.5323,-21.3879 157.4277,-18.7093"/>
<polygon fill="#191970" stroke="#191970" points="158.5644,-22.0252 167.2329,-15.9335 156.6576,-15.2899 158.5644,-22.0252"/>
</g>
</g>
</svg>
