<?xml version="1.0" encoding="UTF-8" standalone="no"?>
<!DOCTYPE svg PUBLIC "-//W3C//DTD SVG 1.1//EN"
 "http://www.w3.org/Graphics/SVG/1.1/DTD/svg11.dtd">
<!-- Generated by graphviz version 2.40.1 (20161225.0304)
 -->
<!-- Title: DWC_p2p Pages: 1 -->
<svg width="404pt" height="286pt"
 viewBox="0.00 0.00 403.68 286.00" xmlns="http://www.w3.org/2000/svg" xmlns:xlink="http://www.w3.org/1999/xlink">
<g id="graph0" class="graph" transform="scale(1 1) rotate(0) translate(4 282)">
<title>DWC_p2p</title>
<polygon fill="#ffffff" stroke="transparent" points="-4,4 -4,-282 399.6787,-282 399.6787,4 -4,4"/>
<!-- Node0 -->
<g id="node1" class="node">
<title>Node0</title>
<polygon fill="#bfbfbf" stroke="#000000" points="0,-55.5 0,-73.5 62.1279,-73.5 62.1279,-55.5 0,-55.5"/>
<text text-anchor="middle" x="31.064" y="-61.5" font-family="Helvetica,sans-Serif" font-size="10.00" fill="#000000">DWC_p2p</text>
</g>
<!-- Node1 -->
<g id="node2" class="node">
<title>Node1</title>
<g id="a_node2"><a xlink:href="Conti2D_8cpp_a7730328c8e132ff0a35142a6d31bac18.html#a7730328c8e132ff0a35142a6d31bac18" target="_top" xlink:title="Calculate downward continuation of potential field from surface to a plane. ">
<polygon fill="#ffffff" stroke="#000000" points="98.1279,-148.5 98.1279,-166.5 229.1865,-166.5 229.1865,-148.5 98.1279,-148.5"/>
<text text-anchor="middle" x="163.6572" y="-154.5" font-family="Helvetica,sans-Serif" font-size="10.00" fill="#000000">DWC_s2p_LandweberIter</text>
</a>
</g>
</g>
<!-- Node0&#45;&gt;Node1 -->
<g id="edge1" class="edge">
<title>Node0&#45;&gt;Node1</title>
<path fill="none" stroke="#191970" d="M44.2623,-73.7572C67.1957,-89.8426 114.5932,-123.0869 142.2739,-142.5019"/>
<polygon fill="#191970" stroke="#191970" points="140.3155,-145.4034 150.5123,-148.2802 144.3351,-139.6725 140.3155,-145.4034"/>
</g>
<!-- Node8 -->
<g id="node9" class="node">
<title>Node8</title>
<g id="a_node9"><a xlink:href="Conti2D_8cpp_a6f44a06f2b4926f66481fccf277bea50.html#a6f44a06f2b4926f66481fccf277bea50" target="_top" xlink:title="Ger complete kernel matrix for upward continuation from plane to plane. ">
<polygon fill="#ffffff" stroke="#000000" points="110.9038,-74.5 110.9038,-92.5 216.4106,-92.5 216.4106,-74.5 110.9038,-74.5"/>
<text text-anchor="middle" x="163.6572" y="-80.5" font-family="Helvetica,sans-Serif" font-size="10.00" fill="#000000">Getkernel_p2p_new</text>
</a>
</g>
</g>
<!-- Node0&#45;&gt;Node8 -->
<g id="edge8" class="edge">
<title>Node0&#45;&gt;Node8</title>
<path fill="none" stroke="#191970" d="M62.1512,-68.9547C73.6795,-70.6066 87.2087,-72.5453 100.5642,-74.4591"/>
<polygon fill="#191970" stroke="#191970" points="100.3119,-77.9586 110.7073,-75.9125 101.3049,-71.0294 100.3119,-77.9586"/>
</g>
<!-- Node10 -->
<g id="node11" class="node">
<title>Node10</title>
<g id="a_node11"><a xlink:href="stdfunc_8cpp_a2c90cdea3ca11177ba34c14a3b0a00cb.html#a2c90cdea3ca11177ba34c14a3b0a00cb" target="_top" xlink:title="Read a ASCII Surfer format grid (6) ">
<polygon fill="#ffffff" stroke="#000000" points="135.3691,-37.5 135.3691,-55.5 191.9453,-55.5 191.9453,-37.5 135.3691,-37.5"/>
<text text-anchor="middle" x="163.6572" y="-43.5" font-family="Helvetica,sans-Serif" font-size="10.00" fill="#000000">ReadGrd</text>
</a>
</g>
</g>
<!-- Node0&#45;&gt;Node10 -->
<g id="edge11" class="edge">
<title>Node0&#45;&gt;Node10</title>
<path fill="none" stroke="#191970" d="M62.1512,-60.2798C80.9236,-57.7314 105.002,-54.4627 124.9958,-51.7484"/>
<polygon fill="#191970" stroke="#191970" points="125.5911,-55.1998 135.0293,-50.3863 124.6494,-48.2634 125.5911,-55.1998"/>
</g>
<!-- Node11 -->
<g id="node12" class="node">
<title>Node11</title>
<g id="a_node12"><a xlink:href="stdfunc_8cpp_ab76adf263893ac28772283c5a00b964c.html#ab76adf263893ac28772283c5a00b964c" target="_top" xlink:title="Save a grid data as ASCII surfer grid file. ">
<polygon fill="#ffffff" stroke="#000000" points="135.9258,-.5 135.9258,-18.5 191.3887,-18.5 191.3887,-.5 135.9258,-.5"/>
<text text-anchor="middle" x="163.6572" y="-6.5" font-family="Helvetica,sans-Serif" font-size="10.00" fill="#000000">SaveGrd</text>
</a>
</g>
</g>
<!-- Node0&#45;&gt;Node11 -->
<g id="edge12" class="edge">
<title>Node0&#45;&gt;Node11</title>
<path fill="none" stroke="#191970" d="M45.2275,-55.3913C58.4767,-47.1886 79.0342,-35.262 98.1279,-27.5 106.9569,-23.9109 116.7388,-20.7945 125.9931,-18.21"/>
<polygon fill="#191970" stroke="#191970" points="126.9911,-21.5663 135.7579,-15.617 125.1945,-14.8008 126.9911,-21.5663"/>
</g>
<!-- Node2 -->
<g id="node3" class="node">
<title>Node2</title>
<g id="a_node3"><a xlink:href="stdfunc_8cpp_a98827c14ed7072c96834f20205c7a916.html#a98827c14ed7072c96834f20205c7a916" target="_top" xlink:title="Norm2">
<polygon fill="#ffffff" stroke="#000000" points="307.4302,-259.5 307.4302,-277.5 353.4351,-277.5 353.4351,-259.5 307.4302,-259.5"/>
<text text-anchor="middle" x="330.4326" y="-265.5" font-family="Helvetica,sans-Serif" font-size="10.00" fill="#000000">Norm2</text>
</a>
</g>
</g>
<!-- Node1&#45;&gt;Node2 -->
<g id="edge2" class="edge">
<title>Node1&#45;&gt;Node2</title>
<path fill="none" stroke="#191970" d="M171.0188,-166.6933C186.4558,-185.3526 224.1922,-227.8174 265.1865,-250.5 275.0818,-255.9752 286.7585,-259.8776 297.4786,-262.6161"/>
<polygon fill="#191970" stroke="#191970" points="296.8434,-266.0614 307.3742,-264.8983 298.4165,-259.2404 296.8434,-266.0614"/>
</g>
<!-- Node3 -->
<g id="node4" class="node">
<title>Node3</title>
<g id="a_node4"><a xlink:href="stdfunc_8cpp_a43fc3af75243a047d61aadea31c0fa9c.html#a43fc3af75243a047d61aadea31c0fa9c" target="_top" xlink:title="Get 2nd norm of the gradient of a grid data. ">
<polygon fill="#ffffff" stroke="#000000" points="285.4722,-222.5 285.4722,-240.5 375.3931,-240.5 375.3931,-222.5 285.4722,-222.5"/>
<text text-anchor="middle" x="330.4326" y="-228.5" font-family="Helvetica,sans-Serif" font-size="10.00" fill="#000000">Norm2_Gradient</text>
</a>
</g>
</g>
<!-- Node1&#45;&gt;Node3 -->
<g id="edge3" class="edge">
<title>Node1&#45;&gt;Node3</title>
<path fill="none" stroke="#191970" d="M177.5918,-166.5746C196.6894,-178.6821 232.3726,-200.1414 265.1865,-213.5 270.5551,-215.6855 276.2772,-217.6971 282.0173,-219.5207"/>
<polygon fill="#191970" stroke="#191970" points="281.0511,-222.8849 291.6353,-222.4096 283.0648,-216.1808 281.0511,-222.8849"/>
</g>
<!-- Node4 -->
<g id="node5" class="node">
<title>Node4</title>
<g id="a_node5"><a xlink:href="stdfunc_8cpp_a88f10a86b8808047787d2df5e8cbcb72.html#a88f10a86b8808047787d2df5e8cbcb72" target="_top" xlink:title="Get file name from a full path. ">
<polygon fill="#ffffff" stroke="#000000" points="279.9131,-185.5 279.9131,-203.5 380.9521,-203.5 380.9521,-185.5 279.9131,-185.5"/>
<text text-anchor="middle" x="330.4326" y="-191.5" font-family="Helvetica,sans-Serif" font-size="10.00" fill="#000000">Path_GetFileName</text>
</a>
</g>
</g>
<!-- Node1&#45;&gt;Node4 -->
<g id="edge4" class="edge">
<title>Node1&#45;&gt;Node4</title>
<path fill="none" stroke="#191970" d="M204.4551,-166.5512C227.153,-171.5869 255.6057,-177.8992 279.7251,-183.2503"/>
<polygon fill="#191970" stroke="#191970" points="279.2465,-186.7291 289.7673,-185.4782 280.7627,-179.8953 279.2465,-186.7291"/>
</g>
<!-- Node5 -->
<g id="node6" class="node">
<title>Node5</title>
<g id="a_node6"><a xlink:href="stdfunc_8cpp_a6334abab105b1fe7efa9a3e2a4b07c47.html#a6334abab105b1fe7efa9a3e2a4b07c47" target="_top" xlink:title="Save results of at each iteration step as vtk file. ">
<polygon fill="#ffffff" stroke="#000000" points="290.1963,-148.5 290.1963,-166.5 370.6689,-166.5 370.6689,-148.5 290.1963,-148.5"/>
<text text-anchor="middle" x="330.4326" y="-154.5" font-family="Helvetica,sans-Serif" font-size="10.00" fill="#000000">SaveGrd2VTK</text>
</a>
</g>
</g>
<!-- Node1&#45;&gt;Node5 -->
<g id="edge5" class="edge">
<title>Node1&#45;&gt;Node5</title>
<path fill="none" stroke="#191970" d="M229.5713,-157.5C246.3014,-157.5 264.0139,-157.5 279.849,-157.5"/>
<polygon fill="#191970" stroke="#191970" points="279.9546,-161.0001 289.9545,-157.5 279.9545,-154.0001 279.9546,-161.0001"/>
</g>
<!-- Node6 -->
<g id="node7" class="node">
<title>Node6</title>
<g id="a_node7"><a xlink:href="classMultiProgressBar_a58eef55ad6d5c7d769b3a402a2ef7b85.html#a58eef55ad6d5c7d769b3a402a2ef7b85" target="_top" xlink:title="MultiProgressBar::Update">
<polygon fill="#ffffff" stroke="#000000" points="265.1865,-74.5 265.1865,-92.5 395.6787,-92.5 395.6787,-74.5 265.1865,-74.5"/>
<text text-anchor="middle" x="330.4326" y="-80.5" font-family="Helvetica,sans-Serif" font-size="10.00" fill="#000000">MultiProgressBar::Update</text>
</a>
</g>
</g>
<!-- Node1&#45;&gt;Node6 -->
<g id="edge6" class="edge">
<title>Node1&#45;&gt;Node6</title>
<path fill="none" stroke="#191970" d="M177.9727,-148.4708C197.2079,-136.64 232.7378,-115.835 265.1865,-102.5 271.4185,-99.9389 278.1171,-97.575 284.7639,-95.4476"/>
<polygon fill="#191970" stroke="#191970" points="285.8623,-98.7718 294.4048,-92.5047 283.8186,-92.0768 285.8623,-98.7718"/>
</g>
<!-- Node7 -->
<g id="node8" class="node">
<title>Node7</title>
<g id="a_node8"><a xlink:href="Conti2D_8cpp_a632c1e4efbb7e9b1aaf04db729e69394.html#a632c1e4efbb7e9b1aaf04db729e69394" target="_top" xlink:title="Calculate upward continuation as , see equation (5). ">
<polygon fill="#ffffff" stroke="#000000" points="301.6001,-111.5 301.6001,-129.5 359.2651,-129.5 359.2651,-111.5 301.6001,-111.5"/>
<text text-anchor="middle" x="330.4326" y="-117.5" font-family="Helvetica,sans-Serif" font-size="10.00" fill="#000000">UWC_Gij</text>
</a>
</g>
</g>
<!-- Node1&#45;&gt;Node7 -->
<g id="edge7" class="edge">
<title>Node1&#45;&gt;Node7</title>
<path fill="none" stroke="#191970" d="M204.4551,-148.4488C231.0163,-142.556 265.4581,-134.9149 291.6146,-129.112"/>
<polygon fill="#191970" stroke="#191970" points="292.5506,-132.4895 301.5551,-126.9066 291.0344,-125.6557 292.5506,-132.4895"/>
</g>
<!-- Node8&#45;&gt;Node6 -->
<g id="edge10" class="edge">
<title>Node8&#45;&gt;Node6</title>
<path fill="none" stroke="#191970" d="M216.426,-83.5C228.6246,-83.5 241.8384,-83.5 254.8001,-83.5"/>
<polygon fill="#191970" stroke="#191970" points="255.1168,-87.0001 265.1168,-83.5 255.1168,-80.0001 255.1168,-87.0001"/>
</g>
<!-- Node9 -->
<g id="node10" class="node">
<title>Node9</title>
<g id="a_node10"><a xlink:href="Conti2D_8cpp_a4bb34ae88cf16e429505f9eb746384cd.html#a4bb34ae88cf16e429505f9eb746384cd" target="_top" xlink:title="Get the kernel vector for a calculation point . ">
<polygon fill="#ffffff" stroke="#000000" points="301.8711,-37.5 301.8711,-55.5 358.9941,-55.5 358.9941,-37.5 301.8711,-37.5"/>
<text text-anchor="middle" x="330.4326" y="-43.5" font-family="Helvetica,sans-Serif" font-size="10.00" fill="#000000">GetPmnij</text>
</a>
</g>
</g>
<!-- Node8&#45;&gt;Node9 -->
<g id="edge9" class="edge">
<title>Node8&#45;&gt;Node9</title>
<path fill="none" stroke="#191970" d="M204.4551,-74.4488C231.1014,-68.5371 265.679,-60.8659 291.8659,-55.0562"/>
<polygon fill="#191970" stroke="#191970" points="292.808,-58.4324 301.8125,-52.8495 291.2918,-51.5986 292.808,-58.4324"/>
</g>
</g>
</svg>
