<?xml version="1.0" encoding="UTF-8" standalone="no"?>
<!DOCTYPE svg PUBLIC "-//W3C//DTD SVG 1.1//EN"
 "http://www.w3.org/Graphics/SVG/1.1/DTD/svg11.dtd">
<!-- Generated by graphviz version 2.40.1 (20161225.0304)
 -->
<!-- Title: DWC_p2p Pages: 1 -->
<svg width="404pt" height="286pt"
 viewBox="0.00 0.00 403.68 286.00" xmlns="http://www.w3.org/2000/svg" xmlns:xlink="http://www.w3.org/1999/xlink">
<g id="graph0" class="graph" transform="scale(1 1) rotate(0) translate(4 282)">
<title>DWC_p2p</title>
<polygon fill="#ffffff" stroke="transparent" points="-4,4 -4,-282 399.6787,-282 399.6787,4 -4,4"/>
<!-- Node0 -->
<g id="node1" class="node">
<title>Node0</title>
<polygon fill="#bfbfbf" stroke="#000000" points="0,-92.5 0,-110.5 62.1279,-110.5 62.1279,-92.5 0,-92.5"/>
<text text-anchor="middle" x="31.064" y="-98.5" font-family="Helvetica,sans-Serif" font-size="10.00" fill="#000000">DWC_p2p</text>
</g>
<!-- Node1 -->
<g id="node2" class="node">
<title>Node1</title>
<g id="a_node2"><a xlink:href="Conti2D_8cpp_a6516cfeb71abcf844b32f101e5f77a71.html#a6516cfeb71abcf844b32f101e5f77a71" target="_top" xlink:title="DWC_s2p_CGLS">
<polygon fill="#ffffff" stroke="#000000" points="116.4775,-148.5 116.4775,-166.5 210.8369,-166.5 210.8369,-148.5 116.4775,-148.5"/>
<text text-anchor="middle" x="163.6572" y="-154.5" font-family="Helvetica,sans-Serif" font-size="10.00" fill="#000000">DWC_s2p_CGLS</text>
</a>
</g>
</g>
<!-- Node0&#45;&gt;Node1 -->
<g id="edge1" class="edge">
<title>Node0&#45;&gt;Node1</title>
<path fill="none" stroke="#191970" d="M44.6833,-110.554C57.8856,-119.0026 78.7099,-131.4773 98.1279,-139.5 103.5067,-141.7223 109.2456,-143.7564 115.0062,-145.5925"/>
<polygon fill="#191970" stroke="#191970" points="114.0773,-148.9679 124.6615,-148.4936 116.0917,-142.264 114.0773,-148.9679"/>
</g>
<!-- Node7 -->
<g id="node8" class="node">
<title>Node7</title>
<g id="a_node8"><a xlink:href="Conti2D_8cpp_a0a60bfe4f254fa10e96fabb22a125343.html#a0a60bfe4f254fa10e96fabb22a125343" target="_top" xlink:title="DWC_s2p_ItegrationIter">
<polygon fill="#ffffff" stroke="#000000" points="102.022,-111.5 102.022,-129.5 225.2925,-129.5 225.2925,-111.5 102.022,-111.5"/>
<text text-anchor="middle" x="163.6572" y="-117.5" font-family="Helvetica,sans-Serif" font-size="10.00" fill="#000000">DWC_s2p_ItegrationIter</text>
</a>
</g>
</g>
<!-- Node0&#45;&gt;Node7 -->
<g id="edge7" class="edge">
<title>Node0&#45;&gt;Node7</title>
<path fill="none" stroke="#191970" d="M62.1512,-105.9547C71.2001,-107.2513 81.4819,-108.7247 91.9449,-110.2239"/>
<polygon fill="#191970" stroke="#191970" points="91.6021,-113.7105 101.9975,-111.6644 92.5951,-106.7813 91.6021,-113.7105"/>
</g>
<!-- Node10 -->
<g id="node11" class="node">
<title>Node10</title>
<g id="a_node11"><a xlink:href="Conti2D_8cpp_a7730328c8e132ff0a35142a6d31bac18.html#a7730328c8e132ff0a35142a6d31bac18" target="_top" xlink:title="DWC_s2p_LandweberIter">
<polygon fill="#ffffff" stroke="#000000" points="98.1279,-74.5 98.1279,-92.5 229.1865,-92.5 229.1865,-74.5 98.1279,-74.5"/>
<text text-anchor="middle" x="163.6572" y="-80.5" font-family="Helvetica,sans-Serif" font-size="10.00" fill="#000000">DWC_s2p_LandweberIter</text>
</a>
</g>
</g>
<!-- Node0&#45;&gt;Node10 -->
<g id="edge14" class="edge">
<title>Node0&#45;&gt;Node10</title>
<path fill="none" stroke="#191970" d="M62.1512,-97.2798C70.0771,-96.2038 78.9488,-94.9995 88.0596,-93.7626"/>
<polygon fill="#191970" stroke="#191970" points="88.568,-97.2258 98.0062,-92.4124 87.6263,-90.2894 88.568,-97.2258"/>
</g>
<!-- Node11 -->
<g id="node12" class="node">
<title>Node11</title>
<g id="a_node12"><a xlink:href="Conti2D_8cpp_a6f44a06f2b4926f66481fccf277bea50.html#a6f44a06f2b4926f66481fccf277bea50" target="_top" xlink:title="Getkernel_p2p_new">
<polygon fill="#ffffff" stroke="#000000" points="110.9038,-185.5 110.9038,-203.5 216.4106,-203.5 216.4106,-185.5 110.9038,-185.5"/>
<text text-anchor="middle" x="163.6572" y="-191.5" font-family="Helvetica,sans-Serif" font-size="10.00" fill="#000000">Getkernel_p2p_new</text>
</a>
</g>
</g>
<!-- Node0&#45;&gt;Node11 -->
<g id="edge21" class="edge">
<title>Node0&#45;&gt;Node11</title>
<path fill="none" stroke="#191970" d="M36.6736,-110.6501C46.8843,-126.5202 70.0639,-159.1142 98.1279,-176.5 101.2715,-178.4475 104.6276,-180.1879 108.0972,-181.7428"/>
<polygon fill="#191970" stroke="#191970" points="106.891,-185.0294 117.4779,-185.44 109.4578,-178.5169 106.891,-185.0294"/>
</g>
<!-- Node13 -->
<g id="node14" class="node">
<title>Node13</title>
<g id="a_node14"><a xlink:href="Conti2D_8cpp_a2c90cdea3ca11177ba34c14a3b0a00cb.html#a2c90cdea3ca11177ba34c14a3b0a00cb" target="_top" xlink:title="Read a Surfer Grid data from file. ">
<polygon fill="#ffffff" stroke="#000000" points="135.3691,-37.5 135.3691,-55.5 191.9453,-55.5 191.9453,-37.5 135.3691,-37.5"/>
<text text-anchor="middle" x="163.6572" y="-43.5" font-family="Helvetica,sans-Serif" font-size="10.00" fill="#000000">ReadGrd</text>
</a>
</g>
</g>
<!-- Node0&#45;&gt;Node13 -->
<g id="edge24" class="edge">
<title>Node0&#45;&gt;Node13</title>
<path fill="none" stroke="#191970" d="M45.806,-92.416C59.1097,-84.5057 79.4083,-73.1387 98.1279,-65.5 106.7338,-61.9883 116.2207,-58.8443 125.2399,-56.1725"/>
<polygon fill="#191970" stroke="#191970" points="126.4862,-59.4572 135.1523,-53.3622 124.5768,-52.7227 126.4862,-59.4572"/>
</g>
<!-- Node14 -->
<g id="node15" class="node">
<title>Node14</title>
<g id="a_node15"><a xlink:href="Conti2D_8cpp_ab76adf263893ac28772283c5a00b964c.html#ab76adf263893ac28772283c5a00b964c" target="_top" xlink:title="Save a Surfer Grid data to file. ">
<polygon fill="#ffffff" stroke="#000000" points="135.9258,-.5 135.9258,-18.5 191.3887,-18.5 191.3887,-.5 135.9258,-.5"/>
<text text-anchor="middle" x="163.6572" y="-6.5" font-family="Helvetica,sans-Serif" font-size="10.00" fill="#000000">SaveGrd</text>
</a>
</g>
</g>
<!-- Node0&#45;&gt;Node14 -->
<g id="edge25" class="edge">
<title>Node0&#45;&gt;Node14</title>
<path fill="none" stroke="#191970" d="M36.925,-92.393C47.3513,-76.9264 70.6294,-45.5485 98.1279,-28.5 106.5711,-23.2654 116.5152,-19.4214 126.0706,-16.6186"/>
<polygon fill="#191970" stroke="#191970" points="127.0261,-19.9864 135.8085,-14.0602 125.2473,-13.2162 127.0261,-19.9864"/>
</g>
<!-- Node2 -->
<g id="node3" class="node">
<title>Node2</title>
<g id="a_node3"><a xlink:href="Conti2D_8cpp_a98827c14ed7072c96834f20205c7a916.html#a98827c14ed7072c96834f20205c7a916" target="_top" xlink:title="Norm2">
<polygon fill="#ffffff" stroke="#000000" points="307.4302,-148.5 307.4302,-166.5 353.4351,-166.5 353.4351,-148.5 307.4302,-148.5"/>
<text text-anchor="middle" x="330.4326" y="-154.5" font-family="Helvetica,sans-Serif" font-size="10.00" fill="#000000">Norm2</text>
</a>
</g>
</g>
<!-- Node1&#45;&gt;Node2 -->
<g id="edge2" class="edge">
<title>Node1&#45;&gt;Node2</title>
<path fill="none" stroke="#191970" d="M211.0023,-157.5C238.3495,-157.5 272.1009,-157.5 296.7398,-157.5"/>
<polygon fill="#191970" stroke="#191970" points="297.0292,-161.0001 307.0291,-157.5 297.0291,-154.0001 297.0292,-161.0001"/>
</g>
<!-- Node3 -->
<g id="node4" class="node">
<title>Node3</title>
<g id="a_node4"><a xlink:href="Conti2D_8cpp_a6334abab105b1fe7efa9a3e2a4b07c47.html#a6334abab105b1fe7efa9a3e2a4b07c47" target="_top" xlink:title="Save results of at each iteration step as vtk file. ">
<polygon fill="#ffffff" stroke="#000000" points="290.1963,-111.5 290.1963,-129.5 370.6689,-129.5 370.6689,-111.5 290.1963,-111.5"/>
<text text-anchor="middle" x="330.4326" y="-117.5" font-family="Helvetica,sans-Serif" font-size="10.00" fill="#000000">SaveGrd2VTK</text>
</a>
</g>
</g>
<!-- Node1&#45;&gt;Node3 -->
<g id="edge3" class="edge">
<title>Node1&#45;&gt;Node3</title>
<path fill="none" stroke="#191970" d="M204.4551,-148.4488C227.2373,-143.3944 255.8173,-137.0538 279.9939,-131.6901"/>
<polygon fill="#191970" stroke="#191970" points="281.0514,-135.0407 290.056,-129.4578 279.5352,-128.2068 281.0514,-135.0407"/>
</g>
<!-- Node4 -->
<g id="node5" class="node">
<title>Node4</title>
<g id="a_node5"><a xlink:href="classMultiProgressBar_a58eef55ad6d5c7d769b3a402a2ef7b85.html#a58eef55ad6d5c7d769b3a402a2ef7b85" target="_top" xlink:title="MultiProgressBar::Update">
<polygon fill="#ffffff" stroke="#000000" points="265.1865,-185.5 265.1865,-203.5 395.6787,-203.5 395.6787,-185.5 265.1865,-185.5"/>
<text text-anchor="middle" x="330.4326" y="-191.5" font-family="Helvetica,sans-Serif" font-size="10.00" fill="#000000">MultiProgressBar::Update</text>
</a>
</g>
</g>
<!-- Node1&#45;&gt;Node4 -->
<g id="edge4" class="edge">
<title>Node1&#45;&gt;Node4</title>
<path fill="none" stroke="#191970" d="M204.4551,-166.5512C227.153,-171.5869 255.6057,-177.8992 279.7251,-183.2503"/>
<polygon fill="#191970" stroke="#191970" points="279.2465,-186.7291 289.7673,-185.4782 280.7627,-179.8953 279.2465,-186.7291"/>
</g>
<!-- Node5 -->
<g id="node6" class="node">
<title>Node5</title>
<g id="a_node6"><a xlink:href="Conti2D_8cpp_a632c1e4efbb7e9b1aaf04db729e69394.html#a632c1e4efbb7e9b1aaf04db729e69394" target="_top" xlink:title="UWC_Gij">
<polygon fill="#ffffff" stroke="#000000" points="301.6001,-74.5 301.6001,-92.5 359.2651,-92.5 359.2651,-74.5 301.6001,-74.5"/>
<text text-anchor="middle" x="330.4326" y="-80.5" font-family="Helvetica,sans-Serif" font-size="10.00" fill="#000000">UWC_Gij</text>
</a>
</g>
</g>
<!-- Node1&#45;&gt;Node5 -->
<g id="edge5" class="edge">
<title>Node1&#45;&gt;Node5</title>
<path fill="none" stroke="#191970" d="M209.0121,-148.4505C216.0261,-146.0985 222.9902,-143.1605 229.1865,-139.5 248.9409,-127.8302 245.5219,-114.3205 265.1865,-102.5 273.2806,-97.6346 282.6921,-93.9542 291.8058,-91.1934"/>
<polygon fill="#191970" stroke="#191970" points="292.7767,-94.5565 301.5017,-88.5461 290.933,-87.8037 292.7767,-94.5565"/>
</g>
<!-- Node6 -->
<g id="node7" class="node">
<title>Node6</title>
<g id="a_node7"><a xlink:href="Conti2D_8cpp_a9d30373a0ff29e4f743eaf5e4cbc3cbf.html#a9d30373a0ff29e4f743eaf5e4cbc3cbf" target="_top" xlink:title="UWC_Gji">
<polygon fill="#ffffff" stroke="#000000" points="301.6001,-222.5 301.6001,-240.5 359.2651,-240.5 359.2651,-222.5 301.6001,-222.5"/>
<text text-anchor="middle" x="330.4326" y="-228.5" font-family="Helvetica,sans-Serif" font-size="10.00" fill="#000000">UWC_Gji</text>
</a>
</g>
</g>
<!-- Node1&#45;&gt;Node6 -->
<g id="edge6" class="edge">
<title>Node1&#45;&gt;Node6</title>
<path fill="none" stroke="#191970" d="M206.9441,-166.5976C214.6509,-169.1672 222.3822,-172.4152 229.1865,-176.5 248.858,-188.3091 245.4386,-201.8193 265.1865,-213.5 273.2823,-218.2886 282.6944,-221.8424 291.8082,-224.4655"/>
<polygon fill="#191970" stroke="#191970" points="290.9472,-227.8579 301.504,-226.9609 292.692,-221.0788 290.9472,-227.8579"/>
</g>
<!-- Node7&#45;&gt;Node2 -->
<g id="edge8" class="edge">
<title>Node7&#45;&gt;Node2</title>
<path fill="none" stroke="#191970" d="M204.4551,-129.5512C232.8892,-135.8595 270.3545,-144.1713 297.0185,-150.0869"/>
<polygon fill="#191970" stroke="#191970" points="296.4988,-153.5566 307.0195,-152.3057 298.015,-146.7228 296.4988,-153.5566"/>
</g>
<!-- Node7&#45;&gt;Node3 -->
<g id="edge11" class="edge">
<title>Node7&#45;&gt;Node3</title>
<path fill="none" stroke="#191970" d="M225.7582,-120.5C243.551,-120.5 262.7296,-120.5 279.7485,-120.5"/>
<polygon fill="#191970" stroke="#191970" points="280.0344,-124.0001 290.0344,-120.5 280.0343,-117.0001 280.0344,-124.0001"/>
</g>
<!-- Node7&#45;&gt;Node4 -->
<g id="edge12" class="edge">
<title>Node7&#45;&gt;Node4</title>
<path fill="none" stroke="#191970" d="M206.9441,-129.5976C214.6509,-132.1672 222.3822,-135.4152 229.1865,-139.5 248.858,-151.3091 245.4386,-164.8193 265.1865,-176.5 268.5604,-178.4956 272.163,-180.2768 275.8772,-181.8656"/>
<polygon fill="#191970" stroke="#191970" points="274.6822,-185.1556 285.2735,-185.4309 277.1656,-178.6109 274.6822,-185.1556"/>
</g>
<!-- Node7&#45;&gt;Node5 -->
<g id="edge13" class="edge">
<title>Node7&#45;&gt;Node5</title>
<path fill="none" stroke="#191970" d="M204.4551,-111.4488C231.0163,-105.556 265.4581,-97.9149 291.6146,-92.112"/>
<polygon fill="#191970" stroke="#191970" points="292.5506,-95.4895 301.5551,-89.9066 291.0344,-88.6557 292.5506,-95.4895"/>
</g>
<!-- Node8 -->
<g id="node9" class="node">
<title>Node8</title>
<g id="a_node9"><a xlink:href="Conti2D_8cpp_a43fc3af75243a047d61aadea31c0fa9c.html#a43fc3af75243a047d61aadea31c0fa9c" target="_top" xlink:title="Get 2nd norm of the gradient of a grid data. ">
<polygon fill="#ffffff" stroke="#000000" points="285.4722,-37.5 285.4722,-55.5 375.3931,-55.5 375.3931,-37.5 285.4722,-37.5"/>
<text text-anchor="middle" x="330.4326" y="-43.5" font-family="Helvetica,sans-Serif" font-size="10.00" fill="#000000">Norm2_Gradient</text>
</a>
</g>
</g>
<!-- Node7&#45;&gt;Node8 -->
<g id="edge9" class="edge">
<title>Node7&#45;&gt;Node8</title>
<path fill="none" stroke="#191970" d="M209.0121,-111.4505C216.0261,-109.0985 222.9902,-106.1605 229.1865,-102.5 248.9409,-90.8302 245.5219,-77.3205 265.1865,-65.5 269.2691,-63.0459 273.6869,-60.8933 278.2325,-59.0082"/>
<polygon fill="#191970" stroke="#191970" points="279.519,-62.2641 287.6763,-55.5033 277.0833,-55.7015 279.519,-62.2641"/>
</g>
<!-- Node9 -->
<g id="node10" class="node">
<title>Node9</title>
<g id="a_node10"><a xlink:href="Conti2D_8cpp_a88f10a86b8808047787d2df5e8cbcb72.html#a88f10a86b8808047787d2df5e8cbcb72" target="_top" xlink:title="从一个文件全路径中获取文件名称 ">
<polygon fill="#ffffff" stroke="#000000" points="279.9131,-.5 279.9131,-18.5 380.9521,-18.5 380.9521,-.5 279.9131,-.5"/>
<text text-anchor="middle" x="330.4326" y="-6.5" font-family="Helvetica,sans-Serif" font-size="10.00" fill="#000000">Path_GetFileName</text>
</a>
</g>
</g>
<!-- Node7&#45;&gt;Node9 -->
<g id="edge10" class="edge">
<title>Node7&#45;&gt;Node9</title>
<path fill="none" stroke="#191970" d="M214.1799,-111.4704C219.5936,-109.1324 224.7392,-106.1934 229.1865,-102.5 257.3233,-79.1333 237.2293,-52.0812 265.1865,-28.5 267.5891,-26.4735 270.1981,-24.6631 272.9448,-23.0456"/>
<polygon fill="#191970" stroke="#191970" points="274.6944,-26.0848 282.1005,-18.5085 271.5863,-19.8126 274.6944,-26.0848"/>
</g>
<!-- Node10&#45;&gt;Node2 -->
<g id="edge15" class="edge">
<title>Node10&#45;&gt;Node2</title>
<path fill="none" stroke="#191970" d="M206.9441,-92.5976C214.6509,-95.1672 222.3822,-98.4152 229.1865,-102.5 248.858,-114.3091 245.4386,-127.8193 265.1865,-139.5 274.9203,-145.2574 286.5569,-149.2299 297.2899,-151.9459"/>
<polygon fill="#191970" stroke="#191970" points="296.687,-155.3977 307.2118,-154.182 298.226,-148.569 296.687,-155.3977"/>
</g>
<!-- Node10&#45;&gt;Node3 -->
<g id="edge18" class="edge">
<title>Node10&#45;&gt;Node3</title>
<path fill="none" stroke="#191970" d="M204.4551,-92.5512C227.2373,-97.6056 255.8173,-103.9462 279.9939,-109.3099"/>
<polygon fill="#191970" stroke="#191970" points="279.5352,-112.7932 290.056,-111.5422 281.0514,-105.9593 279.5352,-112.7932"/>
</g>
<!-- Node10&#45;&gt;Node4 -->
<g id="edge19" class="edge">
<title>Node10&#45;&gt;Node4</title>
<path fill="none" stroke="#191970" d="M212.5323,-92.6226C218.551,-95.1508 224.2948,-98.3788 229.1865,-102.5 257.1574,-126.065 237.0627,-153.1177 265.1865,-176.5 266.9852,-177.9954 268.8986,-179.3671 270.8981,-180.6253"/>
<polygon fill="#191970" stroke="#191970" points="269.6428,-183.9183 280.1269,-185.4461 272.8839,-177.7138 269.6428,-183.9183"/>
</g>
<!-- Node10&#45;&gt;Node5 -->
<g id="edge20" class="edge">
<title>Node10&#45;&gt;Node5</title>
<path fill="none" stroke="#191970" d="M229.5713,-83.5C250.523,-83.5 273.0156,-83.5 291.4317,-83.5"/>
<polygon fill="#191970" stroke="#191970" points="291.4838,-87.0001 301.4838,-83.5 291.4837,-80.0001 291.4838,-87.0001"/>
</g>
<!-- Node10&#45;&gt;Node8 -->
<g id="edge16" class="edge">
<title>Node10&#45;&gt;Node8</title>
<path fill="none" stroke="#191970" d="M204.4551,-74.4488C227.153,-69.4131 255.6057,-63.1008 279.7251,-57.7497"/>
<polygon fill="#191970" stroke="#191970" points="280.7627,-61.1047 289.7673,-55.5218 279.2465,-54.2709 280.7627,-61.1047"/>
</g>
<!-- Node10&#45;&gt;Node9 -->
<g id="edge17" class="edge">
<title>Node10&#45;&gt;Node9</title>
<path fill="none" stroke="#191970" d="M209.0121,-74.4505C216.0261,-72.0985 222.9902,-69.1605 229.1865,-65.5 248.9409,-53.8302 245.5219,-40.3205 265.1865,-28.5 269.2691,-26.0459 273.6869,-23.8933 278.2325,-22.0082"/>
<polygon fill="#191970" stroke="#191970" points="279.519,-25.2641 287.6763,-18.5033 277.0833,-18.7015 279.519,-25.2641"/>
</g>
<!-- Node11&#45;&gt;Node4 -->
<g id="edge23" class="edge">
<title>Node11&#45;&gt;Node4</title>
<path fill="none" stroke="#191970" d="M216.426,-194.5C228.6246,-194.5 241.8384,-194.5 254.8001,-194.5"/>
<polygon fill="#191970" stroke="#191970" points="255.1168,-198.0001 265.1168,-194.5 255.1168,-191.0001 255.1168,-198.0001"/>
</g>
<!-- Node12 -->
<g id="node13" class="node">
<title>Node12</title>
<g id="a_node13"><a xlink:href="Conti2D_8cpp_a4bb34ae88cf16e429505f9eb746384cd.html#a4bb34ae88cf16e429505f9eb746384cd" target="_top" xlink:title="GetPmnij">
<polygon fill="#ffffff" stroke="#000000" points="301.8711,-259.5 301.8711,-277.5 358.9941,-277.5 358.9941,-259.5 301.8711,-259.5"/>
<text text-anchor="middle" x="330.4326" y="-265.5" font-family="Helvetica,sans-Serif" font-size="10.00" fill="#000000">GetPmnij</text>
</a>
</g>
</g>
<!-- Node11&#45;&gt;Node12 -->
<g id="edge22" class="edge">
<title>Node11&#45;&gt;Node12</title>
<path fill="none" stroke="#191970" d="M177.5918,-203.5746C196.6894,-215.6821 232.3726,-237.1414 265.1865,-250.5 273.6474,-253.9445 282.9866,-256.9569 291.8904,-259.482"/>
<polygon fill="#191970" stroke="#191970" points="291.1217,-262.8997 301.688,-262.123 292.9436,-256.1409 291.1217,-262.8997"/>
</g>
</g>
</svg>
