<?xml version="1.0" encoding="UTF-8" standalone="no"?>
<!DOCTYPE svg PUBLIC "-//W3C//DTD SVG 1.1//EN"
 "http://www.w3.org/Graphics/SVG/1.1/DTD/svg11.dtd">
<!-- Generated by graphviz version 2.40.1 (20161225.0304)
 -->
<!-- Title: GetPmnij Pages: 1 -->
<svg width="378pt" height="138pt"
 viewBox="0.00 0.00 378.43 138.00" xmlns="http://www.w3.org/2000/svg" xmlns:xlink="http://www.w3.org/1999/xlink">
<g id="graph0" class="graph" transform="scale(1 1) rotate(0) translate(4 134)">
<title>GetPmnij</title>
<polygon fill="#ffffff" stroke="transparent" points="-4,4 -4,-134 374.4326,-134 374.4326,4 -4,4"/>
<!-- Node1 -->
<g id="node1" class="node">
<title>Node1</title>
<polygon fill="#bfbfbf" stroke="#000000" points="0,-55.5 0,-73.5 57.123,-73.5 57.123,-55.5 0,-55.5"/>
<text text-anchor="middle" x="28.5615" y="-61.5" font-family="Helvetica,sans-Serif" font-size="10.00" fill="#000000">GetPmnij</text>
</g>
<!-- Node2 -->
<g id="node2" class="node">
<title>Node2</title>
<g id="a_node2"><a xlink:href="Conti2D_8h_a6f44a06f2b4926f66481fccf277bea50.html#a6f44a06f2b4926f66481fccf277bea50" target="_top" xlink:title="Ger complete kernel matrix for upward continuation from plane to plane. ">
<polygon fill="#ffffff" stroke="#000000" points="93.123,-74.5 93.123,-92.5 198.6299,-92.5 198.6299,-74.5 93.123,-74.5"/>
<text text-anchor="middle" x="145.8765" y="-80.5" font-family="Helvetica,sans-Serif" font-size="10.00" fill="#000000">Getkernel_p2p_new</text>
</a>
</g>
</g>
<!-- Node1&#45;&gt;Node2 -->
<g id="edge1" class="edge">
<title>Node1&#45;&gt;Node2</title>
<path fill="none" stroke="#191970" d="M67.2316,-70.7629C75.396,-72.0852 84.1472,-73.5025 92.7391,-74.894"/>
<polygon fill="#191970" stroke="#191970" points="67.691,-67.2918 57.26,-69.1479 66.5718,-74.2017 67.691,-67.2918"/>
</g>
<!-- Node6 -->
<g id="node6" class="node">
<title>Node6</title>
<g id="a_node6"><a xlink:href="Conti2D_8h_a78d8a6b80166f8976a0f18caddbe1dcb.html#a78d8a6b80166f8976a0f18caddbe1dcb" target="_top" xlink:title="Get complete kernel matrix for upward continuation from plane to surface. ">
<polygon fill="#ffffff" stroke="#000000" points="93.4038,-37.5 93.4038,-55.5 198.3491,-55.5 198.3491,-37.5 93.4038,-37.5"/>
<text text-anchor="middle" x="145.8765" y="-43.5" font-family="Helvetica,sans-Serif" font-size="10.00" fill="#000000">Getkernel_p2s_new</text>
</a>
</g>
</g>
<!-- Node1&#45;&gt;Node6 -->
<g id="edge6" class="edge">
<title>Node1&#45;&gt;Node6</title>
<path fill="none" stroke="#191970" d="M67.3626,-58.5466C75.6367,-57.2771 84.5084,-55.9159 93.2029,-54.5819"/>
<polygon fill="#191970" stroke="#191970" points="66.6135,-55.1205 57.26,-60.0967 67.6752,-62.0396 66.6135,-55.1205"/>
</g>
<!-- Node3 -->
<g id="node3" class="node">
<title>Node3</title>
<g id="a_node3"><a xlink:href="Conti2D_8h_ac80c719a8192b6133df6ae172662e51a.html#ac80c719a8192b6133df6ae172662e51a" target="_top" xlink:title="Downward continuation: plane to plane(space domain) ">
<polygon fill="#ffffff" stroke="#000000" points="234.6299,-111.5 234.6299,-129.5 296.7578,-129.5 296.7578,-111.5 234.6299,-111.5"/>
<text text-anchor="middle" x="265.6938" y="-117.5" font-family="Helvetica,sans-Serif" font-size="10.00" fill="#000000">DWC_p2p</text>
</a>
</g>
</g>
<!-- Node2&#45;&gt;Node3 -->
<g id="edge2" class="edge">
<title>Node2&#45;&gt;Node3</title>
<path fill="none" stroke="#191970" d="M185.1815,-95.6375C201.8217,-100.7761 220.8766,-106.6603 236.2705,-111.414"/>
<polygon fill="#191970" stroke="#191970" points="185.7746,-92.1577 175.1871,-92.5512 183.7092,-98.846 185.7746,-92.1577"/>
</g>
<!-- Node5 -->
<g id="node5" class="node">
<title>Node5</title>
<g id="a_node5"><a xlink:href="Conti2D_8h_a05f1b014599cdda496e9bf781d4737d4.html#a05f1b014599cdda496e9bf781d4737d4" target="_top" xlink:title="Upward continuation: plane to plane(space domain) ">
<polygon fill="#ffffff" stroke="#000000" points="234.6299,-74.5 234.6299,-92.5 296.7578,-92.5 296.7578,-74.5 234.6299,-74.5"/>
<text text-anchor="middle" x="265.6938" y="-80.5" font-family="Helvetica,sans-Serif" font-size="10.00" fill="#000000">UWC_p2p</text>
</a>
</g>
</g>
<!-- Node2&#45;&gt;Node5 -->
<g id="edge4" class="edge">
<title>Node2&#45;&gt;Node5</title>
<path fill="none" stroke="#191970" d="M208.8013,-83.5C217.6819,-83.5 226.474,-83.5 234.3942,-83.5"/>
<polygon fill="#191970" stroke="#191970" points="208.7789,-80.0001 198.7789,-83.5 208.7789,-87.0001 208.7789,-80.0001"/>
</g>
<!-- Node4 -->
<g id="node4" class="node">
<title>Node4</title>
<g id="a_node4"><a xlink:href="main_8cpp_a0ddf1224851353fc92bfbff6f499fa97.html#a0ddf1224851353fc92bfbff6f499fa97" target="_top" xlink:title="main">
<polygon fill="#ffffff" stroke="#000000" points="332.7578,-55.5 332.7578,-73.5 370.4326,-73.5 370.4326,-55.5 332.7578,-55.5"/>
<text text-anchor="middle" x="351.5952" y="-61.5" font-family="Helvetica,sans-Serif" font-size="10.00" fill="#000000">main</text>
</a>
</g>
</g>
<!-- Node3&#45;&gt;Node4 -->
<g id="edge3" class="edge">
<title>Node3&#45;&gt;Node4</title>
<path fill="none" stroke="#191970" d="M290.7967,-106.1887C292.8256,-104.9609 294.8337,-103.7213 296.7578,-102.5 311.6221,-93.065 328.1673,-81.4375 339.1572,-73.5474"/>
<polygon fill="#191970" stroke="#191970" points="288.7973,-103.3046 281.9649,-111.4021 292.3557,-109.3327 288.7973,-103.3046"/>
</g>
<!-- Node5&#45;&gt;Node4 -->
<g id="edge5" class="edge">
<title>Node5&#45;&gt;Node4</title>
<path fill="none" stroke="#191970" d="M307.1345,-74.334C316.0454,-72.363 325.0431,-70.3729 332.5909,-68.7035"/>
<polygon fill="#191970" stroke="#191970" points="306.2007,-70.9559 297.1926,-76.533 307.7125,-77.7907 306.2007,-70.9559"/>
</g>
<!-- Node7 -->
<g id="node7" class="node">
<title>Node7</title>
<g id="a_node7"><a xlink:href="Conti2D_8h_a07c876abe68bb0cbc0d3b412166f5e6a.html#a07c876abe68bb0cbc0d3b412166f5e6a" target="_top" xlink:title="Downward continuation: uneven surface to plane(space domain) ">
<polygon fill="#ffffff" stroke="#000000" points="234.9106,-37.5 234.9106,-55.5 296.4771,-55.5 296.4771,-37.5 234.9106,-37.5"/>
<text text-anchor="middle" x="265.6938" y="-43.5" font-family="Helvetica,sans-Serif" font-size="10.00" fill="#000000">DWC_s2p</text>
</a>
</g>
</g>
<!-- Node6&#45;&gt;Node7 -->
<g id="edge7" class="edge">
<title>Node6&#45;&gt;Node7</title>
<path fill="none" stroke="#191970" d="M208.6945,-46.5C217.7918,-46.5 226.7994,-46.5 234.8756,-46.5"/>
<polygon fill="#191970" stroke="#191970" points="208.4301,-43.0001 198.4301,-46.5 208.4301,-50.0001 208.4301,-43.0001"/>
</g>
<!-- Node8 -->
<g id="node8" class="node">
<title>Node8</title>
<g id="a_node8"><a xlink:href="Conti2D_8h_a9fcb7711c4e230ba259de4ed9be39ccd.html#a9fcb7711c4e230ba259de4ed9be39ccd" target="_top" xlink:title="Upward continuation: plane to surface(space domain) ">
<polygon fill="#ffffff" stroke="#000000" points="234.9106,-.5 234.9106,-18.5 296.4771,-18.5 296.4771,-.5 234.9106,-.5"/>
<text text-anchor="middle" x="265.6938" y="-6.5" font-family="Helvetica,sans-Serif" font-size="10.00" fill="#000000">UWC_p2s</text>
</a>
</g>
</g>
<!-- Node6&#45;&gt;Node8 -->
<g id="edge9" class="edge">
<title>Node6&#45;&gt;Node8</title>
<path fill="none" stroke="#191970" d="M185.1815,-34.3625C201.8217,-29.2239 220.8766,-23.3397 236.2705,-18.586"/>
<polygon fill="#191970" stroke="#191970" points="183.7092,-31.154 175.1871,-37.4488 185.7746,-37.8423 183.7092,-31.154"/>
</g>
<!-- Node7&#45;&gt;Node4 -->
<g id="edge8" class="edge">
<title>Node7&#45;&gt;Node4</title>
<path fill="none" stroke="#191970" d="M306.7798,-55.1093C315.8195,-57.0035 324.9695,-58.9208 332.6241,-60.5248"/>
<polygon fill="#191970" stroke="#191970" points="307.2115,-51.6238 296.7062,-52.9984 305.7758,-58.475 307.2115,-51.6238"/>
</g>
<!-- Node8&#45;&gt;Node4 -->
<g id="edge10" class="edge">
<title>Node8&#45;&gt;Node4</title>
<path fill="none" stroke="#191970" d="M289.5706,-23.9974C292.0048,-25.5073 294.4351,-27.0278 296.7578,-28.5 310.8017,-37.4015 326.663,-47.859 337.7009,-55.2024"/>
<polygon fill="#191970" stroke="#191970" points="291.2739,-20.9361 280.9219,-18.6808 287.608,-26.8995 291.2739,-20.9361"/>
</g>
</g>
</svg>
