<?xml version="1.0" encoding="UTF-8" standalone="no"?>
<!DOCTYPE svg PUBLIC "-//W3C//DTD SVG 1.1//EN"
 "http://www.w3.org/Graphics/SVG/1.1/DTD/svg11.dtd">
<!-- Generated by graphviz version 2.40.1 (20161225.0304)
 -->
<!-- Title: SaveGrd Pages: 1 -->
<svg width="350pt" height="228pt"
 viewBox="0.00 0.00 350.07 228.00" xmlns="http://www.w3.org/2000/svg" xmlns:xlink="http://www.w3.org/1999/xlink">
<g id="graph0" class="graph" transform="scale(1 1) rotate(0) translate(4 224)">
<title>SaveGrd</title>
<polygon fill="#ffffff" stroke="transparent" points="-4,4 -4,-224 346.0732,-224 346.0732,4 -4,4"/>
<!-- Node1 -->
<g id="node1" class="node">
<title>Node1</title>
<polygon fill="#bfbfbf" stroke="#000000" points="0,-102.5 0,-120.5 55.4629,-120.5 55.4629,-102.5 0,-102.5"/>
<text text-anchor="middle" x="27.7314" y="-108.5" font-family="Helvetica,sans-Serif" font-size="10.00" fill="#000000">SaveGrd</text>
</g>
<!-- Node2 -->
<g id="node2" class="node">
<title>Node2</title>
<g id="a_node2"><a xlink:href="Conti2D_8h_ab87ce573de93575b7ece2e4f772e03fd.html#ab87ce573de93575b7ece2e4f772e03fd" target="_top" xlink:title="DWC_p2p">
<polygon fill="#ffffff" stroke="#000000" points="202.1006,-201.5 202.1006,-219.5 264.2285,-219.5 264.2285,-201.5 202.1006,-201.5"/>
<text text-anchor="middle" x="233.1646" y="-207.5" font-family="Helvetica,sans-Serif" font-size="10.00" fill="#000000">DWC_p2p</text>
</a>
</g>
</g>
<!-- Node1&#45;&gt;Node2 -->
<g id="edge1" class="edge">
<title>Node1&#45;&gt;Node2</title>
<path fill="none" stroke="#191970" d="M46.4204,-127.4958C58.6435,-137.3823 75.2906,-149.7995 91.4629,-158.5 127.5791,-177.93 172.4946,-193.0373 201.9535,-201.8457"/>
<polygon fill="#191970" stroke="#191970" points="48.3069,-124.5139 38.3719,-120.8335 43.8434,-129.9062 48.3069,-124.5139"/>
</g>
<!-- Node4 -->
<g id="node4" class="node">
<title>Node4</title>
<g id="a_node4"><a xlink:href="Conti2D_8h_afb187c363388d28caa8a055176269f12.html#afb187c363388d28caa8a055176269f12" target="_top" xlink:title="DWC_p2p_f">
<polygon fill="#ffffff" stroke="#000000" points="197.9307,-114.5 197.9307,-132.5 268.3984,-132.5 268.3984,-114.5 197.9307,-114.5"/>
<text text-anchor="middle" x="233.1646" y="-120.5" font-family="Helvetica,sans-Serif" font-size="10.00" fill="#000000">DWC_p2p_f</text>
</a>
</g>
</g>
<!-- Node1&#45;&gt;Node4 -->
<g id="edge3" class="edge">
<title>Node1&#45;&gt;Node4</title>
<path fill="none" stroke="#191970" d="M65.6088,-117.6051C74.095,-118.7618 83.0695,-119.8209 91.4629,-120.5 127.6393,-123.4268 169.1693,-123.9769 197.8741,-123.9174"/>
<polygon fill="#191970" stroke="#191970" points="65.9675,-114.1208 55.5717,-116.1649 64.9732,-121.0499 65.9675,-114.1208"/>
</g>
<!-- Node5 -->
<g id="node5" class="node">
<title>Node5</title>
<g id="a_node5"><a xlink:href="Conti2D_8h_ac96429563a5015babafa3274c3f3ec73.html#ac96429563a5015babafa3274c3f3ec73" target="_top" xlink:title="downward continuation from surface to plane ">
<polygon fill="#ffffff" stroke="#000000" points="202.3813,-159.5 202.3813,-177.5 263.9478,-177.5 263.9478,-159.5 202.3813,-159.5"/>
<text text-anchor="middle" x="233.1646" y="-165.5" font-family="Helvetica,sans-Serif" font-size="10.00" fill="#000000">DWC_s2p</text>
</a>
</g>
</g>
<!-- Node1&#45;&gt;Node5 -->
<g id="edge5" class="edge">
<title>Node1&#45;&gt;Node5</title>
<path fill="none" stroke="#191970" d="M58.9823,-124.2035C69.2334,-128.1184 80.7454,-132.2494 91.4629,-135.5 129.0503,-146.9002 173.2573,-156.6267 202.1738,-162.5065"/>
<polygon fill="#191970" stroke="#191970" points="60.1957,-120.9201 49.6073,-120.5522 57.6552,-127.4428 60.1957,-120.9201"/>
</g>
<!-- Node6 -->
<g id="node6" class="node">
<title>Node6</title>
<g id="a_node6"><a xlink:href="Conti2D_8h_a7b6bfe9f5b32bc1a62005196d84edfde.html#a7b6bfe9f5b32bc1a62005196d84edfde" target="_top" xlink:title="UWC_p2p">
<polygon fill="#ffffff" stroke="#000000" points="95.6328,-37.5 95.6328,-55.5 157.7607,-55.5 157.7607,-37.5 95.6328,-37.5"/>
<text text-anchor="middle" x="126.6968" y="-43.5" font-family="Helvetica,sans-Serif" font-size="10.00" fill="#000000">UWC_p2p</text>
</a>
</g>
</g>
<!-- Node1&#45;&gt;Node6 -->
<g id="edge7" class="edge">
<title>Node1&#45;&gt;Node6</title>
<path fill="none" stroke="#191970" d="M47.8248,-95.9623C60.1427,-86.7007 76.3905,-74.947 91.4629,-65.5 96.9982,-62.0306 103.219,-58.5473 108.8756,-55.5282"/>
<polygon fill="#191970" stroke="#191970" points="45.4659,-93.359 39.6231,-102.1971 49.7022,-98.9317 45.4659,-93.359"/>
</g>
<!-- Node7 -->
<g id="node7" class="node">
<title>Node7</title>
<g id="a_node7"><a xlink:href="Conti2D_8h_af82757cb7e0f4f398e774b4e89b9ea72.html#af82757cb7e0f4f398e774b4e89b9ea72" target="_top" xlink:title="UWC_p2p_f">
<polygon fill="#ffffff" stroke="#000000" points="91.4629,-74.5 91.4629,-92.5 161.9307,-92.5 161.9307,-74.5 91.4629,-74.5"/>
<text text-anchor="middle" x="126.6968" y="-80.5" font-family="Helvetica,sans-Serif" font-size="10.00" fill="#000000">UWC_p2p_f</text>
</a>
</g>
</g>
<!-- Node1&#45;&gt;Node7 -->
<g id="edge9" class="edge">
<title>Node1&#45;&gt;Node7</title>
<path fill="none" stroke="#191970" d="M65.3006,-100.8706C74.9316,-98.1458 85.2027,-95.2398 94.5335,-92.5999"/>
<polygon fill="#191970" stroke="#191970" points="64.2316,-97.5356 55.5622,-103.6259 66.1373,-104.2712 64.2316,-97.5356"/>
</g>
<!-- Node8 -->
<g id="node8" class="node">
<title>Node8</title>
<g id="a_node8"><a xlink:href="Conti2D_8h_af8adb87017663774bfd342b39facc828.html#af8adb87017663774bfd342b39facc828" target="_top" xlink:title="Upward continuation from plane to surface. ">
<polygon fill="#ffffff" stroke="#000000" points="95.9136,-.5 95.9136,-18.5 157.48,-18.5 157.48,-.5 95.9136,-.5"/>
<text text-anchor="middle" x="126.6968" y="-6.5" font-family="Helvetica,sans-Serif" font-size="10.00" fill="#000000">UWC_p2s</text>
</a>
</g>
</g>
<!-- Node1&#45;&gt;Node8 -->
<g id="edge13" class="edge">
<title>Node1&#45;&gt;Node8</title>
<path fill="none" stroke="#191970" d="M38.0225,-93.5075C49.2666,-75.0837 68.7384,-46.5254 91.4629,-27.5 95.571,-24.0606 100.4467,-21.0461 105.2408,-18.5168"/>
<polygon fill="#191970" stroke="#191970" points="34.8726,-91.9575 32.7861,-102.3449 40.8948,-95.5259 34.8726,-91.9575"/>
</g>
<!-- Node3 -->
<g id="node3" class="node">
<title>Node3</title>
<g id="a_node3"><a xlink:href="main_8cpp_a0ddf1224851353fc92bfbff6f499fa97.html#a0ddf1224851353fc92bfbff6f499fa97" target="_top" xlink:title="main">
<polygon fill="#ffffff" stroke="#000000" points="304.3984,-95.5 304.3984,-113.5 342.0732,-113.5 342.0732,-95.5 304.3984,-95.5"/>
<text text-anchor="middle" x="323.2358" y="-101.5" font-family="Helvetica,sans-Serif" font-size="10.00" fill="#000000">main</text>
</a>
</g>
</g>
<!-- Node2&#45;&gt;Node3 -->
<g id="edge2" class="edge">
<title>Node2&#45;&gt;Node3</title>
<path fill="none" stroke="#191970" d="M258.6069,-195.7189C262.0765,-193.1928 265.4525,-190.4297 268.3984,-187.5 291.6657,-164.3609 310.6024,-129.849 318.8201,-113.5918"/>
<polygon fill="#191970" stroke="#191970" points="256.3602,-193.0101 249.981,-201.4693 260.243,-198.8346 256.3602,-193.0101"/>
</g>
<!-- Node4&#45;&gt;Node3 -->
<g id="edge4" class="edge">
<title>Node4&#45;&gt;Node3</title>
<path fill="none" stroke="#191970" d="M278.3844,-113.9611C287.5519,-112.0273 296.7092,-110.0956 304.3368,-108.4866"/>
<polygon fill="#191970" stroke="#191970" points="277.5668,-110.5565 268.5046,-116.0452 279.0117,-117.4058 277.5668,-110.5565"/>
</g>
<!-- Node5&#45;&gt;Node3 -->
<g id="edge6" class="edge">
<title>Node5&#45;&gt;Node3</title>
<path fill="none" stroke="#191970" d="M254.4645,-153.3654C271.8287,-141.0273 295.7841,-124.0058 310.3548,-113.6526"/>
<polygon fill="#191970" stroke="#191970" points="252.194,-150.685 246.0696,-159.3304 256.2486,-156.3912 252.194,-150.685"/>
</g>
<!-- Node6&#45;&gt;Node3 -->
<g id="edge8" class="edge">
<title>Node6&#45;&gt;Node3</title>
<path fill="none" stroke="#191970" d="M167.9287,-58.2068C196.2342,-66.2982 234.6415,-77.3849 268.3984,-87.5 280.3334,-91.0762 293.6873,-95.2132 304.2291,-98.5106"/>
<polygon fill="#191970" stroke="#191970" points="168.5613,-54.7477 157.9846,-55.3687 166.64,-61.4789 168.5613,-54.7477"/>
</g>
<!-- Node7&#45;&gt;Node3 -->
<g id="edge11" class="edge">
<title>Node7&#45;&gt;Node3</title>
<path fill="none" stroke="#191970" d="M172.2415,-88.3664C214.0809,-92.8369 274.0355,-99.243 304.2661,-102.4731"/>
<polygon fill="#191970" stroke="#191970" points="172.6038,-84.8853 162.2885,-87.3029 171.86,-91.8457 172.6038,-84.8853"/>
</g>
<!-- Node7&#45;&gt;Node4 -->
<g id="edge10" class="edge">
<title>Node7&#45;&gt;Node4</title>
<path fill="none" stroke="#191970" d="M160.3105,-96.1287C176.1525,-102.0806 194.6898,-109.045 209.101,-114.4593"/>
<polygon fill="#191970" stroke="#191970" points="161.4481,-92.8173 150.856,-92.5766 158.9861,-99.3701 161.4481,-92.8173"/>
</g>
<!-- Node7&#45;&gt;Node7 -->
<g id="edge12" class="edge">
<title>Node7&#45;&gt;Node7</title>
<path fill="none" stroke="#191970" d="M108.4095,-101.8575C109.1974,-107.0281 115.2932,-111 126.6968,-111 144.4976,-111 149.365,-101.322 141.299,-92.5134"/>
<polygon fill="#191970" stroke="#191970" points="111.6817,-103.1002 112.0946,-92.5134 105.1698,-100.532 111.6817,-103.1002"/>
</g>
<!-- Node8&#45;&gt;Node3 -->
<g id="edge14" class="edge">
<title>Node8&#45;&gt;Node3</title>
<path fill="none" stroke="#191970" d="M167.5243,-21.2242C196.6188,-30.4151 236.1289,-44.6291 268.3984,-62.5 285.3932,-71.9118 302.8387,-86.2307 313.3589,-95.4773"/>
<polygon fill="#191970" stroke="#191970" points="168.2842,-17.7958 157.6965,-18.185 166.2161,-24.4833 168.2842,-17.7958"/>
</g>
</g>
</svg>
