<?xml version="1.0" encoding="UTF-8" standalone="no"?>
<!DOCTYPE svg PUBLIC "-//W3C//DTD SVG 1.1//EN"
 "http://www.w3.org/Graphics/SVG/1.1/DTD/svg11.dtd">
<!-- Generated by graphviz version 2.40.1 (20161225.0304)
 -->
<!-- Title: Path_GetExtName Pages: 1 -->
<svg width="394pt" height="187pt"
 viewBox="0.00 0.00 393.98 187.00" xmlns="http://www.w3.org/2000/svg" xmlns:xlink="http://www.w3.org/1999/xlink">
<g id="graph0" class="graph" transform="scale(1 1) rotate(0) translate(4 183)">
<title>Path_GetExtName</title>
<polygon fill="#ffffff" stroke="transparent" points="-4,4 -4,-183 389.9844,-183 389.9844,4 -4,4"/>
<!-- Node1 -->
<g id="node1" class="node">
<title>Node1</title>
<polygon fill="#bfbfbf" stroke="#000000" points="0,-76.5 0,-94.5 99.374,-94.5 99.374,-76.5 0,-76.5"/>
<text text-anchor="middle" x="49.687" y="-82.5" font-family="Helvetica,sans-Serif" font-size="10.00" fill="#000000">Path_GetExtName</text>
</g>
<!-- Node2 -->
<g id="node2" class="node">
<title>Node2</title>
<g id="a_node2"><a xlink:href="Conti2D_8h_afb187c363388d28caa8a055176269f12.html#afb187c363388d28caa8a055176269f12" target="_top" xlink:title="DWC_p2p_f">
<polygon fill="#ffffff" stroke="#000000" points="241.8418,-114.5 241.8418,-132.5 312.3096,-132.5 312.3096,-114.5 241.8418,-114.5"/>
<text text-anchor="middle" x="277.0757" y="-120.5" font-family="Helvetica,sans-Serif" font-size="10.00" fill="#000000">DWC_p2p_f</text>
</a>
</g>
</g>
<!-- Node1&#45;&gt;Node2 -->
<g id="edge1" class="edge">
<title>Node1&#45;&gt;Node2</title>
<path fill="none" stroke="#191970" d="M74.5167,-99.3864C91.1676,-107.8909 113.9005,-117.9828 135.374,-122.5 171.0046,-129.9953 212.798,-129.1584 241.7198,-127.1182"/>
<polygon fill="#191970" stroke="#191970" points="75.9494,-96.185 65.4713,-94.6166 72.6843,-102.3769 75.9494,-96.185"/>
</g>
<!-- Node4 -->
<g id="node4" class="node">
<title>Node4</title>
<g id="a_node4"><a xlink:href="Conti2D_8h_ac96429563a5015babafa3274c3f3ec73.html#ac96429563a5015babafa3274c3f3ec73" target="_top" xlink:title="downward continuation from surface to plane ">
<polygon fill="#ffffff" stroke="#000000" points="246.2925,-160.5 246.2925,-178.5 307.8589,-178.5 307.8589,-160.5 246.2925,-160.5"/>
<text text-anchor="middle" x="277.0757" y="-166.5" font-family="Helvetica,sans-Serif" font-size="10.00" fill="#000000">DWC_s2p</text>
</a>
</g>
</g>
<!-- Node1&#45;&gt;Node4 -->
<g id="edge3" class="edge">
<title>Node1&#45;&gt;Node4</title>
<path fill="none" stroke="#191970" d="M69.5263,-100.8752C86.2204,-113.0837 111.1781,-129.6817 135.374,-139.5 171.8401,-154.2973 216.6777,-162.2142 246.0232,-166.1331"/>
<polygon fill="#191970" stroke="#191970" points="71.2631,-97.8035 61.1594,-94.6153 67.0697,-103.4084 71.2631,-97.8035"/>
</g>
<!-- Node5 -->
<g id="node5" class="node">
<title>Node5</title>
<g id="a_node5"><a xlink:href="Conti2D_8h_a7b6bfe9f5b32bc1a62005196d84edfde.html#a7b6bfe9f5b32bc1a62005196d84edfde" target="_top" xlink:title="UWC_p2p">
<polygon fill="#ffffff" stroke="#000000" points="246.0117,-38.5 246.0117,-56.5 308.1396,-56.5 308.1396,-38.5 246.0117,-38.5"/>
<text text-anchor="middle" x="277.0757" y="-44.5" font-family="Helvetica,sans-Serif" font-size="10.00" fill="#000000">UWC_p2p</text>
</a>
</g>
</g>
<!-- Node1&#45;&gt;Node5 -->
<g id="edge5" class="edge">
<title>Node1&#45;&gt;Node5</title>
<path fill="none" stroke="#191970" d="M96.8457,-74.2896C109.33,-71.5288 122.8256,-68.7284 135.374,-66.5 173.2542,-59.7732 217.2106,-54.2269 245.9987,-50.8976"/>
<polygon fill="#191970" stroke="#191970" points="96.0764,-70.8751 87.0878,-76.4836 97.612,-77.7046 96.0764,-70.8751"/>
</g>
<!-- Node6 -->
<g id="node6" class="node">
<title>Node6</title>
<g id="a_node6"><a xlink:href="Conti2D_8h_af82757cb7e0f4f398e774b4e89b9ea72.html#af82757cb7e0f4f398e774b4e89b9ea72" target="_top" xlink:title="UWC_p2p_f">
<polygon fill="#ffffff" stroke="#000000" points="135.374,-76.5 135.374,-94.5 205.8418,-94.5 205.8418,-76.5 135.374,-76.5"/>
<text text-anchor="middle" x="170.6079" y="-82.5" font-family="Helvetica,sans-Serif" font-size="10.00" fill="#000000">UWC_p2p_f</text>
</a>
</g>
</g>
<!-- Node1&#45;&gt;Node6 -->
<g id="edge7" class="edge">
<title>Node1&#45;&gt;Node6</title>
<path fill="none" stroke="#191970" d="M109.7603,-85.5C118.4837,-85.5 127.2179,-85.5 135.2363,-85.5"/>
<polygon fill="#191970" stroke="#191970" points="109.5683,-82.0001 99.5683,-85.5 109.5683,-89.0001 109.5683,-82.0001"/>
</g>
<!-- Node7 -->
<g id="node7" class="node">
<title>Node7</title>
<g id="a_node7"><a xlink:href="Conti2D_8h_af8adb87017663774bfd342b39facc828.html#af8adb87017663774bfd342b39facc828" target="_top" xlink:title="Upward continuation from plane to surface. ">
<polygon fill="#ffffff" stroke="#000000" points="139.8247,-.5 139.8247,-18.5 201.3911,-18.5 201.3911,-.5 139.8247,-.5"/>
<text text-anchor="middle" x="170.6079" y="-6.5" font-family="Helvetica,sans-Serif" font-size="10.00" fill="#000000">UWC_p2s</text>
</a>
</g>
</g>
<!-- Node1&#45;&gt;Node7 -->
<g id="edge11" class="edge">
<title>Node1&#45;&gt;Node7</title>
<path fill="none" stroke="#191970" d="M72.7407,-71.0105C97.3745,-55.5279 135.6552,-31.4681 156.2805,-18.5049"/>
<polygon fill="#191970" stroke="#191970" points="70.6372,-68.1987 64.0331,-76.4834 74.3622,-74.1253 70.6372,-68.1987"/>
</g>
<!-- Node3 -->
<g id="node3" class="node">
<title>Node3</title>
<g id="a_node3"><a xlink:href="main_8cpp_a0ddf1224851353fc92bfbff6f499fa97.html#a0ddf1224851353fc92bfbff6f499fa97" target="_top" xlink:title="main">
<polygon fill="#ffffff" stroke="#000000" points="348.3096,-76.5 348.3096,-94.5 385.9844,-94.5 385.9844,-76.5 348.3096,-76.5"/>
<text text-anchor="middle" x="367.147" y="-82.5" font-family="Helvetica,sans-Serif" font-size="10.00" fill="#000000">main</text>
</a>
</g>
</g>
<!-- Node2&#45;&gt;Node3 -->
<g id="edge2" class="edge">
<title>Node2&#45;&gt;Node3</title>
<path fill="none" stroke="#191970" d="M307.7505,-110.5587C321.1279,-104.9149 336.3934,-98.4746 348.0985,-93.5363"/>
<polygon fill="#191970" stroke="#191970" points="306.2744,-107.3826 298.4213,-114.4945 308.9954,-113.8321 306.2744,-107.3826"/>
</g>
<!-- Node4&#45;&gt;Node3 -->
<g id="edge4" class="edge">
<title>Node4&#45;&gt;Node3</title>
<path fill="none" stroke="#191970" d="M298.0819,-154.2299C302.8701,-150.5244 307.8562,-146.4798 312.3096,-142.5 329.9209,-126.7617 348.6215,-106.441 358.9976,-94.8001"/>
<polygon fill="#191970" stroke="#191970" points="295.7137,-151.632 289.8349,-160.4463 299.9272,-157.2219 295.7137,-151.632"/>
</g>
<!-- Node5&#45;&gt;Node3 -->
<g id="edge6" class="edge">
<title>Node5&#45;&gt;Node3</title>
<path fill="none" stroke="#191970" d="M307.7505,-60.4413C321.1279,-66.0851 336.3934,-72.5254 348.0985,-77.4637"/>
<polygon fill="#191970" stroke="#191970" points="308.9954,-57.1679 298.4213,-56.5055 306.2744,-63.6174 308.9954,-57.1679"/>
</g>
<!-- Node6&#45;&gt;Node2 -->
<g id="edge9" class="edge">
<title>Node6&#45;&gt;Node2</title>
<path fill="none" stroke="#191970" d="M205.3682,-97.9065C220.4557,-103.2915 237.8034,-109.4831 251.6565,-114.4275"/>
<polygon fill="#191970" stroke="#191970" points="206.4339,-94.5707 195.8393,-94.5055 204.0809,-101.1633 206.4339,-94.5707"/>
</g>
<!-- Node6&#45;&gt;Node3 -->
<g id="edge10" class="edge">
<title>Node6&#45;&gt;Node3</title>
<path fill="none" stroke="#191970" d="M216.4183,-85.5C258.2454,-85.5 318.0105,-85.5 348.1772,-85.5"/>
<polygon fill="#191970" stroke="#191970" points="216.1997,-82.0001 206.1997,-85.5 216.1996,-89.0001 216.1997,-82.0001"/>
</g>
<!-- Node6&#45;&gt;Node6 -->
<g id="edge8" class="edge">
<title>Node6&#45;&gt;Node6</title>
<path fill="none" stroke="#191970" d="M150.8278,-103.8575C151.68,-109.0281 158.2734,-113 170.6079,-113 189.8618,-113 195.1266,-103.322 186.4021,-94.5134"/>
<polygon fill="#191970" stroke="#191970" points="154.1093,-105.0848 154.8137,-94.5134 147.6706,-102.3382 154.1093,-105.0848"/>
</g>
<!-- Node7&#45;&gt;Node3 -->
<g id="edge12" class="edge">
<title>Node7&#45;&gt;Node3</title>
<path fill="none" stroke="#191970" d="M211.9792,-7.9842C241.4338,-8.5403 281.1532,-12.7124 312.3096,-28.5 334.3579,-39.6724 352.5115,-63.3135 361.347,-76.3658"/>
<polygon fill="#191970" stroke="#191970" points="211.6456,-4.4824 201.6267,-7.9281 211.6076,-11.4823 211.6456,-4.4824"/>
</g>
</g>
</svg>
