<?xml version="1.0" encoding="UTF-8" standalone="no"?>
<!DOCTYPE svg PUBLIC "-//W3C//DTD SVG 1.1//EN"
 "http://www.w3.org/Graphics/SVG/1.1/DTD/svg11.dtd">
<!-- Generated by graphviz version 2.40.1 (20161225.0304)
 -->
<!-- Title: DWC_p2p_ItegrationIter Pages: 1 -->
<svg width="298pt" height="212pt"
 viewBox="0.00 0.00 298.32 212.00" xmlns="http://www.w3.org/2000/svg" xmlns:xlink="http://www.w3.org/1999/xlink">
<g id="graph0" class="graph" transform="scale(1 1) rotate(0) translate(4 208)">
<title>DWC_p2p_ItegrationIter</title>
<polygon fill="#ffffff" stroke="transparent" points="-4,4 -4,-208 294.3242,-208 294.3242,4 -4,4"/>
<!-- Node0 -->
<g id="node1" class="node">
<title>Node0</title>
<polygon fill="#bfbfbf" stroke="#000000" points="0,-92.5 0,-110.5 123.832,-110.5 123.832,-92.5 0,-92.5"/>
<text text-anchor="middle" x="61.916" y="-98.5" font-family="Helvetica,sans-Serif" font-size="10.00" fill="#000000">DWC_p2p_ItegrationIter</text>
</g>
<!-- Node1 -->
<g id="node2" class="node">
<title>Node1</title>
<g id="a_node2"><a xlink:href="Conti2D_8cpp_a98827c14ed7072c96834f20205c7a916.html#a98827c14ed7072c96834f20205c7a916" target="_top" xlink:title="Norm2">
<polygon fill="#ffffff" stroke="#000000" points="202.0757,-185.5 202.0757,-203.5 248.0806,-203.5 248.0806,-185.5 202.0757,-185.5"/>
<text text-anchor="middle" x="225.0781" y="-191.5" font-family="Helvetica,sans-Serif" font-size="10.00" fill="#000000">Norm2</text>
</a>
</g>
</g>
<!-- Node0&#45;&gt;Node1 -->
<g id="edge1" class="edge">
<title>Node0&#45;&gt;Node1</title>
<path fill="none" stroke="#191970" d="M71.0795,-110.5202C87.4934,-126.1893 123.5936,-158.482 159.832,-176.5 169.8787,-181.4953 181.5078,-185.2683 192.1411,-188.036"/>
<polygon fill="#191970" stroke="#191970" points="191.4062,-191.4589 201.9468,-190.3886 193.0393,-184.6521 191.4062,-191.4589"/>
</g>
<!-- Node2 -->
<g id="node3" class="node">
<title>Node2</title>
<g id="a_node3"><a xlink:href="Conti2D_8cpp_a43fc3af75243a047d61aadea31c0fa9c.html#a43fc3af75243a047d61aadea31c0fa9c" target="_top" xlink:title="Get 2nd norm of the gradient of a grid data. ">
<polygon fill="#ffffff" stroke="#000000" points="180.1177,-148.5 180.1177,-166.5 270.0386,-166.5 270.0386,-148.5 180.1177,-148.5"/>
<text text-anchor="middle" x="225.0781" y="-154.5" font-family="Helvetica,sans-Serif" font-size="10.00" fill="#000000">Norm2_Gradient</text>
</a>
</g>
</g>
<!-- Node0&#45;&gt;Node2 -->
<g id="edge2" class="edge">
<title>Node0&#45;&gt;Node2</title>
<path fill="none" stroke="#191970" d="M83.466,-110.5875C103.155,-118.7161 133.1736,-130.6749 159.832,-139.5 166.2777,-141.6338 173.1375,-143.7213 179.8963,-145.6748"/>
<polygon fill="#191970" stroke="#191970" points="179.0916,-149.0844 189.6663,-148.4308 180.9921,-142.3473 179.0916,-149.0844"/>
</g>
<!-- Node3 -->
<g id="node4" class="node">
<title>Node3</title>
<g id="a_node4"><a xlink:href="Conti2D_8cpp_a88f10a86b8808047787d2df5e8cbcb72.html#a88f10a86b8808047787d2df5e8cbcb72" target="_top" xlink:title="从一个文件全路径中获取文件名称 ">
<polygon fill="#ffffff" stroke="#000000" points="174.5586,-111.5 174.5586,-129.5 275.5977,-129.5 275.5977,-111.5 174.5586,-111.5"/>
<text text-anchor="middle" x="225.0781" y="-117.5" font-family="Helvetica,sans-Serif" font-size="10.00" fill="#000000">Path_GetFileName</text>
</a>
</g>
</g>
<!-- Node0&#45;&gt;Node3 -->
<g id="edge3" class="edge">
<title>Node0&#45;&gt;Node3</title>
<path fill="none" stroke="#191970" d="M124.0661,-108.7373C137.2124,-110.2682 151.0735,-111.8823 164.1731,-113.4077"/>
<polygon fill="#191970" stroke="#191970" points="164.1495,-116.9285 174.4873,-114.6088 164.9593,-109.9755 164.1495,-116.9285"/>
</g>
<!-- Node4 -->
<g id="node5" class="node">
<title>Node4</title>
<g id="a_node5"><a xlink:href="Conti2D_8cpp_a6334abab105b1fe7efa9a3e2a4b07c47.html#a6334abab105b1fe7efa9a3e2a4b07c47" target="_top" xlink:title="Save results of at each iteration step as vtk file. ">
<polygon fill="#ffffff" stroke="#000000" points="184.8418,-74.5 184.8418,-92.5 265.3145,-92.5 265.3145,-74.5 184.8418,-74.5"/>
<text text-anchor="middle" x="225.0781" y="-80.5" font-family="Helvetica,sans-Serif" font-size="10.00" fill="#000000">SaveGrd2VTK</text>
</a>
</g>
</g>
<!-- Node0&#45;&gt;Node4 -->
<g id="edge4" class="edge">
<title>Node0&#45;&gt;Node4</title>
<path fill="none" stroke="#191970" d="M124.0661,-94.6436C140.7619,-92.8017 158.6106,-90.8327 174.5883,-89.07"/>
<polygon fill="#191970" stroke="#191970" points="175.2309,-92.5205 184.7868,-87.9449 174.4633,-85.5627 175.2309,-92.5205"/>
</g>
<!-- Node5 -->
<g id="node6" class="node">
<title>Node5</title>
<g id="a_node6"><a xlink:href="classMultiProgressBar_a58eef55ad6d5c7d769b3a402a2ef7b85.html#a58eef55ad6d5c7d769b3a402a2ef7b85" target="_top" xlink:title="MultiProgressBar::Update">
<polygon fill="#ffffff" stroke="#000000" points="159.832,-37.5 159.832,-55.5 290.3242,-55.5 290.3242,-37.5 159.832,-37.5"/>
<text text-anchor="middle" x="225.0781" y="-43.5" font-family="Helvetica,sans-Serif" font-size="10.00" fill="#000000">MultiProgressBar::Update</text>
</a>
</g>
</g>
<!-- Node0&#45;&gt;Node5 -->
<g id="edge5" class="edge">
<title>Node0&#45;&gt;Node5</title>
<path fill="none" stroke="#191970" d="M85.1027,-92.462C104.8438,-84.8908 134.0251,-73.9905 159.832,-65.5 167.1569,-63.0901 174.9944,-60.6723 182.6055,-58.4077"/>
<polygon fill="#191970" stroke="#191970" points="183.806,-61.7031 192.4183,-55.5324 181.8376,-54.9856 183.806,-61.7031"/>
</g>
<!-- Node6 -->
<g id="node7" class="node">
<title>Node6</title>
<g id="a_node7"><a xlink:href="Conti2D_8cpp_a632c1e4efbb7e9b1aaf04db729e69394.html#a632c1e4efbb7e9b1aaf04db729e69394" target="_top" xlink:title="UWC_Gij">
<polygon fill="#ffffff" stroke="#000000" points="196.2456,-.5 196.2456,-18.5 253.9106,-18.5 253.9106,-.5 196.2456,-.5"/>
<text text-anchor="middle" x="225.0781" y="-6.5" font-family="Helvetica,sans-Serif" font-size="10.00" fill="#000000">UWC_Gij</text>
</a>
</g>
</g>
<!-- Node0&#45;&gt;Node6 -->
<g id="edge6" class="edge">
<title>Node0&#45;&gt;Node6</title>
<path fill="none" stroke="#191970" d="M71.6858,-92.301C88.4521,-76.9791 124.3381,-46.1741 159.832,-28.5 168.0424,-24.4117 177.2833,-21.0542 186.1715,-18.3607"/>
<polygon fill="#191970" stroke="#191970" points="187.3059,-21.6775 195.9831,-15.5983 185.4088,-14.9395 187.3059,-21.6775"/>
</g>
</g>
</svg>
