<?xml version="1.0" encoding="UTF-8" standalone="no"?>
<!DOCTYPE svg PUBLIC "-//W3C//DTD SVG 1.1//EN"
 "http://www.w3.org/Graphics/SVG/1.1/DTD/svg11.dtd">
<!-- Generated by graphviz version 2.40.1 (20161225.0304)
 -->
<!-- Title: SaveGrd2VTK_topo Pages: 1 -->
<svg width="285pt" height="27pt"
 viewBox="0.00 0.00 284.74 27.00" xmlns="http://www.w3.org/2000/svg" xmlns:xlink="http://www.w3.org/1999/xlink">
<g id="graph0" class="graph" transform="scale(1 1) rotate(0) translate(4 23)">
<title>SaveGrd2VTK_topo</title>
<polygon fill="#ffffff" stroke="transparent" points="-4,4 -4,-23 280.7383,-23 280.7383,4 -4,4"/>
<!-- Node1 -->
<g id="node1" class="node">
<title>Node1</title>
<polygon fill="#bfbfbf" stroke="#000000" points="0,-.5 0,-18.5 105.4971,-18.5 105.4971,-.5 0,-.5"/>
<text text-anchor="middle" x="52.7485" y="-6.5" font-family="Helvetica,sans-Serif" font-size="10.00" fill="#000000">SaveGrd2VTK_topo</text>
</g>
<!-- Node2 -->
<g id="node2" class="node">
<title>Node2</title>
<g id="a_node2"><a xlink:href="Conti2D_8h_ac96429563a5015babafa3274c3f3ec73.html#ac96429563a5015babafa3274c3f3ec73" target="_top" xlink:title="downward continuation from surface to plane ">
<polygon fill="#ffffff" stroke="#000000" points="141.4971,-.5 141.4971,-18.5 203.0635,-18.5 203.0635,-.5 141.4971,-.5"/>
<text text-anchor="middle" x="172.2803" y="-6.5" font-family="Helvetica,sans-Serif" font-size="10.00" fill="#000000">DWC_s2p</text>
</a>
</g>
</g>
<!-- Node1&#45;&gt;Node2 -->
<g id="edge1" class="edge">
<title>Node1&#45;&gt;Node2</title>
<path fill="none" stroke="#191970" d="M115.6265,-9.5C124.5766,-9.5 133.4333,-9.5 141.391,-9.5"/>
<polygon fill="#191970" stroke="#191970" points="115.5249,-6.0001 105.5248,-9.5 115.5248,-13.0001 115.5249,-6.0001"/>
</g>
<!-- Node3 -->
<g id="node3" class="node">
<title>Node3</title>
<g id="a_node3"><a xlink:href="main_8cpp_a0ddf1224851353fc92bfbff6f499fa97.html#a0ddf1224851353fc92bfbff6f499fa97" target="_top" xlink:title="main">
<polygon fill="#ffffff" stroke="#000000" points="239.0635,-.5 239.0635,-18.5 276.7383,-18.5 276.7383,-.5 239.0635,-.5"/>
<text text-anchor="middle" x="257.9009" y="-6.5" font-family="Helvetica,sans-Serif" font-size="10.00" fill="#000000">main</text>
</a>
</g>
</g>
<!-- Node2&#45;&gt;Node3 -->
<g id="edge2" class="edge">
<title>Node2&#45;&gt;Node3</title>
<path fill="none" stroke="#191970" d="M213.232,-9.5C222.2421,-9.5 231.3622,-9.5 238.9918,-9.5"/>
<polygon fill="#191970" stroke="#191970" points="213.1913,-6.0001 203.1913,-9.5 213.1912,-13.0001 213.1913,-6.0001"/>
</g>
</g>
</svg>
