<?xml version="1.0" encoding="UTF-8" standalone="no"?>
<!DOCTYPE svg PUBLIC "-//W3C//DTD SVG 1.1//EN"
 "http://www.w3.org/Graphics/SVG/1.1/DTD/svg11.dtd">
<!-- Generated by graphviz version 2.40.1 (20161225.0304)
 -->
<!-- Title: UWC_Gij Pages: 1 -->
<svg width="405pt" height="140pt"
 viewBox="0.00 0.00 405.09 140.00" xmlns="http://www.w3.org/2000/svg" xmlns:xlink="http://www.w3.org/1999/xlink">
<g id="graph0" class="graph" transform="scale(1 1) rotate(0) translate(4 136)">
<title>UWC_Gij</title>
<polygon fill="#ffffff" stroke="transparent" points="-4,4 -4,-136 401.0879,-136 401.0879,4 -4,4"/>
<!-- Node1 -->
<g id="node1" class="node">
<title>Node1</title>
<polygon fill="#bfbfbf" stroke="#000000" points="0,-57.5 0,-75.5 57.665,-75.5 57.665,-57.5 0,-57.5"/>
<text text-anchor="middle" x="28.8325" y="-63.5" font-family="Helvetica,sans-Serif" font-size="10.00" fill="#000000">UWC_Gij</text>
</g>
<!-- Node2 -->
<g id="node2" class="node">
<title>Node2</title>
<g id="a_node2"><a xlink:href="Conti2D_8h_a8affb7fb2246ce1c959f681fc7baaa05.html#a8affb7fb2246ce1c959f681fc7baaa05" target="_top" xlink:title="Calculate downward continuation from plane to plane using Landweber iteration method. ">
<polygon fill="#ffffff" stroke="#000000" points="93.665,-113.5 93.665,-131.5 225.2852,-131.5 225.2852,-113.5 93.665,-113.5"/>
<text text-anchor="middle" x="159.4751" y="-119.5" font-family="Helvetica,sans-Serif" font-size="10.00" fill="#000000">DWC_p2p_LandweberIter</text>
</a>
</g>
</g>
<!-- Node1&#45;&gt;Node2 -->
<g id="edge1" class="edge">
<title>Node1&#45;&gt;Node2</title>
<path fill="none" stroke="#191970" d="M50.7835,-81.3241C62.9995,-89.0637 78.7178,-98.2056 93.665,-104.5 101.9616,-107.9938 111.1323,-110.9995 119.9268,-113.4991"/>
<polygon fill="#191970" stroke="#191970" points="52.4889,-78.2584 42.1954,-75.7492 48.6775,-84.1298 52.4889,-78.2584"/>
</g>
<!-- Node3 -->
<g id="node3" class="node">
<title>Node3</title>
<g id="a_node3"><a xlink:href="Conti2D_8h_a30671331e25e6cfa739e77aec57b7f18.html#a30671331e25e6cfa739e77aec57b7f18" target="_top" xlink:title="Calculate downward continuation of potential field from surface to a plane. ">
<polygon fill="#ffffff" stroke="#000000" points="93.9458,-76.5 93.9458,-94.5 225.0044,-94.5 225.0044,-76.5 93.9458,-76.5"/>
<text text-anchor="middle" x="159.4751" y="-82.5" font-family="Helvetica,sans-Serif" font-size="10.00" fill="#000000">DWC_s2p_LandweberIter</text>
</a>
</g>
</g>
<!-- Node1&#45;&gt;Node3 -->
<g id="edge2" class="edge">
<title>Node1&#45;&gt;Node3</title>
<path fill="none" stroke="#191970" d="M67.909,-72.1831C77.2045,-73.535 87.3504,-75.0106 97.394,-76.4712"/>
<polygon fill="#191970" stroke="#191970" points="68.226,-68.6924 57.8263,-70.7167 67.2185,-75.6196 68.226,-68.6924"/>
</g>
<!-- Node7 -->
<g id="node7" class="node">
<title>Node7</title>
<g id="a_node7"><a xlink:href="Conti2D_8h_a05f1b014599cdda496e9bf781d4737d4.html#a05f1b014599cdda496e9bf781d4737d4" target="_top" xlink:title="Upward continuation: plane to plane(space domain) ">
<polygon fill="#ffffff" stroke="#000000" points="261.2852,-38.5 261.2852,-56.5 323.4131,-56.5 323.4131,-38.5 261.2852,-38.5"/>
<text text-anchor="middle" x="292.3491" y="-44.5" font-family="Helvetica,sans-Serif" font-size="10.00" fill="#000000">UWC_p2p</text>
</a>
</g>
</g>
<!-- Node1&#45;&gt;Node7 -->
<g id="edge7" class="edge">
<title>Node1&#45;&gt;Node7</title>
<path fill="none" stroke="#191970" d="M68.0487,-63.6724C120.5585,-59.8864 212.6775,-53.2445 260.8986,-49.7676"/>
<polygon fill="#191970" stroke="#191970" points="67.5096,-60.2021 57.7872,-64.4123 68.013,-67.184 67.5096,-60.2021"/>
</g>
<!-- Node8 -->
<g id="node8" class="node">
<title>Node8</title>
<g id="a_node8"><a xlink:href="Conti2D_8h_a9fcb7711c4e230ba259de4ed9be39ccd.html#a9fcb7711c4e230ba259de4ed9be39ccd" target="_top" xlink:title="Upward continuation: plane to surface(space domain) ">
<polygon fill="#ffffff" stroke="#000000" points="128.6919,-.5 128.6919,-18.5 190.2583,-18.5 190.2583,-.5 128.6919,-.5"/>
<text text-anchor="middle" x="159.4751" y="-6.5" font-family="Helvetica,sans-Serif" font-size="10.00" fill="#000000">UWC_p2s</text>
</a>
</g>
</g>
<!-- Node1&#45;&gt;Node8 -->
<g id="edge9" class="edge">
<title>Node1&#45;&gt;Node8</title>
<path fill="none" stroke="#191970" d="M54.2303,-52.6718C66.0573,-46.4669 80.4139,-39.2635 93.665,-33.5 106.1555,-28.0674 120.3133,-22.7945 132.2887,-18.5815"/>
<polygon fill="#191970" stroke="#191970" points="52.545,-49.6039 45.3571,-57.3874 55.8301,-55.7852 52.545,-49.6039"/>
</g>
<!-- Node4 -->
<g id="node4" class="node">
<title>Node4</title>
<g id="a_node4"><a xlink:href="Conti2D_8h_ac80c719a8192b6133df6ae172662e51a.html#ac80c719a8192b6133df6ae172662e51a" target="_top" xlink:title="Downward continuation: plane to plane(space domain) ">
<polygon fill="#ffffff" stroke="#000000" points="261.2852,-112.5 261.2852,-130.5 323.4131,-130.5 323.4131,-112.5 261.2852,-112.5"/>
<text text-anchor="middle" x="292.3491" y="-118.5" font-family="Helvetica,sans-Serif" font-size="10.00" fill="#000000">DWC_p2p</text>
</a>
</g>
</g>
<!-- Node3&#45;&gt;Node4 -->
<g id="edge3" class="edge">
<title>Node3&#45;&gt;Node4</title>
<path fill="none" stroke="#191970" d="M202.6621,-97.2008C221.7139,-102.3626 243.6848,-108.3152 261.1121,-113.0369"/>
<polygon fill="#191970" stroke="#191970" points="203.5721,-93.8212 193.0048,-94.5843 201.7416,-100.5777 203.5721,-93.8212"/>
</g>
<!-- Node6 -->
<g id="node6" class="node">
<title>Node6</title>
<g id="a_node6"><a xlink:href="Conti2D_8h_a07c876abe68bb0cbc0d3b412166f5e6a.html#a07c876abe68bb0cbc0d3b412166f5e6a" target="_top" xlink:title="Downward continuation: uneven surface to plane(space domain) ">
<polygon fill="#ffffff" stroke="#000000" points="261.5659,-75.5 261.5659,-93.5 323.1323,-93.5 323.1323,-75.5 261.5659,-75.5"/>
<text text-anchor="middle" x="292.3491" y="-81.5" font-family="Helvetica,sans-Serif" font-size="10.00" fill="#000000">DWC_s2p</text>
</a>
</g>
</g>
<!-- Node3&#45;&gt;Node6 -->
<g id="edge5" class="edge">
<title>Node3&#45;&gt;Node6</title>
<path fill="none" stroke="#191970" d="M235.2147,-84.93C244.4486,-84.8605 253.4379,-84.7928 261.4501,-84.7325"/>
<polygon fill="#191970" stroke="#191970" points="235.1069,-81.4306 225.1336,-85.0059 235.1597,-88.4304 235.1069,-81.4306"/>
</g>
<!-- Node5 -->
<g id="node5" class="node">
<title>Node5</title>
<g id="a_node5"><a xlink:href="main_8cpp_a0ddf1224851353fc92bfbff6f499fa97.html#a0ddf1224851353fc92bfbff6f499fa97" target="_top" xlink:title="main">
<polygon fill="#ffffff" stroke="#000000" points="359.4131,-56.5 359.4131,-74.5 397.0879,-74.5 397.0879,-56.5 359.4131,-56.5"/>
<text text-anchor="middle" x="378.2505" y="-62.5" font-family="Helvetica,sans-Serif" font-size="10.00" fill="#000000">main</text>
</a>
</g>
</g>
<!-- Node4&#45;&gt;Node5 -->
<g id="edge4" class="edge">
<title>Node4&#45;&gt;Node5</title>
<path fill="none" stroke="#191970" d="M317.452,-107.1887C319.4809,-105.9609 321.489,-104.7213 323.4131,-103.5 338.2773,-94.065 354.8226,-82.4375 365.8125,-74.5474"/>
<polygon fill="#191970" stroke="#191970" points="315.4526,-104.3046 308.6202,-112.4021 319.011,-110.3327 315.4526,-104.3046"/>
</g>
<!-- Node6&#45;&gt;Node5 -->
<g id="edge6" class="edge">
<title>Node6&#45;&gt;Node5</title>
<path fill="none" stroke="#191970" d="M333.1435,-75.4769C342.2778,-73.4566 351.5425,-71.4074 359.2794,-69.6961"/>
<polygon fill="#191970" stroke="#191970" points="332.3696,-72.0634 323.3615,-77.6406 333.8814,-78.8982 332.3696,-72.0634"/>
</g>
<!-- Node7&#45;&gt;Node5 -->
<g id="edge8" class="edge">
<title>Node7&#45;&gt;Node5</title>
<path fill="none" stroke="#191970" d="M333.7898,-56.1836C342.7007,-58.0508 351.6984,-59.9362 359.2461,-61.5178"/>
<polygon fill="#191970" stroke="#191970" points="334.3531,-52.7257 323.8478,-54.1003 332.9174,-59.5769 334.3531,-52.7257"/>
</g>
<!-- Node8&#45;&gt;Node5 -->
<g id="edge10" class="edge">
<title>Node8&#45;&gt;Node5</title>
<path fill="none" stroke="#191970" d="M200.4163,-8.9159C234.3573,-9.6725 283.3548,-13.6743 323.4131,-28.5 340.6463,-34.8781 357.7589,-47.7367 368.1699,-56.4837"/>
<polygon fill="#191970" stroke="#191970" points="200.4405,-5.416 190.3929,-8.7769 200.3433,-12.4153 200.4405,-5.416"/>
</g>
</g>
</svg>
