<?xml version="1.0" encoding="UTF-8" standalone="no"?>
<!DOCTYPE svg PUBLIC "-//W3C//DTD SVG 1.1//EN"
 "http://www.w3.org/Graphics/SVG/1.1/DTD/svg11.dtd">
<!-- Generated by graphviz version 2.40.1 (20161225.0304)
 -->
<!-- Title: UWC_p2p_f Pages: 1 -->
<svg width="152pt" height="45pt"
 viewBox="0.00 0.00 152.14 45.00" xmlns="http://www.w3.org/2000/svg" xmlns:xlink="http://www.w3.org/1999/xlink">
<g id="graph0" class="graph" transform="scale(1 1) rotate(0) translate(4 41)">
<title>UWC_p2p_f</title>
<polygon fill="#ffffff" stroke="transparent" points="-4,4 -4,-41 148.1426,-41 148.1426,4 -4,4"/>
<!-- Node9 -->
<g id="node1" class="node">
<title>Node9</title>
<polygon fill="#bfbfbf" stroke="#000000" points="0,-.5 0,-18.5 70.4678,-18.5 70.4678,-.5 0,-.5"/>
<text text-anchor="middle" x="35.2339" y="-6.5" font-family="Helvetica,sans-Serif" font-size="10.00" fill="#000000">UWC_p2p_f</text>
</g>
<!-- Node9&#45;&gt;Node9 -->
<g id="edge2" class="edge">
<title>Node9&#45;&gt;Node9</title>
<path fill="none" stroke="#191970" d="M18.5011,-28.2336C19.439,-33.2195 25.0166,-37 35.2339,-37 51.5815,-37 56.0516,-27.322 48.6441,-18.5134"/>
<polygon fill="#191970" stroke="#191970" points="21.901,-29.108 21.8237,-18.5134 15.2773,-26.8438 21.901,-29.108"/>
</g>
<!-- Node10 -->
<g id="node2" class="node">
<title>Node10</title>
<g id="a_node2"><a xlink:href="main_8cpp_a0ddf1224851353fc92bfbff6f499fa97.html#a0ddf1224851353fc92bfbff6f499fa97" target="_top" xlink:title="main">
<polygon fill="#ffffff" stroke="#000000" points="106.4678,-.5 106.4678,-18.5 144.1426,-18.5 144.1426,-.5 106.4678,-.5"/>
<text text-anchor="middle" x="125.3052" y="-6.5" font-family="Helvetica,sans-Serif" font-size="10.00" fill="#000000">main</text>
</a>
</g>
</g>
<!-- Node9&#45;&gt;Node10 -->
<g id="edge1" class="edge">
<title>Node9&#45;&gt;Node10</title>
<path fill="none" stroke="#191970" d="M80.7463,-9.5C89.8159,-9.5 98.8597,-9.5 106.4061,-9.5"/>
<polygon fill="#191970" stroke="#191970" points="80.574,-6.0001 70.5739,-9.5 80.5739,-13.0001 80.574,-6.0001"/>
</g>
</g>
</svg>
