<?xml version="1.0" encoding="UTF-8" standalone="no"?>
<!DOCTYPE svg PUBLIC "-//W3C//DTD SVG 1.1//EN"
 "http://www.w3.org/Graphics/SVG/1.1/DTD/svg11.dtd">
<!-- Generated by graphviz version 2.40.1 (20161225.0304)
 -->
<!-- Title: DWC_p2p_f Pages: 1 -->
<svg width="364pt" height="348pt"
 viewBox="0.00 0.00 363.66 348.00" xmlns="http://www.w3.org/2000/svg" xmlns:xlink="http://www.w3.org/1999/xlink">
<g id="graph0" class="graph" transform="scale(1 1) rotate(0) translate(4 344)">
<title>DWC_p2p_f</title>
<polygon fill="#ffffff" stroke="transparent" points="-4,4 -4,-344 359.6592,-344 359.6592,4 -4,4"/>
<!-- Node0 -->
<g id="node1" class="node">
<title>Node0</title>
<polygon fill="#bfbfbf" stroke="#000000" points="0,-169.5 0,-187.5 70.4678,-187.5 70.4678,-169.5 0,-169.5"/>
<text text-anchor="middle" x="35.2339" y="-175.5" font-family="Helvetica,sans-Serif" font-size="10.00" fill="#000000">DWC_p2p_f</text>
</g>
<!-- Node1 -->
<g id="node2" class="node">
<title>Node1</title>
<g id="a_node2"><a xlink:href="Conti2D_8cpp_a8d8d41669d98b597c959db5762cbb489.html#a8d8d41669d98b597c959db5762cbb489" target="_top" xlink:title="Get the kernel matrix using the new developed formula. ">
<polygon fill="#ffffff" stroke="#000000" points="106.4678,-321.5 106.4678,-339.5 218.6201,-339.5 218.6201,-321.5 106.4678,-321.5"/>
<text text-anchor="middle" x="162.5439" y="-327.5" font-family="Helvetica,sans-Serif" font-size="10.00" fill="#000000">GetKernalMatrix_new</text>
</a>
</g>
</g>
<!-- Node0&#45;&gt;Node1 -->
<g id="edge1" class="edge">
<title>Node0&#45;&gt;Node1</title>
<path fill="none" stroke="#191970" d="M37.9785,-187.5596C45.361,-210.5105 67.7465,-271.59 106.4678,-306.5 111.1647,-310.7346 116.7218,-314.2996 122.4822,-317.2769"/>
<polygon fill="#191970" stroke="#191970" points="121.0603,-320.4754 131.6071,-321.4836 123.991,-314.1184 121.0603,-320.4754"/>
</g>
<!-- Node2 -->
<g id="node3" class="node">
<title>Node2</title>
<g id="a_node3"><a xlink:href="Conti2D_8cpp_aaea96ecea3031c19d3ef88f6f1590d4a.html#aaea96ecea3031c19d3ef88f6f1590d4a" target="_top" xlink:title="Get file extension name from a full file path. ">
<polygon fill="#ffffff" stroke="#000000" points="255.4526,-279.5 255.4526,-297.5 354.8267,-297.5 354.8267,-279.5 255.4526,-279.5"/>
<text text-anchor="middle" x="305.1396" y="-285.5" font-family="Helvetica,sans-Serif" font-size="10.00" fill="#000000">Path_GetExtName</text>
</a>
</g>
</g>
<!-- Node0&#45;&gt;Node2 -->
<g id="edge2" class="edge">
<title>Node0&#45;&gt;Node2</title>
<path fill="none" stroke="#191970" d="M45.0364,-187.8694C58.0721,-199.8474 82.2923,-220.4712 106.4678,-232.5 150.5377,-254.4274 204.5123,-268.9463 245.075,-277.6941"/>
<polygon fill="#191970" stroke="#191970" points="244.5787,-281.1661 255.0844,-279.7947 246.0166,-274.3153 244.5787,-281.1661"/>
</g>
<!-- Node3 -->
<g id="node4" class="node">
<title>Node3</title>
<g id="a_node4"><a xlink:href="Conti2D_8cpp_a88f10a86b8808047787d2df5e8cbcb72.html#a88f10a86b8808047787d2df5e8cbcb72" target="_top" xlink:title="从一个文件全路径中获取文件名称 ">
<polygon fill="#ffffff" stroke="#000000" points="254.6201,-234.5 254.6201,-252.5 355.6592,-252.5 355.6592,-234.5 254.6201,-234.5"/>
<text text-anchor="middle" x="305.1396" y="-240.5" font-family="Helvetica,sans-Serif" font-size="10.00" fill="#000000">Path_GetFileName</text>
</a>
</g>
</g>
<!-- Node0&#45;&gt;Node3 -->
<g id="edge3" class="edge">
<title>Node0&#45;&gt;Node3</title>
<path fill="none" stroke="#191970" d="M54.4989,-187.6166C68.6158,-193.9802 88.3892,-202.2439 106.4678,-207.5 151.8303,-220.6887 204.4912,-229.9683 244.1945,-235.7995"/>
<polygon fill="#191970" stroke="#191970" points="243.859,-239.2871 254.255,-237.2442 244.854,-232.3582 243.859,-239.2871"/>
</g>
<!-- Node4 -->
<g id="node5" class="node">
<title>Node4</title>
<g id="a_node5"><a xlink:href="Conti2D_8cpp_a2c90cdea3ca11177ba34c14a3b0a00cb.html#a2c90cdea3ca11177ba34c14a3b0a00cb" target="_top" xlink:title="Read a Surfer Grid data from file. ">
<polygon fill="#ffffff" stroke="#000000" points="276.8516,-182.5 276.8516,-200.5 333.4277,-200.5 333.4277,-182.5 276.8516,-182.5"/>
<text text-anchor="middle" x="305.1396" y="-188.5" font-family="Helvetica,sans-Serif" font-size="10.00" fill="#000000">ReadGrd</text>
</a>
</g>
</g>
<!-- Node0&#45;&gt;Node4 -->
<g id="edge4" class="edge">
<title>Node0&#45;&gt;Node4</title>
<path fill="none" stroke="#191970" d="M70.5423,-186.8446C81.9398,-189.1598 94.6761,-191.3522 106.4678,-192.5 161.9319,-197.8987 226.5182,-196.0848 266.6216,-194.0119"/>
<polygon fill="#191970" stroke="#191970" points="266.9693,-197.4982 276.7623,-193.4549 266.5854,-190.5087 266.9693,-197.4982"/>
</g>
<!-- Node5 -->
<g id="node6" class="node">
<title>Node5</title>
<g id="a_node6"><a xlink:href="Conti2D_8cpp_ab76adf263893ac28772283c5a00b964c.html#ab76adf263893ac28772283c5a00b964c" target="_top" xlink:title="Save a Surfer Grid data to file. ">
<polygon fill="#ffffff" stroke="#000000" points="277.4082,-117.5 277.4082,-135.5 332.8711,-135.5 332.8711,-117.5 277.4082,-117.5"/>
<text text-anchor="middle" x="305.1396" y="-123.5" font-family="Helvetica,sans-Serif" font-size="10.00" fill="#000000">SaveGrd</text>
</a>
</g>
</g>
<!-- Node0&#45;&gt;Node5 -->
<g id="edge5" class="edge">
<title>Node0&#45;&gt;Node5</title>
<path fill="none" stroke="#191970" d="M70.5046,-177.5704C107.7683,-175.9584 168.0219,-171.5508 218.6201,-159.5 238.3055,-154.8116 259.55,-146.7554 276.061,-139.7768"/>
<polygon fill="#191970" stroke="#191970" points="277.8901,-142.7987 285.6736,-135.6107 275.1064,-136.376 277.8901,-142.7987"/>
</g>
<!-- Node6 -->
<g id="node7" class="node">
<title>Node6</title>
<g id="a_node7"><a xlink:href="Conti2D_8cpp_a95502a9bee4005071ea4fd3cb5e1c228.html#a95502a9bee4005071ea4fd3cb5e1c228" target="_top" xlink:title="SaveGrd2netCDF">
<polygon fill="#ffffff" stroke="#000000" points="257.4009,-77.5 257.4009,-95.5 352.8784,-95.5 352.8784,-77.5 257.4009,-77.5"/>
<text text-anchor="middle" x="305.1396" y="-83.5" font-family="Helvetica,sans-Serif" font-size="10.00" fill="#000000">SaveGrd2netCDF</text>
</a>
</g>
</g>
<!-- Node0&#45;&gt;Node6 -->
<g id="edge6" class="edge">
<title>Node0&#45;&gt;Node6</title>
<path fill="none" stroke="#191970" d="M40.7398,-169.4604C51.2213,-153.1752 75.7603,-119.235 106.4678,-104.5 150.3646,-83.4361 205.964,-80.0788 247.1742,-81.3329"/>
<polygon fill="#191970" stroke="#191970" points="247.1923,-84.8364 257.3255,-81.7432 247.475,-77.8421 247.1923,-84.8364"/>
</g>
<!-- Node7 -->
<g id="node8" class="node">
<title>Node7</title>
<g id="a_node8"><a xlink:href="Conti2D_8cpp_a6334abab105b1fe7efa9a3e2a4b07c47.html#a6334abab105b1fe7efa9a3e2a4b07c47" target="_top" xlink:title="Save results of at each iteration step as vtk file. ">
<polygon fill="#ffffff" stroke="#000000" points="264.9033,-37.5 264.9033,-55.5 345.376,-55.5 345.376,-37.5 264.9033,-37.5"/>
<text text-anchor="middle" x="305.1396" y="-43.5" font-family="Helvetica,sans-Serif" font-size="10.00" fill="#000000">SaveGrd2VTK</text>
</a>
</g>
</g>
<!-- Node0&#45;&gt;Node7 -->
<g id="edge7" class="edge">
<title>Node0&#45;&gt;Node7</title>
<path fill="none" stroke="#191970" d="M38.6997,-169.2633C46.9327,-148.7231 69.7651,-99.2822 106.4678,-76.5 151.0968,-48.7978 211.9633,-43.3055 254.5232,-43.4795"/>
<polygon fill="#191970" stroke="#191970" points="254.6074,-46.981 264.6579,-43.6288 254.7106,-39.9818 254.6074,-46.981"/>
</g>
<!-- Node8 -->
<g id="node9" class="node">
<title>Node8</title>
<g id="a_node9"><a xlink:href="Conti2D_8cpp_a0858a57d19c1ac2f09fe65f7f416e2a1.html#a0858a57d19c1ac2f09fe65f7f416e2a1" target="_top" xlink:title="SaveGrd2xyz">
<polygon fill="#ffffff" stroke="#000000" points="267.1274,-.5 267.1274,-18.5 343.1519,-18.5 343.1519,-.5 267.1274,-.5"/>
<text text-anchor="middle" x="305.1396" y="-6.5" font-family="Helvetica,sans-Serif" font-size="10.00" fill="#000000">SaveGrd2xyz</text>
</a>
</g>
</g>
<!-- Node0&#45;&gt;Node8 -->
<g id="edge8" class="edge">
<title>Node0&#45;&gt;Node8</title>
<path fill="none" stroke="#191970" d="M37.0095,-169.2231C42.3818,-143.8984 60.9731,-73.2916 106.4678,-40.5 150.2511,-8.9419 213.6118,-4.1948 256.9342,-5.3851"/>
<polygon fill="#191970" stroke="#191970" points="256.8181,-8.8831 266.9468,-5.7751 257.0906,-1.8884 256.8181,-8.8831"/>
</g>
<!-- Node9 -->
<g id="node10" class="node">
<title>Node9</title>
<g id="a_node10"><a xlink:href="Conti2D_8cpp_af82757cb7e0f4f398e774b4e89b9ea72.html#af82757cb7e0f4f398e774b4e89b9ea72" target="_top" xlink:title="UWC_p2p_f">
<polygon fill="#ffffff" stroke="#000000" points="127.3101,-113.5 127.3101,-131.5 197.7778,-131.5 197.7778,-113.5 127.3101,-113.5"/>
<text text-anchor="middle" x="162.5439" y="-119.5" font-family="Helvetica,sans-Serif" font-size="10.00" fill="#000000">UWC_p2p_f</text>
</a>
</g>
</g>
<!-- Node0&#45;&gt;Node9 -->
<g id="edge9" class="edge">
<title>Node0&#45;&gt;Node9</title>
<path fill="none" stroke="#191970" d="M55.9718,-169.378C76.7791,-160.2255 109.038,-146.0357 132.6163,-135.6643"/>
<polygon fill="#191970" stroke="#191970" points="134.0706,-138.8483 141.8149,-131.6181 131.2521,-132.4408 134.0706,-138.8483"/>
</g>
<!-- Node9&#45;&gt;Node2 -->
<g id="edge10" class="edge">
<title>Node9&#45;&gt;Node2</title>
<path fill="none" stroke="#191970" d="M166.6086,-131.851C177.5887,-156.1982 210.0503,-222.4393 254.6201,-262.5 259.8942,-267.2405 266.1901,-271.3689 272.5181,-274.8552"/>
<polygon fill="#191970" stroke="#191970" points="271.194,-278.1077 281.6969,-279.5 274.3546,-271.8618 271.194,-278.1077"/>
</g>
<!-- Node9&#45;&gt;Node3 -->
<g id="edge11" class="edge">
<title>Node9&#45;&gt;Node3</title>
<path fill="none" stroke="#191970" d="M170.9386,-131.5619C186.564,-148.1843 221.5344,-184.2501 254.6201,-210.5 262.9039,-217.0723 272.5092,-223.5921 281.1061,-229.0791"/>
<polygon fill="#191970" stroke="#191970" points="279.2658,-232.0563 289.6022,-234.3821 282.9723,-226.118 279.2658,-232.0563"/>
</g>
<!-- Node9&#45;&gt;Node4 -->
<g id="edge12" class="edge">
<title>Node9&#45;&gt;Node4</title>
<path fill="none" stroke="#191970" d="M181.1858,-131.5205C205.6319,-143.3496 248.738,-164.2081 277.1221,-177.9427"/>
<polygon fill="#191970" stroke="#191970" points="275.9671,-181.272 286.4932,-182.4772 279.0161,-174.9709 275.9671,-181.272"/>
</g>
<!-- Node9&#45;&gt;Node5 -->
<g id="edge13" class="edge">
<title>Node9&#45;&gt;Node5</title>
<path fill="none" stroke="#191970" d="M197.7923,-123.4888C218.7716,-124.0773 245.402,-124.8243 266.8898,-125.427"/>
<polygon fill="#191970" stroke="#191970" points="266.8837,-128.9282 276.978,-125.71 267.0801,-121.9309 266.8837,-128.9282"/>
</g>
<!-- Node9&#45;&gt;Node6 -->
<g id="edge14" class="edge">
<title>Node9&#45;&gt;Node6</title>
<path fill="none" stroke="#191970" d="M197.7923,-113.6011C216.4186,-108.8987 239.4993,-103.0717 259.4806,-98.0272"/>
<polygon fill="#191970" stroke="#191970" points="260.4673,-101.388 269.3063,-95.5466 258.7538,-94.6009 260.4673,-101.388"/>
</g>
<!-- Node9&#45;&gt;Node7 -->
<g id="edge15" class="edge">
<title>Node9&#45;&gt;Node7</title>
<path fill="none" stroke="#191970" d="M176.9142,-113.3455C194.7809,-102.1347 226.375,-82.8675 254.6201,-68.5 260.5514,-65.4829 266.9895,-62.4811 273.221,-59.709"/>
<polygon fill="#191970" stroke="#191970" points="274.9638,-62.7679 282.7408,-55.5728 272.1743,-56.3477 274.9638,-62.7679"/>
</g>
<!-- Node9&#45;&gt;Node8 -->
<g id="edge16" class="edge">
<title>Node9&#45;&gt;Node8</title>
<path fill="none" stroke="#191970" d="M169.1075,-113.3044C182.8995,-94.6041 216.7592,-51.8559 254.6201,-27.5 257.3999,-25.7117 260.3803,-24.0733 263.4521,-22.5775"/>
<polygon fill="#191970" stroke="#191970" points="265.0498,-25.6997 272.8327,-18.511 262.2656,-19.2772 265.0498,-25.6997"/>
</g>
<!-- Node9&#45;&gt;Node9 -->
<g id="edge17" class="edge">
<title>Node9&#45;&gt;Node9</title>
<path fill="none" stroke="#191970" d="M143.7697,-131.5134C133.3991,-140.322 139.6572,-150 162.5439,-150 177.5634,-150 185.4214,-145.832 186.1181,-140.477"/>
<polygon fill="#191970" stroke="#191970" points="189.1244,-138.6768 181.3182,-131.5134 182.9535,-141.9813 189.1244,-138.6768"/>
</g>
</g>
</svg>
