<?xml version="1.0" encoding="UTF-8" standalone="no"?>
<!DOCTYPE svg PUBLIC "-//W3C//DTD SVG 1.1//EN"
 "http://www.w3.org/Graphics/SVG/1.1/DTD/svg11.dtd">
<!-- Generated by graphviz version 2.40.1 (20161225.0304)
 -->
<!-- Title: UWC_G_CGLS_Tik Pages: 1 -->
<svg width="206pt" height="64pt"
 viewBox="0.00 0.00 206.21 64.00" xmlns="http://www.w3.org/2000/svg" xmlns:xlink="http://www.w3.org/1999/xlink">
<g id="graph0" class="graph" transform="scale(1 1) rotate(0) translate(4 60)">
<title>UWC_G_CGLS_Tik</title>
<polygon fill="#ffffff" stroke="transparent" points="-4,4 -4,-60 202.2051,-60 202.2051,4 -4,4"/>
<!-- Node0 -->
<g id="node1" class="node">
<title>Node0</title>
<polygon fill="#bfbfbf" stroke="#000000" points="0,-18.5 0,-36.5 104.54,-36.5 104.54,-18.5 0,-18.5"/>
<text text-anchor="middle" x="52.27" y="-24.5" font-family="Helvetica,sans-Serif" font-size="10.00" fill="#000000">UWC_G_CGLS_Tik</text>
</g>
<!-- Node1 -->
<g id="node2" class="node">
<title>Node1</title>
<g id="a_node2"><a xlink:href="Conti2D_8cpp_a632c1e4efbb7e9b1aaf04db729e69394.html#a632c1e4efbb7e9b1aaf04db729e69394" target="_top" xlink:title="UWC_Gij">
<polygon fill="#ffffff" stroke="#000000" points="140.54,-37.5 140.54,-55.5 198.2051,-55.5 198.2051,-37.5 140.54,-37.5"/>
<text text-anchor="middle" x="169.3726" y="-43.5" font-family="Helvetica,sans-Serif" font-size="10.00" fill="#000000">UWC_Gij</text>
</a>
</g>
</g>
<!-- Node0&#45;&gt;Node1 -->
<g id="edge1" class="edge">
<title>Node0&#45;&gt;Node1</title>
<path fill="none" stroke="#191970" d="M104.6561,-35.9997C113.3054,-37.403 122.1361,-38.8358 130.382,-40.1737"/>
<polygon fill="#191970" stroke="#191970" points="130.0249,-43.6615 140.4564,-41.8083 131.146,-36.7519 130.0249,-43.6615"/>
</g>
<!-- Node2 -->
<g id="node3" class="node">
<title>Node2</title>
<g id="a_node3"><a xlink:href="Conti2D_8cpp_a9d30373a0ff29e4f743eaf5e4cbc3cbf.html#a9d30373a0ff29e4f743eaf5e4cbc3cbf" target="_top" xlink:title="UWC_Gji">
<polygon fill="#ffffff" stroke="#000000" points="140.54,-.5 140.54,-18.5 198.2051,-18.5 198.2051,-.5 140.54,-.5"/>
<text text-anchor="middle" x="169.3726" y="-6.5" font-family="Helvetica,sans-Serif" font-size="10.00" fill="#000000">UWC_Gji</text>
</a>
</g>
</g>
<!-- Node0&#45;&gt;Node2 -->
<g id="edge2" class="edge">
<title>Node0&#45;&gt;Node2</title>
<path fill="none" stroke="#191970" d="M104.6561,-19.4477C113.3054,-18.1182 122.1361,-16.7608 130.382,-15.4933"/>
<polygon fill="#191970" stroke="#191970" points="131.1042,-18.9235 140.4564,-13.9447 130.0407,-12.0047 131.1042,-18.9235"/>
</g>
</g>
</svg>
