<?xml version="1.0" encoding="UTF-8" standalone="no"?>
<!DOCTYPE svg PUBLIC "-//W3C//DTD SVG 1.1//EN"
 "http://www.w3.org/Graphics/SVG/1.1/DTD/svg11.dtd">
<!-- Generated by graphviz version 2.40.1 (20161225.0304)
 -->
<!-- Title: DWC_s2p_ItegrationIter Pages: 1 -->
<svg width="298pt" height="212pt"
 viewBox="0.00 0.00 297.76 212.00" xmlns="http://www.w3.org/2000/svg" xmlns:xlink="http://www.w3.org/1999/xlink">
<g id="graph0" class="graph" transform="scale(1 1) rotate(0) translate(4 208)">
<title>DWC_s2p_ItegrationIter</title>
<polygon fill="#ffffff" stroke="transparent" points="-4,4 -4,-208 293.7627,-208 293.7627,4 -4,4"/>
<!-- Node0 -->
<g id="node1" class="node">
<title>Node0</title>
<polygon fill="#bfbfbf" stroke="#000000" points="0,-92.5 0,-110.5 123.2705,-110.5 123.2705,-92.5 0,-92.5"/>
<text text-anchor="middle" x="61.6353" y="-98.5" font-family="Helvetica,sans-Serif" font-size="10.00" fill="#000000">DWC_s2p_ItegrationIter</text>
</g>
<!-- Node1 -->
<g id="node2" class="node">
<title>Node1</title>
<g id="a_node2"><a xlink:href="Conti2D_8cpp_a98827c14ed7072c96834f20205c7a916.html#a98827c14ed7072c96834f20205c7a916" target="_top" xlink:title="Norm2">
<polygon fill="#ffffff" stroke="#000000" points="201.5142,-185.5 201.5142,-203.5 247.519,-203.5 247.519,-185.5 201.5142,-185.5"/>
<text text-anchor="middle" x="224.5166" y="-191.5" font-family="Helvetica,sans-Serif" font-size="10.00" fill="#000000">Norm2</text>
</a>
</g>
</g>
<!-- Node0&#45;&gt;Node1 -->
<g id="edge1" class="edge">
<title>Node0&#45;&gt;Node1</title>
<path fill="none" stroke="#191970" d="M70.7671,-110.5217C87.1257,-126.1932 123.11,-158.4894 159.2705,-176.5 169.3137,-181.5022 180.9419,-185.2771 191.5755,-188.0442"/>
<polygon fill="#191970" stroke="#191970" points="190.8412,-191.4673 201.3817,-190.3957 192.4735,-184.6603 190.8412,-191.4673"/>
</g>
<!-- Node2 -->
<g id="node3" class="node">
<title>Node2</title>
<g id="a_node3"><a xlink:href="Conti2D_8cpp_a43fc3af75243a047d61aadea31c0fa9c.html#a43fc3af75243a047d61aadea31c0fa9c" target="_top" xlink:title="Get 2nd norm of the gradient of a grid data. ">
<polygon fill="#ffffff" stroke="#000000" points="179.5562,-148.5 179.5562,-166.5 269.4771,-166.5 269.4771,-148.5 179.5562,-148.5"/>
<text text-anchor="middle" x="224.5166" y="-154.5" font-family="Helvetica,sans-Serif" font-size="10.00" fill="#000000">Norm2_Gradient</text>
</a>
</g>
</g>
<!-- Node0&#45;&gt;Node2 -->
<g id="edge2" class="edge">
<title>Node0&#45;&gt;Node2</title>
<path fill="none" stroke="#191970" d="M83.1207,-110.5919C102.7514,-118.7234 132.6827,-130.684 159.2705,-139.5 165.7151,-141.6369 172.5744,-143.7262 179.3329,-145.6805"/>
<polygon fill="#191970" stroke="#191970" points="178.528,-149.0899 189.1027,-148.4369 180.4289,-142.353 178.528,-149.0899"/>
</g>
<!-- Node3 -->
<g id="node4" class="node">
<title>Node3</title>
<g id="a_node4"><a xlink:href="Conti2D_8cpp_a88f10a86b8808047787d2df5e8cbcb72.html#a88f10a86b8808047787d2df5e8cbcb72" target="_top" xlink:title="从一个文件全路径中获取文件名称 ">
<polygon fill="#ffffff" stroke="#000000" points="173.9971,-111.5 173.9971,-129.5 275.0361,-129.5 275.0361,-111.5 173.9971,-111.5"/>
<text text-anchor="middle" x="224.5166" y="-117.5" font-family="Helvetica,sans-Serif" font-size="10.00" fill="#000000">Path_GetFileName</text>
</a>
</g>
</g>
<!-- Node0&#45;&gt;Node3 -->
<g id="edge3" class="edge">
<title>Node0&#45;&gt;Node3</title>
<path fill="none" stroke="#191970" d="M123.6784,-108.7373C136.7311,-110.2599 150.4897,-111.8648 163.5042,-113.3829"/>
<polygon fill="#191970" stroke="#191970" points="163.4162,-116.8963 173.7544,-114.5786 164.2273,-109.9435 163.4162,-116.8963"/>
</g>
<!-- Node4 -->
<g id="node5" class="node">
<title>Node4</title>
<g id="a_node5"><a xlink:href="Conti2D_8cpp_a6334abab105b1fe7efa9a3e2a4b07c47.html#a6334abab105b1fe7efa9a3e2a4b07c47" target="_top" xlink:title="Save results of at each iteration step as vtk file. ">
<polygon fill="#ffffff" stroke="#000000" points="184.2803,-74.5 184.2803,-92.5 264.7529,-92.5 264.7529,-74.5 184.2803,-74.5"/>
<text text-anchor="middle" x="224.5166" y="-80.5" font-family="Helvetica,sans-Serif" font-size="10.00" fill="#000000">SaveGrd2VTK</text>
</a>
</g>
</g>
<!-- Node0&#45;&gt;Node4 -->
<g id="edge4" class="edge">
<title>Node0&#45;&gt;Node4</title>
<path fill="none" stroke="#191970" d="M123.6784,-94.6436C140.198,-92.818 157.8482,-90.8675 173.6898,-89.1169"/>
<polygon fill="#191970" stroke="#191970" points="174.2537,-92.5759 183.8087,-87.9986 173.4847,-85.6183 174.2537,-92.5759"/>
</g>
<!-- Node5 -->
<g id="node6" class="node">
<title>Node5</title>
<g id="a_node6"><a xlink:href="classMultiProgressBar_a58eef55ad6d5c7d769b3a402a2ef7b85.html#a58eef55ad6d5c7d769b3a402a2ef7b85" target="_top" xlink:title="MultiProgressBar::Update">
<polygon fill="#ffffff" stroke="#000000" points="159.2705,-37.5 159.2705,-55.5 289.7627,-55.5 289.7627,-37.5 159.2705,-37.5"/>
<text text-anchor="middle" x="224.5166" y="-43.5" font-family="Helvetica,sans-Serif" font-size="10.00" fill="#000000">MultiProgressBar::Update</text>
</a>
</g>
</g>
<!-- Node0&#45;&gt;Node5 -->
<g id="edge5" class="edge">
<title>Node0&#45;&gt;Node5</title>
<path fill="none" stroke="#191970" d="M84.7529,-92.4571C104.436,-84.883 133.5327,-73.981 159.2705,-65.5 166.5942,-63.0867 174.4312,-60.6672 182.0421,-58.402"/>
<polygon fill="#191970" stroke="#191970" points="183.2427,-61.6974 191.8549,-55.5265 181.2741,-54.9799 183.2427,-61.6974"/>
</g>
<!-- Node6 -->
<g id="node7" class="node">
<title>Node6</title>
<g id="a_node7"><a xlink:href="Conti2D_8cpp_a632c1e4efbb7e9b1aaf04db729e69394.html#a632c1e4efbb7e9b1aaf04db729e69394" target="_top" xlink:title="UWC_Gij">
<polygon fill="#ffffff" stroke="#000000" points="195.6841,-.5 195.6841,-18.5 253.3491,-18.5 253.3491,-.5 195.6841,-.5"/>
<text text-anchor="middle" x="224.5166" y="-6.5" font-family="Helvetica,sans-Serif" font-size="10.00" fill="#000000">UWC_Gij</text>
</a>
</g>
</g>
<!-- Node0&#45;&gt;Node6 -->
<g id="edge6" class="edge">
<title>Node0&#45;&gt;Node6</title>
<path fill="none" stroke="#191970" d="M71.3718,-92.2992C88.0822,-76.9747 123.8541,-46.1659 159.2705,-28.5 167.4781,-24.406 176.7178,-21.0463 185.6059,-18.3525"/>
<polygon fill="#191970" stroke="#191970" points="186.7402,-21.6693 195.4177,-15.5904 184.8433,-14.9312 186.7402,-21.6693"/>
</g>
</g>
</svg>
