<?xml version="1.0" encoding="UTF-8" standalone="no"?>
<!DOCTYPE svg PUBLIC "-//W3C//DTD SVG 1.1//EN"
 "http://www.w3.org/Graphics/SVG/1.1/DTD/svg11.dtd">
<!-- Generated by graphviz version 2.40.1 (20161225.0304)
 -->
<!-- Title: Conti2D.h Pages: 1 -->
<svg width="283pt" height="82pt"
 viewBox="0.00 0.00 283.04 82.00" xmlns="http://www.w3.org/2000/svg" xmlns:xlink="http://www.w3.org/1999/xlink">
<g id="graph0" class="graph" transform="scale(1 1) rotate(0) translate(4 78)">
<title>Conti2D.h</title>
<polygon fill="#ffffff" stroke="transparent" points="-4,4 -4,-78 279.0366,-78 279.0366,4 -4,4"/>
<!-- Node17 -->
<g id="node1" class="node">
<title>Node17</title>
<polygon fill="#bfbfbf" stroke="#000000" points="87.2808,-55.5 87.2808,-73.5 147.7485,-73.5 147.7485,-55.5 87.2808,-55.5"/>
<text text-anchor="middle" x="117.5146" y="-61.5" font-family="Helvetica,sans-Serif" font-size="10.00" fill="#000000">Conti2D.h</text>
</g>
<!-- Node18 -->
<g id="node2" class="node">
<title>Node18</title>
<g id="a_node2"><a xlink:href="Conti2D_8cpp.html" target="_top" xlink:title="Implementation of the sub&#45;functions of continuation of potential field in spatial domain...">
<polygon fill="#ffffff" stroke="#000000" points="0,-.5 0,-18.5 71.0293,-18.5 71.0293,-.5 0,-.5"/>
<text text-anchor="middle" x="35.5146" y="-6.5" font-family="Helvetica,sans-Serif" font-size="10.00" fill="#000000">Conti2D.cpp</text>
</a>
</g>
</g>
<!-- Node17&#45;&gt;Node18 -->
<g id="edge1" class="edge">
<title>Node17&#45;&gt;Node18</title>
<path fill="none" stroke="#191970" d="M95.4094,-49.6733C80.6323,-39.7619 61.6641,-27.0393 49.0754,-18.5956"/>
<polygon fill="#191970" stroke="#191970" points="93.7195,-52.7542 103.974,-55.4179 97.6187,-46.9408 93.7195,-52.7542"/>
</g>
<!-- Node19 -->
<g id="node3" class="node">
<title>Node19</title>
<g id="a_node3"><a xlink:href="main_8cpp.html" target="_top" xlink:title="The C++ main function of the continuation program conti2d. ">
<polygon fill="#ffffff" stroke="#000000" points="89.2266,-.5 89.2266,-18.5 145.8027,-18.5 145.8027,-.5 89.2266,-.5"/>
<text text-anchor="middle" x="117.5146" y="-6.5" font-family="Helvetica,sans-Serif" font-size="10.00" fill="#000000">main.cpp</text>
</a>
</g>
</g>
<!-- Node17&#45;&gt;Node19 -->
<g id="edge2" class="edge">
<title>Node17&#45;&gt;Node19</title>
<path fill="none" stroke="#191970" d="M117.5146,-45.383C117.5146,-36.3738 117.5146,-26.0373 117.5146,-18.7795"/>
<polygon fill="#191970" stroke="#191970" points="114.0147,-45.4178 117.5146,-55.4179 121.0147,-45.4179 114.0147,-45.4178"/>
</g>
<!-- Node20 -->
<g id="node4" class="node">
<title>Node20</title>
<g id="a_node4"><a xlink:href="MultiProgressBar_8cpp.html" target="_top" xlink:title="Implementation of progress bar. ">
<polygon fill="#ffffff" stroke="#000000" points="163.9927,-.5 163.9927,-18.5 275.0366,-18.5 275.0366,-.5 163.9927,-.5"/>
<text text-anchor="middle" x="219.5146" y="-6.5" font-family="Helvetica,sans-Serif" font-size="10.00" fill="#000000">MultiProgressBar.cpp</text>
</a>
</g>
</g>
<!-- Node17&#45;&gt;Node20 -->
<g id="edge3" class="edge">
<title>Node17&#45;&gt;Node20</title>
<path fill="none" stroke="#191970" d="M143.2082,-50.6456C161.8259,-40.6067 186.4702,-27.3181 202.6464,-18.5956"/>
<polygon fill="#191970" stroke="#191970" points="141.4987,-47.591 134.3579,-55.4179 144.821,-53.7524 141.4987,-47.591"/>
</g>
</g>
</svg>
