<?xml version="1.0" encoding="UTF-8" standalone="no"?>
<!DOCTYPE svg PUBLIC "-//W3C//DTD SVG 1.1//EN"
 "http://www.w3.org/Graphics/SVG/1.1/DTD/svg11.dtd">
<!-- Generated by graphviz version 2.40.1 (20161225.0304)
 -->
<!-- Title: Norm2_Gradient Pages: 1 -->
<svg width="437pt" height="138pt"
 viewBox="0.00 0.00 437.34 138.00" xmlns="http://www.w3.org/2000/svg" xmlns:xlink="http://www.w3.org/1999/xlink">
<g id="graph0" class="graph" transform="scale(1 1) rotate(0) translate(4 134)">
<title>Norm2_Gradient</title>
<polygon fill="#ffffff" stroke="transparent" points="-4,4 -4,-134 433.3438,-134 433.3438,4 -4,4"/>
<!-- Node1 -->
<g id="node1" class="node">
<title>Node1</title>
<polygon fill="#bfbfbf" stroke="#000000" points="0,-55.5 0,-73.5 89.9209,-73.5 89.9209,-55.5 0,-55.5"/>
<text text-anchor="middle" x="44.9604" y="-61.5" font-family="Helvetica,sans-Serif" font-size="10.00" fill="#000000">Norm2_Gradient</text>
</g>
<!-- Node2 -->
<g id="node2" class="node">
<title>Node2</title>
<g id="a_node2"><a xlink:href="Conti2D_8h_a1bb3d1115c283e9063a98ee17fa9d31f.html#a1bb3d1115c283e9063a98ee17fa9d31f" target="_top" xlink:title="DWC_p2p_ItegrationIter">
<polygon fill="#ffffff" stroke="#000000" points="129.8149,-111.5 129.8149,-129.5 253.647,-129.5 253.647,-111.5 129.8149,-111.5"/>
<text text-anchor="middle" x="191.731" y="-117.5" font-family="Helvetica,sans-Serif" font-size="10.00" fill="#000000">DWC_p2p_ItegrationIter</text>
</a>
</g>
</g>
<!-- Node1&#45;&gt;Node2 -->
<g id="edge1" class="edge">
<title>Node1&#45;&gt;Node2</title>
<path fill="none" stroke="#191970" d="M71.0212,-78.1319C86.6555,-85.9543 107.0983,-95.567 125.9209,-102.5 134.9241,-105.8162 144.8183,-108.8358 154.1385,-111.4147"/>
<polygon fill="#191970" stroke="#191970" points="72.4663,-74.9404 61.9654,-73.5327 69.2965,-81.1816 72.4663,-74.9404"/>
</g>
<!-- Node3 -->
<g id="node3" class="node">
<title>Node3</title>
<g id="a_node3"><a xlink:href="Conti2D_8h_a8affb7fb2246ce1c959f681fc7baaa05.html#a8affb7fb2246ce1c959f681fc7baaa05" target="_top" xlink:title="DWC_p2p_LandweberIter">
<polygon fill="#ffffff" stroke="#000000" points="125.9209,-74.5 125.9209,-92.5 257.541,-92.5 257.541,-74.5 125.9209,-74.5"/>
<text text-anchor="middle" x="191.731" y="-80.5" font-family="Helvetica,sans-Serif" font-size="10.00" fill="#000000">DWC_p2p_LandweberIter</text>
</a>
</g>
</g>
<!-- Node1&#45;&gt;Node3 -->
<g id="edge2" class="edge">
<title>Node1&#45;&gt;Node3</title>
<path fill="none" stroke="#191970" d="M100.2122,-71.6525C108.5881,-72.7368 117.3002,-73.8647 125.8739,-74.9746"/>
<polygon fill="#191970" stroke="#191970" points="100.5607,-68.1685 90.194,-70.3557 99.6619,-75.1106 100.5607,-68.1685"/>
</g>
<!-- Node4 -->
<g id="node4" class="node">
<title>Node4</title>
<g id="a_node4"><a xlink:href="Conti2D_8h_a39a6a4cc378c878de458d5ae56eb1630.html#a39a6a4cc378c878de458d5ae56eb1630" target="_top" xlink:title="DWC_s2p_ItegrationIter">
<polygon fill="#ffffff" stroke="#000000" points="130.0957,-37.5 130.0957,-55.5 253.3662,-55.5 253.3662,-37.5 130.0957,-37.5"/>
<text text-anchor="middle" x="191.731" y="-43.5" font-family="Helvetica,sans-Serif" font-size="10.00" fill="#000000">DWC_s2p_ItegrationIter</text>
</a>
</g>
</g>
<!-- Node1&#45;&gt;Node4 -->
<g id="edge3" class="edge">
<title>Node1&#45;&gt;Node4</title>
<path fill="none" stroke="#191970" d="M100.1277,-57.7343C109.848,-56.5422 120.0235,-55.2942 129.9116,-54.0816"/>
<polygon fill="#191970" stroke="#191970" points="99.6936,-54.2612 90.194,-58.9525 100.5458,-61.2091 99.6936,-54.2612"/>
</g>
<!-- Node8 -->
<g id="node8" class="node">
<title>Node8</title>
<g id="a_node8"><a xlink:href="Conti2D_8h_a30671331e25e6cfa739e77aec57b7f18.html#a30671331e25e6cfa739e77aec57b7f18" target="_top" xlink:title="DWC_s2p_LandweberIter">
<polygon fill="#ffffff" stroke="#000000" points="126.2017,-.5 126.2017,-18.5 257.2603,-18.5 257.2603,-.5 126.2017,-.5"/>
<text text-anchor="middle" x="191.731" y="-6.5" font-family="Helvetica,sans-Serif" font-size="10.00" fill="#000000">DWC_s2p_LandweberIter</text>
</a>
</g>
</g>
<!-- Node1&#45;&gt;Node8 -->
<g id="edge8" class="edge">
<title>Node1&#45;&gt;Node8</title>
<path fill="none" stroke="#191970" d="M72.7889,-50.9889C88.2295,-43.7824 107.9019,-35.0721 125.9209,-28.5 135.8641,-24.8734 146.8477,-21.472 156.9467,-18.5776"/>
<polygon fill="#191970" stroke="#191970" points="70.8571,-48.0307 63.3133,-55.4699 73.8497,-54.3588 70.8571,-48.0307"/>
</g>
<!-- Node5 -->
<g id="node5" class="node">
<title>Node5</title>
<g id="a_node5"><a xlink:href="Conti2D_8h_ab87ce573de93575b7ece2e4f772e03fd.html#ab87ce573de93575b7ece2e4f772e03fd" target="_top" xlink:title="DWC_p2p">
<polygon fill="#ffffff" stroke="#000000" points="293.541,-37.5 293.541,-55.5 355.6689,-55.5 355.6689,-37.5 293.541,-37.5"/>
<text text-anchor="middle" x="324.605" y="-43.5" font-family="Helvetica,sans-Serif" font-size="10.00" fill="#000000">DWC_p2p</text>
</a>
</g>
</g>
<!-- Node4&#45;&gt;Node5 -->
<g id="edge4" class="edge">
<title>Node4&#45;&gt;Node5</title>
<path fill="none" stroke="#191970" d="M263.5585,-46.5C274.0279,-46.5 284.3176,-46.5 293.3785,-46.5"/>
<polygon fill="#191970" stroke="#191970" points="263.5001,-43.0001 253.5,-46.5 263.5,-50.0001 263.5001,-43.0001"/>
</g>
<!-- Node7 -->
<g id="node7" class="node">
<title>Node7</title>
<g id="a_node7"><a xlink:href="Conti2D_8h_ac96429563a5015babafa3274c3f3ec73.html#ac96429563a5015babafa3274c3f3ec73" target="_top" xlink:title="downward continuation from surface to plane ">
<polygon fill="#ffffff" stroke="#000000" points="293.8218,-.5 293.8218,-18.5 355.3882,-18.5 355.3882,-.5 293.8218,-.5"/>
<text text-anchor="middle" x="324.605" y="-6.5" font-family="Helvetica,sans-Serif" font-size="10.00" fill="#000000">DWC_s2p</text>
</a>
</g>
</g>
<!-- Node4&#45;&gt;Node7 -->
<g id="edge6" class="edge">
<title>Node4&#45;&gt;Node7</title>
<path fill="none" stroke="#191970" d="M234.6997,-34.8079C242.3121,-32.7193 250.1622,-30.5543 257.541,-28.5 269.3155,-25.2219 282.238,-21.573 293.57,-18.3561"/>
<polygon fill="#191970" stroke="#191970" points="233.6096,-31.4775 224.8889,-37.494 235.4582,-38.229 233.6096,-31.4775"/>
</g>
<!-- Node6 -->
<g id="node6" class="node">
<title>Node6</title>
<g id="a_node6"><a xlink:href="main_8cpp_a0ddf1224851353fc92bfbff6f499fa97.html#a0ddf1224851353fc92bfbff6f499fa97" target="_top" xlink:title="main">
<polygon fill="#ffffff" stroke="#000000" points="391.6689,-18.5 391.6689,-36.5 429.3438,-36.5 429.3438,-18.5 391.6689,-18.5"/>
<text text-anchor="middle" x="410.5063" y="-24.5" font-family="Helvetica,sans-Serif" font-size="10.00" fill="#000000">main</text>
</a>
</g>
</g>
<!-- Node5&#45;&gt;Node6 -->
<g id="edge5" class="edge">
<title>Node5&#45;&gt;Node6</title>
<path fill="none" stroke="#191970" d="M366.0456,-37.334C374.9566,-35.363 383.9543,-33.3729 391.502,-31.7035"/>
<polygon fill="#191970" stroke="#191970" points="365.1118,-33.9559 356.1037,-39.533 366.6236,-40.7907 365.1118,-33.9559"/>
</g>
<!-- Node7&#45;&gt;Node6 -->
<g id="edge7" class="edge">
<title>Node7&#45;&gt;Node6</title>
<path fill="none" stroke="#191970" d="M365.6909,-18.1093C374.7306,-20.0035 383.8806,-21.9208 391.5353,-23.5248"/>
<polygon fill="#191970" stroke="#191970" points="366.1226,-14.6238 355.6173,-15.9984 364.6869,-21.475 366.1226,-14.6238"/>
</g>
<!-- Node8&#45;&gt;Node5 -->
<g id="edge9" class="edge">
<title>Node8&#45;&gt;Node5</title>
<path fill="none" stroke="#191970" d="M233.9793,-21.2645C253.2389,-26.6275 275.6393,-32.8651 293.3509,-37.797"/>
<polygon fill="#191970" stroke="#191970" points="234.808,-17.8621 224.2356,-18.5512 232.9302,-24.6055 234.808,-17.8621"/>
</g>
<!-- Node8&#45;&gt;Node7 -->
<g id="edge10" class="edge">
<title>Node8&#45;&gt;Node7</title>
<path fill="none" stroke="#191970" d="M267.4705,-9.5C276.7045,-9.5 285.6938,-9.5 293.706,-9.5"/>
<polygon fill="#191970" stroke="#191970" points="267.3895,-6.0001 257.3894,-9.5 267.3894,-13.0001 267.3895,-6.0001"/>
</g>
</g>
</svg>
