<?xml version="1.0" encoding="UTF-8" standalone="no"?>
<!DOCTYPE svg PUBLIC "-//W3C//DTD SVG 1.1//EN"
 "http://www.w3.org/Graphics/SVG/1.1/DTD/svg11.dtd">
<!-- Generated by graphviz version 2.40.1 (20161225.0304)
 -->
<!-- Title: Path_GetFileName Pages: 1 -->
<svg width="457pt" height="297pt"
 viewBox="0.00 0.00 456.80 297.00" xmlns="http://www.w3.org/2000/svg" xmlns:xlink="http://www.w3.org/1999/xlink">
<g id="graph0" class="graph" transform="scale(1 1) rotate(0) translate(4 293.0011)">
<title>Path_GetFileName</title>
<polygon fill="#ffffff" stroke="transparent" points="-4,4 -4,-293.0011 452.8018,-293.0011 452.8018,4 -4,4"/>
<!-- Node1 -->
<g id="node1" class="node">
<title>Node1</title>
<polygon fill="#bfbfbf" stroke="#000000" points="0,-131.5 0,-149.5 101.0391,-149.5 101.0391,-131.5 0,-131.5"/>
<text text-anchor="middle" x="50.5195" y="-137.5" font-family="Helvetica,sans-Serif" font-size="10.00" fill="#000000">Path_GetFileName</text>
</g>
<!-- Node2 -->
<g id="node2" class="node">
<title>Node2</title>
<g id="a_node2"><a xlink:href="Conti2D_8h_afb187c363388d28caa8a055176269f12.html#afb187c363388d28caa8a055176269f12" target="_top" xlink:title="DWC_p2p_f">
<polygon fill="#ffffff" stroke="#000000" points="304.6592,-226.5 304.6592,-244.5 375.127,-244.5 375.127,-226.5 304.6592,-226.5"/>
<text text-anchor="middle" x="339.8931" y="-232.5" font-family="Helvetica,sans-Serif" font-size="10.00" fill="#000000">DWC_p2p_f</text>
</a>
</g>
</g>
<!-- Node1&#45;&gt;Node2 -->
<g id="edge1" class="edge">
<title>Node1&#45;&gt;Node2</title>
<path fill="none" stroke="#191970" d="M56.4585,-159.6452C67.0486,-190.0437 92.3793,-248.3741 137.0391,-272.5 188.507,-300.3037 211.8315,-286.3784 268.6592,-272.5 290.5906,-267.144 313.2908,-253.7499 327.0043,-244.6359"/>
<polygon fill="#191970" stroke="#191970" points="59.6747,-158.2227 53.2153,-149.8246 53.0278,-160.4178 59.6747,-158.2227"/>
</g>
<!-- Node4 -->
<g id="node4" class="node">
<title>Node4</title>
<g id="a_node4"><a xlink:href="Conti2D_8h_a1bb3d1115c283e9063a98ee17fa9d31f.html#a1bb3d1115c283e9063a98ee17fa9d31f" target="_top" xlink:title="DWC_p2p_ItegrationIter">
<polygon fill="#ffffff" stroke="#000000" points="140.9331,-37.5 140.9331,-55.5 264.7651,-55.5 264.7651,-37.5 140.9331,-37.5"/>
<text text-anchor="middle" x="202.8491" y="-43.5" font-family="Helvetica,sans-Serif" font-size="10.00" fill="#000000">DWC_p2p_ItegrationIter</text>
</a>
</g>
</g>
<!-- Node1&#45;&gt;Node4 -->
<g id="edge3" class="edge">
<title>Node1&#45;&gt;Node4</title>
<path fill="none" stroke="#191970" d="M67.1295,-124.2262C83.6982,-108.7124 110.4496,-85.5471 137.0391,-70.5 147.7291,-64.4505 160.2276,-59.4387 171.4438,-55.5874"/>
<polygon fill="#191970" stroke="#191970" points="64.6813,-121.7245 59.859,-131.1583 69.5118,-126.7907 64.6813,-121.7245"/>
</g>
<!-- Node5 -->
<g id="node5" class="node">
<title>Node5</title>
<g id="a_node5"><a xlink:href="Conti2D_8h_a8affb7fb2246ce1c959f681fc7baaa05.html#a8affb7fb2246ce1c959f681fc7baaa05" target="_top" xlink:title="DWC_p2p_LandweberIter">
<polygon fill="#ffffff" stroke="#000000" points="137.0391,-.5 137.0391,-18.5 268.6592,-18.5 268.6592,-.5 137.0391,-.5"/>
<text text-anchor="middle" x="202.8491" y="-6.5" font-family="Helvetica,sans-Serif" font-size="10.00" fill="#000000">DWC_p2p_LandweberIter</text>
</a>
</g>
</g>
<!-- Node1&#45;&gt;Node5 -->
<g id="edge4" class="edge">
<title>Node1&#45;&gt;Node5</title>
<path fill="none" stroke="#191970" d="M59.6624,-122.0625C73.1159,-96.8568 100.6415,-51.9846 137.0391,-27.5 142.5429,-23.7976 148.7879,-20.8537 155.1864,-18.5136"/>
<polygon fill="#191970" stroke="#191970" points="56.3935,-120.7647 54.9165,-131.2561 62.6137,-123.9756 56.3935,-120.7647"/>
</g>
<!-- Node6 -->
<g id="node6" class="node">
<title>Node6</title>
<g id="a_node6"><a xlink:href="Conti2D_8h_ac96429563a5015babafa3274c3f3ec73.html#ac96429563a5015babafa3274c3f3ec73" target="_top" xlink:title="downward continuation from surface to plane ">
<polygon fill="#ffffff" stroke="#000000" points="309.1099,-150.5 309.1099,-168.5 370.6763,-168.5 370.6763,-150.5 309.1099,-150.5"/>
<text text-anchor="middle" x="339.8931" y="-156.5" font-family="Helvetica,sans-Serif" font-size="10.00" fill="#000000">DWC_s2p</text>
</a>
</g>
</g>
<!-- Node1&#45;&gt;Node6 -->
<g id="edge5" class="edge">
<title>Node1&#45;&gt;Node6</title>
<path fill="none" stroke="#191970" d="M75.5964,-154.4379C92.4115,-162.9638 115.3658,-173.0602 137.0391,-177.5 194.3468,-189.2396 210.6087,-184.7209 268.6592,-177.5 282.8363,-175.7365 298.2431,-172.0708 311.0899,-168.5048"/>
<polygon fill="#191970" stroke="#191970" points="76.944,-151.1927 66.4614,-149.654 73.6965,-157.3938 76.944,-151.1927"/>
</g>
<!-- Node7 -->
<g id="node7" class="node">
<title>Node7</title>
<g id="a_node7"><a xlink:href="Conti2D_8h_a39a6a4cc378c878de458d5ae56eb1630.html#a39a6a4cc378c878de458d5ae56eb1630" target="_top" xlink:title="DWC_s2p_ItegrationIter">
<polygon fill="#ffffff" stroke="#000000" points="141.2139,-150.5 141.2139,-168.5 264.4844,-168.5 264.4844,-150.5 141.2139,-150.5"/>
<text text-anchor="middle" x="202.8491" y="-156.5" font-family="Helvetica,sans-Serif" font-size="10.00" fill="#000000">DWC_s2p_ItegrationIter</text>
</a>
</g>
</g>
<!-- Node1&#45;&gt;Node7 -->
<g id="edge7" class="edge">
<title>Node1&#45;&gt;Node7</title>
<path fill="none" stroke="#191970" d="M111.2681,-148.0771C121.0381,-149.2957 131.1613,-150.5584 140.9578,-151.7803"/>
<polygon fill="#191970" stroke="#191970" points="111.5994,-144.5914 101.2431,-146.8267 110.733,-151.5376 111.5994,-144.5914"/>
</g>
<!-- Node9 -->
<g id="node9" class="node">
<title>Node9</title>
<g id="a_node9"><a xlink:href="Conti2D_8h_a30671331e25e6cfa739e77aec57b7f18.html#a30671331e25e6cfa739e77aec57b7f18" target="_top" xlink:title="DWC_s2p_LandweberIter">
<polygon fill="#ffffff" stroke="#000000" points="137.3198,-113.5 137.3198,-131.5 268.3784,-131.5 268.3784,-113.5 137.3198,-113.5"/>
<text text-anchor="middle" x="202.8491" y="-119.5" font-family="Helvetica,sans-Serif" font-size="10.00" fill="#000000">DWC_s2p_LandweberIter</text>
</a>
</g>
</g>
<!-- Node1&#45;&gt;Node9 -->
<g id="edge11" class="edge">
<title>Node1&#45;&gt;Node9</title>
<path fill="none" stroke="#191970" d="M111.415,-133.3043C119.8854,-132.3034 128.6185,-131.2714 137.1718,-130.2608"/>
<polygon fill="#191970" stroke="#191970" points="110.7632,-129.8569 101.2431,-134.5063 111.5847,-136.8085 110.7632,-129.8569"/>
</g>
<!-- Node10 -->
<g id="node10" class="node">
<title>Node10</title>
<g id="a_node10"><a xlink:href="Conti2D_8h_a7b6bfe9f5b32bc1a62005196d84edfde.html#a7b6bfe9f5b32bc1a62005196d84edfde" target="_top" xlink:title="UWC_p2p">
<polygon fill="#ffffff" stroke="#000000" points="308.8291,-76.5 308.8291,-94.5 370.957,-94.5 370.957,-76.5 308.8291,-76.5"/>
<text text-anchor="middle" x="339.8931" y="-82.5" font-family="Helvetica,sans-Serif" font-size="10.00" fill="#000000">UWC_p2p</text>
</a>
</g>
</g>
<!-- Node1&#45;&gt;Node10 -->
<g id="edge14" class="edge">
<title>Node1&#45;&gt;Node10</title>
<path fill="none" stroke="#191970" d="M76.369,-126.8905C93.1834,-118.688 115.8483,-108.8276 137.0391,-103.5 196.5305,-88.5431 268.5588,-85.592 308.8049,-85.2433"/>
<polygon fill="#191970" stroke="#191970" points="74.5749,-123.8746 67.2004,-131.4817 77.7092,-130.1337 74.5749,-123.8746"/>
</g>
<!-- Node11 -->
<g id="node11" class="node">
<title>Node11</title>
<g id="a_node11"><a xlink:href="Conti2D_8h_af82757cb7e0f4f398e774b4e89b9ea72.html#af82757cb7e0f4f398e774b4e89b9ea72" target="_top" xlink:title="UWC_p2p_f">
<polygon fill="#ffffff" stroke="#000000" points="167.6152,-226.5 167.6152,-244.5 238.083,-244.5 238.083,-226.5 167.6152,-226.5"/>
<text text-anchor="middle" x="202.8491" y="-232.5" font-family="Helvetica,sans-Serif" font-size="10.00" fill="#000000">UWC_p2p_f</text>
</a>
</g>
</g>
<!-- Node1&#45;&gt;Node11 -->
<g id="edge16" class="edge">
<title>Node1&#45;&gt;Node11</title>
<path fill="none" stroke="#191970" d="M66.5508,-156.5117C83.0421,-172.2579 110.0613,-196.1093 137.0391,-211.5 147.708,-217.5866 160.2021,-222.6062 171.4206,-226.4533"/>
<polygon fill="#191970" stroke="#191970" points="68.956,-153.9686 59.3471,-149.5054 64.0755,-158.9866 68.956,-153.9686"/>
</g>
<!-- Node3 -->
<g id="node3" class="node">
<title>Node3</title>
<g id="a_node3"><a xlink:href="main_8cpp_a0ddf1224851353fc92bfbff6f499fa97.html#a0ddf1224851353fc92bfbff6f499fa97" target="_top" xlink:title="main">
<polygon fill="#ffffff" stroke="#000000" points="411.127,-150.5 411.127,-168.5 448.8018,-168.5 448.8018,-150.5 411.127,-150.5"/>
<text text-anchor="middle" x="429.9644" y="-156.5" font-family="Helvetica,sans-Serif" font-size="10.00" fill="#000000">main</text>
</a>
</g>
</g>
<!-- Node2&#45;&gt;Node3 -->
<g id="edge2" class="edge">
<title>Node2&#45;&gt;Node3</title>
<path fill="none" stroke="#191970" d="M362.7084,-220.7497C366.9255,-217.8031 371.2265,-214.6439 375.127,-211.5 392.2881,-197.6675 410.5418,-179.5956 421.0633,-168.8057"/>
<polygon fill="#191970" stroke="#191970" points="360.6429,-217.9214 354.3252,-226.4265 364.5679,-223.7175 360.6429,-217.9214"/>
</g>
<!-- Node6&#45;&gt;Node3 -->
<g id="edge6" class="edge">
<title>Node6&#45;&gt;Node3</title>
<path fill="none" stroke="#191970" d="M381.1481,-159.5C391.5803,-159.5 402.285,-159.5 411.0018,-159.5"/>
<polygon fill="#191970" stroke="#191970" points="380.8905,-156.0001 370.8905,-159.5 380.8905,-163.0001 380.8905,-156.0001"/>
</g>
<!-- Node7&#45;&gt;Node6 -->
<g id="edge10" class="edge">
<title>Node7&#45;&gt;Node6</title>
<path fill="none" stroke="#191970" d="M274.6598,-159.5C286.6894,-159.5 298.5835,-159.5 308.8546,-159.5"/>
<polygon fill="#191970" stroke="#191970" points="274.5557,-156.0001 264.5557,-159.5 274.5557,-163.0001 274.5557,-156.0001"/>
</g>
<!-- Node8 -->
<g id="node8" class="node">
<title>Node8</title>
<g id="a_node8"><a xlink:href="Conti2D_8h_ab87ce573de93575b7ece2e4f772e03fd.html#ab87ce573de93575b7ece2e4f772e03fd" target="_top" xlink:title="DWC_p2p">
<polygon fill="#ffffff" stroke="#000000" points="308.8291,-113.5 308.8291,-131.5 370.957,-131.5 370.957,-113.5 308.8291,-113.5"/>
<text text-anchor="middle" x="339.8931" y="-119.5" font-family="Helvetica,sans-Serif" font-size="10.00" fill="#000000">DWC_p2p</text>
</a>
</g>
</g>
<!-- Node7&#45;&gt;Node8 -->
<g id="edge8" class="edge">
<title>Node7&#45;&gt;Node8</title>
<path fill="none" stroke="#191970" d="M246.2977,-147.7695C266.5302,-142.307 290.1456,-135.9311 308.5934,-130.9505"/>
<polygon fill="#191970" stroke="#191970" points="245.1159,-144.4632 236.3738,-150.4488 246.9405,-151.2212 245.1159,-144.4632"/>
</g>
<!-- Node8&#45;&gt;Node3 -->
<g id="edge9" class="edge">
<title>Node8&#45;&gt;Node3</title>
<path fill="none" stroke="#191970" d="M371.784,-135.6003C384.8958,-140.9865 399.6368,-147.0419 411.0001,-151.7098"/>
<polygon fill="#191970" stroke="#191970" points="372.7378,-132.2084 362.1579,-131.6461 370.0779,-138.6834 372.7378,-132.2084"/>
</g>
<!-- Node9&#45;&gt;Node6 -->
<g id="edge13" class="edge">
<title>Node9&#45;&gt;Node6</title>
<path fill="none" stroke="#191970" d="M246.0925,-134.1751C266.5402,-139.6957 290.4809,-146.1594 309.0577,-151.1749"/>
<polygon fill="#191970" stroke="#191970" points="246.9405,-130.7788 236.3738,-131.5512 245.1159,-137.5368 246.9405,-130.7788"/>
</g>
<!-- Node9&#45;&gt;Node8 -->
<g id="edge12" class="edge">
<title>Node9&#45;&gt;Node8</title>
<path fill="none" stroke="#191970" d="M278.7374,-122.5C289.3102,-122.5 299.6464,-122.5 308.7234,-122.5"/>
<polygon fill="#191970" stroke="#191970" points="278.5614,-119.0001 268.5613,-122.5 278.5613,-126.0001 278.5614,-119.0001"/>
</g>
<!-- Node10&#45;&gt;Node3 -->
<g id="edge15" class="edge">
<title>Node10&#45;&gt;Node3</title>
<path fill="none" stroke="#191970" d="M369.3077,-99.5875C371.3233,-100.8367 373.2835,-102.1443 375.127,-103.5 394.2011,-117.5273 412.6798,-138.3568 422.5608,-150.2616"/>
<polygon fill="#191970" stroke="#191970" points="370.7394,-96.3769 360.309,-94.5178 367.3035,-102.4757 370.7394,-96.3769"/>
</g>
<!-- Node11&#45;&gt;Node2 -->
<g id="edge17" class="edge">
<title>Node11&#45;&gt;Node2</title>
<path fill="none" stroke="#191970" d="M248.2493,-235.5C266.4618,-235.5 287.143,-235.5 304.2441,-235.5"/>
<polygon fill="#191970" stroke="#191970" points="248.1414,-232.0001 238.1413,-235.5 248.1413,-239.0001 248.1414,-232.0001"/>
</g>
<!-- Node11&#45;&gt;Node3 -->
<g id="edge18" class="edge">
<title>Node11&#45;&gt;Node3</title>
<path fill="none" stroke="#191970" d="M239.3592,-223.2826C288.2557,-206.9202 373.2211,-178.4881 410.9609,-165.8592"/>
<polygon fill="#191970" stroke="#191970" points="238.1665,-219.9908 229.7941,-226.4834 240.3879,-226.629 238.1665,-219.9908"/>
</g>
<!-- Node11&#45;&gt;Node11 -->
<g id="edge19" class="edge">
<title>Node11&#45;&gt;Node11</title>
<path fill="none" stroke="#191970" d="M177.3634,-253.0926C177.7565,-258.6312 186.2517,-263 202.8491,-263 227.5522,-263 234.307,-253.322 223.1134,-244.5134"/>
<polygon fill="#191970" stroke="#191970" points="180.3756,-254.8754 182.5848,-244.5134 174.396,-251.2361 180.3756,-254.8754"/>
</g>
</g>
</svg>
