<?xml version="1.0" encoding="UTF-8" standalone="no"?>
<!DOCTYPE svg PUBLIC "-//W3C//DTD SVG 1.1//EN"
 "http://www.w3.org/Graphics/SVG/1.1/DTD/svg11.dtd">
<!-- Generated by graphviz version 2.40.1 (20161225.0304)
 -->
<!-- Title: UWC_Gji Pages: 1 -->
<svg width="423pt" height="140pt"
 viewBox="0.00 0.00 423.22 140.00" xmlns="http://www.w3.org/2000/svg" xmlns:xlink="http://www.w3.org/1999/xlink">
<g id="graph0" class="graph" transform="scale(1 1) rotate(0) translate(4 136)">
<title>UWC_Gji</title>
<polygon fill="#ffffff" stroke="transparent" points="-4,4 -4,-136 419.2178,-136 419.2178,4 -4,4"/>
<!-- Node1 -->
<g id="node1" class="node">
<title>Node1</title>
<polygon fill="#bfbfbf" stroke="#000000" points="0,-57.5 0,-75.5 57.665,-75.5 57.665,-57.5 0,-57.5"/>
<text text-anchor="middle" x="28.8325" y="-63.5" font-family="Helvetica,sans-Serif" font-size="10.00" fill="#000000">UWC_Gji</text>
</g>
<!-- Node2 -->
<g id="node2" class="node">
<title>Node2</title>
<g id="a_node2"><a xlink:href="Conti2D_8h_a68e9e4a8817a29dce16c782fa8213faa.html#a68e9e4a8817a29dce16c782fa8213faa" target="_top" xlink:title="DWC_p2p_CGLS">
<polygon fill="#ffffff" stroke="#000000" points="98.4746,-113.5 98.4746,-131.5 193.3955,-131.5 193.3955,-113.5 98.4746,-113.5"/>
<text text-anchor="middle" x="145.9351" y="-119.5" font-family="Helvetica,sans-Serif" font-size="10.00" fill="#000000">DWC_p2p_CGLS</text>
</a>
</g>
</g>
<!-- Node1&#45;&gt;Node2 -->
<g id="edge1" class="edge">
<title>Node1&#45;&gt;Node2</title>
<path fill="none" stroke="#191970" d="M51.4247,-81.2372C63.6195,-88.8044 79.118,-97.8125 93.665,-104.5 100.8157,-107.7872 108.7484,-110.8154 116.2285,-113.4132"/>
<polygon fill="#191970" stroke="#191970" points="53.1366,-78.1787 42.8137,-75.7938 49.3962,-84.0956 53.1366,-78.1787"/>
</g>
<!-- Node3 -->
<g id="node3" class="node">
<title>Node3</title>
<g id="a_node3"><a xlink:href="Conti2D_8h_a6516cfeb71abcf844b32f101e5f77a71.html#a6516cfeb71abcf844b32f101e5f77a71" target="_top" xlink:title="DWC_s2p_CGLS">
<polygon fill="#ffffff" stroke="#000000" points="98.7554,-76.5 98.7554,-94.5 193.1147,-94.5 193.1147,-76.5 98.7554,-76.5"/>
<text text-anchor="middle" x="145.9351" y="-82.5" font-family="Helvetica,sans-Serif" font-size="10.00" fill="#000000">DWC_s2p_CGLS</text>
</a>
</g>
</g>
<!-- Node1&#45;&gt;Node3 -->
<g id="edge2" class="edge">
<title>Node1&#45;&gt;Node3</title>
<path fill="none" stroke="#191970" d="M67.7313,-72.8114C77.629,-74.4173 88.3743,-76.1607 98.6399,-77.8263"/>
<polygon fill="#191970" stroke="#191970" points="68.2107,-69.3435 57.7792,-71.1966 67.0896,-76.2531 68.2107,-69.3435"/>
</g>
<!-- Node7 -->
<g id="node7" class="node">
<title>Node7</title>
<g id="a_node7"><a xlink:href="Conti2D_8h_a08f63b90a388692c22c4799d19a80207.html#a08f63b90a388692c22c4799d19a80207" target="_top" xlink:title="DWC_s2p_Tikhonov">
<polygon fill="#ffffff" stroke="#000000" points="234.2051,-19.5 234.2051,-37.5 341.543,-37.5 341.543,-19.5 234.2051,-19.5"/>
<text text-anchor="middle" x="287.874" y="-25.5" font-family="Helvetica,sans-Serif" font-size="10.00" fill="#000000">DWC_s2p_Tikhonov</text>
</a>
</g>
</g>
<!-- Node1&#45;&gt;Node7 -->
<g id="edge7" class="edge">
<title>Node1&#45;&gt;Node7</title>
<path fill="none" stroke="#191970" d="M67.8533,-60.7759C112.0407,-54.2938 184.3219,-43.6905 233.8993,-36.4178"/>
<polygon fill="#191970" stroke="#191970" points="67.1799,-57.3371 57.7939,-62.2515 68.196,-64.263 67.1799,-57.3371"/>
</g>
<!-- Node8 -->
<g id="node8" class="node">
<title>Node8</title>
<g id="a_node8"><a xlink:href="Conti2D_8h_a4a8eda8a2eef4509306c37faad796c2f.html#a4a8eda8a2eef4509306c37faad796c2f" target="_top" xlink:title="UWC_G_CGLS_Tik">
<polygon fill="#ffffff" stroke="#000000" points="93.665,-.5 93.665,-18.5 198.2051,-18.5 198.2051,-.5 93.665,-.5"/>
<text text-anchor="middle" x="145.9351" y="-6.5" font-family="Helvetica,sans-Serif" font-size="10.00" fill="#000000">UWC_G_CGLS_Tik</text>
</a>
</g>
</g>
<!-- Node1&#45;&gt;Node8 -->
<g id="edge8" class="edge">
<title>Node1&#45;&gt;Node8</title>
<path fill="none" stroke="#191970" d="M55.2968,-52.7249C67.001,-46.7118 80.9637,-39.6454 93.665,-33.5 104.0919,-28.4551 115.8016,-23.0544 125.4907,-18.6562"/>
<polygon fill="#191970" stroke="#191970" points="53.3549,-49.7885 46.0738,-57.485 56.5653,-56.0089 53.3549,-49.7885"/>
</g>
<!-- Node4 -->
<g id="node4" class="node">
<title>Node4</title>
<g id="a_node4"><a xlink:href="Conti2D_8h_ac96429563a5015babafa3274c3f3ec73.html#ac96429563a5015babafa3274c3f3ec73" target="_top" xlink:title="downward continuation from surface to plane ">
<polygon fill="#ffffff" stroke="#000000" points="257.0908,-94.5 257.0908,-112.5 318.6572,-112.5 318.6572,-94.5 257.0908,-94.5"/>
<text text-anchor="middle" x="287.874" y="-100.5" font-family="Helvetica,sans-Serif" font-size="10.00" fill="#000000">DWC_s2p</text>
</a>
</g>
</g>
<!-- Node3&#45;&gt;Node4 -->
<g id="edge3" class="edge">
<title>Node3&#45;&gt;Node4</title>
<path fill="none" stroke="#191970" d="M203.223,-92.765C221.5602,-95.0904 241.164,-97.5765 256.8839,-99.57"/>
<polygon fill="#191970" stroke="#191970" points="203.5596,-89.2797 193.1987,-91.4937 202.6789,-96.2241 203.5596,-89.2797"/>
</g>
<!-- Node6 -->
<g id="node6" class="node">
<title>Node6</title>
<g id="a_node6"><a xlink:href="Conti2D_8h_ab87ce573de93575b7ece2e4f772e03fd.html#ab87ce573de93575b7ece2e4f772e03fd" target="_top" xlink:title="DWC_p2p">
<polygon fill="#ffffff" stroke="#000000" points="256.8101,-57.5 256.8101,-75.5 318.938,-75.5 318.938,-57.5 256.8101,-57.5"/>
<text text-anchor="middle" x="287.874" y="-63.5" font-family="Helvetica,sans-Serif" font-size="10.00" fill="#000000">DWC_p2p</text>
</a>
</g>
</g>
<!-- Node3&#45;&gt;Node6 -->
<g id="edge5" class="edge">
<title>Node3&#45;&gt;Node6</title>
<path fill="none" stroke="#191970" d="M203.1446,-77.8419C221.3372,-75.4066 240.7842,-72.8035 256.453,-70.706"/>
<polygon fill="#191970" stroke="#191970" points="202.6459,-74.3774 193.1987,-79.1733 203.5747,-81.3155 202.6459,-74.3774"/>
</g>
<!-- Node5 -->
<g id="node5" class="node">
<title>Node5</title>
<g id="a_node5"><a xlink:href="main_8cpp_a0ddf1224851353fc92bfbff6f499fa97.html#a0ddf1224851353fc92bfbff6f499fa97" target="_top" xlink:title="main">
<polygon fill="#ffffff" stroke="#000000" points="377.543,-75.5 377.543,-93.5 415.2178,-93.5 415.2178,-75.5 377.543,-75.5"/>
<text text-anchor="middle" x="396.3804" y="-81.5" font-family="Helvetica,sans-Serif" font-size="10.00" fill="#000000">main</text>
</a>
</g>
</g>
<!-- Node4&#45;&gt;Node5 -->
<g id="edge4" class="edge">
<title>Node4&#45;&gt;Node5</title>
<path fill="none" stroke="#191970" d="M328.7898,-96.3354C345.5038,-93.4087 364.0183,-90.1668 377.4374,-87.817"/>
<polygon fill="#191970" stroke="#191970" points="327.9238,-92.9338 318.6773,-98.1062 329.1312,-99.8288 327.9238,-92.9338"/>
</g>
<!-- Node6&#45;&gt;Node5 -->
<g id="edge6" class="edge">
<title>Node6&#45;&gt;Node5</title>
<path fill="none" stroke="#191970" d="M329.0679,-73.3336C345.7512,-76.1012 364.1862,-79.1593 377.5391,-81.3744"/>
<polygon fill="#191970" stroke="#191970" points="329.4056,-69.8419 318.9676,-71.6581 328.26,-76.7475 329.4056,-69.8419"/>
</g>
<!-- Node8&#45;&gt;Node7 -->
<g id="edge9" class="edge">
<title>Node8&#45;&gt;Node7</title>
<path fill="none" stroke="#191970" d="M208.5265,-17.8785C216.9322,-19.0037 225.4969,-20.1502 233.74,-21.2536"/>
<polygon fill="#191970" stroke="#191970" points="208.7606,-14.3787 198.3846,-16.5209 207.8318,-21.3168 208.7606,-14.3787"/>
</g>
</g>
</svg>
