<?xml version="1.0" encoding="UTF-8" standalone="no"?>
<!DOCTYPE svg PUBLIC "-//W3C//DTD SVG 1.1//EN"
 "http://www.w3.org/Graphics/SVG/1.1/DTD/svg11.dtd">
<!-- Generated by graphviz version 2.40.1 (20161225.0304)
 -->
<!-- Title: FFTN.h Pages: 1 -->
<svg width="179pt" height="82pt"
 viewBox="0.00 0.00 178.93 82.00" xmlns="http://www.w3.org/2000/svg" xmlns:xlink="http://www.w3.org/1999/xlink">
<g id="graph0" class="graph" transform="scale(1 1) rotate(0) translate(4 78)">
<title>FFTN.h</title>
<polygon fill="#ffffff" stroke="transparent" points="-4,4 -4,-78 174.9268,-78 174.9268,4 -4,4"/>
<!-- Node0 -->
<g id="node1" class="node">
<title>Node0</title>
<polygon fill="#bfbfbf" stroke="#000000" points="59.6978,-55.5 59.6978,-73.5 109.5845,-73.5 109.5845,-55.5 59.6978,-55.5"/>
<text text-anchor="middle" x="84.6411" y="-61.5" font-family="Helvetica,sans-Serif" font-size="10.00" fill="#000000">FFTN.h</text>
</g>
<!-- Node1 -->
<g id="node2" class="node">
<title>Node1</title>
<polygon fill="#ffffff" stroke="#bfbfbf" points="0,-.5 0,-18.5 45.2822,-18.5 45.2822,-.5 0,-.5"/>
<text text-anchor="middle" x="22.6411" y="-6.5" font-family="Helvetica,sans-Serif" font-size="10.00" fill="#000000">fftw3.h</text>
</g>
<!-- Node0&#45;&gt;Node1 -->
<g id="edge1" class="edge">
<title>Node0&#45;&gt;Node1</title>
<path fill="none" stroke="#191970" d="M74.4031,-55.4179C65.3037,-47.3458 51.7874,-35.3556 40.8485,-25.6517"/>
<polygon fill="#191970" stroke="#191970" points="42.905,-22.7974 33.1016,-18.7795 38.2597,-28.0339 42.905,-22.7974"/>
</g>
<!-- Node2 -->
<g id="node3" class="node">
<title>Node2</title>
<polygon fill="#ffffff" stroke="#bfbfbf" points="63.0254,-.5 63.0254,-18.5 106.2568,-18.5 106.2568,-.5 63.0254,-.5"/>
<text text-anchor="middle" x="84.6411" y="-6.5" font-family="Helvetica,sans-Serif" font-size="10.00" fill="#000000">vector</text>
</g>
<!-- Node0&#45;&gt;Node2 -->
<g id="edge2" class="edge">
<title>Node0&#45;&gt;Node2</title>
<path fill="none" stroke="#191970" d="M84.6411,-55.4179C84.6411,-48.2164 84.6411,-37.8962 84.6411,-28.8632"/>
<polygon fill="#191970" stroke="#191970" points="88.1412,-28.7794 84.6411,-18.7795 81.1412,-28.7795 88.1412,-28.7794"/>
</g>
<!-- Node3 -->
<g id="node4" class="node">
<title>Node3</title>
<polygon fill="#ffffff" stroke="#bfbfbf" points="124.3555,-.5 124.3555,-18.5 170.9268,-18.5 170.9268,-.5 124.3555,-.5"/>
<text text-anchor="middle" x="147.6411" y="-6.5" font-family="Helvetica,sans-Serif" font-size="10.00" fill="#000000">math.h</text>
</g>
<!-- Node0&#45;&gt;Node3 -->
<g id="edge3" class="edge">
<title>Node0&#45;&gt;Node3</title>
<path fill="none" stroke="#191970" d="M95.0443,-55.4179C104.3811,-47.2667 118.2944,-35.1201 129.4663,-25.3669"/>
<polygon fill="#191970" stroke="#191970" points="131.7805,-27.9927 137.0119,-18.7795 127.1769,-22.7194 131.7805,-27.9927"/>
</g>
</g>
</svg>
