<?xml version="1.0" encoding="UTF-8" standalone="no"?>
<!DOCTYPE svg PUBLIC "-//W3C//DTD SVG 1.1//EN"
 "http://www.w3.org/Graphics/SVG/1.1/DTD/svg11.dtd">
<!-- Generated by graphviz version 2.40.1 (20161225.0304)
 -->
<!-- Title: FFTN.h Pages: 1 -->
<svg width="283pt" height="137pt"
 viewBox="0.00 0.00 283.04 137.00" xmlns="http://www.w3.org/2000/svg" xmlns:xlink="http://www.w3.org/1999/xlink">
<g id="graph0" class="graph" transform="scale(1 1) rotate(0) translate(4 133)">
<title>FFTN.h</title>
<polygon fill="#ffffff" stroke="transparent" points="-4,4 -4,-133 279.0366,-133 279.0366,4 -4,4"/>
<!-- Node4 -->
<g id="node1" class="node">
<title>Node4</title>
<polygon fill="#bfbfbf" stroke="#000000" points="131.5713,-110.5 131.5713,-128.5 181.458,-128.5 181.458,-110.5 131.5713,-110.5"/>
<text text-anchor="middle" x="156.5146" y="-116.5" font-family="Helvetica,sans-Serif" font-size="10.00" fill="#000000">FFTN.h</text>
</g>
<!-- Node5 -->
<g id="node2" class="node">
<title>Node5</title>
<g id="a_node2"><a xlink:href="Conti2D_8h.html" target="_top" xlink:title="Definition of sub&#45;functions of continuation of potential field data. ">
<polygon fill="#ffffff" stroke="#000000" points="87.2808,-55.5 87.2808,-73.5 147.7485,-73.5 147.7485,-55.5 87.2808,-55.5"/>
<text text-anchor="middle" x="117.5146" y="-61.5" font-family="Helvetica,sans-Serif" font-size="10.00" fill="#000000">Conti2D.h</text>
</a>
</g>
</g>
<!-- Node4&#45;&gt;Node5 -->
<g id="edge1" class="edge">
<title>Node4&#45;&gt;Node5</title>
<path fill="none" stroke="#191970" d="M144.2094,-102.1465C137.5467,-92.7503 129.5805,-81.5159 124.0946,-73.7795"/>
<polygon fill="#191970" stroke="#191970" points="141.4352,-104.285 150.0746,-110.4179 147.1453,-100.236 141.4352,-104.285"/>
</g>
<!-- Node9 -->
<g id="node6" class="node">
<title>Node9</title>
<g id="a_node6"><a xlink:href="FFTN_8cpp.html" target="_top" xlink:title="Implementation of 2D and 1D Fast Fourier Fransformation (FFT) based on FFTW (see http://www.fftw.org) ">
<polygon fill="#ffffff" stroke="#000000" points="165.2905,-55.5 165.2905,-73.5 225.7388,-73.5 225.7388,-55.5 165.2905,-55.5"/>
<text text-anchor="middle" x="195.5146" y="-61.5" font-family="Helvetica,sans-Serif" font-size="10.00" fill="#000000">FFTN.cpp</text>
</a>
</g>
</g>
<!-- Node4&#45;&gt;Node9 -->
<g id="edge5" class="edge">
<title>Node4&#45;&gt;Node9</title>
<path fill="none" stroke="#191970" d="M168.8199,-102.1465C175.4826,-92.7503 183.4488,-81.5159 188.9347,-73.7795"/>
<polygon fill="#191970" stroke="#191970" points="165.884,-100.236 162.9547,-110.4179 171.5941,-104.285 165.884,-100.236"/>
</g>
<!-- Node6 -->
<g id="node3" class="node">
<title>Node6</title>
<g id="a_node3"><a xlink:href="Conti2D_8cpp.html" target="_top" xlink:title="Implementation of the sub&#45;functions of continuation of potential field in spatial domain...">
<polygon fill="#ffffff" stroke="#000000" points="0,-.5 0,-18.5 71.0293,-18.5 71.0293,-.5 0,-.5"/>
<text text-anchor="middle" x="35.5146" y="-6.5" font-family="Helvetica,sans-Serif" font-size="10.00" fill="#000000">Conti2D.cpp</text>
</a>
</g>
</g>
<!-- Node5&#45;&gt;Node6 -->
<g id="edge2" class="edge">
<title>Node5&#45;&gt;Node6</title>
<path fill="none" stroke="#191970" d="M95.4094,-49.6733C80.6323,-39.7619 61.6641,-27.0393 49.0754,-18.5956"/>
<polygon fill="#191970" stroke="#191970" points="93.7195,-52.7542 103.974,-55.4179 97.6187,-46.9408 93.7195,-52.7542"/>
</g>
<!-- Node7 -->
<g id="node4" class="node">
<title>Node7</title>
<g id="a_node4"><a xlink:href="main_8cpp.html" target="_top" xlink:title="The C++ main function of the continuation program conti2d. ">
<polygon fill="#ffffff" stroke="#000000" points="89.2266,-.5 89.2266,-18.5 145.8027,-18.5 145.8027,-.5 89.2266,-.5"/>
<text text-anchor="middle" x="117.5146" y="-6.5" font-family="Helvetica,sans-Serif" font-size="10.00" fill="#000000">main.cpp</text>
</a>
</g>
</g>
<!-- Node5&#45;&gt;Node7 -->
<g id="edge3" class="edge">
<title>Node5&#45;&gt;Node7</title>
<path fill="none" stroke="#191970" d="M117.5146,-45.383C117.5146,-36.3738 117.5146,-26.0373 117.5146,-18.7795"/>
<polygon fill="#191970" stroke="#191970" points="114.0147,-45.4178 117.5146,-55.4179 121.0147,-45.4179 114.0147,-45.4178"/>
</g>
<!-- Node8 -->
<g id="node5" class="node">
<title>Node8</title>
<g id="a_node5"><a xlink:href="MultiProgressBar_8cpp.html" target="_top" xlink:title="Implementation of progress bar. ">
<polygon fill="#ffffff" stroke="#000000" points="163.9927,-.5 163.9927,-18.5 275.0366,-18.5 275.0366,-.5 163.9927,-.5"/>
<text text-anchor="middle" x="219.5146" y="-6.5" font-family="Helvetica,sans-Serif" font-size="10.00" fill="#000000">MultiProgressBar.cpp</text>
</a>
</g>
</g>
<!-- Node5&#45;&gt;Node8 -->
<g id="edge4" class="edge">
<title>Node5&#45;&gt;Node8</title>
<path fill="none" stroke="#191970" d="M143.2082,-50.6456C161.8259,-40.6067 186.4702,-27.3181 202.6464,-18.5956"/>
<polygon fill="#191970" stroke="#191970" points="141.4987,-47.591 134.3579,-55.4179 144.821,-53.7524 141.4987,-47.591"/>
</g>
</g>
</svg>
