<?xml version="1.0" encoding="UTF-8" standalone="no"?>
<!DOCTYPE svg PUBLIC "-//W3C//DTD SVG 1.1//EN"
 "http://www.w3.org/Graphics/SVG/1.1/DTD/svg11.dtd">
<!-- Generated by graphviz version 2.40.1 (20161225.0304)
 -->
<!-- Title: main Pages: 1 -->
<svg width="514pt" height="705pt"
 viewBox="0.00 0.00 514.24 705.00" xmlns="http://www.w3.org/2000/svg" xmlns:xlink="http://www.w3.org/1999/xlink">
<g id="graph0" class="graph" transform="scale(1 1) rotate(0) translate(4 701)">
<title>main</title>
<polygon fill="#ffffff" stroke="transparent" points="-4,4 -4,-701 510.2383,-701 510.2383,4 -4,4"/>
<!-- Node0 -->
<g id="node1" class="node">
<title>Node0</title>
<polygon fill="#bfbfbf" stroke="#000000" points="0,-210.5 0,-228.5 37.6748,-228.5 37.6748,-210.5 0,-210.5"/>
<text text-anchor="middle" x="18.8374" y="-216.5" font-family="Helvetica,sans-Serif" font-size="10.00" fill="#000000">main</text>
</g>
<!-- Node1 -->
<g id="node2" class="node">
<title>Node1</title>
<g id="a_node2"><a xlink:href="Conti2D_8cpp_ac80c719a8192b6133df6ae172662e51a.html#ac80c719a8192b6133df6ae172662e51a" target="_top" xlink:title="Downward continuation: plane to plane(space domain) ">
<polygon fill="#ffffff" stroke="#000000" points="92.1172,-413.5 92.1172,-431.5 154.2451,-431.5 154.2451,-413.5 92.1172,-413.5"/>
<text text-anchor="middle" x="123.1812" y="-419.5" font-family="Helvetica,sans-Serif" font-size="10.00" fill="#000000">DWC_p2p</text>
</a>
</g>
</g>
<!-- Node0&#45;&gt;Node1 -->
<g id="edge1" class="edge">
<title>Node0&#45;&gt;Node1</title>
<path fill="none" stroke="#191970" d="M20.4493,-228.761C26.4794,-262.4519 48.6489,-377.9106 73.6748,-404.5 76.3054,-407.2949 79.404,-409.6572 82.7465,-411.6536"/>
<polygon fill="#191970" stroke="#191970" points="81.4832,-414.9303 92.0099,-416.1295 84.5286,-408.6275 81.4832,-414.9303"/>
</g>
<!-- Node13 -->
<g id="node14" class="node">
<title>Node13</title>
<g id="a_node14"><a xlink:href="Conti2D_8cpp_a3496875ee7899a1eb81958f420b18cb2.html#a3496875ee7899a1eb81958f420b18cb2" target="_top" xlink:title="Downward continuation: uneven surface to plane(space domain) ">
<polygon fill="#ffffff" stroke="#000000" points="92.3979,-376.5 92.3979,-394.5 153.9644,-394.5 153.9644,-376.5 92.3979,-376.5"/>
<text text-anchor="middle" x="123.1812" y="-382.5" font-family="Helvetica,sans-Serif" font-size="10.00" fill="#000000">DWC_s2p</text>
</a>
</g>
</g>
<!-- Node0&#45;&gt;Node13 -->
<g id="edge14" class="edge">
<title>Node0&#45;&gt;Node13</title>
<path fill="none" stroke="#191970" d="M19.5965,-228.5516C22.2099,-254.0313 33.0559,-327.1285 73.6748,-367.5 76.3971,-370.2057 79.5573,-372.508 82.9388,-374.4665"/>
<polygon fill="#191970" stroke="#191970" points="81.7225,-377.7634 92.2575,-378.8886 84.7236,-371.4393 81.7225,-377.7634"/>
</g>
<!-- Node19 -->
<g id="node20" class="node">
<title>Node19</title>
<g id="a_node20"><a xlink:href="stdfunc_8h_ae9ea2d2408945cb9ad31ee7f03ca183a.html#ae9ea2d2408945cb9ad31ee7f03ca183a" target="_top" xlink:title="helpINFO">
<polygon fill="#ffffff" stroke="#000000" points="93.7847,-210.5 93.7847,-228.5 152.5776,-228.5 152.5776,-210.5 93.7847,-210.5"/>
<text text-anchor="middle" x="123.1812" y="-216.5" font-family="Helvetica,sans-Serif" font-size="10.00" fill="#000000">helpINFO</text>
</a>
</g>
</g>
<!-- Node0&#45;&gt;Node19 -->
<g id="edge27" class="edge">
<title>Node0&#45;&gt;Node19</title>
<path fill="none" stroke="#191970" d="M37.9757,-219.5C50.5956,-219.5 67.5963,-219.5 83.0921,-219.5"/>
<polygon fill="#191970" stroke="#191970" points="83.5073,-223.0001 93.5072,-219.5 83.5072,-216.0001 83.5073,-223.0001"/>
</g>
<!-- Node21 -->
<g id="node22" class="node">
<title>Node21</title>
<g id="a_node22"><a xlink:href="main_8cpp_adab29bff9da0db53a1c9a47fed7144bb.html#adab29bff9da0db53a1c9a47fed7144bb" target="_top" xlink:title="isNum">
<polygon fill="#ffffff" stroke="#000000" points="101.0137,-173.5 101.0137,-191.5 145.3486,-191.5 145.3486,-173.5 101.0137,-173.5"/>
<text text-anchor="middle" x="123.1812" y="-179.5" font-family="Helvetica,sans-Serif" font-size="10.00" fill="#000000">isNum</text>
</a>
</g>
</g>
<!-- Node0&#45;&gt;Node21 -->
<g id="edge29" class="edge">
<title>Node0&#45;&gt;Node21</title>
<path fill="none" stroke="#191970" d="M37.9757,-212.7136C52.8286,-207.4468 73.7495,-200.0283 91.1436,-193.8604"/>
<polygon fill="#191970" stroke="#191970" points="92.6496,-197.04 100.9048,-190.3991 90.3101,-190.4425 92.6496,-197.04"/>
</g>
<!-- Node22 -->
<g id="node23" class="node">
<title>Node22</title>
<g id="a_node23"><a xlink:href="stdfunc_8h_a7e3ffae645d4a98ee8a39830e6dd2f46.html#a7e3ffae645d4a98ee8a39830e6dd2f46" target="_top" xlink:title="OutputErrorinfo">
<polygon fill="#ffffff" stroke="#000000" points="80.999,-136.5 80.999,-154.5 165.3633,-154.5 165.3633,-136.5 80.999,-136.5"/>
<text text-anchor="middle" x="123.1812" y="-142.5" font-family="Helvetica,sans-Serif" font-size="10.00" fill="#000000">OutputErrorinfo</text>
</a>
</g>
</g>
<!-- Node0&#45;&gt;Node22 -->
<g id="edge30" class="edge">
<title>Node0&#45;&gt;Node22</title>
<path fill="none" stroke="#191970" d="M25.6578,-210.3116C35.1726,-198.0751 53.5421,-176.4701 73.6748,-163.5 76.4425,-161.717 79.4108,-160.0795 82.4685,-158.5818"/>
<polygon fill="#191970" stroke="#191970" points="84.0383,-161.7154 91.7989,-154.5027 81.2342,-155.3016 84.0383,-161.7154"/>
</g>
<!-- Node23 -->
<g id="node24" class="node">
<title>Node23</title>
<g id="a_node24"><a xlink:href="stdfunc_8h_af6e0e75c33384cc17e08626d17dc381d.html#af6e0e75c33384cc17e08626d17dc381d" target="_top" xlink:title="OutputWarninginfo">
<polygon fill="#ffffff" stroke="#000000" points="73.6748,-99.5 73.6748,-117.5 172.6875,-117.5 172.6875,-99.5 73.6748,-99.5"/>
<text text-anchor="middle" x="123.1812" y="-105.5" font-family="Helvetica,sans-Serif" font-size="10.00" fill="#000000">OutputWarninginfo</text>
</a>
</g>
</g>
<!-- Node0&#45;&gt;Node23 -->
<g id="edge31" class="edge">
<title>Node0&#45;&gt;Node23</title>
<path fill="none" stroke="#191970" d="M21.8061,-210.4382C28.2858,-192.0213 45.4202,-149.9804 73.6748,-126.5 75.4464,-125.0278 77.3486,-123.671 79.3386,-122.4212"/>
<polygon fill="#191970" stroke="#191970" points="81.2754,-125.3569 88.4927,-117.6005 78.0137,-119.1633 81.2754,-125.3569"/>
</g>
<!-- Node24 -->
<g id="node25" class="node">
<title>Node24</title>
<g id="a_node25"><a xlink:href="stdfunc_8h_af1fa497bd2e5d983e49f2401e3470c92.html#af1fa497bd2e5d983e49f2401e3470c92" target="_top" xlink:title="StartText">
<polygon fill="#ffffff" stroke="#000000" points="95.4521,-62.5 95.4521,-80.5 150.9102,-80.5 150.9102,-62.5 95.4521,-62.5"/>
<text text-anchor="middle" x="123.1812" y="-68.5" font-family="Helvetica,sans-Serif" font-size="10.00" fill="#000000">StartText</text>
</a>
</g>
</g>
<!-- Node0&#45;&gt;Node24 -->
<g id="edge32" class="edge">
<title>Node0&#45;&gt;Node24</title>
<path fill="none" stroke="#191970" d="M20.1665,-210.1971C24.0104,-186.6488 37.283,-124.1007 73.6748,-89.5 77.2165,-86.1326 81.4368,-83.3867 85.8979,-81.1496"/>
<polygon fill="#191970" stroke="#191970" points="87.3786,-84.3242 95.2532,-77.2361 84.6772,-77.8664 87.3786,-84.3242"/>
</g>
<!-- Node25 -->
<g id="node26" class="node">
<title>Node25</title>
<g id="a_node26"><a xlink:href="stdfunc_8h_a45d91f9b0b8852118211734681191355.html#a45d91f9b0b8852118211734681191355" target="_top" xlink:title="StartText_artASCII">
<polygon fill="#ffffff" stroke="#000000" points="73.7773,-25.5 73.7773,-43.5 172.585,-43.5 172.585,-25.5 73.7773,-25.5"/>
<text text-anchor="middle" x="123.1812" y="-31.5" font-family="Helvetica,sans-Serif" font-size="10.00" fill="#000000">StartText_artASCII</text>
</a>
</g>
</g>
<!-- Node0&#45;&gt;Node25 -->
<g id="edge33" class="edge">
<title>Node0&#45;&gt;Node25</title>
<path fill="none" stroke="#191970" d="M19.1714,-210.12C20.6688,-182.2056 28.8665,-98.7404 73.6748,-52.5 74.8999,-51.2357 76.2207,-50.0598 77.6159,-48.9661"/>
<polygon fill="#191970" stroke="#191970" points="79.6448,-51.8255 86.2711,-43.5585 75.9357,-45.8889 79.6448,-51.8255"/>
</g>
<!-- Node26 -->
<g id="node27" class="node">
<title>Node26</title>
<g id="a_node27"><a xlink:href="Conti2D_8cpp_a05f1b014599cdda496e9bf781d4737d4.html#a05f1b014599cdda496e9bf781d4737d4" target="_top" xlink:title="Upward continuation: plane to plane(space domain) ">
<polygon fill="#ffffff" stroke="#000000" points="92.1172,-302.5 92.1172,-320.5 154.2451,-320.5 154.2451,-302.5 92.1172,-302.5"/>
<text text-anchor="middle" x="123.1812" y="-308.5" font-family="Helvetica,sans-Serif" font-size="10.00" fill="#000000">UWC_p2p</text>
</a>
</g>
</g>
<!-- Node0&#45;&gt;Node26 -->
<g id="edge34" class="edge">
<title>Node0&#45;&gt;Node26</title>
<path fill="none" stroke="#191970" d="M23.2889,-228.5852C31.2994,-244.0425 49.5784,-275.5258 73.6748,-293.5 76.4719,-295.5864 79.5349,-297.4508 82.7226,-299.1129"/>
<polygon fill="#191970" stroke="#191970" points="81.3652,-302.3403 91.9185,-303.2781 84.2534,-295.9639 81.3652,-302.3403"/>
</g>
<!-- Node27 -->
<g id="node28" class="node">
<title>Node27</title>
<g id="a_node28"><a xlink:href="Conti2D_8cpp_af82757cb7e0f4f398e774b4e89b9ea72.html#af82757cb7e0f4f398e774b4e89b9ea72" target="_top" xlink:title="Upward continuation: plane to plane(frequency domain) ">
<polygon fill="#ffffff" stroke="#000000" points="87.9473,-247.5 87.9473,-265.5 158.415,-265.5 158.415,-247.5 87.9473,-247.5"/>
<text text-anchor="middle" x="123.1812" y="-253.5" font-family="Helvetica,sans-Serif" font-size="10.00" fill="#000000">UWC_p2p_f</text>
</a>
</g>
</g>
<!-- Node0&#45;&gt;Node27 -->
<g id="edge44" class="edge">
<title>Node0&#45;&gt;Node27</title>
<path fill="none" stroke="#191970" d="M37.9757,-226.2864C51.9433,-231.2393 71.2772,-238.095 87.9978,-244.0241"/>
<polygon fill="#191970" stroke="#191970" points="86.8856,-247.3432 97.4804,-247.3866 89.2251,-240.7457 86.8856,-247.3432"/>
</g>
<!-- Node28 -->
<g id="node29" class="node">
<title>Node28</title>
<g id="a_node29"><a xlink:href="Conti2D_8cpp_a9fcb7711c4e230ba259de4ed9be39ccd.html#a9fcb7711c4e230ba259de4ed9be39ccd" target="_top" xlink:title="Upward continuation: plane to surface(space domain) ">
<polygon fill="#ffffff" stroke="#000000" points="92.3979,-339.5 92.3979,-357.5 153.9644,-357.5 153.9644,-339.5 92.3979,-339.5"/>
<text text-anchor="middle" x="123.1812" y="-345.5" font-family="Helvetica,sans-Serif" font-size="10.00" fill="#000000">UWC_p2s</text>
</a>
</g>
</g>
<!-- Node0&#45;&gt;Node28 -->
<g id="edge53" class="edge">
<title>Node0&#45;&gt;Node28</title>
<path fill="none" stroke="#191970" d="M20.8866,-228.678C26.0399,-249.6874 41.4903,-301.6782 73.6748,-330.5 76.4979,-333.0281 79.7041,-335.2094 83.0955,-337.0899"/>
<polygon fill="#191970" stroke="#191970" points="81.8253,-340.359 92.3692,-341.3968 84.7739,-334.0103 81.8253,-340.359"/>
</g>
<!-- Node2 -->
<g id="node3" class="node">
<title>Node2</title>
<g id="a_node3"><a xlink:href="Conti2D_8cpp_a7730328c8e132ff0a35142a6d31bac18.html#a7730328c8e132ff0a35142a6d31bac18" target="_top" xlink:title="Calculate downward continuation of potential field from surface to a plane. ">
<polygon fill="#ffffff" stroke="#000000" points="208.6875,-604.5 208.6875,-622.5 339.7461,-622.5 339.7461,-604.5 208.6875,-604.5"/>
<text text-anchor="middle" x="274.2168" y="-610.5" font-family="Helvetica,sans-Serif" font-size="10.00" fill="#000000">DWC_s2p_LandweberIter</text>
</a>
</g>
</g>
<!-- Node1&#45;&gt;Node2 -->
<g id="edge2" class="edge">
<title>Node1&#45;&gt;Node2</title>
<path fill="none" stroke="#191970" d="M125.3073,-431.5491C132.2702,-459.2438 156.9702,-543.7427 208.6875,-589.5 213.5704,-593.8202 219.296,-597.3846 225.2942,-600.3201"/>
<polygon fill="#191970" stroke="#191970" points="224.2931,-603.6994 234.8625,-604.4335 227.0578,-597.2684 224.2931,-603.6994"/>
</g>
<!-- Node9 -->
<g id="node10" class="node">
<title>Node9</title>
<g id="a_node10"><a xlink:href="Conti2D_8cpp_a6f44a06f2b4926f66481fccf277bea50.html#a6f44a06f2b4926f66481fccf277bea50" target="_top" xlink:title="Ger complete kernel matrix for upward continuation from plane to plane. ">
<polygon fill="#ffffff" stroke="#000000" points="221.4634,-641.5 221.4634,-659.5 326.9702,-659.5 326.9702,-641.5 221.4634,-641.5"/>
<text text-anchor="middle" x="274.2168" y="-647.5" font-family="Helvetica,sans-Serif" font-size="10.00" fill="#000000">Getkernel_p2p_new</text>
</a>
</g>
</g>
<!-- Node1&#45;&gt;Node9 -->
<g id="edge9" class="edge">
<title>Node1&#45;&gt;Node9</title>
<path fill="none" stroke="#191970" d="M124.0826,-431.6875C127.7873,-464.3299 144.8119,-575.7839 208.6875,-632.5 210.2424,-633.8806 211.8938,-635.1565 213.6211,-636.3354"/>
<polygon fill="#191970" stroke="#191970" points="212.3566,-639.6381 222.7938,-641.4591 215.7703,-633.5269 212.3566,-639.6381"/>
</g>
<!-- Node11 -->
<g id="node12" class="node">
<title>Node11</title>
<g id="a_node12"><a xlink:href="stdfunc_8cpp_a2c90cdea3ca11177ba34c14a3b0a00cb.html#a2c90cdea3ca11177ba34c14a3b0a00cb" target="_top" xlink:title="Read a ASCII Surfer format grid (6) ">
<polygon fill="#ffffff" stroke="#000000" points="245.9287,-376.5 245.9287,-394.5 302.5049,-394.5 302.5049,-376.5 245.9287,-376.5"/>
<text text-anchor="middle" x="274.2168" y="-382.5" font-family="Helvetica,sans-Serif" font-size="10.00" fill="#000000">ReadGrd</text>
</a>
</g>
</g>
<!-- Node1&#45;&gt;Node11 -->
<g id="edge12" class="edge">
<title>Node1&#45;&gt;Node11</title>
<path fill="none" stroke="#191970" d="M154.4758,-414.8336C178.0937,-409.0478 210.6218,-401.0792 235.815,-394.9075"/>
<polygon fill="#191970" stroke="#191970" points="236.888,-398.2482 245.768,-392.4693 235.2223,-391.4493 236.888,-398.2482"/>
</g>
<!-- Node12 -->
<g id="node13" class="node">
<title>Node12</title>
<g id="a_node13"><a xlink:href="stdfunc_8cpp_ab76adf263893ac28772283c5a00b964c.html#ab76adf263893ac28772283c5a00b964c" target="_top" xlink:title="Save a grid data as ASCII surfer grid file. ">
<polygon fill="#ffffff" stroke="#000000" points="246.4854,-339.5 246.4854,-357.5 301.9482,-357.5 301.9482,-339.5 246.4854,-339.5"/>
<text text-anchor="middle" x="274.2168" y="-345.5" font-family="Helvetica,sans-Serif" font-size="10.00" fill="#000000">SaveGrd</text>
</a>
</g>
</g>
<!-- Node1&#45;&gt;Node12 -->
<g id="edge13" class="edge">
<title>Node1&#45;&gt;Node12</title>
<path fill="none" stroke="#191970" d="M154.3119,-413.6127C160.6464,-411.1457 167.081,-408.1246 172.6875,-404.5 191.9553,-392.0433 189.0161,-379.3091 208.6875,-367.5 217.2048,-362.3869 227.1745,-358.5848 236.7308,-355.7834"/>
<polygon fill="#191970" stroke="#191970" points="237.6869,-359.151 246.4616,-353.2134 235.8993,-352.3831 237.6869,-359.151"/>
</g>
<!-- Node3 -->
<g id="node4" class="node">
<title>Node3</title>
<g id="a_node4"><a xlink:href="stdfunc_8cpp_a98827c14ed7072c96834f20205c7a916.html#a98827c14ed7072c96834f20205c7a916" target="_top" xlink:title="Norm2">
<polygon fill="#ffffff" stroke="#000000" points="417.9897,-567.5 417.9897,-585.5 463.9946,-585.5 463.9946,-567.5 417.9897,-567.5"/>
<text text-anchor="middle" x="440.9922" y="-573.5" font-family="Helvetica,sans-Serif" font-size="10.00" fill="#000000">Norm2</text>
</a>
</g>
</g>
<!-- Node2&#45;&gt;Node3 -->
<g id="edge3" class="edge">
<title>Node2&#45;&gt;Node3</title>
<path fill="none" stroke="#191970" d="M315.0146,-604.4488C343.4488,-598.1405 380.914,-589.8287 407.578,-583.9131"/>
<polygon fill="#191970" stroke="#191970" points="408.5745,-587.2772 417.5791,-581.6943 407.0584,-580.4434 408.5745,-587.2772"/>
</g>
<!-- Node4 -->
<g id="node5" class="node">
<title>Node4</title>
<g id="a_node5"><a xlink:href="stdfunc_8cpp_a43fc3af75243a047d61aadea31c0fa9c.html#a43fc3af75243a047d61aadea31c0fa9c" target="_top" xlink:title="Get 2nd norm of the gradient of a grid data. ">
<polygon fill="#ffffff" stroke="#000000" points="396.0317,-604.5 396.0317,-622.5 485.9526,-622.5 485.9526,-604.5 396.0317,-604.5"/>
<text text-anchor="middle" x="440.9922" y="-610.5" font-family="Helvetica,sans-Serif" font-size="10.00" fill="#000000">Norm2_Gradient</text>
</a>
</g>
</g>
<!-- Node2&#45;&gt;Node4 -->
<g id="edge4" class="edge">
<title>Node2&#45;&gt;Node4</title>
<path fill="none" stroke="#191970" d="M340.1308,-613.5C355.1502,-613.5 370.9614,-613.5 385.4951,-613.5"/>
<polygon fill="#191970" stroke="#191970" points="385.8226,-617.0001 395.8226,-613.5 385.8225,-610.0001 385.8226,-617.0001"/>
</g>
<!-- Node5 -->
<g id="node6" class="node">
<title>Node5</title>
<g id="a_node6"><a xlink:href="stdfunc_8cpp_a88f10a86b8808047787d2df5e8cbcb72.html#a88f10a86b8808047787d2df5e8cbcb72" target="_top" xlink:title="Get file name from a full path. ">
<polygon fill="#ffffff" stroke="#000000" points="390.4727,-433.5 390.4727,-451.5 491.5117,-451.5 491.5117,-433.5 390.4727,-433.5"/>
<text text-anchor="middle" x="440.9922" y="-439.5" font-family="Helvetica,sans-Serif" font-size="10.00" fill="#000000">Path_GetFileName</text>
</a>
</g>
</g>
<!-- Node2&#45;&gt;Node5 -->
<g id="edge5" class="edge">
<title>Node2&#45;&gt;Node5</title>
<path fill="none" stroke="#191970" d="M316.9101,-604.472C325.3919,-600.9883 333.5726,-596.1676 339.7461,-589.5 379.8959,-546.1372 334.1516,-503.479 375.7461,-461.5 377.5626,-459.6667 379.545,-458.008 381.6518,-456.5074"/>
<polygon fill="#191970" stroke="#191970" points="383.4252,-459.525 390.3062,-451.4687 379.9031,-453.4756 383.4252,-459.525"/>
</g>
<!-- Node6 -->
<g id="node7" class="node">
<title>Node6</title>
<g id="a_node7"><a xlink:href="stdfunc_8cpp_a6334abab105b1fe7efa9a3e2a4b07c47.html#a6334abab105b1fe7efa9a3e2a4b07c47" target="_top" xlink:title="Save results of at each iteration step as vtk file. ">
<polygon fill="#ffffff" stroke="#000000" points="400.7559,-396.5 400.7559,-414.5 481.2285,-414.5 481.2285,-396.5 400.7559,-396.5"/>
<text text-anchor="middle" x="440.9922" y="-402.5" font-family="Helvetica,sans-Serif" font-size="10.00" fill="#000000">SaveGrd2VTK</text>
</a>
</g>
</g>
<!-- Node2&#45;&gt;Node6 -->
<g id="edge6" class="edge">
<title>Node2&#45;&gt;Node6</title>
<path fill="none" stroke="#191970" d="M288.9808,-604.4564C303.9674,-594.5187 326.759,-577.1883 339.7461,-556.5 372.0768,-504.9975 333.117,-467.8651 375.7461,-424.5 380.0378,-420.1342 385.2704,-416.7576 390.8862,-414.1486"/>
<polygon fill="#191970" stroke="#191970" points="392.5042,-417.2775 400.6002,-410.4434 390.0095,-410.7371 392.5042,-417.2775"/>
</g>
<!-- Node7 -->
<g id="node8" class="node">
<title>Node7</title>
<g id="a_node8"><a xlink:href="classMultiProgressBar_a58eef55ad6d5c7d769b3a402a2ef7b85.html#a58eef55ad6d5c7d769b3a402a2ef7b85" target="_top" xlink:title="MultiProgressBar::Update">
<polygon fill="#ffffff" stroke="#000000" points="375.7461,-641.5 375.7461,-659.5 506.2383,-659.5 506.2383,-641.5 375.7461,-641.5"/>
<text text-anchor="middle" x="440.9922" y="-647.5" font-family="Helvetica,sans-Serif" font-size="10.00" fill="#000000">MultiProgressBar::Update</text>
</a>
</g>
</g>
<!-- Node2&#45;&gt;Node7 -->
<g id="edge7" class="edge">
<title>Node2&#45;&gt;Node7</title>
<path fill="none" stroke="#191970" d="M315.0146,-622.5512C337.7125,-627.5869 366.1653,-633.8992 390.2847,-639.2503"/>
<polygon fill="#191970" stroke="#191970" points="389.8061,-642.7291 400.3268,-641.4782 391.3223,-635.8953 389.8061,-642.7291"/>
</g>
<!-- Node8 -->
<g id="node9" class="node">
<title>Node8</title>
<g id="a_node9"><a xlink:href="Conti2D_8cpp_a632c1e4efbb7e9b1aaf04db729e69394.html#a632c1e4efbb7e9b1aaf04db729e69394" target="_top" xlink:title="Calculate upward continuation as , see equation (5). ">
<polygon fill="#ffffff" stroke="#000000" points="412.1597,-470.5 412.1597,-488.5 469.8247,-488.5 469.8247,-470.5 412.1597,-470.5"/>
<text text-anchor="middle" x="440.9922" y="-476.5" font-family="Helvetica,sans-Serif" font-size="10.00" fill="#000000">UWC_Gij</text>
</a>
</g>
</g>
<!-- Node2&#45;&gt;Node8 -->
<g id="edge8" class="edge">
<title>Node2&#45;&gt;Node8</title>
<path fill="none" stroke="#191970" d="M308.3522,-604.4313C318.9255,-600.7425 330.2761,-595.8262 339.7461,-589.5 359.8051,-576.1 404.114,-524.1645 426.8812,-496.72"/>
<polygon fill="#191970" stroke="#191970" points="429.7929,-498.6906 433.4582,-488.7499 424.3938,-494.2352 429.7929,-498.6906"/>
</g>
<!-- Node9&#45;&gt;Node7 -->
<g id="edge11" class="edge">
<title>Node9&#45;&gt;Node7</title>
<path fill="none" stroke="#191970" d="M326.9856,-650.5C339.1842,-650.5 352.3979,-650.5 365.3596,-650.5"/>
<polygon fill="#191970" stroke="#191970" points="365.6764,-654.0001 375.6764,-650.5 365.6764,-647.0001 365.6764,-654.0001"/>
</g>
<!-- Node10 -->
<g id="node11" class="node">
<title>Node10</title>
<g id="a_node11"><a xlink:href="Conti2D_8cpp_a4bb34ae88cf16e429505f9eb746384cd.html#a4bb34ae88cf16e429505f9eb746384cd" target="_top" xlink:title="Get the kernel vector for a calculation point . ">
<polygon fill="#ffffff" stroke="#000000" points="412.4307,-678.5 412.4307,-696.5 469.5537,-696.5 469.5537,-678.5 412.4307,-678.5"/>
<text text-anchor="middle" x="440.9922" y="-684.5" font-family="Helvetica,sans-Serif" font-size="10.00" fill="#000000">GetPmnij</text>
</a>
</g>
</g>
<!-- Node9&#45;&gt;Node10 -->
<g id="edge10" class="edge">
<title>Node9&#45;&gt;Node10</title>
<path fill="none" stroke="#191970" d="M315.0146,-659.5512C341.661,-665.4629 376.2385,-673.1341 402.4254,-678.9438"/>
<polygon fill="#191970" stroke="#191970" points="401.8514,-682.4014 412.3721,-681.1505 403.3676,-675.5676 401.8514,-682.4014"/>
</g>
<!-- Node13&#45;&gt;Node2 -->
<g id="edge15" class="edge">
<title>Node13&#45;&gt;Node2</title>
<path fill="none" stroke="#191970" d="M153.9772,-391.8869C161.0108,-394.6904 167.8343,-398.7178 172.6875,-404.5 226.539,-468.66 154.3443,-525.7559 208.6875,-589.5 212.1361,-593.5452 216.3275,-596.9088 220.9057,-599.7056"/>
<polygon fill="#191970" stroke="#191970" points="219.5975,-602.9681 230.093,-604.4155 222.791,-596.7389 219.5975,-602.9681"/>
</g>
<!-- Node13&#45;&gt;Node5 -->
<g id="edge20" class="edge">
<title>Node13&#45;&gt;Node5</title>
<path fill="none" stroke="#191970" d="M154.0742,-392.1273C161.0207,-394.9228 167.7792,-398.8862 172.6875,-404.5 218.3839,-456.7646 154.2332,-513.4363 208.6875,-556.5 254.3756,-592.6312 291.8131,-589.5951 339.7461,-556.5 376.9022,-530.8457 342.585,-492.144 375.7461,-461.5 377.7173,-459.6784 379.8535,-458.0305 382.1097,-456.5398"/>
<polygon fill="#191970" stroke="#191970" points="384.1996,-459.3874 391.312,-451.5347 380.855,-453.2381 384.1996,-459.3874"/>
</g>
<!-- Node13&#45;&gt;Node6 -->
<g id="edge24" class="edge">
<title>Node13&#45;&gt;Node6</title>
<path fill="none" stroke="#191970" d="M152.3253,-394.5974C159.2419,-397.3152 166.425,-400.6241 172.6875,-404.5 191.1438,-415.9226 188.4589,-429.6314 208.6875,-437.5 262.9734,-458.6163 282.37,-447.5422 339.7461,-437.5 356.5026,-434.5672 359.5716,-429.7696 375.7461,-424.5 383.0779,-422.1113 390.9188,-419.7039 398.5311,-417.4429"/>
<polygon fill="#191970" stroke="#191970" points="399.7312,-420.7386 408.3444,-414.569 397.7637,-414.0207 399.7312,-420.7386"/>
</g>
<!-- Node13&#45;&gt;Node11 -->
<g id="edge21" class="edge">
<title>Node13&#45;&gt;Node11</title>
<path fill="none" stroke="#191970" d="M154.1099,-385.5C177.776,-385.5 210.5444,-385.5 235.8764,-385.5"/>
<polygon fill="#191970" stroke="#191970" points="235.8802,-389.0001 245.8802,-385.5 235.8801,-382.0001 235.8802,-389.0001"/>
</g>
<!-- Node13&#45;&gt;Node12 -->
<g id="edge22" class="edge">
<title>Node13&#45;&gt;Node12</title>
<path fill="none" stroke="#191970" d="M154.1099,-377.9232C177.9277,-372.0884 210.9649,-363.9952 236.3626,-357.7733"/>
<polygon fill="#191970" stroke="#191970" points="237.5012,-361.098 246.3812,-355.319 235.8356,-354.299 237.5012,-361.098"/>
</g>
<!-- Node14 -->
<g id="node15" class="node">
<title>Node14</title>
<g id="a_node15"><a xlink:href="Conti2D_8cpp_a78d8a6b80166f8976a0f18caddbe1dcb.html#a78d8a6b80166f8976a0f18caddbe1dcb" target="_top" xlink:title="Get complete kernel matrix for upward continuation from plane to surface. ">
<polygon fill="#ffffff" stroke="#000000" points="221.7441,-678.5 221.7441,-696.5 326.6895,-696.5 326.6895,-678.5 221.7441,-678.5"/>
<text text-anchor="middle" x="274.2168" y="-684.5" font-family="Helvetica,sans-Serif" font-size="10.00" fill="#000000">Getkernel_p2s_new</text>
</a>
</g>
</g>
<!-- Node13&#45;&gt;Node14 -->
<g id="edge16" class="edge">
<title>Node13&#45;&gt;Node14</title>
<path fill="none" stroke="#191970" d="M154.209,-391.6979C161.2382,-394.5051 168.0016,-398.5814 172.6875,-404.5 246.4681,-497.6882 130.4141,-580.0523 208.6875,-669.5 210.0277,-671.0316 211.4849,-672.4384 213.0371,-673.7305"/>
<polygon fill="#191970" stroke="#191970" points="211.209,-676.7172 221.4893,-679.2795 215.0507,-670.8655 211.209,-676.7172"/>
</g>
<!-- Node15 -->
<g id="node16" class="node">
<title>Node15</title>
<g id="a_node16"><a xlink:href="stdfunc_8cpp_aaea96ecea3031c19d3ef88f6f1590d4a.html#aaea96ecea3031c19d3ef88f6f1590d4a" target="_top" xlink:title="Get file extension name from a full file path. ">
<polygon fill="#ffffff" stroke="#000000" points="224.5298,-302.5 224.5298,-320.5 323.9038,-320.5 323.9038,-302.5 224.5298,-302.5"/>
<text text-anchor="middle" x="274.2168" y="-308.5" font-family="Helvetica,sans-Serif" font-size="10.00" fill="#000000">Path_GetExtName</text>
</a>
</g>
</g>
<!-- Node13&#45;&gt;Node15 -->
<g id="edge19" class="edge">
<title>Node13&#45;&gt;Node15</title>
<path fill="none" stroke="#191970" d="M154.0516,-376.7138C160.47,-374.2284 167.0042,-371.1743 172.6875,-367.5 191.9553,-355.0433 189.0161,-342.3091 208.6875,-330.5 212.6213,-328.1385 216.8648,-326.0566 221.2344,-324.2239"/>
<polygon fill="#191970" stroke="#191970" points="222.7897,-327.379 230.93,-320.5976 220.3375,-320.8226 222.7897,-327.379"/>
</g>
<!-- Node16 -->
<g id="node17" class="node">
<title>Node16</title>
<g id="a_node17"><a xlink:href="stdfunc_8cpp_a95502a9bee4005071ea4fd3cb5e1c228.html#a95502a9bee4005071ea4fd3cb5e1c228" target="_top" xlink:title="Save Grd data as netCDF format. ">
<polygon fill="#ffffff" stroke="#000000" points="226.478,-265.5 226.478,-283.5 321.9556,-283.5 321.9556,-265.5 226.478,-265.5"/>
<text text-anchor="middle" x="274.2168" y="-271.5" font-family="Helvetica,sans-Serif" font-size="10.00" fill="#000000">SaveGrd2netCDF</text>
</a>
</g>
</g>
<!-- Node13&#45;&gt;Node16 -->
<g id="edge23" class="edge">
<title>Node13&#45;&gt;Node16</title>
<path fill="none" stroke="#191970" d="M154.0141,-378.4202C160.722,-375.8112 167.388,-372.2749 172.6875,-367.5 199.8593,-343.0179 180.7166,-317.065 208.6875,-293.5 211.2693,-291.3249 214.0884,-289.3986 217.0599,-287.6927"/>
<polygon fill="#191970" stroke="#191970" points="218.8643,-290.7081 226.3472,-283.2077 215.8202,-284.4047 218.8643,-290.7081"/>
</g>
<!-- Node17 -->
<g id="node18" class="node">
<title>Node17</title>
<g id="a_node18"><a xlink:href="stdfunc_8cpp_aad82d3e86d7bd949a1311c660977b9c1.html#aad82d3e86d7bd949a1311c660977b9c1" target="_top" xlink:title="Save a grid field data on a topography as vtk format (3d) ">
<polygon fill="#ffffff" stroke="#000000" points="221.4683,-528.5 221.4683,-546.5 326.9653,-546.5 326.9653,-528.5 221.4683,-528.5"/>
<text text-anchor="middle" x="274.2168" y="-534.5" font-family="Helvetica,sans-Serif" font-size="10.00" fill="#000000">SaveGrd2VTK_topo</text>
</a>
</g>
</g>
<!-- Node13&#45;&gt;Node17 -->
<g id="edge25" class="edge">
<title>Node13&#45;&gt;Node17</title>
<path fill="none" stroke="#191970" d="M153.9982,-392.5357C160.8641,-395.316 167.6048,-399.1701 172.6875,-404.5 207.8968,-441.4212 173.1954,-476.8506 208.6875,-513.5 212.7911,-517.7374 217.7041,-521.2312 222.9701,-524.1108"/>
<polygon fill="#191970" stroke="#191970" points="221.5467,-527.3091 232.0852,-528.4002 224.5272,-520.9753 221.5467,-527.3091"/>
</g>
<!-- Node18 -->
<g id="node19" class="node">
<title>Node18</title>
<g id="a_node19"><a xlink:href="stdfunc_8cpp_a0858a57d19c1ac2f09fe65f7f416e2a1.html#a0858a57d19c1ac2f09fe65f7f416e2a1" target="_top" xlink:title="SaveGrd2xyz">
<polygon fill="#ffffff" stroke="#000000" points="236.2046,-228.5 236.2046,-246.5 312.229,-246.5 312.229,-228.5 236.2046,-228.5"/>
<text text-anchor="middle" x="274.2168" y="-234.5" font-family="Helvetica,sans-Serif" font-size="10.00" fill="#000000">SaveGrd2xyz</text>
</a>
</g>
</g>
<!-- Node13&#45;&gt;Node18 -->
<g id="edge26" class="edge">
<title>Node13&#45;&gt;Node18</title>
<path fill="none" stroke="#191970" d="M154.0093,-379.1476C160.875,-376.5041 167.6126,-372.7701 172.6875,-367.5 208.9553,-329.8373 170.9308,-291.6699 208.6875,-255.5 213.6674,-250.7293 219.7896,-247.1988 226.2728,-244.5909"/>
<polygon fill="#191970" stroke="#191970" points="227.5442,-247.8569 235.9388,-241.393 225.3455,-241.2112 227.5442,-247.8569"/>
</g>
<!-- Node14&#45;&gt;Node7 -->
<g id="edge18" class="edge">
<title>Node14&#45;&gt;Node7</title>
<path fill="none" stroke="#191970" d="M315.0146,-678.4488C337.7125,-673.4131 366.1653,-667.1008 390.2847,-661.7497"/>
<polygon fill="#191970" stroke="#191970" points="391.3223,-665.1047 400.3268,-659.5218 389.8061,-658.2709 391.3223,-665.1047"/>
</g>
<!-- Node14&#45;&gt;Node10 -->
<g id="edge17" class="edge">
<title>Node14&#45;&gt;Node10</title>
<path fill="none" stroke="#191970" d="M326.9856,-687.5C351.3708,-687.5 379.8129,-687.5 402.1883,-687.5"/>
<polygon fill="#191970" stroke="#191970" points="402.3225,-691.0001 412.3225,-687.5 402.3224,-684.0001 402.3225,-691.0001"/>
</g>
<!-- Node20 -->
<g id="node21" class="node">
<title>Node20</title>
<g id="a_node21"><a xlink:href="stdfunc_8h_a5721c5478e8afad6433cd59eae9b2d67.html#a5721c5478e8afad6433cd59eae9b2d67" target="_top" xlink:title="Text_Axis">
<polygon fill="#ffffff" stroke="#000000" points="244.8203,-.5 244.8203,-18.5 303.6133,-18.5 303.6133,-.5 244.8203,-.5"/>
<text text-anchor="middle" x="274.2168" y="-6.5" font-family="Helvetica,sans-Serif" font-size="10.00" fill="#000000">Text_Axis</text>
</a>
</g>
</g>
<!-- Node19&#45;&gt;Node20 -->
<g id="edge28" class="edge">
<title>Node19&#45;&gt;Node20</title>
<path fill="none" stroke="#191970" d="M152.6083,-213.5442C160.0902,-210.7254 167.4769,-206.5827 172.6875,-200.5 222.0832,-142.8372 158.8499,-90.7813 208.6875,-33.5 215.5466,-25.6165 225.2221,-20.3208 235.0377,-16.7641"/>
<polygon fill="#191970" stroke="#191970" points="236.275,-20.0453 244.8009,-13.7557 234.2136,-13.3557 236.275,-20.0453"/>
</g>
<!-- Node26&#45;&gt;Node5 -->
<g id="edge37" class="edge">
<title>Node26&#45;&gt;Node5</title>
<path fill="none" stroke="#191970" d="M154.484,-304.9086C161.1725,-302.2794 167.712,-298.6116 172.6875,-293.5 207.9787,-257.2436 167.6415,-215.0843 208.6875,-185.5 255.9409,-151.4416 295.5974,-147.5033 339.7461,-185.5 421.1644,-255.5729 304.4669,-344.1356 375.7461,-424.5 377.5199,-426.4999 379.4938,-428.2866 381.6181,-429.882"/>
<polygon fill="#191970" stroke="#191970" points="380.0684,-433.0325 390.4525,-435.1348 383.6458,-427.0157 380.0684,-433.0325"/>
</g>
<!-- Node26&#45;&gt;Node6 -->
<g id="edge41" class="edge">
<title>Node26&#45;&gt;Node6</title>
<path fill="none" stroke="#191970" d="M154.2723,-305.3922C161.13,-302.7413 167.7981,-298.9426 172.6875,-293.5 217.351,-243.7834 156.0763,-188.7144 208.6875,-147.5 254.5412,-111.5793 291.6198,-114.6867 339.7461,-147.5 381.5886,-176.0289 423.0738,-332.0775 436.4992,-386.649"/>
<polygon fill="#191970" stroke="#191970" points="433.1075,-387.5143 438.8653,-396.408 439.9104,-385.8649 433.1075,-387.5143"/>
</g>
<!-- Node26&#45;&gt;Node8 -->
<g id="edge43" class="edge">
<title>Node26&#45;&gt;Node8</title>
<path fill="none" stroke="#191970" d="M154.2903,-304.3396C160.91,-301.7395 167.4683,-298.2274 172.6875,-293.5 200.0914,-268.6779 177.3929,-238.1916 208.6875,-218.5 257.9879,-187.4785 295.6435,-180.4498 339.7461,-218.5 422.4107,-289.8202 303.3993,-379.7324 375.7461,-461.5 382.5203,-469.1564 392.2257,-473.6877 402.0876,-476.3337"/>
<polygon fill="#191970" stroke="#191970" points="401.3926,-479.7641 411.8989,-478.3973 402.8334,-472.9139 401.3926,-479.7641"/>
</g>
<!-- Node26&#45;&gt;Node9 -->
<g id="edge35" class="edge">
<title>Node26&#45;&gt;Node9</title>
<path fill="none" stroke="#191970" d="M154.2764,-317.645C161.3043,-320.4532 168.0502,-324.5433 172.6875,-330.5 255.7235,-437.1613 120.5074,-530.0506 208.6875,-632.5 210.0151,-634.0425 211.4614,-635.4588 213.0042,-636.759"/>
<polygon fill="#191970" stroke="#191970" points="211.1526,-639.7307 221.4216,-642.3383 215.0201,-633.896 211.1526,-639.7307"/>
</g>
<!-- Node26&#45;&gt;Node11 -->
<g id="edge38" class="edge">
<title>Node26&#45;&gt;Node11</title>
<path fill="none" stroke="#191970" d="M153.0047,-320.5516C159.7541,-323.2406 166.692,-326.5481 172.6875,-330.5 191.8442,-343.127 188.9331,-355.8302 208.6875,-367.5 216.9678,-372.3915 226.619,-375.993 235.9285,-378.63"/>
<polygon fill="#191970" stroke="#191970" points="235.2624,-382.0716 245.8151,-381.1283 236.9774,-375.2849 235.2624,-382.0716"/>
</g>
<!-- Node26&#45;&gt;Node12 -->
<g id="edge39" class="edge">
<title>Node26&#45;&gt;Node12</title>
<path fill="none" stroke="#191970" d="M154.4758,-319.1664C178.1697,-324.9708 210.8311,-332.9721 236.0578,-339.152"/>
<polygon fill="#191970" stroke="#191970" points="235.4729,-342.6121 246.0185,-341.5921 237.1385,-335.8132 235.4729,-342.6121"/>
</g>
<!-- Node26&#45;&gt;Node15 -->
<g id="edge36" class="edge">
<title>Node26&#45;&gt;Node15</title>
<path fill="none" stroke="#191970" d="M154.4758,-311.5C171.6984,-311.5 193.6591,-311.5 214.0585,-311.5"/>
<polygon fill="#191970" stroke="#191970" points="214.2338,-315.0001 224.2338,-311.5 214.2338,-308.0001 214.2338,-315.0001"/>
</g>
<!-- Node26&#45;&gt;Node16 -->
<g id="edge40" class="edge">
<title>Node26&#45;&gt;Node16</title>
<path fill="none" stroke="#191970" d="M154.4758,-303.8336C175.5694,-298.6662 203.7703,-291.7576 227.5054,-285.9431"/>
<polygon fill="#191970" stroke="#191970" points="228.4905,-289.3054 237.3705,-283.5264 226.8248,-282.5064 228.4905,-289.3054"/>
</g>
<!-- Node26&#45;&gt;Node18 -->
<g id="edge42" class="edge">
<title>Node26&#45;&gt;Node18</title>
<path fill="none" stroke="#191970" d="M154.3491,-302.6699C160.6811,-300.199 167.1053,-297.1619 172.6875,-293.5 192.14,-280.7394 188.7363,-267.466 208.6875,-255.5 214.1321,-252.2345 220.1833,-249.5465 226.3453,-247.3375"/>
<polygon fill="#191970" stroke="#191970" points="227.5829,-250.6166 236.0487,-244.2464 225.4581,-243.9469 227.5829,-250.6166"/>
</g>
<!-- Node27&#45;&gt;Node5 -->
<g id="edge46" class="edge">
<title>Node27&#45;&gt;Node5</title>
<path fill="none" stroke="#191970" d="M157.5178,-247.466C163.0484,-244.9023 168.3666,-241.6398 172.6875,-237.5 201.7216,-209.6825 175.071,-176.5617 208.6875,-154.5 257.3852,-122.5408 295.921,-116.1304 339.7461,-154.5 430.8312,-234.2465 296.1856,-333.2524 375.7461,-424.5 377.5029,-426.5149 379.4628,-428.3139 381.5757,-429.9193"/>
<polygon fill="#191970" stroke="#191970" points="380.0026,-433.057 390.3785,-435.1999 383.6036,-427.0543 380.0026,-433.057"/>
</g>
<!-- Node27&#45;&gt;Node6 -->
<g id="edge50" class="edge">
<title>Node27&#45;&gt;Node6</title>
<path fill="none" stroke="#191970" d="M158.4791,-248.0156C163.8396,-245.3958 168.8516,-241.9722 172.6875,-237.5 221.8362,-180.1976 149.9208,-118.8882 208.6875,-71.5 254.0303,-34.9365 292.9641,-36.797 339.7461,-71.5 392.1958,-110.4073 428.1015,-320.5993 438.1371,-386.0398"/>
<polygon fill="#191970" stroke="#191970" points="434.7156,-386.8245 439.663,-396.1933 441.6379,-385.7842 434.7156,-386.8245"/>
</g>
<!-- Node27&#45;&gt;Node11 -->
<g id="edge47" class="edge">
<title>Node27&#45;&gt;Node11</title>
<path fill="none" stroke="#191970" d="M139.0254,-265.5626C149.6032,-272.2278 163.252,-282.0881 172.6875,-293.5 195.9931,-321.6874 180.5508,-344.1333 208.6875,-367.5 216.3669,-373.8775 226.1281,-378.0056 235.7562,-380.6745"/>
<polygon fill="#191970" stroke="#191970" points="235.1174,-384.1191 245.6487,-382.9608 236.6937,-377.2989 235.1174,-384.1191"/>
</g>
<!-- Node27&#45;&gt;Node12 -->
<g id="edge48" class="edge">
<title>Node27&#45;&gt;Node12</title>
<path fill="none" stroke="#191970" d="M136.6496,-265.6959C146.8631,-272.8735 161.0758,-283.3063 172.6875,-293.5 189.9299,-308.6367 188.9331,-318.8302 208.6875,-330.5 217.2067,-335.5327 227.177,-339.1997 236.7333,-341.8558"/>
<polygon fill="#191970" stroke="#191970" points="235.9151,-345.2589 246.4639,-344.2726 237.6025,-338.4653 235.9151,-345.2589"/>
</g>
<!-- Node27&#45;&gt;Node15 -->
<g id="edge45" class="edge">
<title>Node27&#45;&gt;Node15</title>
<path fill="none" stroke="#191970" d="M141.8959,-265.5043C159.0195,-273.524 185.1892,-285.2345 208.6875,-293.5 214.8227,-295.658 221.3541,-297.7213 227.8267,-299.6306"/>
<polygon fill="#191970" stroke="#191970" points="227.3076,-303.1219 237.884,-302.4955 229.2255,-296.3897 227.3076,-303.1219"/>
</g>
<!-- Node27&#45;&gt;Node16 -->
<g id="edge49" class="edge">
<title>Node27&#45;&gt;Node16</title>
<path fill="none" stroke="#191970" d="M158.5923,-260.7202C175.8179,-262.7731 196.9655,-265.2934 216.4436,-267.6148"/>
<polygon fill="#191970" stroke="#191970" points="216.1037,-271.0989 226.4476,-268.807 216.9321,-264.1481 216.1037,-271.0989"/>
</g>
<!-- Node27&#45;&gt;Node18 -->
<g id="edge51" class="edge">
<title>Node27&#45;&gt;Node18</title>
<path fill="none" stroke="#191970" d="M158.5923,-252.0453C178.6894,-249.5172 204.1251,-246.3174 226.0195,-243.5631"/>
<polygon fill="#191970" stroke="#191970" points="226.6352,-247.0133 236.1201,-242.2925 225.7614,-240.0681 226.6352,-247.0133"/>
</g>
<!-- Node27&#45;&gt;Node27 -->
<g id="edge52" class="edge">
<title>Node27&#45;&gt;Node27</title>
<path fill="none" stroke="#191970" d="M107.6849,-265.5134C99.1251,-274.322 104.2905,-284 123.1812,-284 135.283,-284 141.7519,-280.0281 142.5881,-274.8575"/>
<polygon fill="#191970" stroke="#191970" points="145.7668,-273.3868 138.6774,-265.5134 139.3095,-276.0894 145.7668,-273.3868"/>
</g>
<!-- Node28&#45;&gt;Node6 -->
<g id="edge59" class="edge">
<title>Node28&#45;&gt;Node6</title>
<path fill="none" stroke="#191970" d="M153.0047,-357.5516C159.7541,-360.2406 166.692,-363.5481 172.6875,-367.5 191.8442,-380.127 187.57,-395.5293 208.6875,-404.5 267.2554,-429.3796 341.8708,-423.9716 390.5061,-416.1591"/>
<polygon fill="#191970" stroke="#191970" points="391.2024,-419.591 400.4749,-414.4655 390.0299,-412.6899 391.2024,-419.591"/>
</g>
<!-- Node28&#45;&gt;Node8 -->
<g id="edge61" class="edge">
<title>Node28&#45;&gt;Node8</title>
<path fill="none" stroke="#191970" d="M153.9826,-356.6919C160.6166,-359.4069 167.2585,-362.9419 172.6875,-367.5 196.5046,-387.4964 183.4732,-409.297 208.6875,-427.5 266.5974,-469.3071 352.1877,-478.3661 401.6946,-479.8393"/>
<polygon fill="#191970" stroke="#191970" points="401.9144,-483.3444 411.9843,-480.051 402.0585,-476.3459 401.9144,-483.3444"/>
</g>
<!-- Node28&#45;&gt;Node11 -->
<g id="edge56" class="edge">
<title>Node28&#45;&gt;Node11</title>
<path fill="none" stroke="#191970" d="M154.1099,-356.0768C177.776,-361.8744 210.5444,-369.9018 235.8764,-376.1075"/>
<polygon fill="#191970" stroke="#191970" points="235.3346,-379.5782 245.8802,-378.5582 237.0002,-372.7793 235.3346,-379.5782"/>
</g>
<!-- Node28&#45;&gt;Node12 -->
<g id="edge57" class="edge">
<title>Node28&#45;&gt;Node12</title>
<path fill="none" stroke="#191970" d="M154.1099,-348.5C177.9277,-348.5 210.9649,-348.5 236.3626,-348.5"/>
<polygon fill="#191970" stroke="#191970" points="236.3812,-352.0001 246.3812,-348.5 236.3811,-345.0001 236.3812,-352.0001"/>
</g>
<!-- Node28&#45;&gt;Node14 -->
<g id="edge54" class="edge">
<title>Node28&#45;&gt;Node14</title>
<path fill="none" stroke="#191970" d="M154.0192,-354.5429C161.1394,-357.3537 167.9936,-361.4706 172.6875,-367.5 255.7235,-474.1613 120.5074,-567.0506 208.6875,-669.5 210.044,-671.076 211.5243,-672.5203 213.105,-673.8436"/>
<polygon fill="#191970" stroke="#191970" points="211.4537,-676.9461 221.7359,-679.5009 215.2911,-671.0916 211.4537,-676.9461"/>
</g>
<!-- Node28&#45;&gt;Node15 -->
<g id="edge55" class="edge">
<title>Node28&#45;&gt;Node15</title>
<path fill="none" stroke="#191970" d="M154.1099,-340.9232C175.2543,-335.7434 203.6646,-328.7835 227.5455,-322.9333"/>
<polygon fill="#191970" stroke="#191970" points="228.5885,-326.2814 237.4685,-320.5024 226.9229,-319.4824 228.5885,-326.2814"/>
</g>
<!-- Node28&#45;&gt;Node16 -->
<g id="edge58" class="edge">
<title>Node28&#45;&gt;Node16</title>
<path fill="none" stroke="#191970" d="M154.0516,-339.7138C160.47,-337.2284 167.0042,-334.1743 172.6875,-330.5 191.9553,-318.0433 189.0161,-305.3091 208.6875,-293.5 212.6213,-291.1385 216.8648,-289.0566 221.2344,-287.2239"/>
<polygon fill="#191970" stroke="#191970" points="222.7897,-290.379 230.93,-283.5976 220.3375,-283.8226 222.7897,-290.379"/>
</g>
<!-- Node28&#45;&gt;Node18 -->
<g id="edge60" class="edge">
<title>Node28&#45;&gt;Node18</title>
<path fill="none" stroke="#191970" d="M154.0324,-341.4404C160.7394,-338.8305 167.4006,-335.2888 172.6875,-330.5 200.0914,-305.6779 180.3051,-279.1971 208.6875,-255.5 213.7393,-251.2822 219.7008,-248.0478 225.9357,-245.5686"/>
<polygon fill="#191970" stroke="#191970" points="227.485,-248.7417 235.867,-242.2615 225.2734,-242.1002 227.485,-248.7417"/>
</g>
</g>
</svg>
