<?xml version="1.0" encoding="UTF-8" standalone="no"?>
<!DOCTYPE svg PUBLIC "-//W3C//DTD SVG 1.1//EN"
 "http://www.w3.org/Graphics/SVG/1.1/DTD/svg11.dtd">
<!-- Generated by graphviz version 2.40.1 (20161225.0304)
 -->
<!-- Title: MultiProgressBar.cpp Pages: 1 -->
<svg width="794pt" height="247pt"
 viewBox="0.00 0.00 794.37 247.00" xmlns="http://www.w3.org/2000/svg" xmlns:xlink="http://www.w3.org/1999/xlink">
<g id="graph0" class="graph" transform="scale(1 1) rotate(0) translate(4 243)">
<title>MultiProgressBar.cpp</title>
<polygon fill="#ffffff" stroke="transparent" points="-4,4 -4,-243 790.3726,-243 790.3726,4 -4,4"/>
<!-- Node0 -->
<g id="node1" class="node">
<title>Node0</title>
<polygon fill="#bfbfbf" stroke="#000000" points="121.2095,-220.5 121.2095,-238.5 232.2534,-238.5 232.2534,-220.5 121.2095,-220.5"/>
<text text-anchor="middle" x="176.7314" y="-226.5" font-family="Helvetica,sans-Serif" font-size="10.00" fill="#000000">MultiProgressBar.cpp</text>
</g>
<!-- Node1 -->
<g id="node2" class="node">
<title>Node1</title>
<g id="a_node2"><a xlink:href="MultiProgressBar_8h.html" target="_top" xlink:title="Definition of progress bar. ">
<polygon fill="#ffffff" stroke="#000000" points="32.4902,-55.5 32.4902,-73.5 132.9727,-73.5 132.9727,-55.5 32.4902,-55.5"/>
<text text-anchor="middle" x="82.7314" y="-61.5" font-family="Helvetica,sans-Serif" font-size="10.00" fill="#000000">MultiProgressBar.h</text>
</a>
</g>
</g>
<!-- Node0&#45;&gt;Node1 -->
<g id="edge1" class="edge">
<title>Node0&#45;&gt;Node1</title>
<path fill="none" stroke="#191970" d="M171.4083,-220.1561C156.2851,-193.6101 112.8741,-117.41 92.95,-82.4369"/>
<polygon fill="#191970" stroke="#191970" points="95.9875,-80.6978 87.9962,-73.7414 89.9052,-84.1628 95.9875,-80.6978"/>
</g>
<!-- Node6 -->
<g id="node7" class="node">
<title>Node6</title>
<polygon fill="#ffffff" stroke="#bfbfbf" points="151.2217,-55.5 151.2217,-73.5 202.2412,-73.5 202.2412,-55.5 151.2217,-55.5"/>
<text text-anchor="middle" x="176.7314" y="-61.5" font-family="Helvetica,sans-Serif" font-size="10.00" fill="#000000">iomanip</text>
</g>
<!-- Node0&#45;&gt;Node6 -->
<g id="edge6" class="edge">
<title>Node0&#45;&gt;Node6</title>
<path fill="none" stroke="#191970" d="M176.7314,-220.1561C176.7314,-193.9504 176.7314,-119.3557 176.7314,-83.8021"/>
<polygon fill="#191970" stroke="#191970" points="180.2315,-83.7414 176.7314,-73.7414 173.2315,-83.7414 180.2315,-83.7414"/>
</g>
<!-- Node7 -->
<g id="node8" class="node">
<title>Node7</title>
<g id="a_node8"><a xlink:href="Conti2D_8h.html" target="_top" xlink:title="Definition of sub&#45;functions of continuation of potential field data. ">
<polygon fill="#ffffff" stroke="#000000" points="360.4976,-165.5 360.4976,-183.5 420.9653,-183.5 420.9653,-165.5 360.4976,-165.5"/>
<text text-anchor="middle" x="390.7314" y="-171.5" font-family="Helvetica,sans-Serif" font-size="10.00" fill="#000000">Conti2D.h</text>
</a>
</g>
</g>
<!-- Node0&#45;&gt;Node7 -->
<g id="edge7" class="edge">
<title>Node0&#45;&gt;Node7</title>
<path fill="none" stroke="#191970" d="M212.0692,-220.4179C250.0737,-210.6504 310.4008,-195.1457 350.2777,-184.897"/>
<polygon fill="#191970" stroke="#191970" points="351.3844,-188.2264 360.1984,-182.3473 349.6419,-181.4467 351.3844,-188.2264"/>
</g>
<!-- Node2 -->
<g id="node3" class="node">
<title>Node2</title>
<polygon fill="#ffffff" stroke="#bfbfbf" points="0,-.5 0,-18.5 45.4629,-18.5 45.4629,-.5 0,-.5"/>
<text text-anchor="middle" x="22.7314" y="-6.5" font-family="Helvetica,sans-Serif" font-size="10.00" fill="#000000">stdio.h</text>
</g>
<!-- Node1&#45;&gt;Node2 -->
<g id="edge2" class="edge">
<title>Node1&#45;&gt;Node2</title>
<path fill="none" stroke="#191970" d="M72.8237,-55.4179C64.0178,-47.3458 50.9376,-35.3556 40.3515,-25.6517"/>
<polygon fill="#191970" stroke="#191970" points="42.5911,-22.9567 32.8545,-18.7795 37.861,-28.1168 42.5911,-22.9567"/>
</g>
<!-- Node3 -->
<g id="node4" class="node">
<title>Node3</title>
<polygon fill="#ffffff" stroke="#bfbfbf" points="163.5591,-.5 163.5591,-18.5 217.9038,-18.5 217.9038,-.5 163.5591,-.5"/>
<text text-anchor="middle" x="190.7314" y="-6.5" font-family="Helvetica,sans-Serif" font-size="10.00" fill="#000000">iostream</text>
</g>
<!-- Node1&#45;&gt;Node3 -->
<g id="edge3" class="edge">
<title>Node1&#45;&gt;Node3</title>
<path fill="none" stroke="#191970" d="M100.5654,-55.4179C117.7621,-46.6603 144.0151,-33.2907 163.7657,-23.2326"/>
<polygon fill="#191970" stroke="#191970" points="165.5482,-26.2526 172.8709,-18.5956 162.3716,-20.0148 165.5482,-26.2526"/>
</g>
<!-- Node4 -->
<g id="node5" class="node">
<title>Node4</title>
<polygon fill="#ffffff" stroke="#bfbfbf" points="247.1157,-.5 247.1157,-18.5 290.3472,-18.5 290.3472,-.5 247.1157,-.5"/>
<text text-anchor="middle" x="268.7314" y="-6.5" font-family="Helvetica,sans-Serif" font-size="10.00" fill="#000000">vector</text>
</g>
<!-- Node1&#45;&gt;Node4 -->
<g id="edge4" class="edge">
<title>Node1&#45;&gt;Node4</title>
<path fill="none" stroke="#191970" d="M113.4456,-55.4179C147.5763,-45.3255 202.4209,-29.1079 236.969,-18.8921"/>
<polygon fill="#191970" stroke="#191970" points="238.3967,-22.1198 246.9938,-15.9278 236.4117,-15.4072 238.3967,-22.1198"/>
</g>
<!-- Node5 -->
<g id="node6" class="node">
<title>Node5</title>
<polygon fill="#ffffff" stroke="#bfbfbf" points="63.7808,-.5 63.7808,-18.5 123.6821,-18.5 123.6821,-.5 63.7808,-.5"/>
<text text-anchor="middle" x="93.7314" y="-6.5" font-family="Helvetica,sans-Serif" font-size="10.00" fill="#000000">sys/ioctl.h</text>
</g>
<!-- Node1&#45;&gt;Node5 -->
<g id="edge5" class="edge">
<title>Node1&#45;&gt;Node5</title>
<path fill="none" stroke="#191970" d="M84.5479,-55.4179C85.9882,-48.2164 88.0522,-37.8962 89.8588,-28.8632"/>
<polygon fill="#191970" stroke="#191970" points="93.3463,-29.2717 91.8756,-18.7795 86.4823,-27.8988 93.3463,-29.2717"/>
</g>
<!-- Node8 -->
<g id="node9" class="node">
<title>Node8</title>
<g id="a_node9"><a xlink:href="stdfunc_8h.html" target="_top" xlink:title="Definition of some basic functions. ">
<polygon fill="#ffffff" stroke="#000000" points="328.4409,-110.5 328.4409,-128.5 385.022,-128.5 385.022,-110.5 328.4409,-110.5"/>
<text text-anchor="middle" x="356.7314" y="-116.5" font-family="Helvetica,sans-Serif" font-size="10.00" fill="#000000">stdfunc.h</text>
</a>
</g>
</g>
<!-- Node7&#45;&gt;Node8 -->
<g id="edge8" class="edge">
<title>Node7&#45;&gt;Node8</title>
<path fill="none" stroke="#191970" d="M385.117,-165.4179C380.4206,-157.8207 373.5786,-146.7527 367.7886,-137.3866"/>
<polygon fill="#191970" stroke="#191970" points="370.7032,-135.445 362.4678,-128.7795 364.749,-139.1258 370.7032,-135.445"/>
</g>
<!-- Node15 -->
<g id="node16" class="node">
<title>Node15</title>
<polygon fill="#ffffff" stroke="#bfbfbf" points="402.835,-110.5 402.835,-128.5 446.6279,-128.5 446.6279,-110.5 402.835,-110.5"/>
<text text-anchor="middle" x="424.7314" y="-116.5" font-family="Helvetica,sans-Serif" font-size="10.00" fill="#000000">omp.h</text>
</g>
<!-- Node7&#45;&gt;Node15 -->
<g id="edge19" class="edge">
<title>Node7&#45;&gt;Node15</title>
<path fill="none" stroke="#191970" d="M396.3459,-165.4179C401.0423,-157.8207 407.8843,-146.7527 413.6743,-137.3866"/>
<polygon fill="#191970" stroke="#191970" points="416.7139,-139.1258 418.9951,-128.7795 410.7597,-135.445 416.7139,-139.1258"/>
</g>
<!-- Node16 -->
<g id="node17" class="node">
<title>Node16</title>
<g id="a_node17"><a xlink:href="FFTN_8h.html" target="_top" xlink:title="Definition of 2D and 1D Fast Fourier Fransformation (FFT) based on FFTW (see http://www.fftw.org) ">
<polygon fill="#ffffff" stroke="#000000" points="661.7881,-110.5 661.7881,-128.5 711.6748,-128.5 711.6748,-110.5 661.7881,-110.5"/>
<text text-anchor="middle" x="686.7314" y="-116.5" font-family="Helvetica,sans-Serif" font-size="10.00" fill="#000000">FFTN.h</text>
</a>
</g>
</g>
<!-- Node7&#45;&gt;Node16 -->
<g id="edge20" class="edge">
<title>Node7&#45;&gt;Node16</title>
<path fill="none" stroke="#191970" d="M421.0176,-168.8725C476.2002,-158.619 592.8243,-136.949 651.4789,-126.0503"/>
<polygon fill="#191970" stroke="#191970" points="652.1989,-129.4765 661.3912,-124.2085 650.9201,-122.5943 652.1989,-129.4765"/>
</g>
<!-- Node8&#45;&gt;Node1 -->
<g id="edge16" class="edge">
<title>Node8&#45;&gt;Node1</title>
<path fill="none" stroke="#191970" d="M328.4406,-113.8212C283.6822,-104.8368 195.7189,-87.18 138.0922,-75.6126"/>
<polygon fill="#191970" stroke="#191970" points="138.5495,-72.1346 128.0562,-73.598 137.1718,-78.9977 138.5495,-72.1346"/>
</g>
<!-- Node8&#45;&gt;Node3 -->
<g id="edge10" class="edge">
<title>Node8&#45;&gt;Node3</title>
<path fill="none" stroke="#191970" d="M338.1097,-110.37C320.9585,-101.7117 295.0224,-87.9808 273.7314,-74 250.4793,-58.7313 225.4907,-38.7779 209.0772,-25.1319"/>
<polygon fill="#191970" stroke="#191970" points="211.2399,-22.3777 201.3303,-18.6291 206.7394,-27.7392 211.2399,-22.3777"/>
</g>
<!-- Node8&#45;&gt;Node4 -->
<g id="edge13" class="edge">
<title>Node8&#45;&gt;Node4</title>
<path fill="none" stroke="#191970" d="M335.4034,-110.3714C320.0379,-102.7578 299.9385,-90.4934 287.7314,-74 277.9654,-60.8048 273.1954,-42.6435 270.8796,-28.9537"/>
<polygon fill="#191970" stroke="#191970" points="274.2996,-28.1357 269.4557,-18.7131 267.3663,-29.0998 274.2996,-28.1357"/>
</g>
<!-- Node8&#45;&gt;Node6 -->
<g id="edge12" class="edge">
<title>Node8&#45;&gt;Node6</title>
<path fill="none" stroke="#191970" d="M328.2099,-110.7851C296.8566,-101.2049 246.4355,-85.7985 212.4687,-75.4197"/>
<polygon fill="#191970" stroke="#191970" points="213.0812,-71.9472 202.4949,-72.3722 211.0356,-78.6416 213.0812,-71.9472"/>
</g>
<!-- Node9 -->
<g id="node10" class="node">
<title>Node9</title>
<polygon fill="#ffffff" stroke="#bfbfbf" points="296.9507,-55.5 296.9507,-73.5 348.5122,-73.5 348.5122,-55.5 296.9507,-55.5"/>
<text text-anchor="middle" x="322.7314" y="-61.5" font-family="Helvetica,sans-Serif" font-size="10.00" fill="#000000">sstream</text>
</g>
<!-- Node8&#45;&gt;Node9 -->
<g id="edge9" class="edge">
<title>Node8&#45;&gt;Node9</title>
<path fill="none" stroke="#191970" d="M351.117,-110.4179C346.4206,-102.8207 339.5786,-91.7527 333.7886,-82.3866"/>
<polygon fill="#191970" stroke="#191970" points="336.7032,-80.445 328.4678,-73.7795 330.749,-84.1258 336.7032,-80.445"/>
</g>
<!-- Node10 -->
<g id="node11" class="node">
<title>Node10</title>
<polygon fill="#ffffff" stroke="#bfbfbf" points="366.0615,-55.5 366.0615,-73.5 415.4014,-73.5 415.4014,-55.5 366.0615,-55.5"/>
<text text-anchor="middle" x="390.7314" y="-61.5" font-family="Helvetica,sans-Serif" font-size="10.00" fill="#000000">fstream</text>
</g>
<!-- Node8&#45;&gt;Node10 -->
<g id="edge11" class="edge">
<title>Node8&#45;&gt;Node10</title>
<path fill="none" stroke="#191970" d="M362.3459,-110.4179C367.0423,-102.8207 373.8843,-91.7527 379.6743,-82.3866"/>
<polygon fill="#191970" stroke="#191970" points="382.7139,-84.1258 384.9951,-73.7795 376.7597,-80.445 382.7139,-84.1258"/>
</g>
<!-- Node11 -->
<g id="node12" class="node">
<title>Node11</title>
<polygon fill="#ffffff" stroke="#bfbfbf" points="433.335,-55.5 433.335,-73.5 482.1279,-73.5 482.1279,-55.5 433.335,-55.5"/>
<text text-anchor="middle" x="457.7314" y="-61.5" font-family="Helvetica,sans-Serif" font-size="10.00" fill="#000000">string.h</text>
</g>
<!-- Node8&#45;&gt;Node11 -->
<g id="edge14" class="edge">
<title>Node8&#45;&gt;Node11</title>
<path fill="none" stroke="#191970" d="M373.4095,-110.4179C389.3454,-101.7399 413.5973,-88.5334 432.0082,-78.5077"/>
<polygon fill="#191970" stroke="#191970" points="433.9202,-81.4519 441.0286,-73.5956 430.5724,-75.3043 433.9202,-81.4519"/>
</g>
<!-- Node12 -->
<g id="node13" class="node">
<title>Node12</title>
<polygon fill="#ffffff" stroke="#bfbfbf" points="638.4458,-55.5 638.4458,-73.5 685.0171,-73.5 685.0171,-55.5 638.4458,-55.5"/>
<text text-anchor="middle" x="661.7314" y="-61.5" font-family="Helvetica,sans-Serif" font-size="10.00" fill="#000000">math.h</text>
</g>
<!-- Node8&#45;&gt;Node12 -->
<g id="edge15" class="edge">
<title>Node8&#45;&gt;Node12</title>
<path fill="none" stroke="#191970" d="M385.3492,-111.851C388.1727,-111.1871 391.0023,-110.5571 393.7314,-110 494.5429,-89.4226 524.3916,-96.6729 628.4435,-74.0354"/>
<polygon fill="#191970" stroke="#191970" points="629.4043,-77.4074 638.4099,-71.8261 627.8894,-70.5733 629.4043,-77.4074"/>
</g>
<!-- Node13 -->
<g id="node14" class="node">
<title>Node13</title>
<polygon fill="#ffffff" stroke="#bfbfbf" points="499.9409,-55.5 499.9409,-73.5 551.522,-73.5 551.522,-55.5 499.9409,-55.5"/>
<text text-anchor="middle" x="525.7314" y="-61.5" font-family="Helvetica,sans-Serif" font-size="10.00" fill="#000000">netcdf.h</text>
</g>
<!-- Node8&#45;&gt;Node13 -->
<g id="edge17" class="edge">
<title>Node8&#45;&gt;Node13</title>
<path fill="none" stroke="#191970" d="M384.6384,-110.4179C413.4856,-101.0297 458.6186,-86.3414 490.044,-76.1143"/>
<polygon fill="#191970" stroke="#191970" points="491.3014,-79.3858 499.7273,-72.9629 489.135,-72.7294 491.3014,-79.3858"/>
</g>
<!-- Node14 -->
<g id="node15" class="node">
<title>Node14</title>
<polygon fill="#ffffff" stroke="#bfbfbf" points="569.2192,-55.5 569.2192,-73.5 620.2437,-73.5 620.2437,-55.5 569.2192,-55.5"/>
<text text-anchor="middle" x="594.7314" y="-61.5" font-family="Helvetica,sans-Serif" font-size="10.00" fill="#000000">unistd.h</text>
</g>
<!-- Node8&#45;&gt;Node14 -->
<g id="edge18" class="edge">
<title>Node8&#45;&gt;Node14</title>
<path fill="none" stroke="#191970" d="M385.3874,-112.0248C388.2032,-111.3256 391.0205,-110.64 393.7314,-110 464.5966,-93.271 485.3411,-92.2804 559.3578,-74.2355"/>
<polygon fill="#191970" stroke="#191970" points="560.2816,-77.6126 569.1553,-71.824 558.6085,-70.8155 560.2816,-77.6126"/>
</g>
<!-- Node16&#45;&gt;Node4 -->
<g id="edge22" class="edge">
<title>Node16&#45;&gt;Node4</title>
<path fill="none" stroke="#191970" d="M691.5828,-110.2696C698.1151,-96.4154 707.4338,-70.2476 693.7314,-55 667.5233,-25.8362 394.9012,-13.8141 300.6097,-10.5079"/>
<polygon fill="#191970" stroke="#191970" points="300.6403,-7.007 290.5267,-10.164 300.4016,-14.0029 300.6403,-7.007"/>
</g>
<!-- Node16&#45;&gt;Node12 -->
<g id="edge23" class="edge">
<title>Node16&#45;&gt;Node12</title>
<path fill="none" stroke="#191970" d="M682.6032,-110.4179C679.2219,-102.9789 674.328,-92.2123 670.1288,-82.9742"/>
<polygon fill="#191970" stroke="#191970" points="673.2738,-81.4348 665.9494,-73.7795 666.9012,-84.3315 673.2738,-81.4348"/>
</g>
<!-- Node17 -->
<g id="node18" class="node">
<title>Node17</title>
<polygon fill="#ffffff" stroke="#bfbfbf" points="741.0903,-55.5 741.0903,-73.5 786.3726,-73.5 786.3726,-55.5 741.0903,-55.5"/>
<text text-anchor="middle" x="763.7314" y="-61.5" font-family="Helvetica,sans-Serif" font-size="10.00" fill="#000000">fftw3.h</text>
</g>
<!-- Node16&#45;&gt;Node17 -->
<g id="edge21" class="edge">
<title>Node16&#45;&gt;Node17</title>
<path fill="none" stroke="#191970" d="M699.4464,-110.4179C711.1497,-102.0584 728.7362,-89.4966 742.558,-79.6239"/>
<polygon fill="#191970" stroke="#191970" points="744.8946,-82.2561 750.9976,-73.5956 740.8259,-76.56 744.8946,-82.2561"/>
</g>
</g>
</svg>
