<?xml version="1.0" encoding="UTF-8" standalone="no"?>
<!DOCTYPE svg PUBLIC "-//W3C//DTD SVG 1.1//EN"
 "http://www.w3.org/Graphics/SVG/1.1/DTD/svg11.dtd">
<!-- Generated by graphviz version 2.40.1 (20161225.0304)
 -->
<!-- Title: MultiProgressBar.h Pages: 1 -->
<svg width="266pt" height="82pt"
 viewBox="0.00 0.00 265.68 82.00" xmlns="http://www.w3.org/2000/svg" xmlns:xlink="http://www.w3.org/1999/xlink">
<g id="graph0" class="graph" transform="scale(1 1) rotate(0) translate(4 78)">
<title>MultiProgressBar.h</title>
<polygon fill="#ffffff" stroke="transparent" points="-4,4 -4,-78 261.6821,-78 261.6821,4 -4,4"/>
<!-- Node0 -->
<g id="node1" class="node">
<title>Node0</title>
<polygon fill="#bfbfbf" stroke="#000000" points="73.4902,-55.5 73.4902,-73.5 173.9727,-73.5 173.9727,-55.5 73.4902,-55.5"/>
<text text-anchor="middle" x="123.7314" y="-61.5" font-family="Helvetica,sans-Serif" font-size="10.00" fill="#000000">MultiProgressBar.h</text>
</g>
<!-- Node1 -->
<g id="node2" class="node">
<title>Node1</title>
<polygon fill="#ffffff" stroke="#bfbfbf" points="0,-.5 0,-18.5 45.4629,-18.5 45.4629,-.5 0,-.5"/>
<text text-anchor="middle" x="22.7314" y="-6.5" font-family="Helvetica,sans-Serif" font-size="10.00" fill="#000000">stdio.h</text>
</g>
<!-- Node0&#45;&gt;Node1 -->
<g id="edge1" class="edge">
<title>Node0&#45;&gt;Node1</title>
<path fill="none" stroke="#191970" d="M107.0533,-55.4179C91.1175,-46.7399 66.8656,-33.5334 48.4546,-23.5077"/>
<polygon fill="#191970" stroke="#191970" points="49.8905,-20.3043 39.4343,-18.5956 46.5427,-26.4519 49.8905,-20.3043"/>
</g>
<!-- Node2 -->
<g id="node3" class="node">
<title>Node2</title>
<polygon fill="#ffffff" stroke="#bfbfbf" points="63.5591,-.5 63.5591,-18.5 117.9038,-18.5 117.9038,-.5 63.5591,-.5"/>
<text text-anchor="middle" x="90.7314" y="-6.5" font-family="Helvetica,sans-Serif" font-size="10.00" fill="#000000">iostream</text>
</g>
<!-- Node0&#45;&gt;Node2 -->
<g id="edge2" class="edge">
<title>Node0&#45;&gt;Node2</title>
<path fill="none" stroke="#191970" d="M118.2822,-55.4179C113.7238,-47.8207 107.083,-36.7527 101.4634,-27.3866"/>
<polygon fill="#191970" stroke="#191970" points="104.4454,-25.5536 96.2991,-18.7795 98.4429,-29.1552 104.4454,-25.5536"/>
</g>
<!-- Node3 -->
<g id="node4" class="node">
<title>Node3</title>
<polygon fill="#ffffff" stroke="#bfbfbf" points="136.1157,-.5 136.1157,-18.5 179.3472,-18.5 179.3472,-.5 136.1157,-.5"/>
<text text-anchor="middle" x="157.7314" y="-6.5" font-family="Helvetica,sans-Serif" font-size="10.00" fill="#000000">vector</text>
</g>
<!-- Node0&#45;&gt;Node3 -->
<g id="edge3" class="edge">
<title>Node0&#45;&gt;Node3</title>
<path fill="none" stroke="#191970" d="M129.3459,-55.4179C134.0423,-47.8207 140.8843,-36.7527 146.6743,-27.3866"/>
<polygon fill="#191970" stroke="#191970" points="149.7139,-29.1258 151.9951,-18.7795 143.7597,-25.445 149.7139,-29.1258"/>
</g>
<!-- Node4 -->
<g id="node5" class="node">
<title>Node4</title>
<polygon fill="#ffffff" stroke="#bfbfbf" points="197.7808,-.5 197.7808,-18.5 257.6821,-18.5 257.6821,-.5 197.7808,-.5"/>
<text text-anchor="middle" x="227.7314" y="-6.5" font-family="Helvetica,sans-Serif" font-size="10.00" fill="#000000">sys/ioctl.h</text>
</g>
<!-- Node0&#45;&gt;Node4 -->
<g id="edge4" class="edge">
<title>Node0&#45;&gt;Node4</title>
<path fill="none" stroke="#191970" d="M140.9049,-55.4179C157.3894,-46.7001 182.5157,-33.4122 201.5047,-23.3699"/>
<polygon fill="#191970" stroke="#191970" points="203.3287,-26.3646 210.5324,-18.5956 200.0562,-20.1767 203.3287,-26.3646"/>
</g>
</g>
</svg>
