<?xml version="1.0" encoding="UTF-8" standalone="no"?>
<!DOCTYPE svg PUBLIC "-//W3C//DTD SVG 1.1//EN"
 "http://www.w3.org/Graphics/SVG/1.1/DTD/svg11.dtd">
<!-- Generated by graphviz version 2.40.1 (20161225.0304)
 -->
<!-- Title: MultiProgressBar.h Pages: 1 -->
<svg width="304pt" height="192pt"
 viewBox="0.00 0.00 304.04 192.00" xmlns="http://www.w3.org/2000/svg" xmlns:xlink="http://www.w3.org/1999/xlink">
<g id="graph0" class="graph" transform="scale(1 1) rotate(0) translate(4 188)">
<title>MultiProgressBar.h</title>
<polygon fill="#ffffff" stroke="transparent" points="-4,4 -4,-188 300.0366,-188 300.0366,4 -4,4"/>
<!-- Node5 -->
<g id="node1" class="node">
<title>Node5</title>
<polygon fill="#bfbfbf" stroke="#000000" points="169.2734,-165.5 169.2734,-183.5 269.7559,-183.5 269.7559,-165.5 169.2734,-165.5"/>
<text text-anchor="middle" x="219.5146" y="-171.5" font-family="Helvetica,sans-Serif" font-size="10.00" fill="#000000">MultiProgressBar.h</text>
</g>
<!-- Node6 -->
<g id="node2" class="node">
<title>Node6</title>
<g id="a_node2"><a xlink:href="stdfunc_8h.html" target="_top" xlink:title="Definition of some basic functions. ">
<polygon fill="#ffffff" stroke="#000000" points="160.2241,-110.5 160.2241,-128.5 216.8052,-128.5 216.8052,-110.5 160.2241,-110.5"/>
<text text-anchor="middle" x="188.5146" y="-116.5" font-family="Helvetica,sans-Serif" font-size="10.00" fill="#000000">stdfunc.h</text>
</a>
</g>
</g>
<!-- Node5&#45;&gt;Node6 -->
<g id="edge1" class="edge">
<title>Node5&#45;&gt;Node6</title>
<path fill="none" stroke="#191970" d="M209.4047,-156.563C204.1772,-147.2885 198.0155,-136.3564 193.7449,-128.7795"/>
<polygon fill="#191970" stroke="#191970" points="206.4364,-158.4249 214.3956,-165.4179 212.5345,-154.9878 206.4364,-158.4249"/>
</g>
<!-- Node10 -->
<g id="node6" class="node">
<title>Node10</title>
<g id="a_node6"><a xlink:href="MultiProgressBar_8cpp.html" target="_top" xlink:title="Implementation of progress bar. ">
<polygon fill="#ffffff" stroke="#000000" points="184.9927,-.5 184.9927,-18.5 296.0366,-18.5 296.0366,-.5 184.9927,-.5"/>
<text text-anchor="middle" x="240.5146" y="-6.5" font-family="Helvetica,sans-Serif" font-size="10.00" fill="#000000">MultiProgressBar.cpp</text>
</a>
</g>
</g>
<!-- Node5&#45;&gt;Node10 -->
<g id="edge7" class="edge">
<title>Node5&#45;&gt;Node10</title>
<path fill="none" stroke="#191970" d="M222.0517,-155.4649C223.1308,-147.3159 224.3959,-137.6928 225.5146,-129 230.7991,-87.9382 236.8822,-38.9083 239.3674,-18.7994"/>
<polygon fill="#191970" stroke="#191970" points="218.5743,-155.0638 220.7266,-165.4377 225.5133,-155.9859 218.5743,-155.0638"/>
</g>
<!-- Node7 -->
<g id="node3" class="node">
<title>Node7</title>
<g id="a_node3"><a xlink:href="Conti2D_8h.html" target="_top" xlink:title="Definition of sub&#45;functions of continuation of potential field data. ">
<polygon fill="#ffffff" stroke="#000000" points="76.2808,-55.5 76.2808,-73.5 136.7485,-73.5 136.7485,-55.5 76.2808,-55.5"/>
<text text-anchor="middle" x="106.5146" y="-61.5" font-family="Helvetica,sans-Serif" font-size="10.00" fill="#000000">Conti2D.h</text>
</a>
</g>
</g>
<!-- Node6&#45;&gt;Node7 -->
<g id="edge2" class="edge">
<title>Node6&#45;&gt;Node7</title>
<path fill="none" stroke="#191970" d="M166.4094,-104.6733C151.6323,-94.7619 132.6641,-82.0393 120.0754,-73.5956"/>
<polygon fill="#191970" stroke="#191970" points="164.7195,-107.7542 174.974,-110.4179 168.6187,-101.9408 164.7195,-107.7542"/>
</g>
<!-- Node11 -->
<g id="node7" class="node">
<title>Node11</title>
<g id="a_node7"><a xlink:href="stdfunc_8cpp.html" target="_top" xlink:title="Implementation of some basic functions. For example read and write file. ">
<polygon fill="#ffffff" stroke="#000000" points="154.9434,-55.5 154.9434,-73.5 222.0859,-73.5 222.0859,-55.5 154.9434,-55.5"/>
<text text-anchor="middle" x="188.5146" y="-61.5" font-family="Helvetica,sans-Serif" font-size="10.00" fill="#000000">stdfunc.cpp</text>
</a>
</g>
</g>
<!-- Node6&#45;&gt;Node11 -->
<g id="edge6" class="edge">
<title>Node6&#45;&gt;Node11</title>
<path fill="none" stroke="#191970" d="M188.5146,-100.383C188.5146,-91.3738 188.5146,-81.0373 188.5146,-73.7795"/>
<polygon fill="#191970" stroke="#191970" points="185.0147,-100.4178 188.5146,-110.4179 192.0147,-100.4179 185.0147,-100.4178"/>
</g>
<!-- Node8 -->
<g id="node4" class="node">
<title>Node8</title>
<g id="a_node4"><a xlink:href="Conti2D_8cpp.html" target="_top" xlink:title="Implementation of the sub&#45;functions of continuation of potential field in spatial domain...">
<polygon fill="#ffffff" stroke="#000000" points="0,-.5 0,-18.5 71.0293,-18.5 71.0293,-.5 0,-.5"/>
<text text-anchor="middle" x="35.5146" y="-6.5" font-family="Helvetica,sans-Serif" font-size="10.00" fill="#000000">Conti2D.cpp</text>
</a>
</g>
</g>
<!-- Node7&#45;&gt;Node8 -->
<g id="edge3" class="edge">
<title>Node7&#45;&gt;Node8</title>
<path fill="none" stroke="#191970" d="M86.6992,-49.15C74.0998,-39.3899 58.2013,-27.0742 47.4936,-18.7795"/>
<polygon fill="#191970" stroke="#191970" points="84.7415,-52.0608 94.7904,-55.4179 89.0283,-46.5269 84.7415,-52.0608"/>
</g>
<!-- Node9 -->
<g id="node5" class="node">
<title>Node9</title>
<g id="a_node5"><a xlink:href="main_8cpp.html" target="_top" xlink:title="The C++ main function of the continuation program conti2d. ">
<polygon fill="#ffffff" stroke="#000000" points="89.2266,-.5 89.2266,-18.5 145.8027,-18.5 145.8027,-.5 89.2266,-.5"/>
<text text-anchor="middle" x="117.5146" y="-6.5" font-family="Helvetica,sans-Serif" font-size="10.00" fill="#000000">main.cpp</text>
</a>
</g>
</g>
<!-- Node7&#45;&gt;Node9 -->
<g id="edge4" class="edge">
<title>Node7&#45;&gt;Node9</title>
<path fill="none" stroke="#191970" d="M110.338,-45.383C112.1399,-36.3738 114.2072,-26.0373 115.6588,-18.7795"/>
<polygon fill="#191970" stroke="#191970" points="106.8603,-44.9256 108.3311,-55.4179 113.7243,-46.2985 106.8603,-44.9256"/>
</g>
<!-- Node7&#45;&gt;Node10 -->
<g id="edge5" class="edge">
<title>Node7&#45;&gt;Node10</title>
<path fill="none" stroke="#191970" d="M137.9485,-51.598C162.6464,-41.4609 196.424,-27.5969 218.3544,-18.5956"/>
<polygon fill="#191970" stroke="#191970" points="136.5641,-48.3829 128.642,-55.4179 139.2221,-54.8586 136.5641,-48.3829"/>
</g>
</g>
</svg>
