<?xml version="1.0" encoding="UTF-8" standalone="no"?>
<!DOCTYPE svg PUBLIC "-//W3C//DTD SVG 1.1//EN"
 "http://www.w3.org/Graphics/SVG/1.1/DTD/svg11.dtd">
<!-- Generated by graphviz version 2.40.1 (20161225.0304)
 -->
<!-- Title: ReadGrd Pages: 1 -->
<svg width="245pt" height="193pt"
 viewBox="0.00 0.00 244.72 193.00" xmlns="http://www.w3.org/2000/svg" xmlns:xlink="http://www.w3.org/1999/xlink">
<g id="graph0" class="graph" transform="scale(1 1) rotate(0) translate(4 189)">
<title>ReadGrd</title>
<polygon fill="#ffffff" stroke="transparent" points="-4,4 -4,-189 240.7188,-189 240.7188,4 -4,4"/>
<!-- Node1 -->
<g id="node1" class="node">
<title>Node1</title>
<polygon fill="#bfbfbf" stroke="#000000" points="0,-92.5 0,-110.5 56.5762,-110.5 56.5762,-92.5 0,-92.5"/>
<text text-anchor="middle" x="28.2881" y="-98.5" font-family="Helvetica,sans-Serif" font-size="10.00" fill="#000000">ReadGrd</text>
</g>
<!-- Node2 -->
<g id="node2" class="node">
<title>Node2</title>
<g id="a_node2"><a xlink:href="Conti2D_8h_ac80c719a8192b6133df6ae172662e51a.html#ac80c719a8192b6133df6ae172662e51a" target="_top" xlink:title="Downward continuation: plane to plane(space domain) ">
<polygon fill="#ffffff" stroke="#000000" points="96.7461,-166.5 96.7461,-184.5 158.874,-184.5 158.874,-166.5 96.7461,-166.5"/>
<text text-anchor="middle" x="127.8101" y="-172.5" font-family="Helvetica,sans-Serif" font-size="10.00" fill="#000000">DWC_p2p</text>
</a>
</g>
</g>
<!-- Node1&#45;&gt;Node2 -->
<g id="edge1" class="edge">
<title>Node1&#45;&gt;Node2</title>
<path fill="none" stroke="#191970" d="M44.6275,-117.7378C57.1029,-129.6209 75.0733,-145.6675 92.5762,-157.5 97.3563,-160.7315 102.793,-163.7803 107.9407,-166.4184"/>
<polygon fill="#191970" stroke="#191970" points="46.8986,-115.0648 37.2829,-110.6162 42.0257,-120.0902 46.8986,-115.0648"/>
</g>
<!-- Node4 -->
<g id="node4" class="node">
<title>Node4</title>
<g id="a_node4"><a xlink:href="Conti2D_8h_a07c876abe68bb0cbc0d3b412166f5e6a.html#a07c876abe68bb0cbc0d3b412166f5e6a" target="_top" xlink:title="Downward continuation: uneven surface to plane(space domain) ">
<polygon fill="#ffffff" stroke="#000000" points="97.0269,-129.5 97.0269,-147.5 158.5933,-147.5 158.5933,-129.5 97.0269,-129.5"/>
<text text-anchor="middle" x="127.8101" y="-135.5" font-family="Helvetica,sans-Serif" font-size="10.00" fill="#000000">DWC_s2p</text>
</a>
</g>
</g>
<!-- Node1&#45;&gt;Node4 -->
<g id="edge3" class="edge">
<title>Node1&#45;&gt;Node4</title>
<path fill="none" stroke="#191970" d="M62.1137,-114.0756C75.6504,-119.1082 90.9461,-124.7948 103.3707,-129.414"/>
<polygon fill="#191970" stroke="#191970" points="63.2268,-110.7554 52.6339,-110.5512 60.7874,-117.3166 63.2268,-110.7554"/>
</g>
<!-- Node5 -->
<g id="node5" class="node">
<title>Node5</title>
<g id="a_node5"><a xlink:href="Conti2D_8h_a05f1b014599cdda496e9bf781d4737d4.html#a05f1b014599cdda496e9bf781d4737d4" target="_top" xlink:title="Upward continuation: plane to plane(space domain) ">
<polygon fill="#ffffff" stroke="#000000" points="96.7461,-92.5 96.7461,-110.5 158.874,-110.5 158.874,-92.5 96.7461,-92.5"/>
<text text-anchor="middle" x="127.8101" y="-98.5" font-family="Helvetica,sans-Serif" font-size="10.00" fill="#000000">UWC_p2p</text>
</a>
</g>
</g>
<!-- Node1&#45;&gt;Node5 -->
<g id="edge5" class="edge">
<title>Node1&#45;&gt;Node5</title>
<path fill="none" stroke="#191970" d="M67.0771,-101.5C76.8252,-101.5 87.1645,-101.5 96.4957,-101.5"/>
<polygon fill="#191970" stroke="#191970" points="66.8071,-98.0001 56.8071,-101.5 66.8071,-105.0001 66.8071,-98.0001"/>
</g>
<!-- Node6 -->
<g id="node6" class="node">
<title>Node6</title>
<g id="a_node6"><a xlink:href="Conti2D_8h_af82757cb7e0f4f398e774b4e89b9ea72.html#af82757cb7e0f4f398e774b4e89b9ea72" target="_top" xlink:title="Upward continuation: plane to plane(frequency domain) ">
<polygon fill="#ffffff" stroke="#000000" points="92.5762,-37.5 92.5762,-55.5 163.0439,-55.5 163.0439,-37.5 92.5762,-37.5"/>
<text text-anchor="middle" x="127.8101" y="-43.5" font-family="Helvetica,sans-Serif" font-size="10.00" fill="#000000">UWC_p2p_f</text>
</a>
</g>
</g>
<!-- Node1&#45;&gt;Node6 -->
<g id="edge7" class="edge">
<title>Node1&#45;&gt;Node6</title>
<path fill="none" stroke="#191970" d="M53.6067,-87.5079C71.7422,-77.4854 95.6405,-64.2783 111.3516,-55.5956"/>
<polygon fill="#191970" stroke="#191970" points="51.7816,-84.5176 44.7221,-92.4179 55.1674,-90.6442 51.7816,-84.5176"/>
</g>
<!-- Node7 -->
<g id="node7" class="node">
<title>Node7</title>
<g id="a_node7"><a xlink:href="Conti2D_8h_a9fcb7711c4e230ba259de4ed9be39ccd.html#a9fcb7711c4e230ba259de4ed9be39ccd" target="_top" xlink:title="Upward continuation: plane to surface(space domain) ">
<polygon fill="#ffffff" stroke="#000000" points="97.0269,-.5 97.0269,-18.5 158.5933,-18.5 158.5933,-.5 97.0269,-.5"/>
<text text-anchor="middle" x="127.8101" y="-6.5" font-family="Helvetica,sans-Serif" font-size="10.00" fill="#000000">UWC_p2s</text>
</a>
</g>
</g>
<!-- Node1&#45;&gt;Node7 -->
<g id="edge10" class="edge">
<title>Node1&#45;&gt;Node7</title>
<path fill="none" stroke="#191970" d="M40.732,-84.1324C52.7204,-68.26 72.022,-44.8398 92.5762,-28.5 97.2547,-24.7807 102.7661,-21.4161 108.0229,-18.5876"/>
<polygon fill="#191970" stroke="#191970" points="37.6831,-82.3697 34.5643,-92.4951 43.3167,-86.5246 37.6831,-82.3697"/>
</g>
<!-- Node3 -->
<g id="node3" class="node">
<title>Node3</title>
<g id="a_node3"><a xlink:href="main_8cpp_a0ddf1224851353fc92bfbff6f499fa97.html#a0ddf1224851353fc92bfbff6f499fa97" target="_top" xlink:title="main">
<polygon fill="#ffffff" stroke="#000000" points="199.0439,-92.5 199.0439,-110.5 236.7188,-110.5 236.7188,-92.5 199.0439,-92.5"/>
<text text-anchor="middle" x="217.8813" y="-98.5" font-family="Helvetica,sans-Serif" font-size="10.00" fill="#000000">main</text>
</a>
</g>
</g>
<!-- Node2&#45;&gt;Node3 -->
<g id="edge2" class="edge">
<title>Node2&#45;&gt;Node3</title>
<path fill="none" stroke="#191970" d="M157.2247,-161.4125C159.2402,-160.1633 161.2005,-158.8557 163.0439,-157.5 182.1181,-143.4727 200.5968,-122.6432 210.4778,-110.7384"/>
<polygon fill="#191970" stroke="#191970" points="155.2205,-158.5243 148.226,-166.4822 158.6564,-164.6231 155.2205,-158.5243"/>
</g>
<!-- Node4&#45;&gt;Node3 -->
<g id="edge4" class="edge">
<title>Node4&#45;&gt;Node3</title>
<path fill="none" stroke="#191970" d="M159.701,-125.3997C172.8128,-120.0135 187.5538,-113.9581 198.9171,-109.2902"/>
<polygon fill="#191970" stroke="#191970" points="157.9949,-122.3166 150.0749,-129.3539 160.6548,-128.7916 157.9949,-122.3166"/>
</g>
<!-- Node5&#45;&gt;Node3 -->
<g id="edge6" class="edge">
<title>Node5&#45;&gt;Node3</title>
<path fill="none" stroke="#191970" d="M169.2946,-101.5C179.697,-101.5 190.3536,-101.5 199.026,-101.5"/>
<polygon fill="#191970" stroke="#191970" points="169.0599,-98.0001 159.0598,-101.5 169.0598,-105.0001 169.0599,-98.0001"/>
</g>
<!-- Node6&#45;&gt;Node3 -->
<g id="edge8" class="edge">
<title>Node6&#45;&gt;Node3</title>
<path fill="none" stroke="#191970" d="M151.633,-61.047C167.929,-70.9977 189.0275,-83.8811 202.9858,-92.4044"/>
<polygon fill="#191970" stroke="#191970" points="153.0422,-57.8065 142.6835,-55.5821 149.3941,-63.7808 153.0422,-57.8065"/>
</g>
<!-- Node6&#45;&gt;Node6 -->
<g id="edge9" class="edge">
<title>Node6&#45;&gt;Node6</title>
<path fill="none" stroke="#191970" d="M111.0773,-65.2336C112.0152,-70.2195 117.5928,-74 127.8101,-74 144.1577,-74 148.6278,-64.322 141.2202,-55.5134"/>
<polygon fill="#191970" stroke="#191970" points="114.4772,-66.108 114.3999,-55.5134 107.8534,-63.8438 114.4772,-66.108"/>
</g>
<!-- Node7&#45;&gt;Node3 -->
<g id="edge11" class="edge">
<title>Node7&#45;&gt;Node3</title>
<path fill="none" stroke="#191970" d="M156.814,-23.7721C159.0017,-25.255 161.108,-26.8342 163.0439,-28.5 185.3924,-47.7302 204.214,-77.5527 212.8362,-92.4241"/>
<polygon fill="#191970" stroke="#191970" points="158.5304,-20.7199 148.1603,-18.549 154.9132,-26.7129 158.5304,-20.7199"/>
</g>
</g>
</svg>
