<?xml version="1.0" encoding="UTF-8" standalone="no"?>
<!DOCTYPE svg PUBLIC "-//W3C//DTD SVG 1.1//EN"
 "http://www.w3.org/Graphics/SVG/1.1/DTD/svg11.dtd">
<!-- Generated by graphviz version 2.40.1 (20161225.0304)
 -->
<!-- Title: stdfunc.h Pages: 1 -->
<svg width="283pt" height="137pt"
 viewBox="0.00 0.00 283.04 137.00" xmlns="http://www.w3.org/2000/svg" xmlns:xlink="http://www.w3.org/1999/xlink">
<g id="graph0" class="graph" transform="scale(1 1) rotate(0) translate(4 133)">
<title>stdfunc.h</title>
<polygon fill="#ffffff" stroke="transparent" points="-4,4 -4,-133 279.0366,-133 279.0366,4 -4,4"/>
<!-- Node13 -->
<g id="node1" class="node">
<title>Node13</title>
<polygon fill="#bfbfbf" stroke="#000000" points="130.2241,-110.5 130.2241,-128.5 186.8052,-128.5 186.8052,-110.5 130.2241,-110.5"/>
<text text-anchor="middle" x="158.5146" y="-116.5" font-family="Helvetica,sans-Serif" font-size="10.00" fill="#000000">stdfunc.h</text>
</g>
<!-- Node14 -->
<g id="node2" class="node">
<title>Node14</title>
<g id="a_node2"><a xlink:href="Conti2D_8h.html" target="_top" xlink:title="Definition of sub&#45;functions of continuation of potential field data. ">
<polygon fill="#ffffff" stroke="#000000" points="87.2808,-55.5 87.2808,-73.5 147.7485,-73.5 147.7485,-55.5 87.2808,-55.5"/>
<text text-anchor="middle" x="117.5146" y="-61.5" font-family="Helvetica,sans-Serif" font-size="10.00" fill="#000000">Conti2D.h</text>
</a>
</g>
</g>
<!-- Node13&#45;&gt;Node14 -->
<g id="edge1" class="edge">
<title>Node13&#45;&gt;Node14</title>
<path fill="none" stroke="#191970" d="M145.5784,-102.1465C138.5739,-92.7503 130.1992,-81.5159 124.4321,-73.7795"/>
<polygon fill="#191970" stroke="#191970" points="142.9615,-104.4922 151.7443,-110.4179 148.5738,-100.3085 142.9615,-104.4922"/>
</g>
<!-- Node18 -->
<g id="node6" class="node">
<title>Node18</title>
<g id="a_node6"><a xlink:href="stdfunc_8cpp.html" target="_top" xlink:title="Implementation of some basic functions. For example read and write file. ">
<polygon fill="#ffffff" stroke="#000000" points="165.9434,-55.5 165.9434,-73.5 233.0859,-73.5 233.0859,-55.5 165.9434,-55.5"/>
<text text-anchor="middle" x="199.5146" y="-61.5" font-family="Helvetica,sans-Serif" font-size="10.00" fill="#000000">stdfunc.cpp</text>
</a>
</g>
</g>
<!-- Node13&#45;&gt;Node18 -->
<g id="edge5" class="edge">
<title>Node13&#45;&gt;Node18</title>
<path fill="none" stroke="#191970" d="M171.4509,-102.1465C178.4554,-92.7503 186.8301,-81.5159 192.5972,-73.7795"/>
<polygon fill="#191970" stroke="#191970" points="168.4555,-100.3085 165.285,-110.4179 174.0678,-104.4922 168.4555,-100.3085"/>
</g>
<!-- Node15 -->
<g id="node3" class="node">
<title>Node15</title>
<g id="a_node3"><a xlink:href="Conti2D_8cpp.html" target="_top" xlink:title="Implementation of the sub&#45;functions of continuation of potential field in spatial domain...">
<polygon fill="#ffffff" stroke="#000000" points="0,-.5 0,-18.5 71.0293,-18.5 71.0293,-.5 0,-.5"/>
<text text-anchor="middle" x="35.5146" y="-6.5" font-family="Helvetica,sans-Serif" font-size="10.00" fill="#000000">Conti2D.cpp</text>
</a>
</g>
</g>
<!-- Node14&#45;&gt;Node15 -->
<g id="edge2" class="edge">
<title>Node14&#45;&gt;Node15</title>
<path fill="none" stroke="#191970" d="M95.4094,-49.6733C80.6323,-39.7619 61.6641,-27.0393 49.0754,-18.5956"/>
<polygon fill="#191970" stroke="#191970" points="93.7195,-52.7542 103.974,-55.4179 97.6187,-46.9408 93.7195,-52.7542"/>
</g>
<!-- Node16 -->
<g id="node4" class="node">
<title>Node16</title>
<g id="a_node4"><a xlink:href="main_8cpp.html" target="_top" xlink:title="The C++ main function of the continuation program conti2d. ">
<polygon fill="#ffffff" stroke="#000000" points="89.2266,-.5 89.2266,-18.5 145.8027,-18.5 145.8027,-.5 89.2266,-.5"/>
<text text-anchor="middle" x="117.5146" y="-6.5" font-family="Helvetica,sans-Serif" font-size="10.00" fill="#000000">main.cpp</text>
</a>
</g>
</g>
<!-- Node14&#45;&gt;Node16 -->
<g id="edge3" class="edge">
<title>Node14&#45;&gt;Node16</title>
<path fill="none" stroke="#191970" d="M117.5146,-45.383C117.5146,-36.3738 117.5146,-26.0373 117.5146,-18.7795"/>
<polygon fill="#191970" stroke="#191970" points="114.0147,-45.4178 117.5146,-55.4179 121.0147,-45.4179 114.0147,-45.4178"/>
</g>
<!-- Node17 -->
<g id="node5" class="node">
<title>Node17</title>
<g id="a_node5"><a xlink:href="MultiProgressBar_8cpp.html" target="_top" xlink:title="Implementation of progress bar. ">
<polygon fill="#ffffff" stroke="#000000" points="163.9927,-.5 163.9927,-18.5 275.0366,-18.5 275.0366,-.5 163.9927,-.5"/>
<text text-anchor="middle" x="219.5146" y="-6.5" font-family="Helvetica,sans-Serif" font-size="10.00" fill="#000000">MultiProgressBar.cpp</text>
</a>
</g>
</g>
<!-- Node14&#45;&gt;Node17 -->
<g id="edge4" class="edge">
<title>Node14&#45;&gt;Node17</title>
<path fill="none" stroke="#191970" d="M143.2082,-50.6456C161.8259,-40.6067 186.4702,-27.3181 202.6464,-18.5956"/>
<polygon fill="#191970" stroke="#191970" points="141.4987,-47.591 134.3579,-55.4179 144.821,-53.7524 141.4987,-47.591"/>
</g>
</g>
</svg>
