<?xml version="1.0" encoding="UTF-8" standalone="no"?>
<!DOCTYPE svg PUBLIC "-//W3C//DTD SVG 1.1//EN"
 "http://www.w3.org/Graphics/SVG/1.1/DTD/svg11.dtd">
<!-- Generated by graphviz version 2.40.1 (20161225.0304)
 -->
<!-- Title: stdfunc.cpp Pages: 1 -->
<svg width="660pt" height="192pt"
 viewBox="0.00 0.00 660.29 192.00" xmlns="http://www.w3.org/2000/svg" xmlns:xlink="http://www.w3.org/1999/xlink">
<g id="graph0" class="graph" transform="scale(1 1) rotate(0) translate(4 188)">
<title>stdfunc.cpp</title>
<polygon fill="#ffffff" stroke="transparent" points="-4,4 -4,-188 656.293,-188 656.293,4 -4,4"/>
<!-- Node0 -->
<g id="node1" class="node">
<title>Node0</title>
<polygon fill="#bfbfbf" stroke="#000000" points="289.2095,-165.5 289.2095,-183.5 356.3521,-183.5 356.3521,-165.5 289.2095,-165.5"/>
<text text-anchor="middle" x="322.7808" y="-171.5" font-family="Helvetica,sans-Serif" font-size="10.00" fill="#000000">stdfunc.cpp</text>
</g>
<!-- Node1 -->
<g id="node2" class="node">
<title>Node1</title>
<g id="a_node2"><a xlink:href="stdfunc_8h.html" target="_top" xlink:title="Definition of some basic functions. ">
<polygon fill="#ffffff" stroke="#000000" points="294.4902,-110.5 294.4902,-128.5 351.0713,-128.5 351.0713,-110.5 294.4902,-110.5"/>
<text text-anchor="middle" x="322.7808" y="-116.5" font-family="Helvetica,sans-Serif" font-size="10.00" fill="#000000">stdfunc.h</text>
</a>
</g>
</g>
<!-- Node0&#45;&gt;Node1 -->
<g id="edge1" class="edge">
<title>Node0&#45;&gt;Node1</title>
<path fill="none" stroke="#191970" d="M322.7808,-165.4179C322.7808,-158.2164 322.7808,-147.8962 322.7808,-138.8632"/>
<polygon fill="#191970" stroke="#191970" points="326.2809,-138.7794 322.7808,-128.7795 319.2809,-138.7795 326.2809,-138.7794"/>
</g>
<!-- Node2 -->
<g id="node3" class="node">
<title>Node2</title>
<polygon fill="#ffffff" stroke="#bfbfbf" points="0,-55.5 0,-73.5 51.5615,-73.5 51.5615,-55.5 0,-55.5"/>
<text text-anchor="middle" x="25.7808" y="-61.5" font-family="Helvetica,sans-Serif" font-size="10.00" fill="#000000">sstream</text>
</g>
<!-- Node1&#45;&gt;Node2 -->
<g id="edge2" class="edge">
<title>Node1&#45;&gt;Node2</title>
<path fill="none" stroke="#191970" d="M294.1546,-114.9882C246.5824,-107.3657 148.3098,-91.0909 65.7808,-74 64.5227,-73.7395 63.2438,-73.4686 61.9532,-73.1901"/>
<polygon fill="#191970" stroke="#191970" points="62.5061,-69.7272 51.9823,-70.9524 60.9731,-76.5573 62.5061,-69.7272"/>
</g>
<!-- Node3 -->
<g id="node4" class="node">
<title>Node3</title>
<polygon fill="#ffffff" stroke="#bfbfbf" points="45.6084,-.5 45.6084,-18.5 99.9531,-18.5 99.9531,-.5 45.6084,-.5"/>
<text text-anchor="middle" x="72.7808" y="-6.5" font-family="Helvetica,sans-Serif" font-size="10.00" fill="#000000">iostream</text>
</g>
<!-- Node1&#45;&gt;Node3 -->
<g id="edge3" class="edge">
<title>Node1&#45;&gt;Node3</title>
<path fill="none" stroke="#191970" d="M294.1846,-115.1527C246.8561,-107.5827 154.6843,-91.1439 126.7808,-74 107.9991,-62.4606 92.5929,-42.1065 83.1108,-27.3433"/>
<polygon fill="#191970" stroke="#191970" points="85.9643,-25.3009 77.7593,-18.5981 79.9935,-28.9547 85.9643,-25.3009"/>
</g>
<!-- Node4 -->
<g id="node5" class="node">
<title>Node4</title>
<polygon fill="#ffffff" stroke="#bfbfbf" points="264.1108,-55.5 264.1108,-73.5 313.4507,-73.5 313.4507,-55.5 264.1108,-55.5"/>
<text text-anchor="middle" x="288.7808" y="-61.5" font-family="Helvetica,sans-Serif" font-size="10.00" fill="#000000">fstream</text>
</g>
<!-- Node1&#45;&gt;Node4 -->
<g id="edge4" class="edge">
<title>Node1&#45;&gt;Node4</title>
<path fill="none" stroke="#191970" d="M317.1664,-110.4179C312.4699,-102.8207 305.6279,-91.7527 299.8379,-82.3866"/>
<polygon fill="#191970" stroke="#191970" points="302.7525,-80.445 294.5172,-73.7795 296.7983,-84.1258 302.7525,-80.445"/>
</g>
<!-- Node5 -->
<g id="node6" class="node">
<title>Node5</title>
<polygon fill="#ffffff" stroke="#bfbfbf" points="331.271,-55.5 331.271,-73.5 382.2905,-73.5 382.2905,-55.5 331.271,-55.5"/>
<text text-anchor="middle" x="356.7808" y="-61.5" font-family="Helvetica,sans-Serif" font-size="10.00" fill="#000000">iomanip</text>
</g>
<!-- Node1&#45;&gt;Node5 -->
<g id="edge5" class="edge">
<title>Node1&#45;&gt;Node5</title>
<path fill="none" stroke="#191970" d="M328.3952,-110.4179C333.0916,-102.8207 339.9337,-91.7527 345.7236,-82.3866"/>
<polygon fill="#191970" stroke="#191970" points="348.7632,-84.1258 351.0444,-73.7795 342.809,-80.445 348.7632,-84.1258"/>
</g>
<!-- Node6 -->
<g id="node7" class="node">
<title>Node6</title>
<polygon fill="#ffffff" stroke="#bfbfbf" points="118.165,-.5 118.165,-18.5 161.3965,-18.5 161.3965,-.5 118.165,-.5"/>
<text text-anchor="middle" x="139.7808" y="-6.5" font-family="Helvetica,sans-Serif" font-size="10.00" fill="#000000">vector</text>
</g>
<!-- Node1&#45;&gt;Node6 -->
<g id="edge6" class="edge">
<title>Node1&#45;&gt;Node6</title>
<path fill="none" stroke="#191970" d="M294.4659,-116.7778C247.3414,-111.5976 156.0742,-98.582 136.7808,-74 126.7429,-61.2107 129.0414,-42.2109 132.9201,-28.1421"/>
<polygon fill="#191970" stroke="#191970" points="136.2819,-29.1209 136.0161,-18.5294 129.6189,-26.975 136.2819,-29.1209"/>
</g>
<!-- Node7 -->
<g id="node8" class="node">
<title>Node7</title>
<polygon fill="#ffffff" stroke="#bfbfbf" points="400.3843,-55.5 400.3843,-73.5 449.1772,-73.5 449.1772,-55.5 400.3843,-55.5"/>
<text text-anchor="middle" x="424.7808" y="-61.5" font-family="Helvetica,sans-Serif" font-size="10.00" fill="#000000">string.h</text>
</g>
<!-- Node1&#45;&gt;Node7 -->
<g id="edge7" class="edge">
<title>Node1&#45;&gt;Node7</title>
<path fill="none" stroke="#191970" d="M339.624,-110.4179C355.7915,-101.7001 380.4345,-88.4122 399.0584,-78.3699"/>
<polygon fill="#191970" stroke="#191970" points="400.7717,-81.4225 407.9125,-73.5956 397.4494,-75.2611 400.7717,-81.4225"/>
</g>
<!-- Node8 -->
<g id="node9" class="node">
<title>Node8</title>
<polygon fill="#ffffff" stroke="#bfbfbf" points="467.4951,-55.5 467.4951,-73.5 514.0664,-73.5 514.0664,-55.5 467.4951,-55.5"/>
<text text-anchor="middle" x="490.7808" y="-61.5" font-family="Helvetica,sans-Serif" font-size="10.00" fill="#000000">math.h</text>
</g>
<!-- Node1&#45;&gt;Node8 -->
<g id="edge8" class="edge">
<title>Node1&#45;&gt;Node8</title>
<path fill="none" stroke="#191970" d="M350.5225,-110.4179C379.956,-100.7819 426.4446,-85.5624 457.7489,-75.314"/>
<polygon fill="#191970" stroke="#191970" points="458.9235,-78.6123 467.3382,-72.1746 456.7456,-71.9597 458.9235,-78.6123"/>
</g>
<!-- Node9 -->
<g id="node10" class="node">
<title>Node9</title>
<g id="a_node10"><a xlink:href="MultiProgressBar_8h.html" target="_top" xlink:title="Definition of progress bar. ">
<polygon fill="#ffffff" stroke="#000000" points="145.5396,-55.5 145.5396,-73.5 246.022,-73.5 246.022,-55.5 145.5396,-55.5"/>
<text text-anchor="middle" x="195.7808" y="-61.5" font-family="Helvetica,sans-Serif" font-size="10.00" fill="#000000">MultiProgressBar.h</text>
</a>
</g>
</g>
<!-- Node1&#45;&gt;Node9 -->
<g id="edge9" class="edge">
<title>Node1&#45;&gt;Node9</title>
<path fill="none" stroke="#191970" d="M301.8093,-110.4179C281.2196,-101.5011 249.5896,-87.803 226.2313,-77.6873"/>
<polygon fill="#191970" stroke="#191970" points="227.3508,-74.358 216.7834,-73.5956 224.5689,-80.7815 227.3508,-74.358"/>
</g>
<!-- Node12 -->
<g id="node13" class="node">
<title>Node12</title>
<polygon fill="#ffffff" stroke="#bfbfbf" points="531.9902,-55.5 531.9902,-73.5 583.5713,-73.5 583.5713,-55.5 531.9902,-55.5"/>
<text text-anchor="middle" x="557.7808" y="-61.5" font-family="Helvetica,sans-Serif" font-size="10.00" fill="#000000">netcdf.h</text>
</g>
<!-- Node1&#45;&gt;Node12 -->
<g id="edge14" class="edge">
<title>Node1&#45;&gt;Node12</title>
<path fill="none" stroke="#191970" d="M351.3519,-113.3894C388.4199,-105.3769 455.3179,-90.63 521.9871,-74.1228"/>
<polygon fill="#191970" stroke="#191970" points="522.9601,-77.4875 531.8183,-71.6752 521.2689,-70.6949 522.9601,-77.4875"/>
</g>
<!-- Node13 -->
<g id="node14" class="node">
<title>Node13</title>
<polygon fill="#ffffff" stroke="#bfbfbf" points="601.2686,-55.5 601.2686,-73.5 652.293,-73.5 652.293,-55.5 601.2686,-55.5"/>
<text text-anchor="middle" x="626.7808" y="-61.5" font-family="Helvetica,sans-Serif" font-size="10.00" fill="#000000">unistd.h</text>
</g>
<!-- Node1&#45;&gt;Node13 -->
<g id="edge15" class="edge">
<title>Node1&#45;&gt;Node13</title>
<path fill="none" stroke="#191970" d="M351.3495,-115.6972C399.1414,-109.1185 498.4668,-94.5203 591.3948,-74.1355"/>
<polygon fill="#191970" stroke="#191970" points="592.2312,-77.5351 601.2342,-71.9496 590.7131,-70.7017 592.2312,-77.5351"/>
</g>
<!-- Node9&#45;&gt;Node3 -->
<g id="edge11" class="edge">
<title>Node9&#45;&gt;Node3</title>
<path fill="none" stroke="#191970" d="M175.4698,-55.4179C155.5286,-46.5011 124.8949,-32.803 102.2723,-22.6873"/>
<polygon fill="#191970" stroke="#191970" points="103.6795,-19.4826 93.1219,-18.5956 100.8221,-25.8728 103.6795,-19.4826"/>
</g>
<!-- Node9&#45;&gt;Node6 -->
<g id="edge12" class="edge">
<title>Node9&#45;&gt;Node6</title>
<path fill="none" stroke="#191970" d="M186.5335,-55.4179C178.3953,-47.425 166.3455,-35.5903 156.5174,-25.9377"/>
<polygon fill="#191970" stroke="#191970" points="158.8159,-23.2895 149.2289,-18.7795 153.911,-28.2836 158.8159,-23.2895"/>
</g>
<!-- Node10 -->
<g id="node11" class="node">
<title>Node10</title>
<polygon fill="#ffffff" stroke="#bfbfbf" points="179.0493,-.5 179.0493,-18.5 224.5122,-18.5 224.5122,-.5 179.0493,-.5"/>
<text text-anchor="middle" x="201.7808" y="-6.5" font-family="Helvetica,sans-Serif" font-size="10.00" fill="#000000">stdio.h</text>
</g>
<!-- Node9&#45;&gt;Node10 -->
<g id="edge10" class="edge">
<title>Node9&#45;&gt;Node10</title>
<path fill="none" stroke="#191970" d="M196.7715,-55.4179C197.5572,-48.2164 198.683,-37.8962 199.6684,-28.8632"/>
<polygon fill="#191970" stroke="#191970" points="203.1633,-29.1001 200.7685,-18.7795 196.2045,-28.3409 203.1633,-29.1001"/>
</g>
<!-- Node11 -->
<g id="node12" class="node">
<title>Node11</title>
<polygon fill="#ffffff" stroke="#bfbfbf" points="242.8301,-.5 242.8301,-18.5 302.7314,-18.5 302.7314,-.5 242.8301,-.5"/>
<text text-anchor="middle" x="272.7808" y="-6.5" font-family="Helvetica,sans-Serif" font-size="10.00" fill="#000000">sys/ioctl.h</text>
</g>
<!-- Node9&#45;&gt;Node11 -->
<g id="edge13" class="edge">
<title>Node9&#45;&gt;Node11</title>
<path fill="none" stroke="#191970" d="M208.4957,-55.4179C220.199,-47.0584 237.7855,-34.4966 251.6073,-24.6239"/>
<polygon fill="#191970" stroke="#191970" points="253.9439,-27.2561 260.0469,-18.5956 249.8752,-21.56 253.9439,-27.2561"/>
</g>
</g>
</svg>
