<?xml version="1.0" encoding="UTF-8" standalone="no"?>
<!DOCTYPE svg PUBLIC "-//W3C//DTD SVG 1.1//EN"
 "http://www.w3.org/Graphics/SVG/1.1/DTD/svg11.dtd">
<!-- Generated by graphviz version 2.40.1 (20161225.0304)
 -->
<!-- Title: Path_GetFileName Pages: 1 -->
<svg width="448pt" height="197pt"
 viewBox="0.00 0.00 448.46 197.00" xmlns="http://www.w3.org/2000/svg" xmlns:xlink="http://www.w3.org/1999/xlink">
<g id="graph0" class="graph" transform="scale(1 1) rotate(0) translate(4 193)">
<title>Path_GetFileName</title>
<polygon fill="#ffffff" stroke="transparent" points="-4,4 -4,-193 444.4619,-193 444.4619,4 -4,4"/>
<!-- Node1 -->
<g id="node1" class="node">
<title>Node1</title>
<polygon fill="#bfbfbf" stroke="#000000" points="0,-94.5 0,-112.5 101.0391,-112.5 101.0391,-94.5 0,-94.5"/>
<text text-anchor="middle" x="50.5195" y="-100.5" font-family="Helvetica,sans-Serif" font-size="10.00" fill="#000000">Path_GetFileName</text>
</g>
<!-- Node2 -->
<g id="node2" class="node">
<title>Node2</title>
<g id="a_node2"><a xlink:href="Conti2D_8h_a8affb7fb2246ce1c959f681fc7baaa05.html#a8affb7fb2246ce1c959f681fc7baaa05" target="_top" xlink:title="Calculate downward continuation from plane to plane using Landweber iteration method. ">
<polygon fill="#ffffff" stroke="#000000" points="137.0391,-170.5 137.0391,-188.5 268.6592,-188.5 268.6592,-170.5 137.0391,-170.5"/>
<text text-anchor="middle" x="202.8491" y="-176.5" font-family="Helvetica,sans-Serif" font-size="10.00" fill="#000000">DWC_p2p_LandweberIter</text>
</a>
</g>
</g>
<!-- Node1&#45;&gt;Node2 -->
<g id="edge1" class="edge">
<title>Node1&#45;&gt;Node2</title>
<path fill="none" stroke="#191970" d="M72.5332,-118.3418C89.6411,-129.4741 114.2211,-144.6059 137.0391,-155.5 149.0015,-161.2113 162.7079,-166.41 174.5045,-170.4973"/>
<polygon fill="#191970" stroke="#191970" points="74.1316,-115.2034 63.8562,-112.621 70.2784,-121.0475 74.1316,-115.2034"/>
</g>
<!-- Node3 -->
<g id="node3" class="node">
<title>Node3</title>
<g id="a_node3"><a xlink:href="Conti2D_8h_a07c876abe68bb0cbc0d3b412166f5e6a.html#a07c876abe68bb0cbc0d3b412166f5e6a" target="_top" xlink:title="Downward continuation: uneven surface to plane(space domain) ">
<polygon fill="#ffffff" stroke="#000000" points="304.9399,-130.5 304.9399,-148.5 366.5063,-148.5 366.5063,-130.5 304.9399,-130.5"/>
<text text-anchor="middle" x="335.7231" y="-136.5" font-family="Helvetica,sans-Serif" font-size="10.00" fill="#000000">DWC_s2p</text>
</a>
</g>
</g>
<!-- Node1&#45;&gt;Node3 -->
<g id="edge2" class="edge">
<title>Node1&#45;&gt;Node3</title>
<path fill="none" stroke="#191970" d="M96.6505,-114.8012C109.6484,-117.6657 123.8423,-120.4952 137.0391,-122.5 195.9097,-131.4434 265.3621,-136.0432 304.6019,-138.0989"/>
<polygon fill="#191970" stroke="#191970" points="97.0506,-111.3034 86.5248,-112.5115 95.5066,-118.131 97.0506,-111.3034"/>
</g>
<!-- Node5 -->
<g id="node5" class="node">
<title>Node5</title>
<g id="a_node5"><a xlink:href="Conti2D_8h_a30671331e25e6cfa739e77aec57b7f18.html#a30671331e25e6cfa739e77aec57b7f18" target="_top" xlink:title="Calculate downward continuation of potential field from surface to a plane. ">
<polygon fill="#ffffff" stroke="#000000" points="137.3198,-94.5 137.3198,-112.5 268.3784,-112.5 268.3784,-94.5 137.3198,-94.5"/>
<text text-anchor="middle" x="202.8491" y="-100.5" font-family="Helvetica,sans-Serif" font-size="10.00" fill="#000000">DWC_s2p_LandweberIter</text>
</a>
</g>
</g>
<!-- Node1&#45;&gt;Node5 -->
<g id="edge4" class="edge">
<title>Node1&#45;&gt;Node5</title>
<path fill="none" stroke="#191970" d="M111.415,-103.5C119.8854,-103.5 128.6185,-103.5 137.1718,-103.5"/>
<polygon fill="#191970" stroke="#191970" points="111.2431,-100.0001 101.2431,-103.5 111.243,-107.0001 111.2431,-100.0001"/>
</g>
<!-- Node7 -->
<g id="node7" class="node">
<title>Node7</title>
<g id="a_node7"><a xlink:href="Conti2D_8h_a05f1b014599cdda496e9bf781d4737d4.html#a05f1b014599cdda496e9bf781d4737d4" target="_top" xlink:title="Upward continuation: plane to plane(space domain) ">
<polygon fill="#ffffff" stroke="#000000" points="304.6592,-56.5 304.6592,-74.5 366.7871,-74.5 366.7871,-56.5 304.6592,-56.5"/>
<text text-anchor="middle" x="335.7231" y="-62.5" font-family="Helvetica,sans-Serif" font-size="10.00" fill="#000000">UWC_p2p</text>
</a>
</g>
</g>
<!-- Node1&#45;&gt;Node7 -->
<g id="edge8" class="edge">
<title>Node1&#45;&gt;Node7</title>
<path fill="none" stroke="#191970" d="M99.5575,-92.3664C111.7574,-89.8541 124.8369,-87.3782 137.0391,-85.5 195.9741,-76.4287 265.4044,-70.5186 304.6227,-67.6168"/>
<polygon fill="#191970" stroke="#191970" points="98.6192,-88.9871 89.5552,-94.4729 100.0619,-95.8369 98.6192,-88.9871"/>
</g>
<!-- Node8 -->
<g id="node8" class="node">
<title>Node8</title>
<g id="a_node8"><a xlink:href="Conti2D_8h_af82757cb7e0f4f398e774b4e89b9ea72.html#af82757cb7e0f4f398e774b4e89b9ea72" target="_top" xlink:title="Upward continuation: plane to plane(frequency domain) ">
<polygon fill="#ffffff" stroke="#000000" points="167.6152,-.5 167.6152,-18.5 238.083,-18.5 238.083,-.5 167.6152,-.5"/>
<text text-anchor="middle" x="202.8491" y="-6.5" font-family="Helvetica,sans-Serif" font-size="10.00" fill="#000000">UWC_p2p_f</text>
</a>
</g>
</g>
<!-- Node1&#45;&gt;Node8 -->
<g id="edge10" class="edge">
<title>Node1&#45;&gt;Node8</title>
<path fill="none" stroke="#191970" d="M73.7653,-89.1554C105.5079,-69.5676 161.4976,-35.0173 188.0635,-18.6239"/>
<polygon fill="#191970" stroke="#191970" points="71.7976,-86.2568 65.1255,-94.4869 75.4737,-92.2139 71.7976,-86.2568"/>
</g>
<!-- Node4 -->
<g id="node4" class="node">
<title>Node4</title>
<g id="a_node4"><a xlink:href="main_8cpp_a0ddf1224851353fc92bfbff6f499fa97.html#a0ddf1224851353fc92bfbff6f499fa97" target="_top" xlink:title="main">
<polygon fill="#ffffff" stroke="#000000" points="402.7871,-74.5 402.7871,-92.5 440.4619,-92.5 440.4619,-74.5 402.7871,-74.5"/>
<text text-anchor="middle" x="421.6245" y="-80.5" font-family="Helvetica,sans-Serif" font-size="10.00" fill="#000000">main</text>
</a>
</g>
</g>
<!-- Node3&#45;&gt;Node4 -->
<g id="edge3" class="edge">
<title>Node3&#45;&gt;Node4</title>
<path fill="none" stroke="#191970" d="M360.826,-125.1887C362.8549,-123.9609 364.863,-122.7213 366.7871,-121.5 381.6514,-112.065 398.1966,-100.4375 409.1865,-92.5474"/>
<polygon fill="#191970" stroke="#191970" points="358.8266,-122.3046 351.9942,-130.4021 362.385,-128.3327 358.8266,-122.3046"/>
</g>
<!-- Node5&#45;&gt;Node3 -->
<g id="edge7" class="edge">
<title>Node5&#45;&gt;Node3</title>
<path fill="none" stroke="#191970" d="M246.1094,-115.2207C265.3088,-120.4224 287.4607,-126.4241 304.9366,-131.1589"/>
<polygon fill="#191970" stroke="#191970" points="246.9462,-111.8212 236.3788,-112.5843 245.1156,-118.5777 246.9462,-111.8212"/>
</g>
<!-- Node6 -->
<g id="node6" class="node">
<title>Node6</title>
<g id="a_node6"><a xlink:href="Conti2D_8h_ac80c719a8192b6133df6ae172662e51a.html#ac80c719a8192b6133df6ae172662e51a" target="_top" xlink:title="Downward continuation: plane to plane(space domain) ">
<polygon fill="#ffffff" stroke="#000000" points="304.6592,-93.5 304.6592,-111.5 366.7871,-111.5 366.7871,-93.5 304.6592,-93.5"/>
<text text-anchor="middle" x="335.7231" y="-99.5" font-family="Helvetica,sans-Serif" font-size="10.00" fill="#000000">DWC_p2p</text>
</a>
</g>
</g>
<!-- Node5&#45;&gt;Node6 -->
<g id="edge5" class="edge">
<title>Node5&#45;&gt;Node6</title>
<path fill="none" stroke="#191970" d="M278.777,-102.9286C287.8152,-102.8606 296.6142,-102.7943 304.4861,-102.7351"/>
<polygon fill="#191970" stroke="#191970" points="278.4809,-99.4306 268.5076,-103.0059 278.5337,-106.4304 278.4809,-99.4306"/>
</g>
<!-- Node6&#45;&gt;Node4 -->
<g id="edge6" class="edge">
<title>Node6&#45;&gt;Node4</title>
<path fill="none" stroke="#191970" d="M377.1638,-93.334C386.0747,-91.363 395.0724,-89.3729 402.6202,-87.7035"/>
<polygon fill="#191970" stroke="#191970" points="376.23,-89.9559 367.2219,-95.533 377.7418,-96.7907 376.23,-89.9559"/>
</g>
<!-- Node7&#45;&gt;Node4 -->
<g id="edge9" class="edge">
<title>Node7&#45;&gt;Node4</title>
<path fill="none" stroke="#191970" d="M377.1638,-74.1836C386.0747,-76.0508 395.0724,-77.9362 402.6202,-79.5178"/>
<polygon fill="#191970" stroke="#191970" points="377.7271,-70.7257 367.2219,-72.1003 376.2915,-77.5769 377.7271,-70.7257"/>
</g>
<!-- Node8&#45;&gt;Node4 -->
<g id="edge11" class="edge">
<title>Node8&#45;&gt;Node4</title>
<path fill="none" stroke="#191970" d="M248.2121,-15.599C281.8986,-21.1694 328.4486,-31.0939 366.7871,-47.5 382.9112,-54.3999 399.4804,-66.026 410.1243,-74.1951"/>
<polygon fill="#191970" stroke="#191970" points="248.6193,-12.1199 238.194,-14.0077 247.5211,-19.0332 248.6193,-12.1199"/>
</g>
<!-- Node8&#45;&gt;Node8 -->
<g id="edge12" class="edge">
<title>Node8&#45;&gt;Node8</title>
<path fill="none" stroke="#191970" d="M178.1524,-27.477C178.8823,-32.832 187.1145,-37 202.8491,-37 226.8257,-37 233.3818,-27.322 222.5174,-18.5134"/>
<polygon fill="#191970" stroke="#191970" points="181.3407,-28.9473 183.1808,-18.5134 175.2357,-25.5224 181.3407,-28.9473"/>
</g>
</g>
</svg>
