<?xml version="1.0" encoding="UTF-8" standalone="no"?>
<!DOCTYPE svg PUBLIC "-//W3C//DTD SVG 1.1//EN"
 "http://www.w3.org/Graphics/SVG/1.1/DTD/svg11.dtd">
<!-- Generated by graphviz version 2.40.1 (20161225.0304)
 -->
<!-- Title: SaveGrd Pages: 1 -->
<svg width="244pt" height="193pt"
 viewBox="0.00 0.00 243.61 193.00" xmlns="http://www.w3.org/2000/svg" xmlns:xlink="http://www.w3.org/1999/xlink">
<g id="graph0" class="graph" transform="scale(1 1) rotate(0) translate(4 189)">
<title>SaveGrd</title>
<polygon fill="#ffffff" stroke="transparent" points="-4,4 -4,-189 239.6055,-189 239.6055,4 -4,4"/>
<!-- Node1 -->
<g id="node1" class="node">
<title>Node1</title>
<polygon fill="#bfbfbf" stroke="#000000" points="0,-92.5 0,-110.5 55.4629,-110.5 55.4629,-92.5 0,-92.5"/>
<text text-anchor="middle" x="27.7314" y="-98.5" font-family="Helvetica,sans-Serif" font-size="10.00" fill="#000000">SaveGrd</text>
</g>
<!-- Node2 -->
<g id="node2" class="node">
<title>Node2</title>
<g id="a_node2"><a xlink:href="Conti2D_8h_ac80c719a8192b6133df6ae172662e51a.html#ac80c719a8192b6133df6ae172662e51a" target="_top" xlink:title="Downward continuation: plane to plane(space domain) ">
<polygon fill="#ffffff" stroke="#000000" points="95.6328,-166.5 95.6328,-184.5 157.7607,-184.5 157.7607,-166.5 95.6328,-166.5"/>
<text text-anchor="middle" x="126.6968" y="-172.5" font-family="Helvetica,sans-Serif" font-size="10.00" fill="#000000">DWC_p2p</text>
</a>
</g>
</g>
<!-- Node1&#45;&gt;Node2 -->
<g id="edge1" class="edge">
<title>Node1&#45;&gt;Node2</title>
<path fill="none" stroke="#191970" d="M43.9058,-117.7499C56.2613,-129.6392 74.0714,-145.6882 91.4629,-157.5 96.2361,-160.7418 101.6703,-163.7942 106.8179,-166.4324"/>
<polygon fill="#191970" stroke="#191970" points="46.2256,-115.1228 36.6334,-110.624 41.3264,-120.1227 46.2256,-115.1228"/>
</g>
<!-- Node4 -->
<g id="node4" class="node">
<title>Node4</title>
<g id="a_node4"><a xlink:href="Conti2D_8h_a07c876abe68bb0cbc0d3b412166f5e6a.html#a07c876abe68bb0cbc0d3b412166f5e6a" target="_top" xlink:title="Downward continuation: uneven surface to plane(space domain) ">
<polygon fill="#ffffff" stroke="#000000" points="95.9136,-129.5 95.9136,-147.5 157.48,-147.5 157.48,-129.5 95.9136,-129.5"/>
<text text-anchor="middle" x="126.6968" y="-135.5" font-family="Helvetica,sans-Serif" font-size="10.00" fill="#000000">DWC_s2p</text>
</a>
</g>
</g>
<!-- Node1&#45;&gt;Node4 -->
<g id="edge3" class="edge">
<title>Node1&#45;&gt;Node4</title>
<path fill="none" stroke="#191970" d="M61.3678,-114.0756C74.8288,-119.1082 90.039,-124.7948 102.3941,-129.414"/>
<polygon fill="#191970" stroke="#191970" points="62.5336,-110.7748 51.9411,-110.5512 60.0822,-117.3316 62.5336,-110.7748"/>
</g>
<!-- Node5 -->
<g id="node5" class="node">
<title>Node5</title>
<g id="a_node5"><a xlink:href="Conti2D_8h_a05f1b014599cdda496e9bf781d4737d4.html#a05f1b014599cdda496e9bf781d4737d4" target="_top" xlink:title="Upward continuation: plane to plane(space domain) ">
<polygon fill="#ffffff" stroke="#000000" points="95.6328,-92.5 95.6328,-110.5 157.7607,-110.5 157.7607,-92.5 95.6328,-92.5"/>
<text text-anchor="middle" x="126.6968" y="-98.5" font-family="Helvetica,sans-Serif" font-size="10.00" fill="#000000">UWC_p2p</text>
</a>
</g>
</g>
<!-- Node1&#45;&gt;Node5 -->
<g id="edge5" class="edge">
<title>Node1&#45;&gt;Node5</title>
<path fill="none" stroke="#191970" d="M65.5849,-101.5C75.5012,-101.5 86.0779,-101.5 95.5968,-101.5"/>
<polygon fill="#191970" stroke="#191970" points="65.5622,-98.0001 55.5622,-101.5 65.5621,-105.0001 65.5622,-98.0001"/>
</g>
<!-- Node6 -->
<g id="node6" class="node">
<title>Node6</title>
<g id="a_node6"><a xlink:href="Conti2D_8h_af82757cb7e0f4f398e774b4e89b9ea72.html#af82757cb7e0f4f398e774b4e89b9ea72" target="_top" xlink:title="Upward continuation: plane to plane(frequency domain) ">
<polygon fill="#ffffff" stroke="#000000" points="91.4629,-37.5 91.4629,-55.5 161.9307,-55.5 161.9307,-37.5 91.4629,-37.5"/>
<text text-anchor="middle" x="126.6968" y="-43.5" font-family="Helvetica,sans-Serif" font-size="10.00" fill="#000000">UWC_p2p_f</text>
</a>
</g>
</g>
<!-- Node1&#45;&gt;Node6 -->
<g id="edge7" class="edge">
<title>Node1&#45;&gt;Node6</title>
<path fill="none" stroke="#191970" d="M52.9084,-87.5079C70.9425,-77.4854 94.7071,-64.2783 110.3304,-55.5956"/>
<polygon fill="#191970" stroke="#191970" points="51.1142,-84.5008 44.0736,-92.4179 54.5146,-90.6194 51.1142,-84.5008"/>
</g>
<!-- Node7 -->
<g id="node7" class="node">
<title>Node7</title>
<g id="a_node7"><a xlink:href="Conti2D_8h_a9fcb7711c4e230ba259de4ed9be39ccd.html#a9fcb7711c4e230ba259de4ed9be39ccd" target="_top" xlink:title="Upward continuation: plane to surface(space domain) ">
<polygon fill="#ffffff" stroke="#000000" points="95.9136,-.5 95.9136,-18.5 157.48,-18.5 157.48,-.5 95.9136,-.5"/>
<text text-anchor="middle" x="126.6968" y="-6.5" font-family="Helvetica,sans-Serif" font-size="10.00" fill="#000000">UWC_p2s</text>
</a>
</g>
</g>
<!-- Node1&#45;&gt;Node7 -->
<g id="edge10" class="edge">
<title>Node1&#45;&gt;Node7</title>
<path fill="none" stroke="#191970" d="M40.0374,-84.1243C51.901,-68.2463 71.0214,-44.8222 91.4629,-28.5 96.1334,-24.7707 101.6422,-21.4027 106.899,-18.5743"/>
<polygon fill="#191970" stroke="#191970" points="37.0006,-82.3485 33.9358,-92.4904 42.6562,-86.4733 37.0006,-82.3485"/>
</g>
<!-- Node3 -->
<g id="node3" class="node">
<title>Node3</title>
<g id="a_node3"><a xlink:href="main_8cpp_a0ddf1224851353fc92bfbff6f499fa97.html#a0ddf1224851353fc92bfbff6f499fa97" target="_top" xlink:title="main">
<polygon fill="#ffffff" stroke="#000000" points="197.9307,-92.5 197.9307,-110.5 235.6055,-110.5 235.6055,-92.5 197.9307,-92.5"/>
<text text-anchor="middle" x="216.7681" y="-98.5" font-family="Helvetica,sans-Serif" font-size="10.00" fill="#000000">main</text>
</a>
</g>
</g>
<!-- Node2&#45;&gt;Node3 -->
<g id="edge2" class="edge">
<title>Node2&#45;&gt;Node3</title>
<path fill="none" stroke="#191970" d="M156.1115,-161.4125C158.127,-160.1633 160.0872,-158.8557 161.9307,-157.5 181.0048,-143.4727 199.4836,-122.6432 209.3645,-110.7384"/>
<polygon fill="#191970" stroke="#191970" points="154.1072,-158.5243 147.1127,-166.4822 157.5431,-164.6231 154.1072,-158.5243"/>
</g>
<!-- Node4&#45;&gt;Node3 -->
<g id="edge4" class="edge">
<title>Node4&#45;&gt;Node3</title>
<path fill="none" stroke="#191970" d="M158.5877,-125.3997C171.6995,-120.0135 186.4405,-113.9581 197.8038,-109.2902"/>
<polygon fill="#191970" stroke="#191970" points="156.8816,-122.3166 148.9616,-129.3539 159.5415,-128.7916 156.8816,-122.3166"/>
</g>
<!-- Node5&#45;&gt;Node3 -->
<g id="edge6" class="edge">
<title>Node5&#45;&gt;Node3</title>
<path fill="none" stroke="#191970" d="M168.1813,-101.5C178.5837,-101.5 189.2404,-101.5 197.9127,-101.5"/>
<polygon fill="#191970" stroke="#191970" points="167.9466,-98.0001 157.9466,-101.5 167.9465,-105.0001 167.9466,-98.0001"/>
</g>
<!-- Node6&#45;&gt;Node3 -->
<g id="edge8" class="edge">
<title>Node6&#45;&gt;Node3</title>
<path fill="none" stroke="#191970" d="M150.5198,-61.047C166.8157,-70.9977 187.9142,-83.8811 201.8725,-92.4044"/>
<polygon fill="#191970" stroke="#191970" points="151.9289,-57.8065 141.5702,-55.5821 148.2808,-63.7808 151.9289,-57.8065"/>
</g>
<!-- Node6&#45;&gt;Node6 -->
<g id="edge9" class="edge">
<title>Node6&#45;&gt;Node6</title>
<path fill="none" stroke="#191970" d="M109.964,-65.2336C110.9019,-70.2195 116.4795,-74 126.6968,-74 143.0444,-74 147.5145,-64.322 140.107,-55.5134"/>
<polygon fill="#191970" stroke="#191970" points="113.3639,-66.108 113.2866,-55.5134 106.7402,-63.8438 113.3639,-66.108"/>
</g>
<!-- Node7&#45;&gt;Node3 -->
<g id="edge11" class="edge">
<title>Node7&#45;&gt;Node3</title>
<path fill="none" stroke="#191970" d="M155.7008,-23.7721C157.8885,-25.255 159.9947,-26.8342 161.9307,-28.5 184.2791,-47.7302 203.1007,-77.5527 211.7229,-92.4241"/>
<polygon fill="#191970" stroke="#191970" points="157.4171,-20.7199 147.047,-18.549 153.7999,-26.7129 157.4171,-20.7199"/>
</g>
</g>
</svg>
