<?xml version="1.0" encoding="UTF-8" standalone="no"?>
<!DOCTYPE svg PUBLIC "-//W3C//DTD SVG 1.1//EN"
 "http://www.w3.org/Graphics/SVG/1.1/DTD/svg11.dtd">
<!-- Generated by graphviz version 2.40.1 (20161225.0304)
 -->
<!-- Title: Path_GetExtName Pages: 1 -->
<svg width="288pt" height="156pt"
 viewBox="0.00 0.00 287.52 156.00" xmlns="http://www.w3.org/2000/svg" xmlns:xlink="http://www.w3.org/1999/xlink">
<g id="graph0" class="graph" transform="scale(1 1) rotate(0) translate(4 152)">
<title>Path_GetExtName</title>
<polygon fill="#ffffff" stroke="transparent" points="-4,4 -4,-152 283.5166,-152 283.5166,4 -4,4"/>
<!-- Node1 -->
<g id="node1" class="node">
<title>Node1</title>
<polygon fill="#bfbfbf" stroke="#000000" points="0,-64.5 0,-82.5 99.374,-82.5 99.374,-64.5 0,-64.5"/>
<text text-anchor="middle" x="49.687" y="-70.5" font-family="Helvetica,sans-Serif" font-size="10.00" fill="#000000">Path_GetExtName</text>
</g>
<!-- Node2 -->
<g id="node2" class="node">
<title>Node2</title>
<g id="a_node2"><a xlink:href="Conti2D_8h_a07c876abe68bb0cbc0d3b412166f5e6a.html#a07c876abe68bb0cbc0d3b412166f5e6a" target="_top" xlink:title="Downward continuation: uneven surface to plane(space domain) ">
<polygon fill="#ffffff" stroke="#000000" points="139.8247,-129.5 139.8247,-147.5 201.3911,-147.5 201.3911,-129.5 139.8247,-129.5"/>
<text text-anchor="middle" x="170.6079" y="-135.5" font-family="Helvetica,sans-Serif" font-size="10.00" fill="#000000">DWC_s2p</text>
</a>
</g>
</g>
<!-- Node1&#45;&gt;Node2 -->
<g id="edge1" class="edge">
<title>Node1&#45;&gt;Node2</title>
<path fill="none" stroke="#191970" d="M74.8195,-87.5387C91.8412,-96.9842 114.8784,-109.6467 135.374,-120.5 140.9588,-123.4574 147.08,-126.6139 152.6308,-129.4444"/>
<polygon fill="#191970" stroke="#191970" points="76.4768,-84.4555 66.0363,-82.654 73.0746,-90.5732 76.4768,-84.4555"/>
</g>
<!-- Node4 -->
<g id="node4" class="node">
<title>Node4</title>
<g id="a_node4"><a xlink:href="Conti2D_8h_a05f1b014599cdda496e9bf781d4737d4.html#a05f1b014599cdda496e9bf781d4737d4" target="_top" xlink:title="Upward continuation: plane to plane(space domain) ">
<polygon fill="#ffffff" stroke="#000000" points="139.5439,-92.5 139.5439,-110.5 201.6719,-110.5 201.6719,-92.5 139.5439,-92.5"/>
<text text-anchor="middle" x="170.6079" y="-98.5" font-family="Helvetica,sans-Serif" font-size="10.00" fill="#000000">UWC_p2p</text>
</a>
</g>
</g>
<!-- Node1&#45;&gt;Node4 -->
<g id="edge3" class="edge">
<title>Node1&#45;&gt;Node4</title>
<path fill="none" stroke="#191970" d="M98.4767,-84.7976C112.2878,-87.9956 126.9435,-91.3892 139.4113,-94.2762"/>
<polygon fill="#191970" stroke="#191970" points="99.1446,-81.3597 88.6127,-82.5135 97.5654,-88.1792 99.1446,-81.3597"/>
</g>
<!-- Node5 -->
<g id="node5" class="node">
<title>Node5</title>
<g id="a_node5"><a xlink:href="Conti2D_8h_af82757cb7e0f4f398e774b4e89b9ea72.html#af82757cb7e0f4f398e774b4e89b9ea72" target="_top" xlink:title="Upward continuation: plane to plane(frequency domain) ">
<polygon fill="#ffffff" stroke="#000000" points="135.374,-37.5 135.374,-55.5 205.8418,-55.5 205.8418,-37.5 135.374,-37.5"/>
<text text-anchor="middle" x="170.6079" y="-43.5" font-family="Helvetica,sans-Serif" font-size="10.00" fill="#000000">UWC_p2p_f</text>
</a>
</g>
</g>
<!-- Node1&#45;&gt;Node5 -->
<g id="edge5" class="edge">
<title>Node1&#45;&gt;Node5</title>
<path fill="none" stroke="#191970" d="M100.3947,-62.1776C112.0937,-59.5654 124.2929,-56.8415 135.1778,-54.4111"/>
<polygon fill="#191970" stroke="#191970" points="99.2852,-58.8391 90.2883,-64.4343 100.8107,-65.6709 99.2852,-58.8391"/>
</g>
<!-- Node6 -->
<g id="node6" class="node">
<title>Node6</title>
<g id="a_node6"><a xlink:href="Conti2D_8h_a9fcb7711c4e230ba259de4ed9be39ccd.html#a9fcb7711c4e230ba259de4ed9be39ccd" target="_top" xlink:title="Upward continuation: plane to surface(space domain) ">
<polygon fill="#ffffff" stroke="#000000" points="139.8247,-.5 139.8247,-18.5 201.3911,-18.5 201.3911,-.5 139.8247,-.5"/>
<text text-anchor="middle" x="170.6079" y="-6.5" font-family="Helvetica,sans-Serif" font-size="10.00" fill="#000000">UWC_p2s</text>
</a>
</g>
</g>
<!-- Node1&#45;&gt;Node6 -->
<g id="edge8" class="edge">
<title>Node1&#45;&gt;Node6</title>
<path fill="none" stroke="#191970" d="M75.7915,-59.6836C99.2227,-47.2822 132.958,-29.427 153.2346,-18.6952"/>
<polygon fill="#191970" stroke="#191970" points="73.9567,-56.6947 66.7556,-64.4661 77.2312,-62.8816 73.9567,-56.6947"/>
</g>
<!-- Node3 -->
<g id="node3" class="node">
<title>Node3</title>
<g id="a_node3"><a xlink:href="main_8cpp_a0ddf1224851353fc92bfbff6f499fa97.html#a0ddf1224851353fc92bfbff6f499fa97" target="_top" xlink:title="main">
<polygon fill="#ffffff" stroke="#000000" points="241.8418,-64.5 241.8418,-82.5 279.5166,-82.5 279.5166,-64.5 241.8418,-64.5"/>
<text text-anchor="middle" x="260.6792" y="-70.5" font-family="Helvetica,sans-Serif" font-size="10.00" fill="#000000">main</text>
</a>
</g>
</g>
<!-- Node2&#45;&gt;Node3 -->
<g id="edge2" class="edge">
<title>Node2&#45;&gt;Node3</title>
<path fill="none" stroke="#191970" d="M199.2576,-124.5989C201.5238,-123.2782 203.7448,-121.9054 205.8418,-120.5 223.132,-108.912 241.0565,-92.5901 251.5227,-82.5459"/>
<polygon fill="#191970" stroke="#191970" points="197.5664,-121.5345 190.4598,-129.3925 200.9156,-127.6813 197.5664,-121.5345"/>
</g>
<!-- Node4&#45;&gt;Node3 -->
<g id="edge4" class="edge">
<title>Node4&#45;&gt;Node3</title>
<path fill="none" stroke="#191970" d="M209.2537,-89.4864C220.4758,-85.9978 232.2383,-82.3413 241.6771,-79.4071"/>
<polygon fill="#191970" stroke="#191970" points="208.1131,-86.1757 199.6028,-92.4865 210.1911,-92.8601 208.1131,-86.1757"/>
</g>
<!-- Node5&#45;&gt;Node3 -->
<g id="edge6" class="edge">
<title>Node5&#45;&gt;Node3</title>
<path fill="none" stroke="#191970" d="M210.8241,-58.5553C221.6028,-61.7864 232.7541,-65.1291 241.7699,-67.8317"/>
<polygon fill="#191970" stroke="#191970" points="211.6858,-55.1598 201.1019,-55.641 209.6758,-61.865 211.6858,-55.1598"/>
</g>
<!-- Node5&#45;&gt;Node5 -->
<g id="edge7" class="edge">
<title>Node5&#45;&gt;Node5</title>
<path fill="none" stroke="#191970" d="M153.8751,-65.2336C154.813,-70.2195 160.3906,-74 170.6079,-74 186.9556,-74 191.4256,-64.322 184.0181,-55.5134"/>
<polygon fill="#191970" stroke="#191970" points="157.275,-66.108 157.1977,-55.5134 150.6513,-63.8438 157.275,-66.108"/>
</g>
<!-- Node6&#45;&gt;Node3 -->
<g id="edge9" class="edge">
<title>Node6&#45;&gt;Node3</title>
<path fill="none" stroke="#191970" d="M197.7473,-23.4426C200.5258,-25.0744 203.2699,-26.7747 205.8418,-28.5 222.4104,-39.6145 239.9691,-54.6825 250.6299,-64.2496"/>
<polygon fill="#191970" stroke="#191970" points="199.3613,-20.3352 188.9237,-18.5168 195.9492,-26.4473 199.3613,-20.3352"/>
</g>
</g>
</svg>
