<?xml version="1.0" encoding="UTF-8" standalone="no"?>
<!DOCTYPE svg PUBLIC "-//W3C//DTD SVG 1.1//EN"
 "http://www.w3.org/Graphics/SVG/1.1/DTD/svg11.dtd">
<!-- Generated by graphviz version 2.40.1 (20161225.0304)
 -->
<!-- Title: Norm2_Gradient Pages: 1 -->
<svg width="437pt" height="82pt"
 viewBox="0.00 0.00 437.34 82.00" xmlns="http://www.w3.org/2000/svg" xmlns:xlink="http://www.w3.org/1999/xlink">
<g id="graph0" class="graph" transform="scale(1 1) rotate(0) translate(4 78)">
<title>Norm2_Gradient</title>
<polygon fill="#ffffff" stroke="transparent" points="-4,4 -4,-78 433.3438,-78 433.3438,4 -4,4"/>
<!-- Node1 -->
<g id="node1" class="node">
<title>Node1</title>
<polygon fill="#bfbfbf" stroke="#000000" points="0,-36.5 0,-54.5 89.9209,-54.5 89.9209,-36.5 0,-36.5"/>
<text text-anchor="middle" x="44.9604" y="-42.5" font-family="Helvetica,sans-Serif" font-size="10.00" fill="#000000">Norm2_Gradient</text>
</g>
<!-- Node2 -->
<g id="node2" class="node">
<title>Node2</title>
<g id="a_node2"><a xlink:href="Conti2D_8h_a8affb7fb2246ce1c959f681fc7baaa05.html#a8affb7fb2246ce1c959f681fc7baaa05" target="_top" xlink:title="Calculate downward continuation from plane to plane using Landweber iteration method. ">
<polygon fill="#ffffff" stroke="#000000" points="125.9209,-55.5 125.9209,-73.5 257.541,-73.5 257.541,-55.5 125.9209,-55.5"/>
<text text-anchor="middle" x="191.731" y="-61.5" font-family="Helvetica,sans-Serif" font-size="10.00" fill="#000000">DWC_p2p_LandweberIter</text>
</a>
</g>
</g>
<!-- Node1&#45;&gt;Node2 -->
<g id="edge1" class="edge">
<title>Node1&#45;&gt;Node2</title>
<path fill="none" stroke="#191970" d="M100.2122,-52.6525C108.5881,-53.7368 117.3002,-54.8647 125.8739,-55.9746"/>
<polygon fill="#191970" stroke="#191970" points="100.5607,-49.1685 90.194,-51.3557 99.6619,-56.1106 100.5607,-49.1685"/>
</g>
<!-- Node3 -->
<g id="node3" class="node">
<title>Node3</title>
<g id="a_node3"><a xlink:href="Conti2D_8h_a30671331e25e6cfa739e77aec57b7f18.html#a30671331e25e6cfa739e77aec57b7f18" target="_top" xlink:title="Calculate downward continuation of potential field from surface to a plane. ">
<polygon fill="#ffffff" stroke="#000000" points="126.2017,-18.5 126.2017,-36.5 257.2603,-36.5 257.2603,-18.5 126.2017,-18.5"/>
<text text-anchor="middle" x="191.731" y="-24.5" font-family="Helvetica,sans-Serif" font-size="10.00" fill="#000000">DWC_s2p_LandweberIter</text>
</a>
</g>
</g>
<!-- Node1&#45;&gt;Node3 -->
<g id="edge2" class="edge">
<title>Node1&#45;&gt;Node3</title>
<path fill="none" stroke="#191970" d="M100.2884,-38.7146C108.7289,-37.6794 117.5092,-36.6026 126.1438,-35.5436"/>
<polygon fill="#191970" stroke="#191970" points="99.6936,-35.2612 90.194,-39.9525 100.5458,-42.2091 99.6936,-35.2612"/>
</g>
<!-- Node4 -->
<g id="node4" class="node">
<title>Node4</title>
<g id="a_node4"><a xlink:href="Conti2D_8h_ac80c719a8192b6133df6ae172662e51a.html#ac80c719a8192b6133df6ae172662e51a" target="_top" xlink:title="Downward continuation: plane to plane(space domain) ">
<polygon fill="#ffffff" stroke="#000000" points="293.541,-37.5 293.541,-55.5 355.6689,-55.5 355.6689,-37.5 293.541,-37.5"/>
<text text-anchor="middle" x="324.605" y="-43.5" font-family="Helvetica,sans-Serif" font-size="10.00" fill="#000000">DWC_p2p</text>
</a>
</g>
</g>
<!-- Node3&#45;&gt;Node4 -->
<g id="edge3" class="edge">
<title>Node3&#45;&gt;Node4</title>
<path fill="none" stroke="#191970" d="M265.0787,-37.9882C275.0664,-39.4164 284.8435,-40.8144 293.4939,-42.0513"/>
<polygon fill="#191970" stroke="#191970" points="265.4495,-34.5057 255.0547,-36.5548 264.4586,-41.4352 265.4495,-34.5057"/>
</g>
<!-- Node6 -->
<g id="node6" class="node">
<title>Node6</title>
<g id="a_node6"><a xlink:href="Conti2D_8h_a07c876abe68bb0cbc0d3b412166f5e6a.html#a07c876abe68bb0cbc0d3b412166f5e6a" target="_top" xlink:title="Downward continuation: uneven surface to plane(space domain) ">
<polygon fill="#ffffff" stroke="#000000" points="293.8218,-.5 293.8218,-18.5 355.3882,-18.5 355.3882,-.5 293.8218,-.5"/>
<text text-anchor="middle" x="324.605" y="-6.5" font-family="Helvetica,sans-Serif" font-size="10.00" fill="#000000">DWC_s2p</text>
</a>
</g>
</g>
<!-- Node3&#45;&gt;Node6 -->
<g id="edge5" class="edge">
<title>Node3&#45;&gt;Node6</title>
<path fill="none" stroke="#191970" d="M267.4705,-17.2398C276.7045,-15.9889 285.6938,-14.7712 293.706,-13.6858"/>
<polygon fill="#191970" stroke="#191970" points="266.829,-13.7947 257.3894,-18.6055 267.7688,-20.7313 266.829,-13.7947"/>
</g>
<!-- Node5 -->
<g id="node5" class="node">
<title>Node5</title>
<g id="a_node5"><a xlink:href="main_8cpp_a0ddf1224851353fc92bfbff6f499fa97.html#a0ddf1224851353fc92bfbff6f499fa97" target="_top" xlink:title="main">
<polygon fill="#ffffff" stroke="#000000" points="391.6689,-18.5 391.6689,-36.5 429.3438,-36.5 429.3438,-18.5 391.6689,-18.5"/>
<text text-anchor="middle" x="410.5063" y="-24.5" font-family="Helvetica,sans-Serif" font-size="10.00" fill="#000000">main</text>
</a>
</g>
</g>
<!-- Node4&#45;&gt;Node5 -->
<g id="edge4" class="edge">
<title>Node4&#45;&gt;Node5</title>
<path fill="none" stroke="#191970" d="M366.0456,-37.334C374.9566,-35.363 383.9543,-33.3729 391.502,-31.7035"/>
<polygon fill="#191970" stroke="#191970" points="365.1118,-33.9559 356.1037,-39.533 366.6236,-40.7907 365.1118,-33.9559"/>
</g>
<!-- Node6&#45;&gt;Node5 -->
<g id="edge6" class="edge">
<title>Node6&#45;&gt;Node5</title>
<path fill="none" stroke="#191970" d="M365.6909,-18.1093C374.7306,-20.0035 383.8806,-21.9208 391.5353,-23.5248"/>
<polygon fill="#191970" stroke="#191970" points="366.1226,-14.6238 355.6173,-15.9984 364.6869,-21.475 366.1226,-14.6238"/>
</g>
</g>
</svg>
