<?xml version="1.0" encoding="UTF-8" standalone="no"?>
<!DOCTYPE svg PUBLIC "-//W3C//DTD SVG 1.1//EN"
 "http://www.w3.org/Graphics/SVG/1.1/DTD/svg11.dtd">
<!-- Generated by graphviz version 2.40.1 (20161225.0304)
 -->
<!-- Title: Norm2 Pages: 1 -->
<svg width="393pt" height="82pt"
 viewBox="0.00 0.00 393.43 82.00" xmlns="http://www.w3.org/2000/svg" xmlns:xlink="http://www.w3.org/1999/xlink">
<g id="graph0" class="graph" transform="scale(1 1) rotate(0) translate(4 78)">
<title>Norm2</title>
<polygon fill="#ffffff" stroke="transparent" points="-4,4 -4,-78 389.4277,-78 389.4277,4 -4,4"/>
<!-- Node1 -->
<g id="node1" class="node">
<title>Node1</title>
<polygon fill="#bfbfbf" stroke="#000000" points="0,-36.5 0,-54.5 46.0049,-54.5 46.0049,-36.5 0,-36.5"/>
<text text-anchor="middle" x="23.0024" y="-42.5" font-family="Helvetica,sans-Serif" font-size="10.00" fill="#000000">Norm2</text>
</g>
<!-- Node2 -->
<g id="node2" class="node">
<title>Node2</title>
<g id="a_node2"><a xlink:href="Conti2D_8h_a8affb7fb2246ce1c959f681fc7baaa05.html#a8affb7fb2246ce1c959f681fc7baaa05" target="_top" xlink:title="Calculate downward continuation from plane to plane using Landweber iteration method. ">
<polygon fill="#ffffff" stroke="#000000" points="82.0049,-55.5 82.0049,-73.5 213.625,-73.5 213.625,-55.5 82.0049,-55.5"/>
<text text-anchor="middle" x="147.8149" y="-61.5" font-family="Helvetica,sans-Serif" font-size="10.00" fill="#000000">DWC_p2p_LandweberIter</text>
</a>
</g>
</g>
<!-- Node1&#45;&gt;Node2 -->
<g id="edge1" class="edge">
<title>Node1&#45;&gt;Node2</title>
<path fill="none" stroke="#191970" d="M56.1042,-50.539C66.1335,-52.0658 77.4692,-53.7914 88.6648,-55.4957"/>
<polygon fill="#191970" stroke="#191970" points="56.5991,-47.0741 46.1862,-49.0292 55.5456,-53.9944 56.5991,-47.0741"/>
</g>
<!-- Node3 -->
<g id="node3" class="node">
<title>Node3</title>
<g id="a_node3"><a xlink:href="Conti2D_8h_a30671331e25e6cfa739e77aec57b7f18.html#a30671331e25e6cfa739e77aec57b7f18" target="_top" xlink:title="Calculate downward continuation of potential field from surface to a plane. ">
<polygon fill="#ffffff" stroke="#000000" points="82.2856,-18.5 82.2856,-36.5 213.3442,-36.5 213.3442,-18.5 82.2856,-18.5"/>
<text text-anchor="middle" x="147.8149" y="-24.5" font-family="Helvetica,sans-Serif" font-size="10.00" fill="#000000">DWC_s2p_LandweberIter</text>
</a>
</g>
</g>
<!-- Node1&#45;&gt;Node3 -->
<g id="edge2" class="edge">
<title>Node1&#45;&gt;Node3</title>
<path fill="none" stroke="#191970" d="M56.1876,-40.7142C65.1683,-39.419 75.1917,-37.9735 85.2216,-36.527"/>
<polygon fill="#191970" stroke="#191970" points="55.5842,-37.2649 46.1862,-42.1565 56.5834,-44.1932 55.5842,-37.2649"/>
</g>
<!-- Node4 -->
<g id="node4" class="node">
<title>Node4</title>
<g id="a_node4"><a xlink:href="Conti2D_8h_ac80c719a8192b6133df6ae172662e51a.html#ac80c719a8192b6133df6ae172662e51a" target="_top" xlink:title="Downward continuation: plane to plane(space domain) ">
<polygon fill="#ffffff" stroke="#000000" points="249.625,-37.5 249.625,-55.5 311.7529,-55.5 311.7529,-37.5 249.625,-37.5"/>
<text text-anchor="middle" x="280.689" y="-43.5" font-family="Helvetica,sans-Serif" font-size="10.00" fill="#000000">DWC_p2p</text>
</a>
</g>
</g>
<!-- Node3&#45;&gt;Node4 -->
<g id="edge3" class="edge">
<title>Node3&#45;&gt;Node4</title>
<path fill="none" stroke="#191970" d="M221.1627,-37.9882C231.1504,-39.4164 240.9275,-40.8144 249.5779,-42.0513"/>
<polygon fill="#191970" stroke="#191970" points="221.5335,-34.5057 211.1387,-36.5548 220.5426,-41.4352 221.5335,-34.5057"/>
</g>
<!-- Node6 -->
<g id="node6" class="node">
<title>Node6</title>
<g id="a_node6"><a xlink:href="Conti2D_8h_a07c876abe68bb0cbc0d3b412166f5e6a.html#a07c876abe68bb0cbc0d3b412166f5e6a" target="_top" xlink:title="Downward continuation: uneven surface to plane(space domain) ">
<polygon fill="#ffffff" stroke="#000000" points="249.9058,-.5 249.9058,-18.5 311.4722,-18.5 311.4722,-.5 249.9058,-.5"/>
<text text-anchor="middle" x="280.689" y="-6.5" font-family="Helvetica,sans-Serif" font-size="10.00" fill="#000000">DWC_s2p</text>
</a>
</g>
</g>
<!-- Node3&#45;&gt;Node6 -->
<g id="edge5" class="edge">
<title>Node3&#45;&gt;Node6</title>
<path fill="none" stroke="#191970" d="M223.5545,-17.2398C232.7884,-15.9889 241.7778,-14.7712 249.79,-13.6858"/>
<polygon fill="#191970" stroke="#191970" points="222.913,-13.7947 213.4734,-18.6055 223.8528,-20.7313 222.913,-13.7947"/>
</g>
<!-- Node5 -->
<g id="node5" class="node">
<title>Node5</title>
<g id="a_node5"><a xlink:href="main_8cpp_a0ddf1224851353fc92bfbff6f499fa97.html#a0ddf1224851353fc92bfbff6f499fa97" target="_top" xlink:title="main">
<polygon fill="#ffffff" stroke="#000000" points="347.7529,-18.5 347.7529,-36.5 385.4277,-36.5 385.4277,-18.5 347.7529,-18.5"/>
<text text-anchor="middle" x="366.5903" y="-24.5" font-family="Helvetica,sans-Serif" font-size="10.00" fill="#000000">main</text>
</a>
</g>
</g>
<!-- Node4&#45;&gt;Node5 -->
<g id="edge4" class="edge">
<title>Node4&#45;&gt;Node5</title>
<path fill="none" stroke="#191970" d="M322.1296,-37.334C331.0406,-35.363 340.0383,-33.3729 347.586,-31.7035"/>
<polygon fill="#191970" stroke="#191970" points="321.1958,-33.9559 312.1877,-39.533 322.7076,-40.7907 321.1958,-33.9559"/>
</g>
<!-- Node6&#45;&gt;Node5 -->
<g id="edge6" class="edge">
<title>Node6&#45;&gt;Node5</title>
<path fill="none" stroke="#191970" d="M321.7749,-18.1093C330.8146,-20.0035 339.9646,-21.9208 347.6193,-23.5248"/>
<polygon fill="#191970" stroke="#191970" points="322.2066,-14.6238 311.7013,-15.9984 320.7709,-21.475 322.2066,-14.6238"/>
</g>
</g>
</svg>
