<?xml version="1.0" encoding="UTF-8" standalone="no"?>
<!DOCTYPE svg PUBLIC "-//W3C//DTD SVG 1.1//EN"
 "http://www.w3.org/Graphics/SVG/1.1/DTD/svg11.dtd">
<!-- Generated by graphviz version 2.40.1 (20161225.0304)
 -->
<!-- Title: SaveGrd2xyz Pages: 1 -->
<svg width="264pt" height="156pt"
 viewBox="0.00 0.00 264.17 156.00" xmlns="http://www.w3.org/2000/svg" xmlns:xlink="http://www.w3.org/1999/xlink">
<g id="graph0" class="graph" transform="scale(1 1) rotate(0) translate(4 152)">
<title>SaveGrd2xyz</title>
<polygon fill="#ffffff" stroke="transparent" points="-4,4 -4,-152 260.167,-152 260.167,4 -4,4"/>
<!-- Node1 -->
<g id="node1" class="node">
<title>Node1</title>
<polygon fill="#bfbfbf" stroke="#000000" points="0,-64.5 0,-82.5 76.0244,-82.5 76.0244,-64.5 0,-64.5"/>
<text text-anchor="middle" x="38.0122" y="-70.5" font-family="Helvetica,sans-Serif" font-size="10.00" fill="#000000">SaveGrd2xyz</text>
</g>
<!-- Node2 -->
<g id="node2" class="node">
<title>Node2</title>
<g id="a_node2"><a xlink:href="Conti2D_8h_a07c876abe68bb0cbc0d3b412166f5e6a.html#a07c876abe68bb0cbc0d3b412166f5e6a" target="_top" xlink:title="Downward continuation: uneven surface to plane(space domain) ">
<polygon fill="#ffffff" stroke="#000000" points="116.4751,-129.5 116.4751,-147.5 178.0415,-147.5 178.0415,-129.5 116.4751,-129.5"/>
<text text-anchor="middle" x="147.2583" y="-135.5" font-family="Helvetica,sans-Serif" font-size="10.00" fill="#000000">DWC_s2p</text>
</a>
</g>
</g>
<!-- Node1&#45;&gt;Node2 -->
<g id="edge1" class="edge">
<title>Node1&#45;&gt;Node2</title>
<path fill="none" stroke="#191970" d="M59.7654,-88.0705C74.3396,-97.6433 94.0747,-110.2455 112.0244,-120.5 117.3923,-123.5666 123.3407,-126.7018 128.7979,-129.4782"/>
<polygon fill="#191970" stroke="#191970" points="61.6913,-85.1479 51.42,-82.5496 57.8291,-90.9861 61.6913,-85.1479"/>
</g>
<!-- Node4 -->
<g id="node4" class="node">
<title>Node4</title>
<g id="a_node4"><a xlink:href="Conti2D_8h_a05f1b014599cdda496e9bf781d4737d4.html#a05f1b014599cdda496e9bf781d4737d4" target="_top" xlink:title="Upward continuation: plane to plane(space domain) ">
<polygon fill="#ffffff" stroke="#000000" points="116.1943,-92.5 116.1943,-110.5 178.3223,-110.5 178.3223,-92.5 116.1943,-92.5"/>
<text text-anchor="middle" x="147.2583" y="-98.5" font-family="Helvetica,sans-Serif" font-size="10.00" fill="#000000">UWC_p2p</text>
</a>
</g>
</g>
<!-- Node1&#45;&gt;Node4 -->
<g id="edge3" class="edge">
<title>Node1&#45;&gt;Node4</title>
<path fill="none" stroke="#191970" d="M83.0854,-85.0524C94.0934,-87.8737 105.6354,-90.832 115.8476,-93.4494"/>
<polygon fill="#191970" stroke="#191970" points="83.7356,-81.6059 73.1797,-82.5135 81.9976,-88.3868 83.7356,-81.6059"/>
</g>
<!-- Node5 -->
<g id="node5" class="node">
<title>Node5</title>
<g id="a_node5"><a xlink:href="Conti2D_8h_af82757cb7e0f4f398e774b4e89b9ea72.html#af82757cb7e0f4f398e774b4e89b9ea72" target="_top" xlink:title="Upward continuation: plane to plane(frequency domain) ">
<polygon fill="#ffffff" stroke="#000000" points="112.0244,-37.5 112.0244,-55.5 182.4922,-55.5 182.4922,-37.5 112.0244,-37.5"/>
<text text-anchor="middle" x="147.2583" y="-43.5" font-family="Helvetica,sans-Serif" font-size="10.00" fill="#000000">UWC_p2p_f</text>
</a>
</g>
</g>
<!-- Node1&#45;&gt;Node5 -->
<g id="edge5" class="edge">
<title>Node1&#45;&gt;Node5</title>
<path fill="none" stroke="#191970" d="M84.5016,-62.0102C93.7012,-59.7365 103.2157,-57.3851 111.9695,-55.2216"/>
<polygon fill="#191970" stroke="#191970" points="83.5616,-58.6371 74.6935,-64.4343 85.2412,-65.4327 83.5616,-58.6371"/>
</g>
<!-- Node6 -->
<g id="node6" class="node">
<title>Node6</title>
<g id="a_node6"><a xlink:href="Conti2D_8h_a9fcb7711c4e230ba259de4ed9be39ccd.html#a9fcb7711c4e230ba259de4ed9be39ccd" target="_top" xlink:title="Upward continuation: plane to surface(space domain) ">
<polygon fill="#ffffff" stroke="#000000" points="116.4751,-.5 116.4751,-18.5 178.0415,-18.5 178.0415,-.5 116.4751,-.5"/>
<text text-anchor="middle" x="147.2583" y="-6.5" font-family="Helvetica,sans-Serif" font-size="10.00" fill="#000000">UWC_p2s</text>
</a>
</g>
</g>
<!-- Node1&#45;&gt;Node6 -->
<g id="edge8" class="edge">
<title>Node1&#45;&gt;Node6</title>
<path fill="none" stroke="#191970" d="M61.1391,-59.016C75.6425,-50.0385 94.7931,-38.3756 112.0244,-28.5 117.8129,-25.1825 124.2147,-21.6813 129.956,-18.6006"/>
<polygon fill="#191970" stroke="#191970" points="58.9912,-56.23 52.3463,-64.482 62.6869,-62.175 58.9912,-56.23"/>
</g>
<!-- Node3 -->
<g id="node3" class="node">
<title>Node3</title>
<g id="a_node3"><a xlink:href="main_8cpp_a0ddf1224851353fc92bfbff6f499fa97.html#a0ddf1224851353fc92bfbff6f499fa97" target="_top" xlink:title="main">
<polygon fill="#ffffff" stroke="#000000" points="218.4922,-64.5 218.4922,-82.5 256.167,-82.5 256.167,-64.5 218.4922,-64.5"/>
<text text-anchor="middle" x="237.3296" y="-70.5" font-family="Helvetica,sans-Serif" font-size="10.00" fill="#000000">main</text>
</a>
</g>
</g>
<!-- Node2&#45;&gt;Node3 -->
<g id="edge2" class="edge">
<title>Node2&#45;&gt;Node3</title>
<path fill="none" stroke="#191970" d="M175.908,-124.5989C178.1742,-123.2782 180.3952,-121.9054 182.4922,-120.5 199.7824,-108.912 217.7069,-92.5901 228.1731,-82.5459"/>
<polygon fill="#191970" stroke="#191970" points="174.2168,-121.5345 167.1102,-129.3925 177.566,-127.6813 174.2168,-121.5345"/>
</g>
<!-- Node4&#45;&gt;Node3 -->
<g id="edge4" class="edge">
<title>Node4&#45;&gt;Node3</title>
<path fill="none" stroke="#191970" d="M185.904,-89.4864C197.1262,-85.9978 208.8887,-82.3413 218.3275,-79.4071"/>
<polygon fill="#191970" stroke="#191970" points="184.7634,-86.1757 176.2532,-92.4865 186.8415,-92.8601 184.7634,-86.1757"/>
</g>
<!-- Node5&#45;&gt;Node3 -->
<g id="edge6" class="edge">
<title>Node5&#45;&gt;Node3</title>
<path fill="none" stroke="#191970" d="M187.4745,-58.5553C198.2532,-61.7864 209.4045,-65.1291 218.4203,-67.8317"/>
<polygon fill="#191970" stroke="#191970" points="188.3362,-55.1598 177.7523,-55.641 186.3262,-61.865 188.3362,-55.1598"/>
</g>
<!-- Node5&#45;&gt;Node5 -->
<g id="edge7" class="edge">
<title>Node5&#45;&gt;Node5</title>
<path fill="none" stroke="#191970" d="M130.5255,-65.2336C131.4634,-70.2195 137.041,-74 147.2583,-74 163.606,-74 168.076,-64.322 160.6685,-55.5134"/>
<polygon fill="#191970" stroke="#191970" points="133.9254,-66.108 133.8481,-55.5134 127.3017,-63.8438 133.9254,-66.108"/>
</g>
<!-- Node6&#45;&gt;Node3 -->
<g id="edge9" class="edge">
<title>Node6&#45;&gt;Node3</title>
<path fill="none" stroke="#191970" d="M174.3977,-23.4426C177.1762,-25.0744 179.9203,-26.7747 182.4922,-28.5 199.0608,-39.6145 216.6195,-54.6825 227.2803,-64.2496"/>
<polygon fill="#191970" stroke="#191970" points="176.0117,-20.3352 165.5741,-18.5168 172.5996,-26.4473 176.0117,-20.3352"/>
</g>
</g>
</svg>
