<?xml version="1.0" encoding="UTF-8" standalone="no"?>
<!DOCTYPE svg PUBLIC "-//W3C//DTD SVG 1.1//EN"
 "http://www.w3.org/Graphics/SVG/1.1/DTD/svg11.dtd">
<!-- Generated by graphviz version 2.40.1 (20161225.0304)
 -->
<!-- Title: SaveGrd2netCDF Pages: 1 -->
<svg width="284pt" height="156pt"
 viewBox="0.00 0.00 283.62 156.00" xmlns="http://www.w3.org/2000/svg" xmlns:xlink="http://www.w3.org/1999/xlink">
<g id="graph0" class="graph" transform="scale(1 1) rotate(0) translate(4 152)">
<title>SaveGrd2netCDF</title>
<polygon fill="#ffffff" stroke="transparent" points="-4,4 -4,-152 279.6201,-152 279.6201,4 -4,4"/>
<!-- Node1 -->
<g id="node1" class="node">
<title>Node1</title>
<polygon fill="#bfbfbf" stroke="#000000" points="0,-64.5 0,-82.5 95.4775,-82.5 95.4775,-64.5 0,-64.5"/>
<text text-anchor="middle" x="47.7388" y="-70.5" font-family="Helvetica,sans-Serif" font-size="10.00" fill="#000000">SaveGrd2netCDF</text>
</g>
<!-- Node2 -->
<g id="node2" class="node">
<title>Node2</title>
<g id="a_node2"><a xlink:href="Conti2D_8h_a07c876abe68bb0cbc0d3b412166f5e6a.html#a07c876abe68bb0cbc0d3b412166f5e6a" target="_top" xlink:title="Downward continuation: uneven surface to plane(space domain) ">
<polygon fill="#ffffff" stroke="#000000" points="135.9282,-129.5 135.9282,-147.5 197.4946,-147.5 197.4946,-129.5 135.9282,-129.5"/>
<text text-anchor="middle" x="166.7114" y="-135.5" font-family="Helvetica,sans-Serif" font-size="10.00" fill="#000000">DWC_s2p</text>
</a>
</g>
</g>
<!-- Node1&#45;&gt;Node2 -->
<g id="edge1" class="edge">
<title>Node1&#45;&gt;Node2</title>
<path fill="none" stroke="#191970" d="M72.42,-87.6874C89.0234,-97.1487 111.4546,-109.7716 131.4775,-120.5 137.0478,-123.4846 143.1649,-126.6487 148.7164,-129.4779"/>
<polygon fill="#191970" stroke="#191970" points="73.7986,-84.444 63.3798,-82.5203 70.3249,-90.5214 73.7986,-84.444"/>
</g>
<!-- Node4 -->
<g id="node4" class="node">
<title>Node4</title>
<g id="a_node4"><a xlink:href="Conti2D_8h_a05f1b014599cdda496e9bf781d4737d4.html#a05f1b014599cdda496e9bf781d4737d4" target="_top" xlink:title="Upward continuation: plane to plane(space domain) ">
<polygon fill="#ffffff" stroke="#000000" points="135.6475,-92.5 135.6475,-110.5 197.7754,-110.5 197.7754,-92.5 135.6475,-92.5"/>
<text text-anchor="middle" x="166.7114" y="-98.5" font-family="Helvetica,sans-Serif" font-size="10.00" fill="#000000">UWC_p2p</text>
</a>
</g>
</g>
<!-- Node1&#45;&gt;Node4 -->
<g id="edge3" class="edge">
<title>Node1&#45;&gt;Node4</title>
<path fill="none" stroke="#191970" d="M96.0519,-84.8704C109.4076,-88.0137 123.5429,-91.3404 135.6324,-94.1856"/>
<polygon fill="#191970" stroke="#191970" points="96.5732,-81.3975 86.0373,-82.5135 94.9696,-88.2114 96.5732,-81.3975"/>
</g>
<!-- Node5 -->
<g id="node5" class="node">
<title>Node5</title>
<g id="a_node5"><a xlink:href="Conti2D_8h_af82757cb7e0f4f398e774b4e89b9ea72.html#af82757cb7e0f4f398e774b4e89b9ea72" target="_top" xlink:title="Upward continuation: plane to plane(frequency domain) ">
<polygon fill="#ffffff" stroke="#000000" points="131.4775,-37.5 131.4775,-55.5 201.9453,-55.5 201.9453,-37.5 131.4775,-37.5"/>
<text text-anchor="middle" x="166.7114" y="-43.5" font-family="Helvetica,sans-Serif" font-size="10.00" fill="#000000">UWC_p2p_f</text>
</a>
</g>
</g>
<!-- Node1&#45;&gt;Node5 -->
<g id="edge5" class="edge">
<title>Node1&#45;&gt;Node5</title>
<path fill="none" stroke="#191970" d="M97.5341,-62.1993C108.9332,-59.6124 120.8203,-56.9147 131.4597,-54.5001"/>
<polygon fill="#191970" stroke="#191970" points="96.6633,-58.8078 87.6859,-64.4343 98.2126,-65.6343 96.6633,-58.8078"/>
</g>
<!-- Node6 -->
<g id="node6" class="node">
<title>Node6</title>
<g id="a_node6"><a xlink:href="Conti2D_8h_a9fcb7711c4e230ba259de4ed9be39ccd.html#a9fcb7711c4e230ba259de4ed9be39ccd" target="_top" xlink:title="Upward continuation: plane to surface(space domain) ">
<polygon fill="#ffffff" stroke="#000000" points="135.9282,-.5 135.9282,-18.5 197.4946,-18.5 197.4946,-.5 135.9282,-.5"/>
<text text-anchor="middle" x="166.7114" y="-6.5" font-family="Helvetica,sans-Serif" font-size="10.00" fill="#000000">UWC_p2s</text>
</a>
</g>
</g>
<!-- Node1&#45;&gt;Node6 -->
<g id="edge8" class="edge">
<title>Node1&#45;&gt;Node6</title>
<path fill="none" stroke="#191970" d="M73.4227,-59.6836C96.4763,-47.2822 129.6681,-29.427 149.6181,-18.6952"/>
<polygon fill="#191970" stroke="#191970" points="71.6808,-56.6463 64.5323,-64.4661 74.9971,-62.8109 71.6808,-56.6463"/>
</g>
<!-- Node3 -->
<g id="node3" class="node">
<title>Node3</title>
<g id="a_node3"><a xlink:href="main_8cpp_a0ddf1224851353fc92bfbff6f499fa97.html#a0ddf1224851353fc92bfbff6f499fa97" target="_top" xlink:title="main">
<polygon fill="#ffffff" stroke="#000000" points="237.9453,-64.5 237.9453,-82.5 275.6201,-82.5 275.6201,-64.5 237.9453,-64.5"/>
<text text-anchor="middle" x="256.7827" y="-70.5" font-family="Helvetica,sans-Serif" font-size="10.00" fill="#000000">main</text>
</a>
</g>
</g>
<!-- Node2&#45;&gt;Node3 -->
<g id="edge2" class="edge">
<title>Node2&#45;&gt;Node3</title>
<path fill="none" stroke="#191970" d="M195.3611,-124.5989C197.6273,-123.2782 199.8483,-121.9054 201.9453,-120.5 219.2355,-108.912 237.16,-92.5901 247.6262,-82.5459"/>
<polygon fill="#191970" stroke="#191970" points="193.6699,-121.5345 186.5633,-129.3925 197.0191,-127.6813 193.6699,-121.5345"/>
</g>
<!-- Node4&#45;&gt;Node3 -->
<g id="edge4" class="edge">
<title>Node4&#45;&gt;Node3</title>
<path fill="none" stroke="#191970" d="M205.3572,-89.4864C216.5793,-85.9978 228.3418,-82.3413 237.7807,-79.4071"/>
<polygon fill="#191970" stroke="#191970" points="204.2166,-86.1757 195.7063,-92.4865 206.2946,-92.8601 204.2166,-86.1757"/>
</g>
<!-- Node5&#45;&gt;Node3 -->
<g id="edge6" class="edge">
<title>Node5&#45;&gt;Node3</title>
<path fill="none" stroke="#191970" d="M206.9276,-58.5553C217.7063,-61.7864 228.8576,-65.1291 237.8734,-67.8317"/>
<polygon fill="#191970" stroke="#191970" points="207.7894,-55.1598 197.2055,-55.641 205.7793,-61.865 207.7894,-55.1598"/>
</g>
<!-- Node5&#45;&gt;Node5 -->
<g id="edge7" class="edge">
<title>Node5&#45;&gt;Node5</title>
<path fill="none" stroke="#191970" d="M149.9786,-65.2336C150.9165,-70.2195 156.4941,-74 166.7114,-74 183.0591,-74 187.5291,-64.322 180.1216,-55.5134"/>
<polygon fill="#191970" stroke="#191970" points="153.3785,-66.108 153.3012,-55.5134 146.7548,-63.8438 153.3785,-66.108"/>
</g>
<!-- Node6&#45;&gt;Node3 -->
<g id="edge9" class="edge">
<title>Node6&#45;&gt;Node3</title>
<path fill="none" stroke="#191970" d="M193.8508,-23.4426C196.6293,-25.0744 199.3734,-26.7747 201.9453,-28.5 218.5139,-39.6145 236.0726,-54.6825 246.7334,-64.2496"/>
<polygon fill="#191970" stroke="#191970" points="195.4649,-20.3352 185.0272,-18.5168 192.0527,-26.4473 195.4649,-20.3352"/>
</g>
</g>
</svg>
