<?xml version="1.0" encoding="UTF-8" standalone="no"?>
<!DOCTYPE svg PUBLIC "-//W3C//DTD SVG 1.1//EN"
 "http://www.w3.org/Graphics/SVG/1.1/DTD/svg11.dtd">
<!-- Generated by graphviz version 2.40.1 (20161225.0304)
 -->
<!-- Title: SaveGrd2VTK Pages: 1 -->
<svg width="436pt" height="225pt"
 viewBox="0.00 0.00 436.24 225.00" xmlns="http://www.w3.org/2000/svg" xmlns:xlink="http://www.w3.org/1999/xlink">
<g id="graph0" class="graph" transform="scale(1 1) rotate(0) translate(4 221)">
<title>SaveGrd2VTK</title>
<polygon fill="#ffffff" stroke="transparent" points="-4,4 -4,-221 432.2354,-221 432.2354,4 -4,4"/>
<!-- Node1 -->
<g id="node1" class="node">
<title>Node1</title>
<polygon fill="#bfbfbf" stroke="#000000" points="0,-103.5 0,-121.5 80.4727,-121.5 80.4727,-103.5 0,-103.5"/>
<text text-anchor="middle" x="40.2363" y="-109.5" font-family="Helvetica,sans-Serif" font-size="10.00" fill="#000000">SaveGrd2VTK</text>
</g>
<!-- Node2 -->
<g id="node2" class="node">
<title>Node2</title>
<g id="a_node2"><a xlink:href="Conti2D_8h_a8affb7fb2246ce1c959f681fc7baaa05.html#a8affb7fb2246ce1c959f681fc7baaa05" target="_top" xlink:title="Calculate downward continuation from plane to plane using Landweber iteration method. ">
<polygon fill="#ffffff" stroke="#000000" points="116.4727,-198.5 116.4727,-216.5 248.0928,-216.5 248.0928,-198.5 116.4727,-198.5"/>
<text text-anchor="middle" x="182.2827" y="-204.5" font-family="Helvetica,sans-Serif" font-size="10.00" fill="#000000">DWC_p2p_LandweberIter</text>
</a>
</g>
</g>
<!-- Node1&#45;&gt;Node2 -->
<g id="edge1" class="edge">
<title>Node1&#45;&gt;Node2</title>
<path fill="none" stroke="#191970" d="M54.7765,-129.5044C69.0916,-145.3394 92.271,-168.6694 116.4727,-183.5 126.6346,-189.7272 138.6605,-194.7038 149.634,-198.4747"/>
<polygon fill="#191970" stroke="#191970" points="57.0257,-126.7633 47.7854,-121.5799 51.7764,-131.3943 57.0257,-126.7633"/>
</g>
<!-- Node3 -->
<g id="node3" class="node">
<title>Node3</title>
<g id="a_node3"><a xlink:href="Conti2D_8h_a07c876abe68bb0cbc0d3b412166f5e6a.html#a07c876abe68bb0cbc0d3b412166f5e6a" target="_top" xlink:title="Downward continuation: uneven surface to plane(space domain) ">
<polygon fill="#ffffff" stroke="#000000" points="288.5435,-160.5 288.5435,-178.5 350.1099,-178.5 350.1099,-160.5 288.5435,-160.5"/>
<text text-anchor="middle" x="319.3267" y="-166.5" font-family="Helvetica,sans-Serif" font-size="10.00" fill="#000000">DWC_s2p</text>
</a>
</g>
</g>
<!-- Node1&#45;&gt;Node3 -->
<g id="edge2" class="edge">
<title>Node1&#45;&gt;Node3</title>
<path fill="none" stroke="#191970" d="M63.3321,-126.8269C77.9975,-135.1985 97.6907,-145.1419 116.4727,-150.5 175.6584,-167.3845 248.102,-170.0942 288.4387,-170.0977"/>
<polygon fill="#191970" stroke="#191970" points="64.8743,-123.6734 54.481,-121.6166 61.3232,-129.7058 64.8743,-123.6734"/>
</g>
<!-- Node5 -->
<g id="node5" class="node">
<title>Node5</title>
<g id="a_node5"><a xlink:href="Conti2D_8h_a30671331e25e6cfa739e77aec57b7f18.html#a30671331e25e6cfa739e77aec57b7f18" target="_top" xlink:title="Calculate downward continuation of potential field from surface to a plane. ">
<polygon fill="#ffffff" stroke="#000000" points="116.7534,-122.5 116.7534,-140.5 247.812,-140.5 247.812,-122.5 116.7534,-122.5"/>
<text text-anchor="middle" x="182.2827" y="-128.5" font-family="Helvetica,sans-Serif" font-size="10.00" fill="#000000">DWC_s2p_LandweberIter</text>
</a>
</g>
</g>
<!-- Node1&#45;&gt;Node5 -->
<g id="edge4" class="edge">
<title>Node1&#45;&gt;Node5</title>
<path fill="none" stroke="#191970" d="M90.5881,-119.235C99.0106,-120.3616 107.8578,-121.545 116.5967,-122.7139"/>
<polygon fill="#191970" stroke="#191970" points="90.9369,-115.7506 80.5612,-117.8938 90.0088,-122.6888 90.9369,-115.7506"/>
</g>
<!-- Node7 -->
<g id="node7" class="node">
<title>Node7</title>
<g id="a_node7"><a xlink:href="Conti2D_8h_a05f1b014599cdda496e9bf781d4737d4.html#a05f1b014599cdda496e9bf781d4737d4" target="_top" xlink:title="Upward continuation: plane to plane(space domain) ">
<polygon fill="#ffffff" stroke="#000000" points="288.2627,-86.5 288.2627,-104.5 350.3906,-104.5 350.3906,-86.5 288.2627,-86.5"/>
<text text-anchor="middle" x="319.3267" y="-92.5" font-family="Helvetica,sans-Serif" font-size="10.00" fill="#000000">UWC_p2p</text>
</a>
</g>
</g>
<!-- Node1&#45;&gt;Node7 -->
<g id="edge8" class="edge">
<title>Node1&#45;&gt;Node7</title>
<path fill="none" stroke="#191970" d="M90.8304,-109.4182C148.2958,-105.9179 240.2725,-100.3154 288.1217,-97.4008"/>
<polygon fill="#191970" stroke="#191970" points="90.2891,-105.9446 80.5204,-110.0462 90.7147,-112.9316 90.2891,-105.9446"/>
</g>
<!-- Node8 -->
<g id="node8" class="node">
<title>Node8</title>
<g id="a_node8"><a xlink:href="Conti2D_8h_af82757cb7e0f4f398e774b4e89b9ea72.html#af82757cb7e0f4f398e774b4e89b9ea72" target="_top" xlink:title="Upward continuation: plane to plane(frequency domain) ">
<polygon fill="#ffffff" stroke="#000000" points="284.0928,-31.5 284.0928,-49.5 354.5605,-49.5 354.5605,-31.5 284.0928,-31.5"/>
<text text-anchor="middle" x="319.3267" y="-37.5" font-family="Helvetica,sans-Serif" font-size="10.00" fill="#000000">UWC_p2p_f</text>
</a>
</g>
</g>
<!-- Node1&#45;&gt;Node8 -->
<g id="edge10" class="edge">
<title>Node1&#45;&gt;Node8</title>
<path fill="none" stroke="#191970" d="M85.1956,-100.9014C140.6338,-86.5994 233.6998,-62.5901 284.1862,-49.5656"/>
<polygon fill="#191970" stroke="#191970" points="84.1094,-97.5669 75.3007,-103.4541 85.858,-104.345 84.1094,-97.5669"/>
</g>
<!-- Node9 -->
<g id="node9" class="node">
<title>Node9</title>
<g id="a_node9"><a xlink:href="Conti2D_8h_a9fcb7711c4e230ba259de4ed9be39ccd.html#a9fcb7711c4e230ba259de4ed9be39ccd" target="_top" xlink:title="Upward continuation: plane to surface(space domain) ">
<polygon fill="#ffffff" stroke="#000000" points="151.4995,-.5 151.4995,-18.5 213.0659,-18.5 213.0659,-.5 151.4995,-.5"/>
<text text-anchor="middle" x="182.2827" y="-6.5" font-family="Helvetica,sans-Serif" font-size="10.00" fill="#000000">UWC_p2s</text>
</a>
</g>
</g>
<!-- Node1&#45;&gt;Node9 -->
<g id="edge13" class="edge">
<title>Node1&#45;&gt;Node9</title>
<path fill="none" stroke="#191970" d="M53.1052,-95.1089C66.9918,-77.4269 90.6174,-50.3086 116.4727,-33.5 127.0767,-26.6063 139.9262,-21.3528 151.4466,-17.5445"/>
<polygon fill="#191970" stroke="#191970" points="50.0661,-93.3212 46.771,-103.3907 55.6262,-97.5739 50.0661,-93.3212"/>
</g>
<!-- Node4 -->
<g id="node4" class="node">
<title>Node4</title>
<g id="a_node4"><a xlink:href="main_8cpp_a0ddf1224851353fc92bfbff6f499fa97.html#a0ddf1224851353fc92bfbff6f499fa97" target="_top" xlink:title="main">
<polygon fill="#ffffff" stroke="#000000" points="390.5605,-86.5 390.5605,-104.5 428.2354,-104.5 428.2354,-86.5 390.5605,-86.5"/>
<text text-anchor="middle" x="409.3979" y="-92.5" font-family="Helvetica,sans-Serif" font-size="10.00" fill="#000000">main</text>
</a>
</g>
</g>
<!-- Node3&#45;&gt;Node4 -->
<g id="edge3" class="edge">
<title>Node3&#45;&gt;Node4</title>
<path fill="none" stroke="#191970" d="M348.7413,-155.4125C350.7568,-154.1633 352.7171,-152.8557 354.5605,-151.5 373.6347,-137.4727 392.1134,-116.6432 401.9944,-104.7384"/>
<polygon fill="#191970" stroke="#191970" points="346.7371,-152.5243 339.7426,-160.4822 350.173,-158.6231 346.7371,-152.5243"/>
</g>
<!-- Node5&#45;&gt;Node3 -->
<g id="edge7" class="edge">
<title>Node5&#45;&gt;Node3</title>
<path fill="none" stroke="#191970" d="M224.5593,-143.2226C245.2168,-148.9506 269.6233,-155.7181 288.4939,-160.9506"/>
<polygon fill="#191970" stroke="#191970" points="225.3319,-139.8048 214.7602,-140.5055 223.4614,-146.5503 225.3319,-139.8048"/>
</g>
<!-- Node6 -->
<g id="node6" class="node">
<title>Node6</title>
<g id="a_node6"><a xlink:href="Conti2D_8h_ac80c719a8192b6133df6ae172662e51a.html#ac80c719a8192b6133df6ae172662e51a" target="_top" xlink:title="Downward continuation: plane to plane(space domain) ">
<polygon fill="#ffffff" stroke="#000000" points="288.2627,-123.5 288.2627,-141.5 350.3906,-141.5 350.3906,-123.5 288.2627,-123.5"/>
<text text-anchor="middle" x="319.3267" y="-129.5" font-family="Helvetica,sans-Serif" font-size="10.00" fill="#000000">DWC_p2p</text>
</a>
</g>
</g>
<!-- Node5&#45;&gt;Node6 -->
<g id="edge5" class="edge">
<title>Node5&#45;&gt;Node6</title>
<path fill="none" stroke="#191970" d="M258.1709,-132.0538C268.7438,-132.1309 279.08,-132.2063 288.157,-132.2726"/>
<polygon fill="#191970" stroke="#191970" points="258.0202,-128.5527 247.9949,-131.9795 257.9691,-135.5525 258.0202,-128.5527"/>
</g>
<!-- Node6&#45;&gt;Node4 -->
<g id="edge6" class="edge">
<title>Node6&#45;&gt;Node4</title>
<path fill="none" stroke="#191970" d="M351.2176,-119.3997C364.3294,-114.0135 379.0704,-107.9581 390.4337,-103.2902"/>
<polygon fill="#191970" stroke="#191970" points="349.5115,-116.3166 341.5915,-123.3539 352.1714,-122.7916 349.5115,-116.3166"/>
</g>
<!-- Node7&#45;&gt;Node4 -->
<g id="edge9" class="edge">
<title>Node7&#45;&gt;Node4</title>
<path fill="none" stroke="#191970" d="M360.8112,-95.5C371.2136,-95.5 381.8702,-95.5 390.5426,-95.5"/>
<polygon fill="#191970" stroke="#191970" points="360.5765,-92.0001 350.5764,-95.5 360.5764,-99.0001 360.5765,-92.0001"/>
</g>
<!-- Node8&#45;&gt;Node4 -->
<g id="edge11" class="edge">
<title>Node8&#45;&gt;Node4</title>
<path fill="none" stroke="#191970" d="M343.1496,-55.047C359.4456,-64.9977 380.5441,-77.8811 394.5024,-86.4044"/>
<polygon fill="#191970" stroke="#191970" points="344.5588,-51.8065 334.2001,-49.5821 340.9107,-57.7808 344.5588,-51.8065"/>
</g>
<!-- Node8&#45;&gt;Node8 -->
<g id="edge12" class="edge">
<title>Node8&#45;&gt;Node8</title>
<path fill="none" stroke="#191970" d="M302.5939,-59.2336C303.5318,-64.2195 309.1094,-68 319.3267,-68 335.6743,-68 340.1444,-58.322 332.7368,-49.5134"/>
<polygon fill="#191970" stroke="#191970" points="305.9938,-60.108 305.9165,-49.5134 299.37,-57.8438 305.9938,-60.108"/>
</g>
<!-- Node9&#45;&gt;Node4 -->
<g id="edge14" class="edge">
<title>Node9&#45;&gt;Node4</title>
<path fill="none" stroke="#191970" d="M223.7105,-3.0843C260.3995,.525 314.2375,.5965 354.5605,-21.5 381.3442,-36.1771 398.6872,-70.1457 405.7675,-86.4492"/>
<polygon fill="#191970" stroke="#191970" points="222.9259,.3499 213.3763,-4.2386 223.7031,-6.6068 222.9259,.3499"/>
</g>
</g>
</svg>
